<?xml version="1.0" encoding="utf-8"?>
<!-- Generator: Adobe Illustrator 18.1.0, SVG Export Plug-In . SVG Version: 6.00 Build 0)  -->
<!DOCTYPE svg PUBLIC "-//W3C//DTD SVG 1.1//EN" "http://www.w3.org/Graphics/SVG/1.1/DTD/svg11.dtd">
<svg version="1.1" id="_x32_" xmlns="http://www.w3.org/2000/svg" xmlns:xlink="http://www.w3.org/1999/xlink" x="0px" y="0px"
	 viewBox="0 0 1558.1 1159.9" enable-background="new 0 0 1558.1 1159.9" xml:space="preserve">
<g>
	<g>
		<path fill="#FFFFFF" d="M717.7,449.6c-0.3,0-0.7-0.1-1-0.3l-5.2-3c-0.8-0.4-1.2-1.3-1-2.2l1.3-5.9c0.2-1.1,1.3-1.8,2.4-1.5
			c1.1,0.2,1.8,1.3,1.5,2.4l-1,4.4l3.9,2.2c1,0.5,1.3,1.8,0.8,2.7C719.1,449.3,718.4,449.6,717.7,449.6z"/>
	</g>
	<g>
		<path fill="#FFFFFF" d="M716.2,429.5c-0.1,0-0.3,0-0.4,0c-1.1-0.2-1.8-1.3-1.5-2.4l2.4-11.3c0.2-1.1,1.3-1.8,2.4-1.5
			c1.1,0.2,1.8,1.3,1.5,2.4l-2.4,11.3C717.9,428.9,717.1,429.5,716.2,429.5z M723.4,407.7c-0.3,0-0.6-0.1-0.8-0.2
			c-1-0.5-1.4-1.7-1-2.7l4.9-10.5c0.5-1,1.7-1.4,2.7-1c1,0.5,1.4,1.7,1,2.7l-4.9,10.5C724.9,407.3,724.2,407.7,723.4,407.7z
			 M733.2,386.7c-0.3,0-0.6-0.1-0.8-0.2c-1-0.5-1.4-1.7-1-2.7l4.9-10.5c0.5-1,1.7-1.4,2.7-1c1,0.5,1.4,1.7,1,2.7l-4.9,10.5
			C734.7,386.3,734,386.7,733.2,386.7z M743.6,366.1c-0.4,0-0.8-0.1-1.2-0.4c-0.9-0.7-1.1-1.9-0.4-2.8l6.8-9.3
			c0.7-0.9,1.9-1.1,2.8-0.4c0.9,0.7,1.1,1.9,0.4,2.8l-6.8,9.3C744.8,365.8,744.2,366.1,743.6,366.1z M757.3,347.4
			c-0.4,0-0.8-0.1-1.2-0.4c-0.9-0.7-1.1-1.9-0.4-2.8l6.8-9.3c0.7-0.9,1.9-1.1,2.8-0.4c0.9,0.7,1.1,1.9,0.4,2.8l-6.8,9.3
			C758.5,347.1,757.9,347.4,757.3,347.4z"/>
	</g>
	<g>
		<path fill="#FFFFFF" d="M770.9,328.7c-0.4,0-0.8-0.1-1.2-0.4c-0.9-0.7-1.1-1.9-0.4-2.8l3.5-4.8c0.6-0.8,1.6-1,2.4-0.6l5.5,2.5
			c1,0.5,1.5,1.6,1,2.6c-0.5,1-1.6,1.5-2.6,1l-4-1.8l-2.6,3.5C772.1,328.4,771.5,328.7,770.9,328.7z"/>
	</g>
	<g>
		<path fill="#FFFFFF" d="M977.9,427.8c-0.6,0-1.2-0.3-1.6-0.8l-4.7-6.5l-3-2.4c-0.9-0.7-1-2-0.3-2.8c0.7-0.9,2-1,2.8-0.3l3.2,2.6
			c0.1,0.1,0.3,0.2,0.4,0.4l4.9,6.7c0.6,0.9,0.5,2.1-0.4,2.8C978.7,427.7,978.3,427.8,977.9,427.8z M960.1,410.6
			c-0.4,0-0.9-0.1-1.3-0.4l-7.6-6.1l-2-0.9c-1-0.5-1.5-1.6-1-2.6c0.5-1,1.6-1.5,2.6-1l2.2,1c0.2,0.1,0.3,0.2,0.4,0.3l7.8,6.3
			c0.9,0.7,1,2,0.3,2.8C961.3,410.4,960.7,410.6,960.1,410.6z M938.8,398.2c-0.3,0-0.6-0.1-0.8-0.2l-11.3-5.1c-1-0.5-1.5-1.6-1-2.6
			c0.5-1,1.6-1.5,2.6-1l11.3,5.1c1,0.5,1.5,1.6,1,2.6C940.3,397.8,939.6,398.2,938.8,398.2z M916.1,387.9c-0.3,0-0.6-0.1-0.8-0.2
			l-11.3-5.1c-1-0.5-1.5-1.6-1-2.6c0.5-1,1.6-1.5,2.6-1l11.3,5.1c1,0.5,1.5,1.6,1,2.6C917.6,387.5,916.9,387.9,916.1,387.9z
			 M893.4,377.7c-0.3,0-0.6-0.1-0.8-0.2l-11.3-5.1c-1-0.5-1.5-1.6-1-2.6c0.5-1,1.6-1.5,2.6-1l11.3,5.1c1,0.5,1.5,1.6,1,2.6
			C894.9,377.2,894.2,377.7,893.4,377.7z M870.7,367.4c-0.3,0-0.6-0.1-0.8-0.2l-11.3-5.1c-1-0.5-1.5-1.6-1-2.6c0.5-1,1.6-1.5,2.6-1
			l11.3,5.1c1,0.5,1.5,1.6,1,2.6C872.2,367,871.5,367.4,870.7,367.4z M848,357.1c-0.3,0-0.6-0.1-0.8-0.2l-11.3-5.1
			c-1-0.5-1.5-1.6-1-2.6c0.5-1,1.6-1.5,2.6-1l11.3,5.1c1,0.5,1.5,1.6,1,2.6C849.5,356.7,848.8,357.1,848,357.1z M825.3,346.9
			c-0.3,0-0.6-0.1-0.8-0.2l-11.3-5.1c-1-0.5-1.5-1.6-1-2.6c0.5-1,1.6-1.5,2.6-1l11.3,5.1c1,0.5,1.5,1.6,1,2.6
			C826.8,346.4,826.1,346.9,825.3,346.9z M802.6,336.6c-0.3,0-0.6-0.1-0.8-0.2l-11.3-5.1c-1-0.5-1.5-1.6-1-2.6c0.5-1,1.6-1.5,2.6-1
			l11.3,5.1c1,0.5,1.5,1.6,1,2.6C804.1,336.2,803.4,336.6,802.6,336.6z"/>
	</g>
	<g>
		<path fill="#FFFFFF" d="M983.5,445.6c-0.7,0-1.4-0.4-1.8-1.1c-0.5-1-0.2-2.2,0.8-2.7l3.3-1.8l-2.2-3c-0.6-0.9-0.5-2.1,0.4-2.8
			c0.9-0.7,2.1-0.5,2.8,0.4l3.5,4.9c0.3,0.5,0.5,1.1,0.3,1.6c-0.1,0.6-0.5,1-1,1.3l-5.3,2.8C984.1,445.5,983.8,445.6,983.5,445.6z"
			/>
	</g>
	<g>
		<path fill="#FFFFFF" d="M938.7,469.7c-0.7,0-1.4-0.4-1.8-1.1c-0.5-1-0.2-2.2,0.8-2.7l11.2-6c1-0.5,2.2-0.2,2.7,0.8
			c0.5,1,0.2,2.2-0.8,2.7l-11.2,6C939.3,469.7,939,469.7,938.7,469.7z M961.1,457.7c-0.7,0-1.4-0.4-1.8-1.1c-0.5-1-0.2-2.2,0.8-2.7
			l11.2-6c1-0.5,2.2-0.2,2.7,0.8c0.5,1,0.2,2.2-0.8,2.7l-11.2,6C961.7,457.6,961.4,457.7,961.1,457.7z"/>
	</g>
	<g>
		<path fill="#FFFFFF" d="M926.5,482.8c-0.5,0-1-0.2-1.4-0.6l-4.3-4.2c-0.5-0.4-0.7-1.1-0.6-1.7s0.5-1.2,1-1.5l5.3-2.8
			c1-0.5,2.2-0.2,2.7,0.8c0.5,1,0.2,2.2-0.8,2.7l-2.9,1.6l2.3,2.3c0.8,0.8,0.8,2,0,2.8C927.5,482.6,927,482.8,926.5,482.8z"/>
	</g>
	<g>
		<path fill="#FFFFFF" d="M983.5,558.2c-0.9,0-1.8-0.7-2-1.6l-2.3-12c-0.2-1.1,0.5-2.1,1.6-2.3c1.1-0.2,2.1,0.5,2.3,1.6l2.3,12
			c0.2,1.1-0.5,2.1-1.6,2.3C983.7,558.2,983.6,558.2,983.5,558.2z M978.5,534.4c-0.5,0-1-0.2-1.4-0.6l-8.7-8.6c-0.8-0.8-0.8-2,0-2.8
			c0.8-0.8,2-0.8,2.8,0l8.7,8.6c0.8,0.8,0.8,2,0,2.8C979.6,534.2,979,534.4,978.5,534.4z M961.2,517.2c-0.5,0-1-0.2-1.4-0.6
			l-8.7-8.6c-0.8-0.8-0.8-2,0-2.8c0.8-0.8,2-0.8,2.8,0l8.7,8.6c0.8,0.8,0.8,2,0,2.8C962.2,517,961.7,517.2,961.2,517.2z M943.8,500
			c-0.5,0-1-0.2-1.4-0.6l-8.7-8.6c-0.8-0.8-0.8-2,0-2.8c0.8-0.8,2-0.8,2.8,0l8.7,8.6c0.8,0.8,0.8,2,0,2.8
			C944.9,499.8,944.3,500,943.8,500z"/>
	</g>
	<g>
		<path fill="#FFFFFF" d="M983.4,586.8c-0.7,0-1.3-0.3-1.7-0.9l-3.2-5.1c-0.5-0.8-0.4-1.9,0.4-2.6l5.8-4.9l-0.9-4.7
			c-0.2-1.1,0.5-2.1,1.6-2.3c1.1-0.2,2.1,0.5,2.3,1.6l1.1,5.9c0.1,0.7-0.1,1.4-0.7,1.9l-5.4,4.6l2.3,3.6c0.6,0.9,0.3,2.2-0.6,2.8
			C984.2,586.7,983.8,586.8,983.4,586.8z"/>
	</g>
	<g>
		<path fill="#FFFFFF" d="M1052.4,663.5c-0.5,0-0.9-0.2-1.3-0.5l-9.7-8.7c-0.8-0.7-0.9-2-0.2-2.8c0.7-0.8,2-0.9,2.8-0.2l9.7,8.7
			c0.8,0.7,0.9,2,0.2,2.8C1053.5,663.3,1053,663.5,1052.4,663.5z M1033,646.2c-0.5,0-0.9-0.2-1.3-0.5l-9.7-8.7
			c-0.8-0.7-0.9-2-0.2-2.8c0.7-0.8,2-0.9,2.8-0.2l9.7,8.7c0.8,0.7,0.9,2,0.2,2.8C1034.1,645.9,1033.6,646.2,1033,646.2z
			 M1013.6,628.8c-0.5,0-0.9-0.2-1.3-0.5l-8.6-7.6c-0.1-0.1-0.3-0.3-0.4-0.4l-0.8-1.3c-0.6-0.9-0.3-2.2,0.6-2.8
			c0.9-0.6,2.2-0.3,2.8,0.6l0.7,1.1l8.4,7.4c0.8,0.7,0.9,2,0.2,2.8C1014.7,628.6,1014.1,628.8,1013.6,628.8z M997.3,608.9
			c-0.7,0-1.3-0.3-1.7-0.9l-6.9-11c-0.6-0.9-0.3-2.2,0.6-2.8c0.9-0.6,2.2-0.3,2.8,0.6l6.9,11c0.6,0.9,0.3,2.2-0.6,2.8
			C998,608.8,997.6,608.9,997.3,608.9z"/>
	</g>
	<g>
		<path fill="#FFFFFF" d="M1066.6,676.1c-0.5,0-1-0.2-1.3-0.5l-4.5-4c-0.8-0.7-0.9-2-0.2-2.8c0.7-0.8,2-0.9,2.8-0.2l3.2,2.8l3.3-2.7
			c0.9-0.7,2.1-0.6,2.8,0.3s0.6,2.1-0.3,2.8l-4.6,3.8C1067.5,676,1067.1,676.1,1066.6,676.1z"/>
	</g>
	<g>
		<path fill="#FFFFFF" d="M1080.4,664.8c-0.6,0-1.1-0.2-1.5-0.7c-0.7-0.9-0.6-2.1,0.3-2.8l9.1-7.5c0.9-0.7,2.1-0.6,2.8,0.3
			c0.7,0.9,0.6,2.1-0.3,2.8l-9.1,7.5C1081.3,664.6,1080.8,664.8,1080.4,664.8z M1098.6,649.8c-0.6,0-1.1-0.2-1.5-0.7
			c-0.7-0.9-0.6-2.1,0.3-2.8l9.1-7.5c0.9-0.7,2.1-0.6,2.8,0.3c0.7,0.9,0.6,2.1-0.3,2.8l-9.1,7.5
			C1099.5,649.6,1099,649.8,1098.6,649.8z M1117.3,635.6c-0.7,0-1.4-0.4-1.8-1c-0.5-1-0.2-2.2,0.8-2.7l10.4-5.6
			c1-0.5,2.2-0.2,2.7,0.8c0.5,1,0.2,2.2-0.8,2.7l-10.4,5.6C1118,635.5,1117.7,635.6,1117.3,635.6z M1138.1,624.3
			c-0.7,0-1.4-0.4-1.8-1c-0.5-1-0.2-2.2,0.8-2.7l10.4-5.6c1-0.5,2.2-0.2,2.7,0.8c0.5,1,0.2,2.2-0.8,2.7l-10.4,5.6
			C1138.7,624.3,1138.4,624.3,1138.1,624.3z M1158.8,613.1c-0.7,0-1.4-0.4-1.8-1c-0.5-1-0.2-2.2,0.8-2.7l10.4-5.6
			c1-0.5,2.2-0.2,2.7,0.8c0.5,1,0.2,2.2-0.8,2.7l-10.4,5.6C1159.5,613,1159.1,613.1,1158.8,613.1z M1179.6,601.8
			c-0.7,0-1.4-0.4-1.8-1c-0.5-1-0.2-2.2,0.8-2.7l10.4-5.6c1-0.5,2.2-0.2,2.7,0.8c0.5,1,0.2,2.2-0.8,2.7l-10.4,5.6
			C1180.2,601.7,1179.9,601.8,1179.6,601.8z M1200.3,590.5c-0.7,0-1.4-0.4-1.8-1c-0.5-1-0.2-2.2,0.8-2.7l10-5.5
			c0.9-0.7,2.1-0.5,2.8,0.3c0.7,0.9,0.5,2.1-0.3,2.8l-0.4,0.3c-0.1,0.1-0.2,0.1-0.3,0.2l-10,5.4
			C1200.9,590.4,1200.6,590.5,1200.3,590.5z M1219.9,577.5c-0.6,0-1.2-0.3-1.6-0.8c-0.7-0.9-0.5-2.1,0.3-2.8l9.3-7.3
			c0.9-0.7,2.1-0.5,2.8,0.3c0.7,0.9,0.5,2.1-0.3,2.8l-9.3,7.3C1220.8,577.4,1220.3,577.5,1219.9,577.5z M1238.4,562.9
			c-0.6,0-1.2-0.3-1.6-0.8c-0.7-0.9-0.5-2.1,0.3-2.8l9.3-7.3c0.9-0.7,2.1-0.5,2.8,0.3c0.7,0.9,0.5,2.1-0.3,2.8l-9.3,7.3
			C1239.3,562.7,1238.9,562.9,1238.4,562.9z M1257,548.3c-0.6,0-1.2-0.3-1.6-0.8c-0.7-0.9-0.5-2.1,0.3-2.8l9.3-7.3
			c0.9-0.7,2.1-0.5,2.8,0.3c0.7,0.9,0.5,2.1-0.3,2.8l-9.3,7.3C1257.8,548.1,1257.4,548.3,1257,548.3z M1275.5,533.7
			c-0.6,0-1.2-0.3-1.6-0.8c-0.7-0.9-0.5-2.1,0.3-2.8l9.3-7.3c0.9-0.7,2.1-0.5,2.8,0.3c0.7,0.9,0.5,2.1-0.3,2.8l-9.3,7.3
			C1276.4,533.5,1275.9,533.7,1275.5,533.7z M1294,519c-0.6,0-1.2-0.3-1.6-0.8c-0.7-0.9-0.5-2.1,0.3-2.8l9.3-7.3
			c0.9-0.7,2.1-0.5,2.8,0.3c0.7,0.9,0.5,2.1-0.3,2.8l-9.3,7.3C1294.9,518.9,1294.5,519,1294,519z M1312.6,504.4
			c-0.6,0-1.2-0.3-1.6-0.8c-0.7-0.9-0.5-2.1,0.3-2.8l9.3-7.3c0.9-0.7,2.1-0.5,2.8,0.3c0.7,0.9,0.5,2.1-0.3,2.8l-9.3,7.3
			C1313.4,504.3,1313,504.4,1312.6,504.4z M1331.1,489.8c-0.6,0-1.2-0.3-1.6-0.8c-0.7-0.9-0.5-2.1,0.3-2.8l9.3-7.3
			c0.9-0.7,2.1-0.5,2.8,0.3c0.7,0.9,0.5,2.1-0.3,2.8l-9.3,7.3C1332,489.7,1331.5,489.8,1331.1,489.8z M1349.6,475.2
			c-0.6,0-1.2-0.3-1.6-0.8c-0.7-0.9-0.5-2.1,0.3-2.8l9.3-7.3c0.9-0.7,2.1-0.5,2.8,0.3c0.7,0.9,0.5,2.1-0.3,2.8l-9.3,7.3
			C1350.5,475.1,1350.1,475.2,1349.6,475.2z M1368.2,460.6c-0.6,0-1.2-0.3-1.6-0.8c-0.7-0.9-0.5-2.1,0.3-2.8l9.3-7.3
			c0.9-0.7,2.1-0.5,2.8,0.3c0.7,0.9,0.5,2.1-0.3,2.8l-9.3,7.3C1369,460.4,1368.6,460.6,1368.2,460.6z M1386.9,446.4
			c-0.9,0-1.7-0.6-1.9-1.5c-0.3-1.1,0.4-2.2,1.5-2.4l11.5-2.7c1.1-0.3,2.2,0.4,2.4,1.5s-0.4,2.2-1.5,2.4l-11.5,2.7
			C1387.2,446.4,1387.1,446.4,1386.9,446.4z M1409.9,440.9c-0.9,0-1.7-0.6-1.9-1.5c-0.3-1.1,0.4-2.2,1.5-2.4l11.5-2.7
			c1.1-0.3,2.2,0.4,2.4,1.5s-0.4,2.2-1.5,2.4l-11.5,2.7C1410.2,440.9,1410,440.9,1409.9,440.9z M1432.8,435.4
			c-0.9,0-1.7-0.6-1.9-1.5c-0.3-1.1,0.4-2.2,1.5-2.4l11.5-2.7c1.1-0.3,2.2,0.4,2.4,1.5s-0.4,2.2-1.5,2.4l-11.5,2.7
			C1433.1,435.4,1433,435.4,1432.8,435.4z M1455.8,429.9c-0.9,0-1.7-0.6-1.9-1.5c-0.3-1.1,0.4-2.2,1.5-2.4l11.5-2.7
			c1.1-0.3,2.2,0.4,2.4,1.5s-0.4,2.2-1.5,2.4l-11.5,2.7C1456.1,429.9,1455.9,429.9,1455.8,429.9z M1478.7,424.4
			c-0.9,0-1.7-0.6-1.9-1.5c-0.3-1.1,0.4-2.2,1.5-2.4l11.5-2.7c1.1-0.3,2.2,0.4,2.4,1.5s-0.4,2.2-1.5,2.4l-11.5,2.7
			C1479,424.4,1478.9,424.4,1478.7,424.4z M1501.7,418.9c-0.9,0-1.7-0.6-1.9-1.5c-0.3-1.1,0.4-2.2,1.5-2.4l11.5-2.7
			c1.1-0.3,2.2,0.4,2.4,1.5s-0.4,2.2-1.5,2.4l-11.5,2.7C1502,418.9,1501.8,418.9,1501.7,418.9z M1524.3,412.7c-0.7,0-1.4-0.4-1.7-1
			c-0.5-1-0.2-2.2,0.8-2.7l10.3-5.8c1-0.5,2.2-0.2,2.7,0.8s0.2,2.2-0.8,2.7l-10.3,5.8C1525,412.6,1524.7,412.7,1524.3,412.7z"/>
	</g>
	<g>
		<path fill="#FFFFFF" d="M1544.9,401.1c-0.7,0-1.4-0.4-1.7-1c-0.5-1-0.2-2.2,0.8-2.7l4.3-2.4l0.4-4.9c0.1-1.1,1-1.9,2.2-1.8
			c1.1,0.1,1.9,1.1,1.8,2.2l-0.5,6c-0.1,0.7-0.4,1.3-1,1.6l-5.2,2.9C1545.6,401,1545.2,401.1,1544.9,401.1z"/>
	</g>
	<g>
		<path fill="#FFFFFF" d="M1551.6,379.7c-0.1,0-0.1,0-0.2,0c-1.1-0.1-1.9-1.1-1.8-2.2l1-12.5c0.1-1.1,1.1-1.9,2.2-1.8
			c1.1,0.1,1.9,1.1,1.8,2.2l-1,12.5C1553.5,378.9,1552.6,379.7,1551.6,379.7z M1553.6,354.8c-0.1,0-0.1,0-0.2,0
			c-1.1-0.1-1.9-1.1-1.8-2.2l1-12.5c0.1-1.1,1-1.9,2.2-1.8c1.1,0.1,1.9,1.1,1.8,2.2l-1,12.5C1555.5,354,1554.6,354.8,1553.6,354.8z"
			/>
	</g>
	<g>
		<path fill="#FFFFFF" d="M1555.6,329.9c-0.1,0-0.1,0-0.2,0c-1.1-0.1-1.9-1.1-1.8-2.2l0.4-4.4l-4.2-1.3c-1.1-0.3-1.6-1.5-1.3-2.5
			c0.3-1.1,1.5-1.6,2.5-1.3l5.7,1.8c0.9,0.3,1.5,1.1,1.4,2.1l-0.5,6C1557.5,329.1,1556.6,329.9,1555.6,329.9z"/>
	</g>
	<g>
		<path fill="#FFFFFF" d="M1538.9,318.4c-0.2,0-0.4,0-0.6-0.1l-11.5-3.6c-1.1-0.3-1.6-1.5-1.3-2.5c0.3-1.1,1.5-1.6,2.5-1.3l11.5,3.6
			c1.1,0.3,1.6,1.5,1.3,2.5C1540.5,317.9,1539.7,318.4,1538.9,318.4z M1516,311.1c-0.2,0-0.4,0-0.6-0.1l-11.5-3.6
			c-1.1-0.3-1.6-1.5-1.3-2.5c0.3-1.1,1.5-1.6,2.5-1.3l11.5,3.6c1.1,0.3,1.6,1.5,1.3,2.5C1517.6,310.6,1516.8,311.1,1516,311.1z
			 M1493,303.8c-0.2,0-0.4,0-0.6-0.1l-11.5-3.6c-1.1-0.3-1.6-1.5-1.3-2.5c0.3-1.1,1.5-1.6,2.5-1.3l11.5,3.6c1.1,0.3,1.6,1.5,1.3,2.5
			C1494.7,303.3,1493.9,303.8,1493,303.8z M1470.1,296.5c-0.2,0-0.4,0-0.6-0.1l-11.5-3.6c-1.1-0.3-1.6-1.5-1.3-2.5
			c0.3-1.1,1.5-1.6,2.5-1.3l11.5,3.6c1.1,0.3,1.6,1.5,1.3,2.5C1471.8,296,1471,296.5,1470.1,296.5z M1447.2,289.3
			c-0.2,0-0.4,0-0.6-0.1l-11.5-3.6c-1.1-0.3-1.6-1.5-1.3-2.5c0.3-1.1,1.5-1.6,2.5-1.3l11.5,3.6c1.1,0.3,1.6,1.5,1.3,2.5
			C1448.8,288.7,1448.1,289.3,1447.2,289.3z M1424.3,282c-0.2,0-0.4,0-0.5-0.1l-11.6-3.3c-1.1-0.3-1.7-1.4-1.4-2.5s1.4-1.7,2.5-1.4
			l11.6,3.3c1.1,0.3,1.7,1.4,1.4,2.5C1426,281.4,1425.2,282,1424.3,282z M1401.2,275.4c-0.2,0-0.4,0-0.5-0.1L1389,272
			c-1.1-0.3-1.7-1.4-1.4-2.5s1.4-1.7,2.5-1.4l11.6,3.3c1.1,0.3,1.7,1.4,1.4,2.5C1402.8,274.8,1402,275.4,1401.2,275.4z M1378,268.8
			c-0.2,0-0.4,0-0.5-0.1l-11.6-3.3c-1.1-0.3-1.7-1.4-1.4-2.5s1.4-1.7,2.5-1.4l11.6,3.3c1.1,0.3,1.7,1.4,1.4,2.5
			C1379.7,268.3,1378.9,268.8,1378,268.8z M1355,262c-0.4,0-0.8-0.1-1.1-0.4l-9.8-6.9c-0.9-0.6-1.1-1.9-0.5-2.8
			c0.6-0.9,1.9-1.1,2.8-0.5l9.8,6.9c0.9,0.6,1.1,1.9,0.5,2.8C1356.3,261.7,1355.6,262,1355,262z M1335.3,248.2
			c-0.4,0-0.8-0.1-1.1-0.4l-9.8-6.9c-0.9-0.6-1.1-1.9-0.5-2.8c0.6-0.9,1.9-1.1,2.8-0.5l9.8,6.9c0.9,0.6,1.1,1.9,0.5,2.8
			C1336.6,247.9,1336,248.2,1335.3,248.2z M1315.6,234.4c-0.4,0-0.8-0.1-1.1-0.4l-9.8-6.9c-0.9-0.6-1.1-1.9-0.5-2.8s1.9-1.1,2.8-0.5
			l9.8,6.9c0.9,0.6,1.1,1.9,0.5,2.8C1316.9,234.1,1316.3,234.4,1315.6,234.4z M1295.9,220.6c-0.4,0-0.8-0.1-1.1-0.4l-9.8-6.9
			c-0.9-0.6-1.1-1.9-0.5-2.8c0.6-0.9,1.9-1.1,2.8-0.5l9.8,6.9c0.9,0.6,1.1,1.9,0.5,2.8C1297.2,220.3,1296.6,220.6,1295.9,220.6z
			 M1276.2,206.8c-0.4,0-0.8-0.1-1.1-0.4l-9.8-6.9c-0.9-0.6-1.1-1.9-0.5-2.8c0.6-0.9,1.9-1.1,2.8-0.5l9.8,6.9
			c0.9,0.6,1.1,1.9,0.5,2.8C1277.5,206.5,1276.9,206.8,1276.2,206.8z M1256.5,193c-0.4,0-0.8-0.1-1.1-0.4l-9.8-6.9
			c-0.9-0.6-1.1-1.9-0.5-2.8c0.6-0.9,1.9-1.1,2.8-0.5l9.8,6.9c0.9,0.6,1.1,1.9,0.5,2.8C1257.8,192.7,1257.2,193,1256.5,193z
			 M1236.8,179.2c-0.4,0-0.8-0.1-1.1-0.4l-9.8-6.9c-0.9-0.6-1.1-1.9-0.5-2.8c0.6-0.9,1.9-1.1,2.8-0.5l9.8,6.9
			c0.9,0.6,1.1,1.9,0.5,2.8C1238.1,178.9,1237.5,179.2,1236.8,179.2z M1217.1,165.4c-0.4,0-0.8-0.1-1.1-0.4l-9.8-6.9
			c-0.9-0.6-1.1-1.9-0.5-2.8c0.6-0.9,1.9-1.1,2.8-0.5l9.8,6.9c0.9,0.6,1.1,1.9,0.5,2.8C1218.4,165.1,1217.8,165.4,1217.1,165.4z
			 M1197.5,151.6c-0.4,0-0.8-0.1-1.1-0.4l-9.8-6.9c-0.9-0.6-1.1-1.9-0.5-2.8c0.6-0.9,1.9-1.1,2.8-0.5l9.8,6.9
			c0.9,0.6,1.1,1.9,0.5,2.8C1198.7,151.3,1198.1,151.6,1197.5,151.6z M1177.8,137.8c-0.4,0-0.8-0.1-1.1-0.4l-9.8-6.9
			c-0.9-0.6-1.1-1.9-0.5-2.8c0.6-0.9,1.9-1.1,2.8-0.5l9.8,6.9c0.9,0.6,1.1,1.9,0.5,2.8C1179,137.5,1178.4,137.8,1177.8,137.8z
			 M1158.1,124c-0.4,0-0.8-0.1-1.1-0.4l-5.1-3.6c-0.1,0-0.1-0.1-0.2-0.1l-4.4-3.8c-0.8-0.7-0.9-2-0.2-2.8s2-0.9,2.8-0.2l4.3,3.8
			l5,3.5c0.9,0.6,1.1,1.9,0.5,2.8C1159.3,123.7,1158.7,124,1158.1,124z M1139.6,108.6c-0.5,0-0.9-0.2-1.3-0.5l-9-7.9
			c-0.8-0.7-0.9-2-0.2-2.8c0.7-0.8,2-0.9,2.8-0.2l9,7.9c0.8,0.7,0.9,2,0.2,2.8C1140.7,108.4,1140.1,108.6,1139.6,108.6z
			 M1121.5,92.7c-0.5,0-0.9-0.2-1.3-0.5l-9-7.9c-0.8-0.7-0.9-2-0.2-2.8s2-0.9,2.8-0.2l9,7.9c0.8,0.7,0.9,2,0.2,2.8
			C1122.6,92.5,1122.1,92.7,1121.5,92.7z M1103.5,76.8c-0.5,0-0.9-0.2-1.3-0.5l-9-7.9c-0.8-0.7-0.9-2-0.2-2.8c0.7-0.8,2-0.9,2.8-0.2
			l9,7.9c0.8,0.7,0.9,2,0.2,2.8C1104.6,76.6,1104,76.8,1103.5,76.8z"/>
	</g>
	<g>
		<path fill="#FFFFFF" d="M1085.4,60.9c-0.5,0-0.9-0.2-1.3-0.5l-4.5-4c-0.5-0.4-0.8-1.1-0.7-1.8s0.5-1.2,1.1-1.5l5.4-2.5
			c1-0.5,2.2,0,2.7,1c0.5,1,0,2.2-1,2.7l-2.7,1.2l2.2,1.9c0.8,0.7,0.9,2,0.2,2.8C1086.5,60.7,1086,60.9,1085.4,60.9z"/>
	</g>
	<g>
		<path fill="#FFFFFF" d="M1093.7,51c-0.8,0-1.5-0.4-1.8-1.2c-0.5-1,0-2.2,1-2.7l7.3-3.4c1-0.5,2.2,0,2.7,1c0.5,1,0,2.2-1,2.7
			l-7.3,3.4C1094.3,51,1094,51,1093.7,51z"/>
	</g>
	<g>
		<path fill="#FFFFFF" d="M1108.4,44.2c-0.8,0-1.5-0.4-1.8-1.2c-0.5-1,0-2.2,1-2.7l2.1-1l-2-1.2c-0.9-0.6-1.2-1.8-0.6-2.8
			c0.6-0.9,1.8-1.2,2.8-0.6l5.1,3.2c0.6,0.4,1,1.1,0.9,1.8s-0.5,1.4-1.2,1.7l-5.4,2.5C1108.9,44.2,1108.7,44.2,1108.4,44.2z"/>
	</g>
	<g>
		<path fill="#FFFFFF" d="M1097.9,31.8c-0.4,0-0.7-0.1-1.1-0.3l-10.8-6.8c-0.9-0.6-1.2-1.8-0.6-2.8c0.6-0.9,1.8-1.2,2.8-0.6
			l10.8,6.8c0.9,0.6,1.2,1.8,0.6,2.8C1099.2,31.4,1098.6,31.8,1097.9,31.8z M1076.3,18.3c-0.4,0-0.7-0.1-1.1-0.3l-10.8-6.8
			c-0.9-0.6-1.2-1.8-0.6-2.8c0.6-0.9,1.8-1.2,2.8-0.6l10.8,6.8c0.9,0.6,1.2,1.8,0.6,2.8C1077.6,17.9,1076.9,18.3,1076.3,18.3z
			 M1052.8,10.3c0,0-0.1,0-0.1,0L1040,9.6c-1.1-0.1-1.9-1-1.9-2.1c0.1-1.1,1-2,2.1-1.9l12.7,0.8c1.1,0.1,1.9,1,1.9,2.1
			C1054.8,9.5,1053.9,10.3,1052.8,10.3z M1027.4,8.8c0,0-0.1,0-0.1,0l-12.7-0.8c-1.1-0.1-1.9-1-1.9-2.1c0.1-1.1,1-2,2.1-1.9
			l12.7,0.8c1.1,0.1,1.9,1,1.9,2.1C1029.3,8,1028.4,8.8,1027.4,8.8z M1001.9,7.3c0,0-0.1,0-0.1,0l-12.7-0.8c-1.1-0.1-1.9-1-1.9-2.1
			c0.1-1.1,1-2,2.1-1.9l12.7,0.8c1.1,0.1,1.9,1,1.9,2.1C1003.8,6.5,1003,7.3,1001.9,7.3z"/>
	</g>
	<g>
		<path fill="#FFFFFF" d="M967.5,10.7c-0.3,0-0.7-0.1-1-0.3c-1-0.5-1.3-1.8-0.8-2.7l2.9-5.2c0.4-0.7,1.1-1.1,1.9-1l6,0.4
			c1.1,0.1,1.9,1,1.9,2.1c-0.1,1.1-1,1.9-2.1,1.9l-4.7-0.3l-2.3,4.1C968.9,10.3,968.2,10.7,967.5,10.7z"/>
	</g>
	<g>
		<path fill="#FFFFFF" d="M807.3,129.9c-0.9,0-1.7-0.6-1.9-1.4c-0.3-1.1,0.3-2.2,1.4-2.5l11.5-3.4c1.1-0.3,2.2,0.3,2.5,1.4
			c0.3,1.1-0.3,2.2-1.4,2.5l-11.5,3.4C807.6,129.9,807.4,129.9,807.3,129.9z M830.3,123.2c-0.9,0-1.7-0.6-1.9-1.4
			c-0.3-1.1,0.3-2.2,1.4-2.5l11.5-3.4c1.1-0.3,2.2,0.3,2.5,1.4c0.3,1.1-0.3,2.2-1.4,2.5l-11.5,3.4
			C830.7,123.2,830.5,123.2,830.3,123.2z M853.3,116.5c-0.9,0-1.7-0.6-1.9-1.4c-0.3-1.1,0.3-2.2,1.4-2.5l11.5-3.4
			c1.1-0.3,2.2,0.3,2.5,1.4c0.3,1.1-0.3,2.2-1.4,2.5l-11.5,3.4C853.7,116.5,853.5,116.5,853.3,116.5z M876.3,109.8
			c-0.9,0-1.7-0.6-1.9-1.4c-0.3-1.1,0.3-2.2,1.4-2.5l11.5-3.4c1.1-0.3,2.2,0.3,2.5,1.4c0.3,1.1-0.3,2.2-1.4,2.5l-11.5,3.4
			C876.7,109.8,876.5,109.8,876.3,109.8z M899.4,103.1c-0.9,0-1.7-0.6-1.9-1.4c-0.3-1.1,0.3-2.2,1.4-2.5l11.5-3.4
			c1.1-0.3,2.2,0.3,2.5,1.4c0.3,1.1-0.3,2.2-1.4,2.5l-11.5,3.4C899.7,103,899.5,103.1,899.4,103.1z M920.9,94.5
			c-0.3,0-0.7-0.1-1-0.3c-1-0.5-1.3-1.8-0.8-2.7l5.8-10.5c0.5-1,1.8-1.3,2.7-0.8c1,0.5,1.3,1.8,0.8,2.7l-5.8,10.5
			C922.3,94.1,921.6,94.5,920.9,94.5z M932.6,73.5c-0.3,0-0.7-0.1-1-0.3c-1-0.5-1.3-1.8-0.8-2.7l5.8-10.5c0.5-1,1.8-1.3,2.7-0.8
			c1,0.5,1.3,1.8,0.8,2.7l-5.8,10.5C933.9,73.2,933.3,73.5,932.6,73.5z M944.2,52.6c-0.3,0-0.7-0.1-1-0.3c-1-0.5-1.3-1.8-0.8-2.7
			l5.8-10.5c0.5-1,1.8-1.3,2.7-0.8c1,0.5,1.3,1.8,0.8,2.7L946,51.6C945.6,52.2,944.9,52.6,944.2,52.6z M955.9,31.6
			c-0.3,0-0.7-0.1-1-0.3c-1-0.5-1.3-1.8-0.8-2.7l5.8-10.5c0.5-1,1.8-1.3,2.7-0.8c1,0.5,1.3,1.8,0.8,2.7l-5.8,10.5
			C957.3,31.3,956.6,31.6,955.9,31.6z"/>
	</g>
	<g>
		<path fill="#FFFFFF" d="M790,135c-0.4,0-0.8-0.1-1.2-0.4L784,131c-0.9-0.7-1.1-1.9-0.4-2.8c0.7-0.9,1.9-1.1,2.8-0.4l4,3l4.8-1.4
			c1.1-0.3,2.2,0.3,2.5,1.4c0.3,1.1-0.3,2.2-1.4,2.5l-5.8,1.7C790.4,135,790.2,135,790,135z"/>
	</g>
	<g>
		<path fill="#FFFFFF" d="M775.2,124.1c-0.4,0-0.8-0.1-1.2-0.4l-9.9-7.3c-0.9-0.7-1.1-1.9-0.4-2.8c0.7-0.9,1.9-1.1,2.8-0.4l9.9,7.3
			c0.9,0.7,1.1,1.9,0.4,2.8C776.4,123.9,775.8,124.1,775.2,124.1z M755.3,109.6c-0.4,0-0.8-0.1-1.2-0.4l-9.9-7.3
			c-0.9-0.7-1.1-1.9-0.4-2.8c0.7-0.9,1.9-1.1,2.8-0.4l9.9,7.3c0.9,0.7,1.1,1.9,0.4,2.8C756.6,109.3,756,109.6,755.3,109.6z
			 M735.5,95c-0.4,0-0.8-0.1-1.2-0.4l-9.9-7.3c-0.9-0.7-1.1-1.9-0.4-2.8c0.7-0.9,1.9-1.1,2.8-0.4l9.9,7.3c0.9,0.7,1.1,1.9,0.4,2.8
			C736.7,94.7,736.1,95,735.5,95z M715.6,80.4c-0.4,0-0.8-0.1-1.2-0.4l-9.9-7.3c-0.9-0.7-1.1-1.9-0.4-2.8c0.7-0.9,1.9-1.1,2.8-0.4
			l9.9,7.3c0.9,0.7,1.1,1.9,0.4,2.8C716.8,80.1,716.2,80.4,715.6,80.4z M695.7,65.8c-0.4,0-0.8-0.1-1.2-0.4l-9.9-7.3
			c-0.9-0.7-1.1-1.9-0.4-2.8c0.7-0.9,1.9-1.1,2.8-0.4l9.9,7.3c0.9,0.7,1.1,1.9,0.4,2.8C696.9,65.6,696.3,65.8,695.7,65.8z
			 M675.8,51.3c-0.4,0-0.8-0.1-1.2-0.4l-9.9-7.3c-0.9-0.7-1.1-1.9-0.4-2.8c0.7-0.9,1.9-1.1,2.8-0.4l9.9,7.3c0.9,0.7,1.1,1.9,0.4,2.8
			C677.1,51,676.5,51.3,675.8,51.3z M656,36.7c-0.4,0-0.8-0.1-1.2-0.4l-9.9-7.3c-0.9-0.7-1.1-1.9-0.4-2.8c0.7-0.9,1.9-1.1,2.8-0.4
			l9.9,7.3c0.9,0.7,1.1,1.9,0.4,2.8C657.2,36.4,656.6,36.7,656,36.7z M636.1,22.1c-0.4,0-0.8-0.1-1.2-0.4l-9.9-7.3
			c-0.9-0.7-1.1-1.9-0.4-2.8c0.7-0.9,1.9-1.1,2.8-0.4l9.9,7.3c0.9,0.7,1.1,1.9,0.4,2.8C637.3,21.8,636.7,22.1,636.1,22.1z"/>
	</g>
	<g>
		<path fill="#FFFFFF" d="M616.2,7.5c-0.4,0-0.8-0.1-1.2-0.4l-4-2.9L606.5,6c-1,0.4-2.2-0.1-2.6-1.1c-0.4-1,0.1-2.2,1.1-2.6l5.6-2.2
			c0.6-0.2,1.4-0.2,1.9,0.3l4.8,3.5c0.9,0.7,1.1,1.9,0.4,2.8C617.4,7.3,616.8,7.5,616.2,7.5z"/>
	</g>
	<g>
		<path fill="#FFFFFF" d="M538.8,32.1c-0.8,0-1.6-0.5-1.9-1.3c-0.4-1,0.1-2.2,1.1-2.6l11.2-4.3c1-0.4,2.2,0.1,2.6,1.1
			c0.4,1-0.1,2.2-1.1,2.6l-11.2,4.3C539.3,32,539.1,32.1,538.8,32.1z M561.1,23.4c-0.8,0-1.6-0.5-1.9-1.3c-0.4-1,0.1-2.2,1.1-2.6
			l11.2-4.3c1-0.4,2.2,0.1,2.6,1.1c0.4,1-0.1,2.2-1.1,2.6l-11.2,4.3C561.6,23.4,561.4,23.4,561.1,23.4z M583.5,14.8
			c-0.8,0-1.6-0.5-1.9-1.3c-0.4-1,0.1-2.2,1.1-2.6l11.2-4.3c1-0.4,2.2,0.1,2.6,1.1c0.4,1-0.1,2.2-1.1,2.6l-11.2,4.3
			C583.9,14.8,583.7,14.8,583.5,14.8z"/>
	</g>
	<g>
		<path fill="#FFFFFF" d="M526.8,42.2c-0.4,0-0.8-0.1-1.2-0.4l-4.8-3.6c-0.6-0.4-0.9-1.2-0.8-1.9c0.1-0.7,0.6-1.3,1.3-1.6l5.6-2.2
			c1-0.4,2.2,0.1,2.6,1.1c0.4,1-0.1,2.2-1.1,2.6l-2.3,0.9l1.9,1.5c0.9,0.7,1,1.9,0.4,2.8C528,41.9,527.4,42.2,526.8,42.2z"/>
	</g>
	<g>
		<path fill="#FFFFFF" d="M578.9,81.9c-0.4,0-0.8-0.1-1.2-0.4l-8.7-6.6c-0.9-0.7-1-1.9-0.4-2.8c0.7-0.9,1.9-1,2.8-0.4l8.7,6.6
			c0.9,0.7,1,1.9,0.4,2.8C580.1,81.6,579.5,81.9,578.9,81.9z M561.5,68.6c-0.4,0-0.8-0.1-1.2-0.4l-8.7-6.6c-0.9-0.7-1-1.9-0.4-2.8
			c0.7-0.9,1.9-1,2.8-0.4l8.7,6.6c0.9,0.7,1,1.9,0.4,2.8C562.7,68.4,562.1,68.6,561.5,68.6z M544.2,55.4c-0.4,0-0.8-0.1-1.2-0.4
			l-8.7-6.6c-0.9-0.7-1-1.9-0.4-2.8c0.7-0.9,1.9-1,2.8-0.4l8.7,6.6c0.9,0.7,1,1.9,0.4,2.8C545.4,55.1,544.8,55.4,544.2,55.4z"/>
	</g>
	<g>
		<path fill="#FFFFFF" d="M587.3,95.3c-0.7,0-1.3-0.3-1.7-0.9c-0.6-0.9-0.3-2.2,0.6-2.8l2.6-1.7l-2.5-1.9c-0.9-0.7-1-1.9-0.4-2.8
			c0.7-0.9,1.9-1,2.8-0.4l4.8,3.6c0.5,0.4,0.8,1,0.8,1.7s-0.4,1.3-0.9,1.6l-5.1,3.2C588,95.2,587.6,95.3,587.3,95.3z"/>
	</g>
	<g>
		<path fill="#FFFFFF" d="M514.3,334c-0.2,0-0.3,0-0.5-0.1c-1.1-0.3-1.7-1.3-1.5-2.4l2.7-11.3c0.3-1.1,1.3-1.7,2.4-1.5
			c1.1,0.3,1.7,1.3,1.5,2.4l-2.7,11.3C516,333.4,515.2,334,514.3,334z M519.8,311.5c-0.2,0-0.3,0-0.5-0.1c-1.1-0.3-1.7-1.3-1.5-2.4
			l2.7-11.3c0.3-1.1,1.3-1.7,2.4-1.5c1.1,0.3,1.7,1.3,1.5,2.4l-2.7,11.3C521.5,310.9,520.7,311.5,519.8,311.5z M525.3,289
			c-0.2,0-0.3,0-0.5-0.1c-1.1-0.3-1.7-1.3-1.5-2.4l2.7-11.3c0.3-1.1,1.4-1.7,2.4-1.5c1.1,0.3,1.7,1.3,1.5,2.4l-2.7,11.3
			C527,288.4,526.2,289,525.3,289z M530.8,266.4c-0.2,0-0.3,0-0.5-0.1c-1.1-0.3-1.7-1.3-1.5-2.4l2.7-11.3c0.3-1.1,1.3-1.7,2.4-1.5
			c1.1,0.3,1.7,1.3,1.5,2.4l-2.7,11.3C532.5,265.8,531.7,266.4,530.8,266.4z M536.2,243.9c-0.2,0-0.3,0-0.5-0.1
			c-1.1-0.3-1.7-1.3-1.5-2.4l2.7-11.3c0.3-1.1,1.3-1.7,2.4-1.5c1.1,0.3,1.7,1.3,1.5,2.4l-2.7,11.3
			C538,243.3,537.1,243.9,536.2,243.9z M541.7,221.4c-0.2,0-0.3,0-0.5-0.1c-1.1-0.3-1.7-1.3-1.5-2.4l2.7-11.3
			c0.3-1.1,1.3-1.7,2.4-1.5c1.1,0.3,1.7,1.3,1.5,2.4l-2.7,11.3C543.4,220.8,542.6,221.4,541.7,221.4z M547.2,198.9
			c-0.2,0-0.3,0-0.5-0.1c-1.1-0.3-1.7-1.3-1.5-2.4l2.7-11.3c0.3-1.1,1.4-1.7,2.4-1.5c1.1,0.3,1.7,1.3,1.5,2.4l-2.7,11.3
			C548.9,198.2,548.1,198.9,547.2,198.9z M552.7,176.3c-0.2,0-0.3,0-0.5-0.1c-1.1-0.3-1.7-1.3-1.5-2.4l2.7-11.3
			c0.3-1.1,1.3-1.7,2.4-1.5c1.1,0.3,1.7,1.3,1.5,2.4l-2.7,11.3C554.4,175.7,553.6,176.3,552.7,176.3z M558.2,153.8
			c-0.2,0-0.3,0-0.5-0.1c-1.1-0.3-1.7-1.3-1.5-2.4l2.7-11.3c0.3-1.1,1.3-1.7,2.4-1.5c1.1,0.3,1.7,1.3,1.5,2.4l-2.7,11.3
			C559.9,153.2,559.1,153.8,558.2,153.8z M563.6,131.3c-0.2,0-0.3,0-0.5-0.1c-1.1-0.3-1.7-1.3-1.5-2.4l2.7-11.3
			c0.3-1.1,1.3-1.7,2.4-1.5c1.1,0.3,1.7,1.3,1.5,2.4l-2.7,11.3C565.4,130.7,564.5,131.3,563.6,131.3z M569.1,108.8
			c-0.2,0-0.3,0-0.5-0.1c-1.1-0.3-1.7-1.3-1.5-2.4l0.6-2.4c0.1-0.5,0.4-0.9,0.9-1.2l7.8-4.9c0.9-0.6,2.2-0.3,2.8,0.6
			c0.6,0.9,0.3,2.2-0.6,2.8l-7.1,4.5l-0.4,1.6C570.8,108.1,570,108.8,569.1,108.8z"/>
	</g>
	<g>
		<path fill="#FFFFFF" d="M510.2,351.1c-0.1,0-0.2,0-0.3,0l-5.9-0.8c-1.1-0.2-1.9-1.2-1.7-2.3c0.2-1.1,1.2-1.9,2.3-1.7l4.2,0.6
			l1-4.1c0.3-1.1,1.3-1.7,2.4-1.5c1.1,0.3,1.7,1.3,1.5,2.4l-1.4,5.8C511.9,350.5,511.1,351.1,510.2,351.1z"/>
	</g>
	<g>
		<path fill="#FFFFFF" d="M492.1,348.6c-0.1,0-0.2,0-0.3,0l-12.1-1.7c-1.1-0.2-1.9-1.2-1.7-2.3c0.2-1.1,1.2-1.9,2.3-1.7l12.1,1.7
			c1.1,0.2,1.9,1.2,1.7,2.3C493.9,347.9,493.1,348.6,492.1,348.6z M467.9,345.2c-0.1,0-0.2,0-0.3,0l-12.1-1.7
			c-1.1-0.2-1.9-1.2-1.7-2.3c0.2-1.1,1.2-1.9,2.3-1.7l12.1,1.7c1.1,0.2,1.9,1.2,1.7,2.3C469.7,344.5,468.8,345.2,467.9,345.2z
			 M443.6,341.8c-0.1,0-0.2,0-0.3,0l-12.1-1.7c-1.1-0.2-1.9-1.2-1.7-2.3c0.2-1.1,1.2-1.9,2.3-1.7l12.1,1.7c1.1,0.2,1.9,1.2,1.7,2.3
			C445.5,341.1,444.6,341.8,443.6,341.8z M419.4,338.5c-0.1,0-0.2,0-0.3,0l-12.1-1.7c-1.1-0.2-1.9-1.2-1.7-2.3
			c0.2-1.1,1.2-1.9,2.3-1.7l12.1,1.7c1.1,0.2,1.9,1.2,1.7,2.3C421.2,337.7,420.4,338.5,419.4,338.5z M395.1,335.1
			c-0.1,0-0.2,0-0.3,0l-12.1-1.7c-1.1-0.2-1.9-1.2-1.7-2.3c0.2-1.1,1.2-1.9,2.3-1.7l12.1,1.7c1.1,0.2,1.9,1.2,1.7,2.3
			C397,334.4,396.1,335.1,395.1,335.1z M370.9,331.7c-0.1,0-0.2,0-0.3,0l-12.1-1.7c-1.1-0.2-1.9-1.2-1.7-2.3s1.2-1.9,2.3-1.7
			l12.1,1.7c1.1,0.2,1.9,1.2,1.7,2.3C372.7,331,371.9,331.7,370.9,331.7z M346.7,328.3c-0.1,0-0.2,0-0.3,0l-12.1-1.7
			c-1.1-0.2-1.9-1.2-1.7-2.3c0.2-1.1,1.2-1.9,2.3-1.7l12.1,1.7c1.1,0.2,1.9,1.2,1.7,2.3C348.5,327.6,347.7,328.3,346.7,328.3z
			 M322.4,324.9c-0.1,0-0.2,0-0.3,0l-12.1-1.7c-1.1-0.2-1.9-1.2-1.7-2.3c0.2-1.1,1.2-1.9,2.3-1.7l12.1,1.7c1.1,0.2,1.9,1.2,1.7,2.3
			C324.3,324.2,323.4,324.9,322.4,324.9z"/>
	</g>
	<g>
		<path fill="#FFFFFF" d="M287.9,324.9c-0.5,0-1.1-0.2-1.5-0.6c-0.8-0.8-0.7-2.1,0.1-2.8l4.4-4.1c0.4-0.4,1.1-0.6,1.7-0.5l5.9,0.8
			c1.1,0.2,1.9,1.2,1.7,2.3c-0.2,1.1-1.2,1.9-2.3,1.7l-5-0.7l-3.7,3.5C288.9,324.7,288.4,324.9,287.9,324.9z"/>
	</g>
	<g>
		<path fill="#FFFFFF" d="M20,423.8c-0.9,0-1.8-0.7-2-1.6c-0.2-1.1,0.5-2.1,1.6-2.3l12.1-2.2c1.1-0.2,2.1,0.5,2.3,1.6
			c0.2,1.1-0.5,2.1-1.6,2.3l-12.1,2.2C20.3,423.8,20.1,423.8,20,423.8z M44.3,419.4c-0.9,0-1.8-0.7-2-1.6c-0.2-1.1,0.5-2.1,1.6-2.3
			l12.1-2.2c1.1-0.2,2.1,0.5,2.3,1.6c0.2,1.1-0.5,2.1-1.6,2.3l-12.1,2.2C44.5,419.3,44.4,419.4,44.3,419.4z M68.5,414.9
			c-0.9,0-1.8-0.7-2-1.6c-0.2-1.1,0.5-2.1,1.6-2.3l12.1-2.2c1.1-0.2,2.1,0.5,2.3,1.6c0.2,1.1-0.5,2.1-1.6,2.3l-12.1,2.2
			C68.7,414.9,68.6,414.9,68.5,414.9z M92.7,410.4c-0.9,0-1.8-0.7-2-1.6c-0.2-1.1,0.5-2.1,1.6-2.3l12.1-2.2c1.1-0.2,2.1,0.5,2.3,1.6
			c0.2,1.1-0.5,2.1-1.6,2.3l-12.1,2.2C93,410.4,92.9,410.4,92.7,410.4z M117,405.9c-0.9,0-1.8-0.7-2-1.6c-0.2-1.1,0.5-2.1,1.6-2.3
			l12.1-2.2c1.1-0.2,2.1,0.5,2.3,1.6c0.2,1.1-0.5,2.1-1.6,2.3l-12.1,2.2C117.2,405.9,117.1,405.9,117,405.9z M141.2,401.4
			c-0.9,0-1.8-0.7-2-1.6c-0.2-1.1,0.5-2.1,1.6-2.3l12.1-2.2c1.1-0.2,2.1,0.5,2.3,1.6c0.2,1.1-0.5,2.1-1.6,2.3l-12.1,2.2
			C141.5,401.4,141.3,401.4,141.2,401.4z M165.4,396.9c-0.9,0-1.8-0.7-2-1.6c-0.2-1.1,0.5-2.1,1.6-2.3l12.1-2.2
			c1.1-0.2,2.1,0.5,2.3,1.6c0.2,1.1-0.5,2.1-1.6,2.3l-12.1,2.2C165.7,396.9,165.6,396.9,165.4,396.9z M189.7,392.4
			c-0.9,0-1.8-0.7-2-1.6c-0.2-1.1,0.5-2.1,1.6-2.3l12.1-2.2c1.1-0.2,2.1,0.5,2.3,1.6c0.2,1.1-0.5,2.1-1.6,2.3l-12.1,2.2
			C189.9,392.4,189.8,392.4,189.7,392.4z M213.9,387.9c-0.9,0-1.8-0.7-2-1.6c-0.2-1.1,0.5-2.1,1.6-2.3l8.7-1.6l1.7-1.6
			c0.8-0.8,2.1-0.7,2.8,0.1c0.8,0.8,0.7,2.1-0.1,2.8l-2.1,2c-0.3,0.3-0.6,0.4-1,0.5l-9.3,1.7C214.2,387.9,214,387.9,213.9,387.9z
			 M234.2,375.8c-0.5,0-1.1-0.2-1.5-0.6c-0.8-0.8-0.7-2.1,0.1-2.8l8.9-8.5c0.8-0.8,2.1-0.7,2.8,0.1c0.8,0.8,0.7,2.1-0.1,2.8
			l-8.9,8.5C235.2,375.6,234.7,375.8,234.2,375.8z M252.1,358.8c-0.5,0-1.1-0.2-1.5-0.6c-0.8-0.8-0.7-2.1,0.1-2.8l8.9-8.5
			c0.8-0.8,2.1-0.7,2.8,0.1c0.8,0.8,0.7,2.1-0.1,2.8l-8.9,8.5C253.1,358.6,252.6,358.8,252.1,358.8z M270,341.8
			c-0.5,0-1.1-0.2-1.5-0.6c-0.8-0.8-0.7-2.1,0.1-2.8l8.9-8.5c0.8-0.8,2.1-0.7,2.8,0.1c0.8,0.8,0.7,2.1-0.1,2.8l-8.9,8.5
			C271,341.7,270.5,341.8,270,341.8z"/>
	</g>
	<g>
		<path fill="#FFFFFF" d="M6.5,431.2c-0.5,0-0.9-0.2-1.3-0.5l-4.5-4c-0.6-0.5-0.8-1.3-0.6-2c0.2-0.7,0.8-1.3,1.6-1.4l5.9-1.1
			c1.1-0.2,2.1,0.5,2.3,1.6c0.2,1.1-0.5,2.1-1.6,2.3l-1.9,0.3l1.4,1.3c0.8,0.7,0.9,2,0.2,2.8C7.6,430.9,7,431.2,6.5,431.2z"/>
	</g>
	<g>
		<path fill="#FFFFFF" d="M205,622.1c-0.7,0-1.4-0.4-1.7-1l-5.8-10.2c-0.5-1-0.2-2.2,0.8-2.7c1-0.5,2.2-0.2,2.7,0.8l5.8,10.2
			c0.5,1,0.2,2.2-0.8,2.7C205.6,622,205.3,622.1,205,622.1z M193.5,601.7c-0.7,0-1.4-0.4-1.7-1l-5.8-10.2c-0.5-1-0.2-2.2,0.8-2.7
			c1-0.5,2.2-0.2,2.7,0.8l5.8,10.2c0.5,1,0.2,2.2-0.8,2.7C194.1,601.6,193.8,601.7,193.5,601.7z M181.9,581.4c-0.7,0-1.4-0.4-1.7-1
			l-5.8-10.2c-0.5-1-0.2-2.2,0.8-2.7c1-0.5,2.2-0.2,2.7,0.8l5.8,10.2c0.5,1,0.2,2.2-0.8,2.7C182.6,581.3,182.3,581.4,181.9,581.4z
			 M170.4,561c-0.7,0-1.4-0.4-1.7-1l-3-5.2l-4-2.4c-0.9-0.6-1.2-1.8-0.7-2.7s1.8-1.2,2.7-0.7l4.4,2.7c0.3,0.2,0.5,0.4,0.7,0.7
			l3.2,5.7c0.5,1,0.2,2.2-0.8,2.7C171.1,560.9,170.8,561,170.4,561z M152.8,546.6c-0.4,0-0.7-0.1-1-0.3l-10-6.1
			c-0.9-0.6-1.2-1.8-0.7-2.7c0.6-0.9,1.8-1.2,2.7-0.7l10,6.1c0.9,0.6,1.2,1.8,0.7,2.7C154.2,546.2,153.5,546.6,152.8,546.6z
			 M132.8,534.4c-0.4,0-0.7-0.1-1-0.3l-10-6.1c-0.9-0.6-1.2-1.8-0.7-2.7s1.8-1.2,2.7-0.7l10,6.1c0.9,0.6,1.2,1.8,0.7,2.7
			C134.2,534.1,133.5,534.4,132.8,534.4z M112.9,522.3c-0.4,0-0.7-0.1-1-0.3l-10-6.1c-0.9-0.6-1.2-1.8-0.7-2.7
			c0.6-0.9,1.8-1.2,2.7-0.7l10,6.1c0.9,0.6,1.2,1.8,0.7,2.7C114.2,522,113.5,522.3,112.9,522.3z M93.8,508.9c-0.5,0-0.9-0.2-1.3-0.5
			l-8.7-7.8c-0.8-0.7-0.9-2-0.2-2.8s2-0.9,2.8-0.2l8.7,7.8c0.8,0.7,0.9,2,0.2,2.8C94.9,508.6,94.4,508.9,93.8,508.9z M76.4,493.3
			c-0.5,0-0.9-0.2-1.3-0.5l-8.7-7.8c-0.8-0.7-0.9-2-0.2-2.8c0.7-0.8,2-0.9,2.8-0.2l8.7,7.8c0.8,0.7,0.9,2,0.2,2.8
			C77.5,493.1,76.9,493.3,76.4,493.3z M58.9,477.8c-0.5,0-0.9-0.2-1.3-0.5l-8.7-7.8c-0.8-0.7-0.9-2-0.2-2.8c0.7-0.8,2-0.9,2.8-0.2
			l8.7,7.8c0.8,0.7,0.9,2,0.2,2.8C60,477.6,59.4,477.8,58.9,477.8z M41.4,462.3c-0.5,0-0.9-0.2-1.3-0.5l-8.7-7.8
			c-0.8-0.7-0.9-2-0.2-2.8c0.7-0.8,2-0.9,2.8-0.2l8.7,7.8c0.8,0.7,0.9,2,0.2,2.8C42.5,462,42,462.3,41.4,462.3z M24,446.7
			c-0.5,0-0.9-0.2-1.3-0.5l-8.7-7.8c-0.8-0.7-0.9-2-0.2-2.8c0.7-0.8,2-0.9,2.8-0.2l8.7,7.8c0.8,0.7,0.9,2,0.2,2.8
			C25.1,446.5,24.5,446.7,24,446.7z"/>
	</g>
	<g>
		<path fill="#FFFFFF" d="M208.4,640.5c-0.7,0-1.4-0.4-1.7-1c-0.5-1-0.2-2.2,0.7-2.7l3.5-2l-2-3.5c-0.5-1-0.2-2.2,0.8-2.7
			s2.2-0.2,2.7,0.8l3,5.2c0.5,1,0.2,2.2-0.8,2.7l-5.2,3C209.1,640.4,208.8,640.5,208.4,640.5z"/>
	</g>
	<g>
		<path fill="#FFFFFF" d="M128.5,686c-0.7,0-1.4-0.4-1.7-1c-0.5-1-0.2-2.2,0.7-2.7l10-5.7c1-0.5,2.2-0.2,2.7,0.7
			c0.5,1,0.2,2.2-0.7,2.7l-10,5.7C129.1,685.9,128.8,686,128.5,686z M148.5,674.6c-0.7,0-1.4-0.4-1.7-1c-0.5-1-0.2-2.2,0.7-2.7
			l10-5.7c1-0.5,2.2-0.2,2.7,0.7c0.5,1,0.2,2.2-0.7,2.7l-10,5.7C149.1,674.5,148.8,674.6,148.5,674.6z M168.5,663.2
			c-0.7,0-1.4-0.4-1.7-1c-0.5-1-0.2-2.2,0.7-2.7l10-5.7c1-0.5,2.2-0.2,2.7,0.7s0.2,2.2-0.7,2.7l-10,5.7
			C169.1,663.1,168.8,663.2,168.5,663.2z M188.4,651.8c-0.7,0-1.4-0.4-1.7-1c-0.5-1-0.2-2.2,0.7-2.7l10-5.7c1-0.5,2.2-0.2,2.7,0.7
			c0.5,1,0.2,2.2-0.7,2.7l-10,5.7C189.1,651.8,188.8,651.8,188.4,651.8z"/>
	</g>
	<g>
		<path fill="#FFFFFF" d="M117.1,699.2c-0.6,0-1.1-0.2-1.5-0.7l-3.9-4.6c-0.4-0.5-0.5-1.1-0.4-1.6c0.1-0.6,0.5-1.1,1-1.4l5.2-3
			c1-0.5,2.2-0.2,2.7,0.7c0.5,1,0.2,2.2-0.7,2.7l-3.1,1.8l2.3,2.7c0.7,0.8,0.6,2.1-0.2,2.8C118,699.1,117.6,699.2,117.1,699.2z"/>
	</g>
	<g>
		<path fill="#FFFFFF" d="M152.9,741.6c-0.6,0-1.1-0.2-1.5-0.7l-8.9-10.6c-0.7-0.8-0.6-2.1,0.2-2.8c0.8-0.7,2.1-0.6,2.8,0.2
			l8.9,10.6c0.7,0.8,0.6,2.1-0.2,2.8C153.8,741.4,153.3,741.6,152.9,741.6z M135,720.4c-0.6,0-1.1-0.2-1.5-0.7l-8.9-10.6
			c-0.7-0.8-0.6-2.1,0.2-2.8s2.1-0.6,2.8,0.2l8.9,10.6c0.7,0.8,0.6,2.1-0.2,2.8C135.9,720.3,135.4,720.4,135,720.4z"/>
	</g>
	<g>
		<path fill="#FFFFFF" d="M160.6,759.9c-0.7,0-1.3-0.3-1.7-1c-0.6-0.9-0.3-2.2,0.7-2.8l3.1-1.9l-2.4-2.8c-0.7-0.8-0.6-2.1,0.2-2.8
			c0.8-0.7,2.1-0.6,2.8,0.2l3.9,4.6c0.4,0.4,0.5,1,0.4,1.6c-0.1,0.6-0.4,1.1-0.9,1.4l-5.1,3.1C161.3,759.8,160.9,759.9,160.6,759.9z
			"/>
	</g>
	<g>
		<path fill="#FFFFFF" d="M116.2,787.3c-0.7,0-1.3-0.3-1.7-1c-0.6-0.9-0.3-2.2,0.7-2.8l11.1-6.8c0.9-0.6,2.2-0.3,2.8,0.7
			c0.6,0.9,0.3,2.2-0.7,2.8l-11.1,6.8C116.9,787.2,116.5,787.3,116.2,787.3z M138.4,773.6c-0.7,0-1.3-0.3-1.7-1
			c-0.6-0.9-0.3-2.2,0.7-2.8l11.1-6.8c0.9-0.6,2.2-0.3,2.8,0.7c0.6,0.9,0.3,2.2-0.7,2.8l-11.1,6.8
			C139.1,773.5,138.7,773.6,138.4,773.6z"/>
	</g>
	<g>
		<path fill="#FFFFFF" d="M103.1,802.4c-0.7,0-1.3-0.3-1.7-1l-3.1-5.1c-0.6-0.9-0.3-2.2,0.7-2.7l5.1-3.1c0.9-0.6,2.2-0.3,2.8,0.7
			c0.6,0.9,0.3,2.2-0.7,2.8l-3.4,2.1l2.1,3.4c0.6,0.9,0.3,2.2-0.7,2.7C103.8,802.3,103.4,802.4,103.1,802.4z"/>
	</g>
	<g>
		<path fill="#FFFFFF" d="M131.8,865c-0.8,0-1.5-0.4-1.8-1.2l-4.7-10.5c-0.4-1,0-2.2,1-2.6c1-0.4,2.2,0,2.6,1l4.7,10.5
			c0.4,1,0,2.2-1,2.6C132.4,865,132.1,865,131.8,865z M122.5,844c-0.8,0-1.5-0.4-1.8-1.2l-4.7-10.5c-0.4-1,0-2.2,1-2.6
			c1-0.4,2.2,0,2.6,1l4.7,10.5c0.4,1,0,2.2-1,2.6C123.1,843.9,122.8,844,122.5,844z M113.2,823c-0.8,0-1.5-0.4-1.8-1.2l-4.7-10.5
			c-0.4-1,0-2.2,1-2.6c1-0.4,2.2,0,2.6,1l4.7,10.5c0.4,1,0,2.2-1,2.6C113.7,822.9,113.5,823,113.2,823z"/>
	</g>
	<g>
		<path fill="#FFFFFF" d="M138.9,881c-0.8,0-1.5-0.5-1.8-1.2l-2.4-5.5c-0.4-1,0-2.2,1-2.6c1-0.4,2.2,0,2.6,1l1.9,4.3l4.7,0
			c0,0,0,0,0,0c1.1,0,2,0.9,2,2c0,1.1-0.9,2-2,2L138.9,881C138.9,881,138.9,881,138.9,881z"/>
	</g>
	<g>
		<path fill="#FFFFFF" d="M154.3,880.9c-1.1,0-2-0.9-2-2c0-1.1,0.9-2,2-2l9.4-0.1c0,0,0,0,0,0c1.1,0,2,0.9,2,2c0,1.1-0.9,2-2,2
			L154.3,880.9C154.3,880.9,154.3,880.9,154.3,880.9z"/>
	</g>
	<g>
		<path fill="#FFFFFF" d="M184.1,890.4c-0.7,0-1.4-0.4-1.8-1.1l-4.5-8.6l-4.8,0c0,0,0,0,0,0c-1.1,0-2-0.9-2-2c0-1.1,0.9-2,2-2l6-0.1
			c0.7,0,1.4,0.4,1.8,1.1l4.4,8.4l4.5-0.8c1.1-0.2,2.1,0.5,2.3,1.6c0.2,1.1-0.5,2.1-1.6,2.3l-5.9,1.1
			C184.3,890.3,184.2,890.4,184.1,890.4z"/>
	</g>
	<g>
		<path fill="#FFFFFF" d="M202.6,887c-0.9,0-1.8-0.7-2-1.6c-0.2-1.1,0.5-2.1,1.6-2.3l12.6-2.3c1.1-0.2,2.1,0.5,2.3,1.6
			c0.2,1.1-0.5,2.1-1.6,2.3l-12.6,2.3C202.8,887,202.7,887,202.6,887z M227.8,882.4c-0.9,0-1.8-0.7-2-1.6c-0.2-1.1,0.5-2.1,1.6-2.3
			l12.6-2.3c1.1-0.2,2.1,0.5,2.3,1.6c0.2,1.1-0.5,2.1-1.6,2.3l-12.6,2.3C228,882.4,227.9,882.4,227.8,882.4z M252.9,877.8
			c-0.9,0-1.8-0.7-2-1.6c-0.2-1.1,0.5-2.1,1.6-2.3l12.6-2.3c1.1-0.2,2.1,0.5,2.3,1.6s-0.5,2.1-1.6,2.3l-12.6,2.3
			C253.2,877.8,253.1,877.8,252.9,877.8z"/>
	</g>
	<g>
		<path fill="#FFFFFF" d="M285.7,877.9c-0.9,0-1.7-0.6-1.9-1.4l-1.2-4l-4.1,0.8c-1.1,0.2-2.1-0.5-2.3-1.6s0.5-2.1,1.6-2.3l5.9-1.1
			c1-0.2,2,0.4,2.3,1.4l1.7,5.8c0.3,1.1-0.3,2.2-1.4,2.5C286.1,877.8,285.9,877.9,285.7,877.9z"/>
	</g>
	<g>
		<path fill="#FFFFFF" d="M451.9,1146c-0.6,0-1.1-0.2-1.5-0.7l-8.2-9.3c-0.7-0.8-0.7-2.1,0.2-2.8c0.8-0.7,2.1-0.7,2.8,0.2l8.2,9.3
			c0.7,0.8,0.7,2.1-0.2,2.8C452.8,1145.9,452.4,1146,451.9,1146z M435.5,1127.4c-0.6,0-1.1-0.2-1.5-0.7l-8.2-9.3
			c-0.7-0.8-0.7-2.1,0.2-2.8c0.8-0.7,2.1-0.7,2.8,0.2l8.2,9.3c0.7,0.8,0.7,2.1-0.2,2.8C436.4,1127.2,435.9,1127.4,435.5,1127.4z
			 M419,1108.7c-0.6,0-1.1-0.2-1.5-0.7l-8.2-9.3c-0.7-0.8-0.7-2.1,0.2-2.8c0.8-0.7,2.1-0.7,2.8,0.2l8.2,9.3c0.7,0.8,0.7,2.1-0.2,2.8
			C420,1108.5,419.5,1108.7,419,1108.7z M402.6,1090c-0.6,0-1.1-0.2-1.5-0.7l-8.2-9.3c-0.7-0.8-0.7-2.1,0.2-2.8
			c0.8-0.7,2.1-0.7,2.8,0.2l8.2,9.3c0.7,0.8,0.7,2.1-0.2,2.8C403.5,1089.9,403,1090,402.6,1090z M386.1,1071.4
			c-0.6,0-1.1-0.2-1.5-0.7l-4-4.6c-0.2-0.2-0.4-0.5-0.4-0.8l-1.6-6.1c-0.3-1.1,0.4-2.2,1.4-2.4c1.1-0.3,2.2,0.4,2.4,1.4l1.5,5.7
			l3.7,4.2c0.7,0.8,0.7,2.1-0.2,2.8C387.1,1071.2,386.6,1071.4,386.1,1071.4z M377.3,1048.7c-0.9,0-1.7-0.6-1.9-1.5l-3.2-12
			c-0.3-1.1,0.4-2.2,1.4-2.4c1.1-0.3,2.2,0.4,2.4,1.4l3.2,12c0.3,1.1-0.4,2.2-1.4,2.4C377.6,1048.6,377.5,1048.7,377.3,1048.7z
			 M369.3,1025.5c-0.5,0-1-0.2-1.4-0.6l-8.7-8.9c-0.8-0.8-0.8-2.1,0-2.8c0.8-0.8,2.1-0.8,2.8,0l8.7,8.9c0.8,0.8,0.8,2.1,0,2.8
			C370.3,1025.4,369.8,1025.5,369.3,1025.5z M352,1007.7c-0.5,0-1-0.2-1.4-0.6l-8.7-8.9c-0.8-0.8-0.8-2.1,0-2.8
			c0.8-0.8,2.1-0.8,2.8,0l8.7,8.9c0.8,0.8,0.8,2.1,0,2.8C353,1007.6,352.5,1007.7,352,1007.7z M334.6,989.9c-0.5,0-1-0.2-1.4-0.6
			l-8.7-8.9c-0.8-0.8-0.8-2.1,0-2.8c0.8-0.8,2.1-0.8,2.8,0l8.7,8.9c0.8,0.8,0.8,2.1,0,2.8C335.6,989.8,335.1,989.9,334.6,989.9z
			 M317.2,972.1c-0.5,0-1-0.2-1.4-0.6l-0.3-0.3c-0.2-0.2-0.4-0.5-0.5-0.7l-4-11.4c-0.4-1,0.2-2.2,1.2-2.5c1-0.4,2.2,0.2,2.5,1.2
			l3.8,11c0.7,0.8,0.7,2-0.1,2.8C318.2,972,317.7,972.1,317.2,972.1z M308.9,948.7c-0.8,0-1.6-0.5-1.9-1.3l-4.1-11.7
			c-0.4-1,0.2-2.2,1.2-2.5c1-0.4,2.2,0.2,2.5,1.2l4.1,11.7c0.4,1-0.2,2.2-1.2,2.5C309.3,948.7,309.1,948.7,308.9,948.7z
			 M300.7,925.3c-0.8,0-1.6-0.5-1.9-1.3l-4.1-11.7c-0.4-1,0.2-2.2,1.2-2.5c1-0.4,2.2,0.2,2.5,1.2l4.1,11.7c0.4,1-0.2,2.2-1.2,2.5
			C301.1,925.2,300.9,925.3,300.7,925.3z M292.6,901.8c-0.9,0-1.7-0.6-1.9-1.4l-3.4-11.9c-0.3-1.1,0.3-2.2,1.4-2.5
			c1.1-0.3,2.2,0.3,2.5,1.4l3.4,11.9c0.3,1.1-0.3,2.2-1.4,2.5C293,901.7,292.8,901.8,292.6,901.8z"/>
	</g>
	<g>
		<path fill="#FFFFFF" d="M464.1,1159.9c-0.6,0-1.1-0.2-1.5-0.7l-4-4.5c-0.7-0.8-0.7-2.1,0.2-2.8c0.8-0.7,2.1-0.6,2.8,0.2l3,3.4
			l4.2-1.8c1-0.4,2.2,0,2.6,1c0.4,1,0,2.2-1,2.6l-5.5,2.4C464.6,1159.8,464.4,1159.9,464.1,1159.9z"/>
	</g>
	<g>
		<path fill="#FFFFFF" d="M480.5,1152.7c-0.8,0-1.5-0.4-1.8-1.2c-0.4-1,0-2.2,1-2.6l3-1.3l6.3-5.1c0.9-0.7,2.1-0.6,2.8,0.3
			c0.7,0.9,0.6,2.1-0.3,2.8l-6.5,5.3c-0.1,0.1-0.3,0.2-0.5,0.3l-3.2,1.4C481,1152.6,480.7,1152.7,480.5,1152.7z M499.4,1138.5
			c-0.6,0-1.2-0.3-1.6-0.7c-0.7-0.9-0.6-2.1,0.3-2.8l9.2-7.5c0.9-0.7,2.1-0.6,2.8,0.3c0.7,0.9,0.6,2.1-0.3,2.8l-9.2,7.5
			C500.2,1138.4,499.8,1138.5,499.4,1138.5z M517.7,1123.5c-0.6,0-1.2-0.3-1.6-0.7c-0.7-0.9-0.6-2.1,0.3-2.8l9.2-7.5
			c0.9-0.7,2.1-0.6,2.8,0.3c0.7,0.9,0.6,2.1-0.3,2.8l-9.2,7.5C518.6,1123.4,518.2,1123.5,517.7,1123.5z M536.1,1108.5
			c-0.6,0-1.2-0.3-1.6-0.7c-0.7-0.9-0.6-2.1,0.3-2.8l9.2-7.5c0.9-0.7,2.1-0.6,2.8,0.3c0.7,0.9,0.6,2.1-0.3,2.8l-9.2,7.5
			C537,1108.4,536.6,1108.5,536.1,1108.5z M554.5,1093.5c-0.6,0-1.2-0.3-1.6-0.7c-0.7-0.9-0.6-2.1,0.3-2.8l9.2-7.5
			c0.9-0.7,2.1-0.6,2.8,0.3c0.7,0.9,0.6,2.1-0.3,2.8l-9.2,7.5C555.4,1093.3,555,1093.5,554.5,1093.5z M572.9,1078.5
			c-0.6,0-1.2-0.3-1.6-0.7c-0.7-0.9-0.6-2.1,0.3-2.8l9.2-7.5c0.9-0.7,2.1-0.6,2.8,0.3c0.7,0.9,0.6,2.1-0.3,2.8l-9.2,7.5
			C573.8,1078.3,573.4,1078.5,572.9,1078.5z M591.3,1063.5c-0.6,0-1.2-0.3-1.6-0.7c-0.7-0.9-0.6-2.1,0.3-2.8l9.2-7.5
			c0.9-0.7,2.1-0.6,2.8,0.3c0.7,0.9,0.6,2.1-0.3,2.8l-9.2,7.5C592.2,1063.3,591.8,1063.5,591.3,1063.5z M609.7,1048.5
			c-0.6,0-1.2-0.3-1.6-0.7c-0.7-0.9-0.6-2.1,0.3-2.8l9.2-7.5c0.9-0.7,2.1-0.6,2.8,0.3c0.7,0.9,0.6,2.1-0.3,2.8l-9.2,7.5
			C610.6,1048.3,610.2,1048.5,609.7,1048.5z M628.1,1033.5c-0.6,0-1.2-0.3-1.6-0.7c-0.7-0.9-0.6-2.1,0.3-2.8l9.2-7.5
			c0.9-0.7,2.1-0.6,2.8,0.3c0.7,0.9,0.6,2.1-0.3,2.8l-9.2,7.5C629,1033.3,628.5,1033.5,628.1,1033.5z M646.5,1018.5
			c-0.6,0-1.2-0.3-1.6-0.7c-0.7-0.9-0.6-2.1,0.3-2.8l9.2-7.5c0.9-0.7,2.1-0.6,2.8,0.3c0.7,0.9,0.6,2.1-0.3,2.8l-9.2,7.5
			C647.4,1018.3,646.9,1018.5,646.5,1018.5z M664.9,1003.5c-0.6,0-1.2-0.3-1.6-0.7c-0.7-0.9-0.6-2.1,0.3-2.8l9.2-7.5
			c0.9-0.7,2.1-0.6,2.8,0.3c0.7,0.9,0.6,2.1-0.3,2.8l-9.2,7.5C665.8,1003.3,665.3,1003.5,664.9,1003.5z M683.3,988.4
			c-0.6,0-1.2-0.3-1.6-0.7c-0.7-0.9-0.6-2.1,0.3-2.8l9.2-7.5c0.9-0.7,2.1-0.6,2.8,0.3c0.7,0.9,0.6,2.1-0.3,2.8l-9.2,7.5
			C684.2,988.3,683.7,988.4,683.3,988.4z M701.7,973.4c-0.6,0-1.2-0.3-1.6-0.7c-0.7-0.9-0.6-2.1,0.3-2.8l9.2-7.5
			c0.9-0.7,2.1-0.6,2.8,0.3c0.7,0.9,0.6,2.1-0.3,2.8l-9.2,7.5C702.6,973.3,702.1,973.4,701.7,973.4z M720.1,958.4
			c-0.6,0-1.2-0.3-1.6-0.7c-0.7-0.9-0.6-2.1,0.3-2.8l9.2-7.5c0.9-0.7,2.1-0.6,2.8,0.3c0.7,0.9,0.6,2.1-0.3,2.8l-9.2,7.5
			C721,958.3,720.5,958.4,720.1,958.4z M738.5,943.4c-0.6,0-1.2-0.3-1.6-0.7c-0.7-0.9-0.6-2.1,0.3-2.8l9.2-7.5
			c0.9-0.7,2.1-0.6,2.8,0.3c0.7,0.9,0.6,2.1-0.3,2.8l-9.2,7.5C739.4,943.3,738.9,943.4,738.5,943.4z M756.9,928.4
			c-0.6,0-1.2-0.3-1.6-0.7c-0.7-0.9-0.6-2.1,0.3-2.8l9.2-7.5c0.9-0.7,2.1-0.6,2.8,0.3c0.7,0.9,0.6,2.1-0.3,2.8l-9.2,7.5
			C757.7,928.3,757.3,928.4,756.9,928.4z M775.2,913.4c-0.6,0-1.2-0.3-1.6-0.7c-0.7-0.9-0.6-2.1,0.3-2.8l9.2-7.5
			c0.9-0.7,2.1-0.6,2.8,0.3c0.7,0.9,0.6,2.1-0.3,2.8l-9.2,7.5C776.1,913.3,775.7,913.4,775.2,913.4z M793.6,898.4
			c-0.6,0-1.2-0.3-1.6-0.7c-0.7-0.9-0.6-2.1,0.3-2.8l9.2-7.5c0.9-0.7,2.1-0.6,2.8,0.3c0.7,0.9,0.6,2.1-0.3,2.8l-9.2,7.5
			C794.5,898.3,794.1,898.4,793.6,898.4z M812,883.4c-0.6,0-1.2-0.3-1.6-0.7c-0.7-0.9-0.6-2.1,0.3-2.8l9.2-7.5
			c0.9-0.7,2.1-0.6,2.8,0.3c0.7,0.9,0.6,2.1-0.3,2.8l-9.2,7.5C812.9,883.2,812.5,883.4,812,883.4z M830.4,868.4
			c-0.6,0-1.2-0.3-1.6-0.7c-0.7-0.9-0.6-2.1,0.3-2.8l9.2-7.5c0.9-0.7,2.1-0.6,2.8,0.3c0.7,0.9,0.6,2.1-0.3,2.8l-9.2,7.5
			C831.3,868.2,830.9,868.4,830.4,868.4z M848.8,853.4c-0.6,0-1.2-0.3-1.6-0.7c-0.7-0.9-0.6-2.1,0.3-2.8l9.2-7.5
			c0.9-0.7,2.1-0.6,2.8,0.3c0.7,0.9,0.6,2.1-0.3,2.8l-9.2,7.5C849.7,853.2,849.3,853.4,848.8,853.4z M867.2,838.4
			c-0.6,0-1.2-0.3-1.6-0.7c-0.7-0.9-0.6-2.1,0.3-2.8l9.2-7.5c0.9-0.7,2.1-0.6,2.8,0.3c0.7,0.9,0.6,2.1-0.3,2.8l-9.2,7.5
			C868.1,838.2,867.7,838.4,867.2,838.4z M885.6,823.4c-0.6,0-1.2-0.3-1.6-0.7c-0.7-0.9-0.6-2.1,0.3-2.8l9.2-7.5
			c0.9-0.7,2.1-0.6,2.8,0.3c0.7,0.9,0.6,2.1-0.3,2.8l-9.2,7.5C886.5,823.2,886,823.4,885.6,823.4z"/>
	</g>
	<g>
		<path fill="#FFFFFF" d="M904,808.4c-0.6,0-1.2-0.3-1.6-0.7c-0.7-0.9-0.6-2.1,0.3-2.8l3.5-2.9l-1.7-4.2c-0.4-1,0.1-2.2,1.1-2.6
			c1-0.4,2.2,0.1,2.6,1.1l2.3,5.5c0.3,0.8,0.1,1.8-0.6,2.3l-4.6,3.8C904.9,808.2,904.4,808.4,904,808.4z"/>
	</g>
	<g>
		<path fill="#FFFFFF" d="M901.9,788.2c-0.8,0-1.5-0.5-1.8-1.2l-4.5-10.8c-0.4-1,0.1-2.2,1.1-2.6c1-0.4,2.2,0.1,2.6,1.1l4.5,10.8
			c0.4,1-0.1,2.2-1.1,2.6C902.4,788.2,902.1,788.2,901.9,788.2z M893,766.6c-0.8,0-1.5-0.5-1.8-1.2l-1.3-3.2
			c-0.1-0.2-0.1-0.5-0.2-0.7l-0.2-8.3c0-1.1,0.8-2,1.9-2.1c0,0,0,0,0.1,0c1.1,0,2,0.9,2,1.9l0.2,7.9l1.2,2.8c0.4,1-0.1,2.2-1.1,2.6
			C893.5,766.6,893.2,766.6,893,766.6z M891.1,743.5c-1.1,0-2-0.9-2-1.9l-0.3-11.7c0-1.1,0.8-2,1.9-2.1c1.1-0.1,2,0.8,2.1,1.9
			l0.3,11.7C893.1,742.6,892.3,743.5,891.1,743.5C891.1,743.5,891.1,743.5,891.1,743.5z M890.5,720.2c-1.1,0-2-0.9-2-1.9l-0.3-11.7
			c0-1.1,0.8-2,1.9-2.1c1.1,0,2,0.8,2.1,1.9l0.3,11.7C892.5,719.2,891.6,720.2,890.5,720.2C890.5,720.2,890.5,720.2,890.5,720.2z
			 M889.8,696.8c-1.1,0-2-0.9-2-1.9l-0.3-11.7c0-1.1,0.8-2,1.9-2.1c0,0,0,0,0.1,0c1.1,0,2,0.9,2,1.9l0.3,11.7
			C891.8,695.9,891,696.8,889.8,696.8C889.8,696.8,889.8,696.8,889.8,696.8z M889.2,673.5c-1.1,0-2-0.9-2-1.9l-0.3-9.4l-0.5-1.7
			c-0.3-1.1,0.3-2.2,1.3-2.5s2.2,0.3,2.5,1.3l0.6,1.9c0.1,0.2,0.1,0.4,0.1,0.5l0.3,9.7C891.2,672.5,890.3,673.5,889.2,673.5
			C889.2,673.5,889.2,673.5,889.2,673.5z M884.8,650.7c-0.9,0-1.6-0.6-1.9-1.4l-3.5-11.2c-0.3-1.1,0.3-2.2,1.3-2.5
			c1.1-0.3,2.2,0.3,2.5,1.3l3.5,11.2c0.3,1.1-0.3,2.2-1.3,2.5C885.2,650.7,885,650.7,884.8,650.7z M877.9,628.4
			c-0.9,0-1.6-0.6-1.9-1.4l-3.5-11.2c-0.3-1.1,0.3-2.2,1.3-2.5c1.1-0.3,2.2,0.3,2.5,1.3l3.5,11.2c0.3,1.1-0.3,2.2-1.3,2.5
			C878.3,628.4,878.1,628.4,877.9,628.4z M871,606.1c-0.9,0-1.6-0.6-1.9-1.4l-3.5-11.2c-0.3-1.1,0.3-2.2,1.3-2.5
			c1.1-0.3,2.2,0.3,2.5,1.3l3.5,11.2c0.3,1.1-0.3,2.2-1.3,2.5C871.4,606.1,871.2,606.1,871,606.1z M864.1,583.8
			c-0.9,0-1.6-0.6-1.9-1.4l-3.5-11.2c-0.3-1.1,0.3-2.2,1.3-2.5c1.1-0.3,2.2,0.3,2.5,1.3l3.5,11.2c0.3,1.1-0.3,2.2-1.3,2.5
			C864.5,583.8,864.3,583.8,864.1,583.8z M857.1,561.5c-0.9,0-1.6-0.6-1.9-1.4l-3.5-11.2c-0.3-1.1,0.3-2.2,1.3-2.5
			c1.1-0.3,2.2,0.3,2.5,1.3l3.5,11.2c0.3,1.1-0.3,2.2-1.3,2.5C857.5,561.5,857.3,561.5,857.1,561.5z M850.2,539.2
			c-0.9,0-1.6-0.6-1.9-1.4l-2.4-7.6l-1.7-2.8c-0.6-0.9-0.3-2.2,0.7-2.7c0.9-0.6,2.2-0.3,2.7,0.7l1.8,3c0.1,0.1,0.1,0.3,0.2,0.4
			l2.4,7.8c0.3,1.1-0.3,2.2-1.3,2.5C850.6,539.2,850.4,539.2,850.2,539.2z M839.7,518.6c-0.3,0-0.7-0.1-1-0.3l-10.2-5.7
			c-1-0.5-1.3-1.8-0.8-2.7c0.5-1,1.8-1.3,2.7-0.8l10.2,5.7c1,0.5,1.3,1.8,0.8,2.7C841.1,518.2,840.4,518.6,839.7,518.6z
			 M819.4,507.1c-0.3,0-0.7-0.1-1-0.3l-10.2-5.7c-1-0.5-1.3-1.8-0.8-2.7c0.5-1,1.8-1.3,2.7-0.8l10.2,5.7c1,0.5,1.3,1.8,0.8,2.7
			C820.8,506.7,820.1,507.1,819.4,507.1z M799.1,495.6c-0.3,0-0.7-0.1-1-0.3l-10.2-5.7c-1-0.5-1.3-1.8-0.8-2.7
			c0.5-1,1.8-1.3,2.7-0.8l10.2,5.7c1,0.5,1.3,1.8,0.8,2.7C800.4,495.2,799.8,495.6,799.1,495.6z M778.7,484.1c-0.3,0-0.7-0.1-1-0.3
			l-10.2-5.7c-1-0.5-1.3-1.8-0.8-2.7c0.5-1,1.8-1.3,2.7-0.8l10.2,5.7c1,0.5,1.3,1.8,0.8,2.7C780.1,483.7,779.4,484.1,778.7,484.1z
			 M758.4,472.6c-0.3,0-0.7-0.1-1-0.3l-10.2-5.7c-1-0.5-1.3-1.8-0.8-2.7c0.5-1,1.8-1.3,2.7-0.8l10.2,5.7c1,0.5,1.3,1.8,0.8,2.7
			C759.8,472.3,759.1,472.6,758.4,472.6z M738,461.1c-0.3,0-0.7-0.1-1-0.3l-10.2-5.7c-1-0.5-1.3-1.8-0.8-2.7c0.5-1,1.8-1.3,2.7-0.8
			l10.2,5.7c1,0.5,1.3,1.8,0.8,2.7C739.4,460.8,738.7,461.1,738,461.1z"/>
	</g>
</g>
</svg>
