<?xml version="1.0" encoding="utf-8"?>
<!-- Generator: Adobe Illustrator 18.1.0, SVG Export Plug-In . SVG Version: 6.00 Build 0)  -->
<!DOCTYPE svg PUBLIC "-//W3C//DTD SVG 1.1//EN" "http://www.w3.org/Graphics/SVG/1.1/DTD/svg11.dtd">
<svg version="1.1" id="Слой_1" xmlns="http://www.w3.org/2000/svg" xmlns:xlink="http://www.w3.org/1999/xlink" x="0px" y="0px"
	 viewBox="0 0 18.6 18.6" enable-background="new 0 0 18.6 18.6" xml:space="preserve">
<g>
	<path fill="#FFFFFF" d="M9.3,4.7C8,4.7,7,5.7,7,6.9v1.1h2.2h0.2h2.2h0V6.9C11.5,5.7,10.5,4.7,9.3,4.7z"/>
	<path fill="#FFFFFF" d="M9.4,10c-0.1,0-0.2,0-0.2,0c-0.5,0-1,0.5-1,1c0,0.3,0.1,0.5,0.3,0.7v1.7c0,0.2,0.2,0.4,0.4,0.4h0.8
		c0.2,0,0.4-0.2,0.4-0.4v-1.7c0.2-0.2,0.3-0.4,0.3-0.7C10.4,10.5,9.9,10,9.4,10z"/>
	<path fill="#FFFFFF" d="M9.3,0C4.2,0,0,4.1,0,9.3c0,5.1,4.1,9.3,9.3,9.3c5.1,0,9.3-4.1,9.3-9.3S14.4,0,9.3,0z M14.1,14.6
		c0,0.5-0.3,0.9-0.7,0.9H5.2c-0.4,0-0.7-0.4-0.7-0.9V8.9c0-0.5,0.3-0.9,0.7-0.9h0.2V6.9c0-2.1,1.7-3.9,3.8-3.9c0.1,0,0.2,0,0.2,0
		c2.1,0,3.8,1.8,3.8,3.9v1.1h0.2c0.4,0,0.7,0.4,0.7,0.9V14.6z"/>
</g>
</svg>
