<?xml version="1.0" encoding="utf-8"?>
<!-- Generator: Adobe Illustrator 18.1.0, SVG Export Plug-In . SVG Version: 6.00 Build 0)  -->
<!DOCTYPE svg PUBLIC "-//W3C//DTD SVG 1.1//EN" "http://www.w3.org/Graphics/SVG/1.1/DTD/svg11.dtd">
<svg version="1.1" id="Слой_2" xmlns="http://www.w3.org/2000/svg" xmlns:xlink="http://www.w3.org/1999/xlink" x="0px" y="0px"
	 viewBox="95.4 139.6 308.9 220.2" enable-background="new 95.4 139.6 308.9 220.2" xml:space="preserve">
<g>
	<g>
		<path fill="#60B5AE" d="M98.9,250.4c0-58.9,47.7-106.6,106.6-106.6s106.6,47.7,106.6,106.6s-47.7,106.6-106.6,106.6
			S98.9,309.3,98.9,250.4z"/>
		<path fill="#00001F" d="M205.5,359.7c-60.3,0-110.1-49.1-110.1-110.1c0-60.3,49.1-110.1,110.1-110.1
			c60.3,0,110.1,49.1,110.1,110.1C314.9,310.7,265.8,359.7,205.5,359.7z M205.5,146.6c-56.8,0-103.1,46.3-103.1,103.1
			s46.3,103.1,103.1,103.1s103.1-46.3,103.1-103.1S262.3,146.6,205.5,146.6z"/>
	</g>
	<g>
		<g>
			<path fill="#D8A348" d="M157.8,309.3V291l49.8-40.7c6.3-4.9,14.7-11.9,14.7-20.3c0-9.8-6.3-15.4-16.1-15.4h-0.7
				c-6.3,0-12.6,2.8-25.2,12.6L160.6,209c16.8-15.4,32.3-22.4,47.7-22.4h1.4c30.2,0.7,43.5,19.6,43.5,37.9
				c0,19.6-13.3,34.4-34.4,50.5l-8.4,7h44.9v28.8h-97.5V309.3z"/>
			<path fill="#000301" d="M253.2,312.8h-95.4c-2.1,0-3.5-1.4-3.5-3.5V291c0-0.7,0.7-2.1,1.4-2.8l49.8-40.7
				c7-5.6,13.3-11.2,13.3-17.5c0-10.5-7.7-11.9-12.6-12.6h-0.7c-4.9,0-10.5,2.1-23.1,11.9c-1.4,0.7-2.8,0.7-4.2,0l-19.6-18.2
				c-0.7-0.7-1.4-1.4-1.4-2.1c0-0.7,0.7-2.1,1.4-2.1c17.5-16.1,33.7-23.8,49.8-23.8h1.4c14.7,0,27.3,4.9,35.1,13.3
				c7,7,11.2,17.5,11.2,28.1c0,22.4-16.8,38.6-35.8,53.3l-1.4,0.7h35.1c2.1,0,3.5,1.4,3.5,3.5v28.8
				C256.7,311.4,255.3,312.8,253.2,312.8z M160.6,306.5h89.1v-21.7h-41.4c-1.4,0-2.8-0.7-2.8-2.1c-0.7-1.4,0-2.8,0.7-3.5l8.4-7l0,0
				c23.1-18.2,33-32.3,33-47.7S237,190,207.6,190h-0.7c-13.3,0-27.3,6.3-42.8,19.6l14.7,14c11.2-8.4,18.2-11.2,25.2-11.2h0.7l0,0
				c11.9,0.7,19.6,7.7,19.6,18.9c0,10.5-9.8,18.2-15.4,23.1l-48.4,40L160.6,306.5L160.6,306.5z"/>
		</g>
	</g>
	<g>
		<path fill="#00001F" d="M357.6,294.5c-0.7,0-2.1-0.7-2.8-1.4c-1.4-1.4-1.4-4.2,0-5.6l40-40l-40-40c-1.4-1.4-1.4-4.2,0-5.6
			c1.4-1.4,4.2-1.4,5.6,0l42.8,42.8c1.4,1.4,1.4,4.2,0,5.6l-42.8,42.8C359.7,293.8,359,294.5,357.6,294.5z"/>
	</g>
</g>
</svg>
