<?xml version="1.0" encoding="utf-8"?>
<!-- Generator: Adobe Illustrator 18.1.0, SVG Export Plug-In . SVG Version: 6.00 Build 0)  -->
<!DOCTYPE svg PUBLIC "-//W3C//DTD SVG 1.1//EN" "http://www.w3.org/Graphics/SVG/1.1/DTD/svg11.dtd">
<svg version="1.1" id="Слой_2" xmlns="http://www.w3.org/2000/svg" xmlns:xlink="http://www.w3.org/1999/xlink" x="0px" y="0px"
	 viewBox="100.5 351 312.6 112" enable-background="new 100.5 351 312.6 112" xml:space="preserve">
<g>
	<path fill="#60B5AE" d="M102.2,407c0-30,24.3-54.3,54.3-54.3s54.3,24.3,54.3,54.3s-24.3,54.3-54.3,54.3
		C126.5,461.3,102.2,437,102.2,407z"/>
	<path fill="#00001F" d="M156.5,463c-30.9,0-56-25.1-56-56s25.1-56,56-56s56,25.1,56,56S187.4,463,156.5,463z M156.5,354.4
		c-29,0-52.6,23.6-52.6,52.6s23.6,52.6,52.6,52.6s52.6-23.6,52.6-52.6S185.5,354.4,156.5,354.4z"/>
</g>
<g>
	<g>
		<path fill="#D8A348" d="M131.9,437.4v-9.3l25.2-20.6c3.3-2.6,7.3-6,7.3-10.3c0-5.1-3.3-7.8-8.1-8h-0.5c-3.1,0-6.5,1.5-12.8,6.2
			l-10-9.2c8.4-7.7,16.2-11.5,24.1-11.5h0.5c15.4,0.2,21.8,9.9,21.8,19.2c0,9.8-6.8,17.4-17.4,25.5l-4.3,3.5h22.5v14.5H131.9z"/>
		<path fill="#000301" d="M180.4,439.1h-48.5c-0.9,0-1.7-0.8-1.7-1.7v-9.3c0-0.5,0.2-1,0.6-1.3l25.2-20.6c3.4-2.7,6.7-5.6,6.7-9
			c0-5.2-4.1-6.2-6.5-6.3h-0.4c-2.3,0-5.2,1-11.7,5.9c-0.7,0.5-1.6,0.4-2.2-0.1l-10-9.2c-0.3-0.3-0.5-0.8-0.5-1.2
			c0-0.5,0.2-0.9,0.5-1.2c8.8-8,17-11.9,25.2-11.9h0.5c7.5,0.1,13.7,2.4,17.9,6.7c3.6,3.7,5.6,8.7,5.6,14.2c0,11.4-8.6,19.6-18,26.8
			l-0.6,0.5h17.9c0.9,0,1.7,0.8,1.7,1.7v14.5C182.1,438.4,181.3,439.1,180.4,439.1z M133.6,435.8h45.1v-11.1h-20.8
			c-0.7,0-1.3-0.4-1.6-1.1c-0.2-0.7,0-1.4,0.5-1.9l4.3-3.5l0,0c11.9-9.1,16.7-16.1,16.7-24.2c0-8-5.3-17.3-20.1-17.5h-0.5
			c-6.9,0-14,3.2-21.6,9.8l7.6,7c5.6-4.1,9.2-5.7,12.6-5.7h0.5c0,0,0,0,0.1,0c6,0.2,9.8,3.9,9.8,9.6c0,5.4-5,9.3-8,11.6l-24.5,20.1
			v6.9H133.6z"/>
	</g>
</g>
<g>
	<g>
		<path fill="#201600" d="M264.8,393.1c0,1.5-0.3,2.8-0.9,3.8s-1.4,1.9-2.4,2.5c-1,0.7-2.1,1.1-3.3,1.4c-1.2,0.3-2.5,0.4-3.7,0.4
			h-15.2v-30h15.2c1.3,0,2.4,0.2,3.5,0.5c1.1,0.4,2,0.9,2.8,1.6s1.4,1.6,1.9,2.6c0.4,1,0.7,2.2,0.7,3.5c0,1.3-0.2,2.5-0.7,3.5
			s-1.1,1.9-2,2.4c0.5,0.2,1,0.6,1.5,1c0.5,0.4,1,1,1.3,1.6c0.4,0.6,0.7,1.4,0.9,2.2C264.7,391.1,264.8,392.1,264.8,393.1z
			 M243.6,384.9c0.9-0.5,1.8-0.9,2.8-1c0.9-0.1,1.9-0.2,2.9-0.2h5.1c1.4,0,2.4-0.3,3.3-1c0.8-0.7,1.2-1.7,1.2-3.1s-0.4-2.4-1.2-3
			c-0.8-0.6-1.9-0.8-3.2-0.8h-10.8v9.1H243.6z M243.6,396.9h11.3c0.6,0,1.2-0.1,1.9-0.3s1.3-0.4,1.8-0.8c0.5-0.4,1-0.8,1.3-1.4
			c0.3-0.5,0.5-1.2,0.5-1.9c0-0.9-0.2-1.6-0.5-2.2s-0.8-1-1.4-1.3c-0.6-0.3-1.2-0.5-1.9-0.7c-0.7-0.1-1.4-0.2-2.1-0.2h-5.1
			c-1,0-1.9,0.1-2.9,0.2c-1,0.2-1.9,0.5-2.8,1L243.6,396.9L243.6,396.9z"/>
		<path fill="#201600" d="M254.5,401.6H239v-30.5h15.5c1.3,0,2.5,0.2,3.6,0.6c1.1,0.4,2.1,0.9,2.9,1.6c0.8,0.7,1.5,1.6,1.9,2.7
			c0.5,1,0.7,2.3,0.7,3.6c0,1.3-0.2,2.5-0.7,3.6c-0.4,0.9-1,1.7-1.8,2.3c0.4,0.2,0.8,0.5,1.2,0.9c0.5,0.5,1,1,1.4,1.7
			c0.4,0.7,0.7,1.4,1,2.3c0.2,0.8,0.4,1.8,0.4,2.9c0,1.5-0.3,2.9-0.9,3.9c-0.6,1.1-1.4,1.9-2.5,2.6c-1,0.7-2.1,1.2-3.4,1.5
			C257,401.4,255.7,401.6,254.5,401.6z M239.5,401.1h15c1.2,0,2.4-0.1,3.7-0.4c1.2-0.3,2.3-0.8,3.2-1.4c0.9-0.6,1.7-1.5,2.3-2.5
			c0.6-1,0.9-2.2,0.9-3.7c0-1-0.1-1.9-0.4-2.7c-0.2-0.8-0.5-1.5-0.9-2.2c-0.4-0.6-0.8-1.1-1.3-1.6c-0.5-0.4-1-0.8-1.5-1l-0.4-0.2
			l0.4-0.2c0.8-0.5,1.5-1.3,1.9-2.3s0.7-2.2,0.7-3.4c0-1.3-0.2-2.4-0.6-3.4s-1-1.8-1.8-2.5s-1.7-1.2-2.7-1.5
			c-1.1-0.4-2.2-0.5-3.4-0.5h-15v29.5H239.5z M254.9,397.1h-11.5v-7.9l0.1-0.1c0.9-0.5,1.9-0.8,2.9-1s2-0.2,2.9-0.2h5.1
			c0.7,0,1.5,0.1,2.2,0.2s1.4,0.4,2,0.7c0.6,0.3,1.1,0.8,1.5,1.4c0.4,0.6,0.6,1.4,0.6,2.3c0,0.8-0.2,1.5-0.6,2.1s-0.8,1.1-1.4,1.4
			c-0.6,0.4-1.2,0.7-1.9,0.8C256.2,397.1,255.5,397.1,254.9,397.1z M243.9,396.6h11c0.6,0,1.2-0.1,1.8-0.3c0.6-0.2,1.2-0.4,1.7-0.8
			c0.5-0.3,0.9-0.8,1.3-1.3c0.3-0.5,0.5-1.1,0.5-1.8c0-0.8-0.2-1.5-0.5-2s-0.8-0.9-1.3-1.2c-0.5-0.3-1.2-0.5-1.8-0.7
			c-0.7-0.1-1.4-0.2-2.1-0.2h-5.1c-0.9,0-1.9,0.1-2.9,0.2c-0.9,0.1-1.8,0.4-2.6,0.9V396.6z M243.4,385.4v-9.9h11.1
			c1.4,0,2.5,0.3,3.4,0.9c0.9,0.6,1.4,1.7,1.4,3.2s-0.4,2.6-1.3,3.3c-0.8,0.7-2,1.1-3.4,1.1h-5.1c-1,0-1.9,0.1-2.9,0.2
			c-0.9,0.1-1.8,0.5-2.7,1L243.4,385.4z M243.9,376v8.5c0.8-0.4,1.7-0.7,2.5-0.8c1-0.1,1.9-0.2,2.9-0.2h5.1c1.3,0,2.3-0.3,3.1-1
			c0.7-0.6,1.1-1.6,1.1-2.9c0-1.3-0.4-2.3-1.1-2.8c-0.8-0.5-1.8-0.8-3.1-0.8H243.9z"/>
	</g>
	<g>
		<path fill="#201600" d="M279.4,384.6v16.7h-4.1v-16.7h-7.6v-4.1h19.6v4.1H279.4z"/>
		<path fill="#201600" d="M279.7,401.6H275v-16.7h-7.6v-4.6h20.1v4.6h-7.8V401.6z M275.5,401.1h3.7v-16.7h7.8v-3.7h-19.1v3.7h7.6
			V401.1z"/>
	</g>
	<g>
		<path fill="#201600" d="M314.8,390.7c0,1.8-0.3,3.4-1,4.7c-0.7,1.4-1.6,2.6-2.8,3.5c-1.1,1-2.5,1.7-4,2.2s-3,0.8-4.6,0.8
			s-3.1-0.2-4.6-0.7s-2.8-1.2-3.9-2.2s-2.1-2.1-2.7-3.5c-0.7-1.4-1-3-1-4.7c0-1.8,0.3-3.3,1-4.7c0.7-1.4,1.6-2.5,2.8-3.5
			c1.2-0.9,2.5-1.7,4-2.1c1.5-0.5,3-0.7,4.6-0.7s3.1,0.2,4.6,0.7s2.8,1.1,4,2.1c1.1,0.9,2.1,2.1,2.8,3.4
			C314.5,387.2,314.8,388.9,314.8,390.7z M310.4,390.7c0-1.2-0.2-2.2-0.7-3s-1.1-1.5-1.8-2.1c-0.7-0.5-1.6-1-2.5-1.2
			c-1-0.3-1.9-0.4-2.9-0.4s-2,0.1-3,0.4s-1.8,0.7-2.5,1.2c-0.7,0.6-1.3,1.3-1.8,2.1c-0.5,0.9-0.7,1.9-0.7,3.1c0,1.2,0.2,2.2,0.7,3.1
			c0.5,0.9,1.1,1.6,1.8,2.1c0.7,0.6,1.6,1,2.5,1.2c1,0.3,1.9,0.4,3,0.4c1,0,2-0.2,2.9-0.5c0.9-0.3,1.8-0.8,2.5-1.3
			c0.7-0.6,1.4-1.3,1.8-2.2C310.2,392.9,310.4,391.9,310.4,390.7z"/>
		<path fill="#201600" d="M302.5,402.2c-1.6,0-3.2-0.3-4.7-0.8s-2.8-1.2-4-2.2s-2.1-2.2-2.8-3.6c-0.7-1.4-1.1-3-1.1-4.8
			c0-1.8,0.4-3.4,1.1-4.8c0.7-1.4,1.7-2.6,2.8-3.5c1.2-1,2.5-1.7,4-2.2c3-1,6.3-1,9.3,0c1.5,0.5,2.9,1.2,4,2.1
			c1.2,0.9,2.1,2.1,2.8,3.5c0.7,1.4,1.1,3,1.1,4.9c0,1.8-0.4,3.4-1.1,4.9c-0.7,1.4-1.7,2.6-2.8,3.6c-1.2,1-2.5,1.7-4,2.3
			C305.6,402,304.1,402.2,302.5,402.2z M302.5,380c-1.5,0-3,0.2-4.5,0.7c-1.4,0.5-2.7,1.2-3.9,2.1c-1.1,0.9-2,2.1-2.7,3.4
			s-1,2.9-1,4.6s0.3,3.3,1,4.6c0.7,1.3,1.6,2.5,2.7,3.4c1.1,0.9,2.4,1.6,3.9,2.1c2.9,1,6.1,1,9.1,0c1.5-0.5,2.8-1.2,3.9-2.2
			c1.1-0.9,2-2.1,2.7-3.5s1-2.9,1-4.6c0-1.7-0.3-3.3-1-4.6s-1.6-2.5-2.7-3.3c-1.1-0.9-2.4-1.6-3.9-2C305.5,380.2,304,380,302.5,380z
			 M302.5,398c-1,0-2.1-0.1-3-0.4c-1-0.3-1.9-0.7-2.6-1.3c-0.8-0.6-1.4-1.3-1.9-2.2s-0.7-2-0.7-3.2c0-1.2,0.2-2.3,0.7-3.2
			s1.1-1.6,1.9-2.2c0.8-0.6,1.6-1,2.6-1.3c1.9-0.5,4-0.5,6,0c1,0.3,1.9,0.7,2.6,1.2c0.8,0.6,1.4,1.3,1.9,2.2s0.7,1.9,0.7,3.1
			s-0.2,2.2-0.7,3.1s-1.1,1.7-1.9,2.3c-0.8,0.6-1.6,1.1-2.6,1.4S303.5,398,302.5,398z M302.5,384.2c-1,0-2,0.1-2.9,0.4
			s-1.7,0.7-2.4,1.2c-0.7,0.5-1.3,1.2-1.7,2.1c-0.4,0.8-0.7,1.8-0.7,2.9s0.2,2.1,0.7,2.9c0.4,0.8,1,1.5,1.7,2.1
			c0.7,0.5,1.6,0.9,2.5,1.2c1.8,0.5,3.9,0.6,5.7-0.1c0.9-0.3,1.7-0.7,2.5-1.3c0.7-0.6,1.3-1.3,1.7-2.1c0.4-0.8,0.7-1.8,0.7-2.9
			s-0.2-2.1-0.7-2.9c-0.4-0.8-1-1.5-1.7-2s-1.6-0.9-2.5-1.2C304.4,384.4,303.5,384.2,302.5,384.2z"/>
	</g>
	<g>
		<path fill="#201600" d="M320.6,401.2v-20.8h13.2c1,0,1.9,0.2,2.8,0.5c0.8,0.3,1.6,0.8,2.2,1.3c0.6,0.6,1.1,1.3,1.4,2.1
			c0.3,0.8,0.5,1.7,0.5,2.7c0,2.1-0.7,3.7-2,4.9s-3.2,1.8-5.5,1.8h-1.9c-1,0-1.8,0-2.4,0.1c-0.6,0-1.2,0.1-1.7,0.2s-0.9,0.2-1.3,0.4
			s-0.8,0.4-1.2,0.6v6.3h-4.1V401.2z M324.8,390.9c0.9-0.5,1.9-0.9,3.1-1c1.1-0.1,2.3-0.2,3.5-0.2h1.9c1,0,1.8-0.2,2.4-0.5
			s0.9-1,0.9-2.1c0-0.5-0.1-0.9-0.3-1.2c-0.2-0.3-0.4-0.5-0.7-0.7c-0.3-0.2-0.7-0.3-1-0.4c-0.4-0.1-0.8-0.1-1.2-0.1H325v6.2H324.8z"
			/>
		<path fill="#201600" d="M325,401.6h-4.6v-21.3h13.5c1,0,2,0.2,2.8,0.5c0.9,0.3,1.6,0.8,2.2,1.4c0.6,0.6,1.1,1.3,1.4,2.2
			c0.3,0.8,0.5,1.8,0.5,2.8c0,2.2-0.7,3.9-2.1,5.1s-3.3,1.9-5.7,1.9h-1.9c-1,0-1.8,0-2.4,0.1c-0.6,0-1.2,0.1-1.6,0.2
			c-0.4,0.1-0.9,0.2-1.2,0.3c-0.3,0.1-0.7,0.3-1.1,0.5v6.3H325z M320.9,401.1h3.6v-6.2l0.1-0.1c0.5-0.2,0.9-0.4,1.3-0.6
			s0.8-0.3,1.3-0.4c0.5-0.1,1-0.1,1.7-0.2c0.6,0,1.4-0.1,2.4-0.1h1.9c2.3,0,4.1-0.6,5.4-1.7c1.3-1.1,1.9-2.7,1.9-4.7
			c0-1-0.2-1.8-0.5-2.6s-0.8-1.5-1.3-2c-0.6-0.5-1.3-1-2.1-1.3c-0.8-0.3-1.7-0.4-2.7-0.4h-13L320.9,401.1L320.9,401.1z M324.5,391.2
			v-6.9h8.7c0.4,0,0.9,0,1.3,0.1c0.4,0.1,0.8,0.2,1.1,0.4c0.3,0.2,0.6,0.5,0.8,0.8c0.2,0.3,0.3,0.8,0.3,1.4c0,1.2-0.3,2-1,2.4
			c-0.6,0.3-1.5,0.5-2.5,0.5h-1.9c-1.2,0-2.4,0.1-3.5,0.2c-1.1,0.1-2.1,0.5-3,1L324.5,391.2z M325,384.9v5.6
			c0.8-0.4,1.8-0.7,2.8-0.8c1.1-0.1,2.3-0.2,3.5-0.2h1.9c0.9,0,1.7-0.2,2.3-0.5c0.5-0.3,0.8-0.9,0.8-1.9c0-0.5-0.1-0.8-0.2-1.1
			c-0.2-0.3-0.4-0.5-0.7-0.6c-0.3-0.2-0.6-0.3-1-0.3c-0.4-0.1-0.8-0.1-1.2-0.1L325,384.9L325,384.9z"/>
	</g>
	<g>
		<path fill="#201600" d="M349.5,380h4.5l11.3,21.3h-4.5l-1.7-3.1h-2.5c-1.3,0-2.6,0.1-3.8,0.3c-1.3,0.2-2.4,0.5-3.4,0.8
			c-1,0.3-1.9,0.6-2.6,1c-0.7,0.3-1.1,0.6-1.3,0.8l-0.1,0.2h-4.3l10-18.7L349.5,380z M357,394.4l-4.1-7.7l-5,9.5
			c0.7-0.3,1.7-0.7,3.1-1.2c1.4-0.4,3.2-0.6,5.4-0.6H357z"/>
		<path fill="#201600" d="M365.6,401.6h-5.1l-1.6-3.1h-2.3c-1.3,0-2.5,0.1-3.8,0.3c-1.2,0.2-2.4,0.5-3.4,0.8s-1.9,0.6-2.6,1
			c-0.8,0.4-1.1,0.6-1.2,0.7l-0.2,0.4h-4.9l10.1-19l-1.5-2.9h5l0.1,0.1L365.6,401.6z M360.8,401.1h4l-11-20.8h-3.9l1.2,2.4l-0.1,0.1
			l-9.8,18.4h3.8l0.1-0.1c0.2-0.3,0.6-0.5,1.4-0.9c0.7-0.3,1.6-0.7,2.7-1c1-0.3,2.2-0.6,3.5-0.8s2.6-0.3,3.9-0.3h2.6L360.8,401.1z
			 M347.4,396.8l5.6-10.7l4.5,8.5h-1c-2.1,0-3.9,0.2-5.3,0.6c-1.4,0.4-2.4,0.8-3.1,1.2L347.4,396.8z M353,387.2l-4.4,8.5
			c0.6-0.3,1.5-0.6,2.5-0.9c1.4-0.4,3.2-0.7,5.4-0.7h0.2L353,387.2z"/>
	</g>
	<g>
		<path fill="#201600" d="M377,398c-0.5,0.8-0.9,1.4-1.4,1.8c-0.5,0.4-0.9,0.8-1.4,1c-0.5,0.2-1,0.3-1.6,0.4
			c-0.6,0.1-1.2,0.1-1.8,0.1H369v-4.2h2.1c0.4,0,0.8-0.1,1.2-0.4c0.4-0.2,0.9-0.8,1.5-1.7l0.8-1.3c-1.8-0.4-3.1-1.1-4-2.2
			c-0.9-1.1-1.3-2.5-1.3-4.2c0-1,0.2-1.9,0.5-2.7c0.3-0.8,0.8-1.5,1.5-2.1c0.6-0.6,1.4-1.1,2.3-1.4c0.9-0.3,1.8-0.5,2.9-0.5h12.8
			v20.8h-4.2v-6.1c-0.5-0.2-0.9-0.4-1.2-0.6c-0.4-0.1-0.8-0.3-1.2-0.4c-0.4-0.1-0.9-0.2-1.4-0.2c-0.5-0.1-1.1-0.1-1.9-0.1L377,398z
			 M385.1,384.7h-7c-0.5,0-0.9,0-1.3,0.1c-0.4,0-0.9,0.1-1.2,0.3c-0.4,0.2-0.7,0.4-0.9,0.8c-0.2,0.3-0.3,0.8-0.3,1.3
			c0,0.6,0.1,1,0.3,1.3c0.2,0.3,0.5,0.6,0.9,0.7c0.4,0.2,0.8,0.3,1.2,0.3c0.4,0,0.9,0.1,1.3,0.1c1.5,0,2.8,0.1,3.9,0.2
			c1.2,0.1,2.2,0.5,3.1,1V384.7z"/>
		<path fill="#201600" d="M389.6,401.6h-4.7v-6.2c-0.4-0.2-0.8-0.4-1.1-0.5c-0.4-0.1-0.7-0.3-1.1-0.4c-0.4-0.1-0.9-0.2-1.4-0.2
			s-1.1-0.1-1.7-0.1l-2.3,4c-0.5,0.8-0.9,1.4-1.4,1.9s-1,0.8-1.5,1s-1.1,0.4-1.7,0.4c-0.6,0.1-1.2,0.1-1.8,0.1h-2.1v-4.7h2.4
			c0.3,0,0.7-0.1,1.1-0.3s0.9-0.8,1.4-1.6l0.7-1c-1.7-0.4-2.9-1.2-3.8-2.2c-0.9-1.2-1.4-2.6-1.4-4.4c0-1,0.2-2,0.5-2.8
			c0.4-0.8,0.9-1.6,1.5-2.2c0.7-0.6,1.5-1.1,2.4-1.5c0.9-0.3,1.9-0.5,3-0.5h13V401.6z M385.3,401.1h3.7v-20.4h-12.5
			c-1,0-1.9,0.2-2.8,0.5c-0.8,0.3-1.6,0.8-2.2,1.4s-1.1,1.3-1.4,2c-0.3,0.8-0.5,1.7-0.5,2.6c0,1.6,0.4,3,1.3,4.1
			c0.8,1.1,2.1,1.8,3.8,2.1l0.3,0.1l-1,1.6c-0.6,1-1.1,1.5-1.6,1.8c-0.5,0.3-0.9,0.4-1.3,0.4h-1.9v3.7h1.6c0.6,0,1.2,0,1.8-0.1
			c0.5-0.1,1.1-0.2,1.5-0.4c0.5-0.2,0.9-0.5,1.4-0.9c0.4-0.4,0.9-1,1.3-1.8l2.4-4.3h0.1c0.7,0,1.4,0.1,1.9,0.1
			c0.5,0.1,1,0.1,1.4,0.2c0.4,0.1,0.8,0.2,1.2,0.4c0.4,0.2,0.8,0.4,1.2,0.6l0.1,0.1v6.2H385.3z M385.3,391.2l-0.4-0.2
			c-0.9-0.5-1.9-0.8-3-1c-1.1-0.1-2.5-0.2-3.9-0.2c-0.5,0-0.9,0-1.4-0.1c-0.5,0-0.9-0.2-1.3-0.3c-0.4-0.2-0.8-0.5-1-0.8
			c-0.3-0.4-0.4-0.9-0.4-1.5s0.1-1.1,0.4-1.5s0.6-0.7,1-0.8c0.4-0.2,0.8-0.3,1.3-0.3c0.4,0,0.9-0.1,1.4-0.1l0,0h7.3V391.2z
			 M378,384.9c-0.4,0-0.9,0-1.3,0.1c-0.4,0-0.8,0.1-1.1,0.3c-0.3,0.2-0.6,0.4-0.8,0.7c-0.2,0.3-0.3,0.7-0.3,1.2s0.1,0.9,0.3,1.2
			c0.2,0.3,0.5,0.5,0.8,0.7s0.7,0.3,1.1,0.3s0.9,0.1,1.3,0.1c1.5,0,2.8,0.1,4,0.2c1,0.1,2,0.4,2.8,0.8V385L378,384.9z"/>
	</g>
	<g>
		<path fill="#201600" d="M262.3,424.2c0,1.8-0.3,3.4-1,4.7c-0.7,1.4-1.6,2.6-2.8,3.5c-1.1,1-2.5,1.7-4,2.2s-3,0.8-4.6,0.8
			s-3.1-0.2-4.6-0.7s-2.8-1.2-3.9-2.2c-1.1-1-2.1-2.1-2.7-3.5c-0.7-1.4-1-3-1-4.7c0-1.8,0.3-3.3,1-4.7c0.7-1.4,1.6-2.5,2.8-3.5
			c1.2-0.9,2.5-1.7,4-2.1c1.5-0.5,3-0.7,4.6-0.7s3.1,0.2,4.6,0.7s2.8,1.1,4,2.1c1.1,0.9,2.1,2.1,2.8,3.4
			C261.9,420.9,262.3,422.4,262.3,424.2z M257.9,424.3c0-1.2-0.2-2.2-0.7-3s-1.1-1.5-1.8-2.1c-0.7-0.5-1.6-1-2.5-1.2
			c-1-0.3-1.9-0.4-2.9-0.4s-2,0.1-3,0.4s-1.8,0.7-2.5,1.2c-0.7,0.6-1.3,1.3-1.8,2.1c-0.5,0.9-0.7,1.9-0.7,3.1s0.2,2.2,0.7,3.1
			s1.1,1.6,1.8,2.1c0.7,0.6,1.6,1,2.5,1.2c1,0.3,1.9,0.4,3,0.4c1,0,2-0.2,2.9-0.5s1.8-0.8,2.5-1.3c0.7-0.6,1.4-1.3,1.8-2.2
			C257.7,426.4,257.9,425.4,257.9,424.3z"/>
		<path fill="#201600" d="M249.9,435.8c-1.6,0-3.2-0.3-4.7-0.8s-2.8-1.2-4-2.2s-2.1-2.2-2.8-3.6s-1.1-3-1.1-4.8s0.4-3.4,1.1-4.8
			c0.7-1.4,1.7-2.6,2.8-3.5c1.2-1,2.5-1.7,4-2.2c3-1,6.3-1,9.3,0c1.5,0.5,2.9,1.2,4,2.1c1.2,0.9,2.1,2.1,2.8,3.5
			c0.7,1.4,1.1,3,1.1,4.9c0,1.8-0.4,3.4-1.1,4.9c-0.7,1.4-1.7,2.6-2.8,3.6c-1.2,1-2.5,1.7-4,2.3
			C253.1,435.5,251.5,435.8,249.9,435.8z M250,413.6c-1.5,0-3,0.2-4.5,0.7c-1.4,0.5-2.7,1.2-3.9,2.1c-1.1,0.9-2,2.1-2.7,3.4
			s-1,2.9-1,4.6s0.3,3.3,1,4.6c0.7,1.3,1.6,2.5,2.7,3.4c1.1,0.9,2.4,1.6,3.9,2.1c2.9,1,6.1,1,9.1,0c1.5-0.5,2.8-1.2,3.9-2.2
			c1.1-0.9,2-2.1,2.7-3.5s1-2.9,1-4.6s-0.3-3.3-1-4.6c-0.7-1.3-1.6-2.5-2.7-3.3c-1.1-0.9-2.4-1.6-3.9-2
			C253,413.8,251.5,413.6,250,413.6z M250,431.5c-1,0-2.1-0.1-3-0.4c-1-0.3-1.9-0.7-2.6-1.3c-0.8-0.6-1.4-1.3-1.9-2.2
			c-0.5-0.9-0.7-2-0.7-3.2s0.2-2.3,0.7-3.2c0.5-0.9,1.1-1.6,1.9-2.2c0.8-0.6,1.6-1,2.6-1.3c1.9-0.5,4-0.5,6,0c1,0.3,1.9,0.7,2.6,1.2
			c0.8,0.6,1.4,1.3,1.9,2.2c0.5,0.9,0.7,1.9,0.7,3.1s-0.2,2.2-0.7,3.1s-1.1,1.7-1.9,2.3c-0.8,0.6-1.6,1.1-2.6,1.4
			C252,431.4,251,431.5,250,431.5z M250,417.8c-1,0-2,0.1-2.9,0.4s-1.7,0.7-2.4,1.2s-1.3,1.2-1.7,2.1c-0.4,0.8-0.7,1.8-0.7,2.9
			s0.2,2.1,0.7,2.9c0.4,0.8,1,1.5,1.7,2.1c0.7,0.5,1.6,0.9,2.5,1.2c1.8,0.5,3.9,0.6,5.7-0.1c0.9-0.3,1.7-0.7,2.5-1.3
			c0.7-0.6,1.3-1.3,1.7-2.1c0.4-0.8,0.7-1.8,0.7-2.9s-0.2-2.1-0.7-2.9c-0.4-0.8-1-1.5-1.7-2s-1.6-0.9-2.5-1.2
			C251.9,418,250.9,417.8,250,417.8z"/>
	</g>
	<g>
		<path fill="#201600" d="M285.1,414v20.8H281v-7.6c-0.8,0.3-1.7,0.6-2.5,0.7s-1.8,0.2-2.9,0.2c-1.4,0-2.7-0.1-3.9-0.4
			c-1.2-0.2-2.1-0.6-2.9-1.2c-0.8-0.5-1.4-1.3-1.9-2.2c-0.4-0.9-0.6-2-0.6-3.3c0-1.2,0.1-2.4,0.2-3.6s0.3-2.4,0.6-3.5h4.1
			c-0.3,1-0.5,2.1-0.6,3c-0.1,1-0.2,2-0.2,3c0,1.5,0.4,2.5,1.2,3.1c0.8,0.6,2.2,0.8,4.1,0.8c0.5,0,0.9,0,1.3,0s0.8-0.1,1.1-0.2
			c0.4-0.1,0.8-0.2,1.2-0.3c0.4-0.1,1-0.3,1.5-0.5v-9h4.3V414z"/>
		<path fill="#201600" d="M285.3,435.1h-4.6v-7.5c-0.7,0.3-1.5,0.5-2.2,0.6c-0.8,0.1-1.8,0.2-2.9,0.2c-1.4,0-2.7-0.1-3.9-0.4
			c-1.2-0.2-2.2-0.7-3-1.2c-0.8-0.6-1.5-1.3-1.9-2.3c-0.4-0.9-0.7-2.1-0.7-3.4c0-1.2,0.1-2.4,0.2-3.6s0.3-2.4,0.7-3.6l0.1-0.2h4.6
			l-0.1,0.3c-0.3,1-0.5,2-0.6,3s-0.2,2-0.2,3c0,1.4,0.4,2.4,1.1,2.9c0.8,0.5,2.1,0.8,3.9,0.8c0.5,0,0.9,0,1.3,0s0.7-0.1,1.1-0.2
			s0.8-0.2,1.2-0.3c0.4-0.1,0.9-0.2,1.4-0.4v-9.1h4.6v21.4H285.3z M281.2,434.6h3.6v-20.4h-3.6v8.9l-0.2,0.1
			c-0.6,0.2-1.1,0.3-1.6,0.5c-0.4,0.1-0.9,0.2-1.3,0.3c-0.4,0.1-0.8,0.1-1.2,0.2c-0.4,0-0.8,0-1.3,0c-2,0-3.4-0.3-4.2-0.9
			c-0.9-0.6-1.3-1.7-1.3-3.3c0-1,0.1-2,0.2-3c0.1-0.9,0.3-1.8,0.5-2.8h-3.6c-0.3,1.1-0.5,2.2-0.6,3.3c-0.1,1.2-0.2,2.4-0.2,3.6
			s0.2,2.3,0.6,3.2c0.4,0.9,1,1.5,1.8,2.1c0.8,0.5,1.7,0.9,2.9,1.1c1.1,0.2,2.4,0.4,3.8,0.4c1.1,0,2.1-0.1,2.9-0.2s1.6-0.4,2.4-0.7
			l0.3-0.1v7.7H281.2z"/>
	</g>
	<g>
		<path fill="#201600" d="M296.6,430.7h13.1v4.2h-17.2v-20.8h16.4v4.1h-12.3v5.1c0.9-0.5,1.9-0.9,3-1s2.3-0.2,3.5-0.2h3.1v4.1h-3.1
			c-1,0-1.8,0-2.4,0.1c-0.6,0-1.2,0.1-1.6,0.2c-0.5,0.1-0.9,0.2-1.2,0.4c-0.4,0.2-0.8,0.4-1.2,0.6L296.6,430.7L296.6,430.7z"/>
		<path fill="#201600" d="M309.9,435.1h-17.7v-21.3h16.9v4.6h-12.3v4.4c0.8-0.4,1.8-0.7,2.8-0.8c1.1-0.1,2.3-0.2,3.5-0.2h3.3v4.6
			h-3.3c-1,0-1.8,0-2.4,0.1c-0.6,0-1.2,0.1-1.6,0.2s-0.8,0.2-1.2,0.3c-0.3,0.1-0.7,0.3-1.1,0.5v2.9h13.1L309.9,435.1L309.9,435.1z
			 M292.7,434.6h16.7v-3.7h-13.1v-3.7l0.1-0.1c0.5-0.2,0.9-0.4,1.3-0.6s0.8-0.3,1.3-0.4s1-0.1,1.7-0.2c0.6,0,1.4-0.1,2.4-0.1h2.8
			V422h-2.8c-1.2,0-2.4,0.1-3.5,0.2s-2.1,0.5-2.9,1l-0.4,0.2v-5.8h12.3v-3.7h-15.9V434.6z"/>
	</g>
	<g>
		<path fill="#201600" d="M315.4,434.9v-20.8h13.2c1,0,1.9,0.2,2.8,0.5c0.8,0.3,1.6,0.8,2.2,1.3c0.6,0.6,1.1,1.3,1.4,2.1
			c0.3,0.8,0.5,1.7,0.5,2.7c0,2.1-0.7,3.7-2,4.9c-1.3,1.2-3.2,1.8-5.5,1.8h-2c-1,0-1.8,0-2.4,0.1c-0.6,0-1.2,0.1-1.7,0.2
			s-0.9,0.2-1.3,0.4c-0.4,0.2-0.8,0.4-1.2,0.6v6.3h-4V434.9z M319.5,424.4c0.9-0.5,1.9-0.9,3.1-1c1.1-0.1,2.3-0.2,3.5-0.2h1.9
			c1,0,1.8-0.2,2.4-0.5s0.9-1,0.9-2.1c0-0.5-0.1-0.9-0.3-1.2c-0.2-0.3-0.4-0.5-0.7-0.7c-0.3-0.2-0.7-0.3-1-0.4
			c-0.4-0.1-0.8-0.1-1.2-0.1h-8.4v6.2H319.5z"/>
		<path fill="#201600" d="M319.7,435.1h-4.6v-21.3h13.5c1,0,2,0.2,2.8,0.5c0.9,0.3,1.6,0.8,2.2,1.4s1.1,1.3,1.4,2.2
			c0.3,0.8,0.5,1.8,0.5,2.8c0,2.2-0.7,3.9-2.1,5.1s-3.3,1.9-5.7,1.9H326c-1,0-1.8,0-2.4,0.1c-0.6,0-1.2,0.1-1.6,0.2
			s-0.9,0.2-1.2,0.3c-0.3,0.1-0.7,0.3-1.1,0.5L319.7,435.1L319.7,435.1z M315.6,434.6h3.6v-6.2l0.1-0.1c0.5-0.2,0.9-0.4,1.3-0.6
			s0.8-0.3,1.3-0.4s1-0.1,1.7-0.2c0.6,0,1.4-0.1,2.4-0.1h1.9c2.3,0,4.1-0.6,5.4-1.7s1.9-2.7,1.9-4.7c0-1-0.2-1.8-0.5-2.6
			c-0.3-0.8-0.8-1.5-1.3-2c-0.6-0.5-1.3-1-2.1-1.3c-0.8-0.3-1.7-0.4-2.7-0.4h-13L315.6,434.6L315.6,434.6z M319.2,424.8v-6.9h8.7
			c0.4,0,0.9,0,1.3,0.1s0.8,0.2,1.1,0.4c0.3,0.2,0.6,0.5,0.8,0.8c0.2,0.3,0.3,0.8,0.3,1.4c0,1.2-0.3,2-1,2.4
			c-0.6,0.3-1.5,0.5-2.5,0.5H326c-1.2,0-2.4,0.1-3.5,0.2s-2.1,0.5-3,1L319.2,424.8z M319.7,418.4v5.6c0.8-0.4,1.8-0.7,2.8-0.8
			c1.1-0.1,2.3-0.2,3.5-0.2h1.9c0.9,0,1.7-0.2,2.3-0.5c0.5-0.3,0.8-0.9,0.8-1.9c0-0.5-0.1-0.8-0.2-1.1c-0.2-0.3-0.4-0.5-0.7-0.6
			c-0.3-0.2-0.6-0.3-1-0.3c-0.4-0.1-0.8-0.1-1.2-0.1h-8.2V418.4z"/>
	</g>
	<g>
		<path fill="#201600" d="M344.6,430.7h13.1v4.2h-17.2v-20.8h16.4v4.1h-12.3v5.1c0.9-0.5,1.9-0.9,3-1s2.3-0.2,3.5-0.2h3.1v4.1h-3.1
			c-1,0-1.8,0-2.4,0.1c-0.6,0-1.2,0.1-1.6,0.2c-0.5,0.1-0.9,0.2-1.2,0.4c-0.4,0.2-0.8,0.4-1.2,0.6L344.6,430.7L344.6,430.7z"/>
		<path fill="#201600" d="M357.9,435.1h-17.7v-21.3h16.9v4.6h-12.3v4.4c0.8-0.4,1.8-0.7,2.8-0.8c1.1-0.1,2.3-0.2,3.5-0.2h3.3v4.6
			h-3.3c-1,0-1.8,0-2.4,0.1c-0.6,0-1.2,0.1-1.6,0.2s-0.8,0.2-1.2,0.3c-0.3,0.1-0.7,0.3-1.1,0.5v2.9h13.1L357.9,435.1L357.9,435.1z
			 M340.8,434.6h16.7v-3.7h-13.1v-3.7l0.1-0.1c0.5-0.2,0.9-0.5,1.3-0.6c0.4-0.2,0.8-0.3,1.3-0.4s1-0.1,1.7-0.2
			c0.6,0,1.4-0.1,2.4-0.1h2.8V422h-2.8c-1.2,0-2.4,0.1-3.5,0.2s-2.1,0.5-2.9,1l-0.4,0.2v-5.8h12.3v-3.7h-15.9V434.6z"/>
	</g>
	<g>
		<path fill="#201600" d="M383,439.5v-4.6h-17.2v4.6h-4.2v-8.8h4c1-1.3,1.8-2.5,2.4-3.6s1.1-2.2,1.4-3.3c0.3-1,0.6-2,0.8-3
			c0.2-0.9,0.4-1.8,0.6-2.7h-3.3l-1.9-4.1h19v16.7h2.6v8.8H383z M380.4,430.7v-12.5H375c-0.2,1.1-0.5,2.2-0.8,3.4
			c-0.3,1.2-0.6,2.3-1,3.4s-0.8,2.1-1.2,3.1c-0.5,1-1,1.9-1.5,2.6H380.4z"/>
		<path fill="#201600" d="M387.4,439.7h-4.7v-4.6H366v4.6h-4.7v-9.3h4.2c0.9-1.2,1.7-2.4,2.3-3.5c0.6-1.1,1.1-2.2,1.4-3.2
			s0.6-2,0.8-2.9c0.2-0.8,0.3-1.6,0.5-2.4h-3.2l-2.1-4.6h19.6v16.7h2.6L387.4,439.7L387.4,439.7z M383.2,439.2h3.7v-8.3h-2.6v-16.7
			H366l1.6,3.7h3.4l-0.1,0.3c-0.2,0.9-0.4,1.8-0.6,2.7c-0.2,0.9-0.5,1.9-0.8,3c-0.3,1-0.8,2.2-1.4,3.3c-0.6,1.1-1.4,2.4-2.4,3.6
			l-0.1,0.1h-3.9v8.3h3.7v-4.6h17.7L383.2,439.2L383.2,439.2z M380.7,430.9H370l0.3-0.4c0.5-0.7,1.1-1.6,1.5-2.6
			c0.5-1,0.9-2,1.2-3.1c0.4-1.1,0.7-2.2,1-3.4c0.3-1.2,0.6-2.3,0.8-3.4v-0.2h5.8v13.1H380.7z M371,430.4h9.2v-12h-4.9
			c-0.2,1-0.5,2.1-0.8,3.2c-0.3,1.2-0.6,2.3-1,3.4s-0.8,2.2-1.3,3.2C371.9,429,371.4,429.8,371,430.4z"/>
	</g>
	<g>
		<path fill="#201600" d="M396.8,420.6c0.5,0.2,0.9,0.4,1.2,0.6c0.4,0.2,0.8,0.3,1.2,0.4c0.5,0.1,1,0.1,1.6,0.2
			c0.6,0,1.4,0.1,2.4,0.1h2.1c1,0,2,0.1,2.9,0.4s1.7,0.7,2.3,1.2c0.7,0.5,1.2,1.2,1.6,2.1c0.4,0.8,0.6,1.8,0.6,2.9s-0.2,2.1-0.6,2.9
			s-0.9,1.5-1.6,2s-1.4,0.9-2.3,1.2c-0.9,0.3-1.9,0.4-2.9,0.4h-12.8v-20.8h4.1v6.4H396.8z M405.5,430.7c0.4,0,0.8,0,1.2-0.1
			c0.4-0.1,0.7-0.2,1-0.4c0.3-0.2,0.5-0.4,0.7-0.7c0.2-0.3,0.3-0.7,0.3-1.2s-0.1-0.9-0.3-1.2c-0.2-0.3-0.4-0.5-0.7-0.7
			c-0.3-0.2-0.6-0.3-1-0.3c-0.4-0.1-0.8-0.1-1.2-0.1h-2.1c-1.2,0-2.4-0.1-3.5-0.2s-2.1-0.5-3-1v6L405.5,430.7L405.5,430.7z"/>
		<path fill="#201600" d="M405.5,435.1h-13v-21.3h4.6v6.7c0.4,0.2,0.8,0.4,1.1,0.5c0.4,0.2,0.8,0.3,1.2,0.3c0.4,0.1,1,0.1,1.6,0.2
			c0.6,0,1.4,0.1,2.4,0.1h2.1c1.1,0,2.1,0.1,3,0.4s1.7,0.7,2.4,1.3c0.7,0.6,1.2,1.3,1.6,2.1c0.4,0.9,0.6,1.9,0.6,3s-0.2,2.1-0.6,3
			c-0.4,0.8-1,1.6-1.6,2.1c-0.7,0.6-1.5,1-2.4,1.3C407.5,435,406.5,435.1,405.5,435.1z M392.9,434.6h12.6c1,0,2-0.1,2.8-0.4
			c0.9-0.3,1.6-0.6,2.2-1.2c0.6-0.5,1.1-1.2,1.5-1.9c0.4-0.8,0.6-1.7,0.6-2.8c0-1-0.2-2-0.6-2.8s-0.9-1.5-1.5-2s-1.4-0.9-2.3-1.2
			c-0.9-0.3-1.8-0.4-2.8-0.4h-2.1c-1,0-1.8,0-2.4-0.1c-0.6,0-1.2-0.1-1.7-0.2s-0.9-0.2-1.3-0.4c-0.4-0.2-0.8-0.4-1.3-0.6l-0.1-0.1
			V414h-3.7L392.9,434.6L392.9,434.6z M405.5,430.9h-8.9v-6.6l0.4,0.2c0.9,0.5,1.9,0.8,2.9,1c1.1,0.1,2.3,0.2,3.5,0.2h2.1
			c0.4,0,0.8,0,1.2,0.1c0.4,0.1,0.8,0.2,1.1,0.4c0.3,0.2,0.6,0.5,0.8,0.8c0.2,0.3,0.3,0.8,0.3,1.3c0,0.6-0.1,1-0.3,1.4
			c-0.2,0.3-0.5,0.6-0.8,0.8c-0.3,0.2-0.7,0.3-1.1,0.4C406.3,430.9,405.9,430.9,405.5,430.9z M397.1,430.4h8.4c0.4,0,0.8,0,1.2-0.1
			c0.4-0.1,0.7-0.2,0.9-0.3c0.3-0.2,0.5-0.4,0.6-0.6c0.2-0.3,0.2-0.6,0.2-1.1c0-0.4-0.1-0.8-0.2-1.1c-0.2-0.3-0.4-0.5-0.6-0.6
			c-0.3-0.2-0.6-0.3-1-0.3c-0.4-0.1-0.8-0.1-1.2-0.1h-2.1c-1.2,0-2.4-0.1-3.5-0.2c-1-0.1-1.9-0.4-2.8-0.8v5.2H397.1z"/>
	</g>
</g>
</svg>
