<?xml version="1.0" encoding="utf-8"?>
<!-- Generator: Adobe Illustrator 18.1.0, SVG Export Plug-In . SVG Version: 6.00 Build 0)  -->
<!DOCTYPE svg PUBLIC "-//W3C//DTD SVG 1.1//EN" "http://www.w3.org/Graphics/SVG/1.1/DTD/svg11.dtd">
<svg version="1.1" id="_x33_" xmlns="http://www.w3.org/2000/svg" xmlns:xlink="http://www.w3.org/1999/xlink" x="0px" y="0px"
	 viewBox="0 0 1305.2 981.5" enable-background="new 0 0 1305.2 981.5" xml:space="preserve">
<g>
	<g>
		<path fill="#FFFFFF" d="M7.5,351.2c-0.3,0-0.5-0.1-0.8-0.2l-5.5-2.3c-0.6-0.2-1-0.7-1.1-1.3s-0.1-1.2,0.3-1.7l3.5-4.9
			c0.6-0.9,1.9-1.1,2.8-0.5c0.9,0.6,1.1,1.9,0.5,2.8l-2,2.9l3.2,1.4c1,0.4,1.5,1.6,1.1,2.6C9,350.8,8.3,351.2,7.5,351.2z"/>
	</g>
	<g>
		<path fill="#FFFFFF" d="M12.1,334.6c-0.4,0-0.8-0.1-1.2-0.4c-0.9-0.6-1.1-1.9-0.5-2.8l6.6-9.4c0.6-0.9,1.9-1.1,2.8-0.5
			c0.9,0.6,1.1,1.9,0.5,2.8l-6.6,9.4C13.3,334.3,12.7,334.6,12.1,334.6z M25.4,315.7c-0.4,0-0.8-0.1-1.2-0.4
			c-0.9-0.6-1.1-1.9-0.5-2.8l6.6-9.4c0.6-0.9,1.9-1.1,2.8-0.5c0.9,0.6,1.1,1.9,0.5,2.8l-6.6,9.4C26.6,315.5,26,315.7,25.4,315.7z
			 M38.7,296.9c-0.4,0-0.8-0.1-1.2-0.4c-0.9-0.6-1.1-1.9-0.5-2.8l6.6-9.4c0.6-0.9,1.9-1.1,2.8-0.5c0.9,0.6,1.1,1.9,0.5,2.8l-6.6,9.4
			C39.9,296.6,39.3,296.9,38.7,296.9z M52,278.1c-0.4,0-0.8-0.1-1.2-0.4c-0.9-0.6-1.1-1.9-0.5-2.8l6.6-9.4c0.6-0.9,1.9-1.1,2.8-0.5
			c0.9,0.6,1.1,1.9,0.5,2.8l-6.6,9.4C53.2,277.8,52.6,278.1,52,278.1z M65.3,259.2c-0.4,0-0.8-0.1-1.2-0.4c-0.9-0.6-1.1-1.9-0.5-2.8
			l6.6-9.4c0.6-0.9,1.9-1.1,2.8-0.5c0.9,0.6,1.1,1.9,0.5,2.8l-6.6,9.4C66.5,258.9,65.9,259.2,65.3,259.2z M78.5,240.4
			c-0.4,0-0.8-0.1-1.2-0.4c-0.9-0.6-1.1-1.9-0.5-2.8l6.6-9.4c0.6-0.9,1.9-1.1,2.8-0.5c0.9,0.6,1.1,1.9,0.5,2.8l-6.6,9.4
			C79.8,240.1,79.2,240.4,78.5,240.4z M91.8,221.6c-0.4,0-0.8-0.1-1.2-0.4c-0.9-0.6-1.1-1.9-0.5-2.8l6.6-9.4
			c0.6-0.9,1.9-1.1,2.8-0.5c0.9,0.6,1.1,1.9,0.5,2.8l-6.6,9.4C93.1,221.3,92.5,221.6,91.8,221.6z M105.1,202.7
			c-0.4,0-0.8-0.1-1.2-0.4c-0.9-0.6-1.1-1.9-0.5-2.8l6.6-9.4c0.6-0.9,1.9-1.1,2.8-0.5c0.9,0.6,1.1,1.9,0.5,2.8l-6.6,9.4
			C106.4,202.4,105.7,202.7,105.1,202.7z M118.4,183.9c-0.4,0-0.8-0.1-1.2-0.4c-0.9-0.6-1.1-1.9-0.5-2.8l6.6-9.4
			c0.6-0.9,1.9-1.1,2.8-0.5c0.9,0.6,1.1,1.9,0.5,2.8L120,183C119.7,183.6,119,183.9,118.4,183.9z"/>
	</g>
	<g>
		<path fill="#FFFFFF" d="M131.7,165.1c-0.4,0-0.8-0.1-1.2-0.4c-0.9-0.6-1.1-1.9-0.5-2.8l3.5-4.9c0.3-0.5,0.8-0.8,1.4-0.8l5.9-0.8
			c1.1-0.2,2.1,0.6,2.3,1.7c0.2,1.1-0.6,2.1-1.7,2.3l-5.1,0.7l-3,4.2C132.9,164.8,132.3,165.1,131.7,165.1z"/>
	</g>
	<g>
		<path fill="#FFFFFF" d="M459.9,171.9c-0.2,0-0.4,0-0.5-0.1l-11.2-3.2c-1.1-0.3-1.7-1.4-1.4-2.5c0.3-1.1,1.4-1.7,2.5-1.4l11.2,3.2
			c1.1,0.3,1.7,1.4,1.4,2.5C461.6,171.3,460.8,171.9,459.9,171.9z M437.5,165.5c-0.2,0-0.4,0-0.5-0.1l-11.2-3.2
			c-1.1-0.3-1.7-1.4-1.4-2.5c0.3-1.1,1.4-1.7,2.5-1.4l11.2,3.2c1.1,0.3,1.7,1.4,1.4,2.5C439.2,165,438.4,165.5,437.5,165.5z
			 M415.1,159.2c-0.2,0-0.4,0-0.5-0.1l-11.2-3.2c-1.1-0.3-1.7-1.4-1.4-2.5c0.3-1.1,1.4-1.7,2.5-1.4l11.2,3.2
			c1.1,0.3,1.7,1.4,1.4,2.5C416.8,158.6,416,159.2,415.1,159.2z M152.6,157.7c-1,0-1.8-0.7-2-1.7c-0.2-1.1,0.6-2.1,1.7-2.3l11.5-1.6
			c1.1-0.1,2.1,0.6,2.3,1.7c0.2,1.1-0.6,2.1-1.7,2.3l-11.5,1.6C152.8,157.7,152.7,157.7,152.6,157.7z M175.7,154.5
			c-1,0-1.8-0.7-2-1.7c-0.2-1.1,0.6-2.1,1.7-2.3l11.5-1.6c1.1-0.2,2.1,0.6,2.3,1.7c0.2,1.1-0.6,2.1-1.7,2.3l-11.5,1.6
			C175.9,154.4,175.8,154.5,175.7,154.5z M392.7,152.9c-0.2,0-0.4,0-0.5-0.1l-11.2-3.2c-1.1-0.3-1.7-1.4-1.4-2.5
			c0.3-1.1,1.4-1.7,2.5-1.4l11.2,3.2c1.1,0.3,1.7,1.4,1.4,2.5C394.4,152.3,393.6,152.9,392.7,152.9z M198.7,151.2
			c-1,0-1.8-0.7-2-1.7c-0.2-1.1,0.6-2.1,1.7-2.3l11.5-1.6c1.1-0.2,2.1,0.6,2.3,1.7c0.2,1.1-0.6,2.1-1.7,2.3l-11.5,1.6
			C198.9,151.2,198.8,151.2,198.7,151.2z M221.8,148c-1,0-1.8-0.7-2-1.7c-0.2-1.1,0.6-2.1,1.7-2.3l11.5-1.6c1.1-0.2,2.1,0.6,2.3,1.7
			c0.2,1.1-0.6,2.1-1.7,2.3l-11.5,1.6C222,148,221.9,148,221.8,148z M370.3,146.6c-0.2,0-0.4,0-0.5-0.1l-11.2-3.2
			c-1.1-0.3-1.7-1.4-1.4-2.5c0.3-1.1,1.4-1.7,2.5-1.4l11.2,3.2c1.1,0.3,1.7,1.4,1.4,2.5C372,146,371.2,146.6,370.3,146.6z
			 M244.8,144.7c-1,0-1.8-0.7-2-1.7c-0.2-1.1,0.6-2.1,1.7-2.3l11.5-1.6c1.1-0.2,2.1,0.6,2.3,1.7c0.2,1.1-0.6,2.1-1.7,2.3l-11.5,1.6
			C245,144.7,244.9,144.7,244.8,144.7z M267.9,141.5c-1,0-1.8-0.7-2-1.7c-0.2-1.1,0.6-2.1,1.7-2.3l11.5-1.6c1.1-0.2,2.1,0.6,2.3,1.7
			c0.2,1.1-0.6,2.1-1.7,2.3l-11.5,1.6C268.1,141.5,268,141.5,267.9,141.5z M347.9,140.3c-0.2,0-0.4,0-0.5-0.1l-11.2-3.2
			c-1.1-0.3-1.7-1.4-1.4-2.5c0.3-1.1,1.4-1.7,2.5-1.4l11.2,3.2c1.1,0.3,1.7,1.4,1.4,2.5C349.6,139.7,348.8,140.3,347.9,140.3z
			 M290.9,138.3c-1,0-1.8-0.7-2-1.7c-0.2-1.1,0.6-2.1,1.7-2.3l11.5-1.6c1.1-0.2,2.1,0.6,2.3,1.7s-0.6,2.1-1.7,2.3l-11.5,1.6
			C291.1,138.3,291,138.3,290.9,138.3z M314,135c-1,0-1.8-0.7-2-1.7c-0.2-1.1,0.6-2.1,1.7-2.3l10.2-1.4c0.3,0,0.6,0,0.8,0.1l1.3,0.4
			c1.1,0.3,1.7,1.4,1.4,2.5c-0.3,1.1-1.4,1.7-2.5,1.4l-0.9-0.2l-9.8,1.4C314.2,135,314.1,135,314,135z"/>
	</g>
	<g>
		<path fill="#FFFFFF" d="M477.2,182.6c-1.1,0-1.9-0.8-2-1.9l-0.2-4.6l-4.4-1.2c-1.1-0.3-1.7-1.4-1.4-2.5c0.3-1.1,1.4-1.7,2.5-1.4
			l5.8,1.6c0.8,0.2,1.4,1,1.5,1.8l0.3,6c0.1,1.1-0.8,2-1.9,2.1C477.3,182.6,477.2,182.6,477.2,182.6z"/>
	</g>
	<g>
		<path fill="#FFFFFF" d="M478.1,198.9c-1.1,0-1.9-0.8-2-1.9l-0.4-8.1c-0.1-1.1,0.8-2,1.9-2.1c1.1-0.1,2,0.8,2.1,1.9l0.4,8.1
			c0.1,1.1-0.8,2-1.9,2.1C478.2,198.9,478.1,198.9,478.1,198.9z"/>
	</g>
	<g>
		<path fill="#FFFFFF" d="M483.8,216.4c-0.4,0-0.8-0.1-1.1-0.3l-5-3.3c-0.5-0.3-0.9-0.9-0.9-1.6l-0.3-6c-0.1-1.1,0.8-2,1.9-2.1
			c1.1-0.1,2,0.8,2.1,1.9l0.3,5l4.2,2.8c0.9,0.6,1.2,1.9,0.6,2.8C485.1,216.1,484.5,216.4,483.8,216.4z"/>
	</g>
	<g>
		<path fill="#FFFFFF" d="M551.7,256.6c-1,0-1.9-0.7-2-1.8c-0.1-1.1,0.7-2.1,1.8-2.2l11.4-1.3c1.1-0.1,2.1,0.7,2.2,1.8
			c0.1,1.1-0.7,2.1-1.8,2.2l-11.4,1.3C551.8,256.6,551.8,256.6,551.7,256.6z M541.1,254.5c-0.4,0-0.8-0.1-1.1-0.3l-9.5-6.3
			c-0.9-0.6-1.2-1.9-0.6-2.8c0.6-0.9,1.9-1.2,2.8-0.6l9.5,6.3c0.9,0.6,1.2,1.9,0.6,2.8C542.4,254.1,541.8,254.5,541.1,254.5z
			 M574.5,253.9c-1,0-1.9-0.8-2-1.8c-0.1-1.1,0.7-2.1,1.8-2.2l11.4-1.3c1.1-0.1,2.1,0.7,2.2,1.8c0.1,1.1-0.7,2.1-1.8,2.2l-11.4,1.3
			C574.6,253.9,574.5,253.9,574.5,253.9z M597.2,251.3c-1,0-1.9-0.8-2-1.8c-0.1-1.1,0.7-2.1,1.8-2.2l11.4-1.3
			c1.1-0.1,2.1,0.7,2.2,1.8c0.1,1.1-0.7,2.1-1.8,2.2l-11.4,1.3C597.4,251.3,597.3,251.3,597.2,251.3z M619.2,246.1
			c-0.7,0-1.4-0.4-1.8-1.1c-0.5-1-0.1-2.2,0.8-2.7l10.2-5.3c1-0.5,2.2-0.1,2.7,0.8s0.1,2.2-0.8,2.7l-10.2,5.3
			C619.9,246,619.5,246.1,619.2,246.1z M522,241.8c-0.4,0-0.8-0.1-1.1-0.3l-9.5-6.3c-0.9-0.6-1.2-1.9-0.6-2.8s1.9-1.2,2.8-0.6
			l9.5,6.3c0.9,0.6,1.2,1.9,0.6,2.8C523.3,241.5,522.7,241.8,522,241.8z M502.9,229.1c-0.4,0-0.8-0.1-1.1-0.3l-9.5-6.3
			c-0.9-0.6-1.2-1.9-0.6-2.8c0.6-0.9,1.9-1.2,2.8-0.6l9.5,6.3c0.9,0.6,1.2,1.9,0.6,2.8C504.2,228.8,503.6,229.1,502.9,229.1z"/>
	</g>
	<g>
		<path fill="#FFFFFF" d="M639.5,235.4c-0.7,0-1.4-0.4-1.8-1.1c-0.5-1-0.1-2.2,0.8-2.7l5.3-2.8c0.5-0.3,1.1-0.3,1.6-0.1l5.6,2.1
			c1,0.4,1.6,1.5,1.2,2.6s-1.5,1.6-2.6,1.2l-4.8-1.8l-4.5,2.4C640.2,235.3,639.8,235.4,639.5,235.4z"/>
	</g>
	<g>
		<path fill="#FFFFFF" d="M689.3,245.5c-1,0-1.9-0.7-2-1.8c-0.1-1.1,0.7-2.1,1.8-2.2l13.5-1.6c1.1-0.1,2.1,0.7,2.2,1.8
			s-0.7,2.1-1.8,2.2l-13.5,1.6C689.5,245.5,689.4,245.5,689.3,245.5z M676.1,244c-0.2,0-0.5,0-0.7-0.1l-12.8-4.7
			c-1-0.4-1.6-1.5-1.2-2.6c0.4-1,1.5-1.6,2.6-1.2l12.8,4.7c1,0.4,1.6,1.5,1.2,2.6C677.7,243.5,676.9,244,676.1,244z"/>
	</g>
	<g>
		<path fill="#FFFFFF" d="M716.4,242.3c-1,0-1.9-0.7-2-1.8c-0.1-1.1,0.7-2.1,1.8-2.2l4.7-0.6l1.6-4.5c0.4-1,1.5-1.6,2.6-1.2
			c1,0.4,1.6,1.5,1.2,2.6l-2,5.7c-0.3,0.7-0.9,1.2-1.7,1.3l-6,0.7C716.5,242.3,716.5,242.3,716.4,242.3z"/>
	</g>
	<g>
		<path fill="#FFFFFF" d="M728.4,224.8c-0.2,0-0.5,0-0.7-0.1c-1-0.4-1.6-1.5-1.2-2.6l4-11.2c0.4-1,1.5-1.6,2.6-1.2
			c1,0.4,1.6,1.5,1.2,2.6l-4,11.2C730,224.3,729.2,224.8,728.4,224.8z M733.7,201.9c-1.1,0-1.9-0.8-2-1.9l-0.7-11.9
			c-0.1-1.1,0.8-2,1.9-2.1c1.1-0.1,2,0.8,2.1,1.9l0.7,11.9c0.1,1.1-0.8,2-1.9,2.1C733.8,201.9,733.8,201.9,733.7,201.9z
			 M732.4,178.2c-1.1,0-1.9-0.8-2-1.9l-0.7-11.9c-0.1-1.1,0.8-2,1.9-2.1c1.1-0.1,2,0.8,2.1,1.9l0.7,11.9c0.1,1.1-0.8,2-1.9,2.1
			C732.5,178.2,732.4,178.2,732.4,178.2z M731.1,154.4c-1.1,0-1.9-0.8-2-1.9l-0.5-9l-0.9-1.8c-0.5-1-0.1-2.2,0.9-2.7
			c1-0.5,2.2-0.1,2.7,0.9l1.1,2.2c0.1,0.2,0.2,0.5,0.2,0.8l0.5,9.5c0.1,1.1-0.8,2-1.9,2.1C731.2,154.4,731.1,154.4,731.1,154.4z
			 M724,132.1c-0.7,0-1.4-0.4-1.8-1.1c-2.3-4.4-4.1-7.9-5.6-10.5c-0.5-1-0.2-2.2,0.8-2.7c1-0.5,2.2-0.2,2.7,0.8
			c1.4,2.6,3.3,6.2,5.6,10.6c0.5,1,0.1,2.2-0.9,2.7C724.6,132.1,724.3,132.1,724,132.1z M719.1,112.3c-0.5,0-1.1-0.2-1.5-0.6
			c-0.7-0.8-0.7-2.1,0.1-2.8c2.2-2,5.2-4.7,8.9-8c0.8-0.7,2.1-0.7,2.8,0.2c0.7,0.8,0.7,2.1-0.2,2.8c-3.7,3.3-6.7,6-8.8,8
			C720.1,112.1,719.6,112.3,719.1,112.3z M736.9,96.3c-0.6,0-1.1-0.2-1.5-0.7c-0.7-0.8-0.7-2.1,0.2-2.8c3.6-3.2,6.9-6.1,8.9-7.9
			c0.8-0.7,2.1-0.7,2.8,0.2c0.7,0.8,0.7,2.1-0.2,2.8c-2.1,1.8-5.3,4.7-8.9,7.9C737.8,96.1,737.4,96.3,736.9,96.3z M756.7,84.1
			c-0.9,0-1.7-0.6-1.9-1.5c-0.3-1.1,0.4-2.2,1.5-2.4l11.5-2.9c1.1-0.3,2.2,0.4,2.4,1.5c0.3,1.1-0.4,2.2-1.5,2.4L757.2,84
			C757,84.1,756.8,84.1,756.7,84.1z M779.8,78.3c-0.9,0-1.7-0.6-1.9-1.5c-0.3-1.1,0.4-2.2,1.5-2.4l11.5-2.9c1.1-0.3,2.2,0.4,2.4,1.5
			c0.3,1.1-0.4,2.2-1.5,2.4l-11.5,2.9C780.1,78.3,779.9,78.3,779.8,78.3z M802.8,72.5c-0.9,0-1.7-0.6-1.9-1.5
			c-0.3-1.1,0.4-2.2,1.5-2.4l11.5-2.9c1.1-0.3,2.2,0.4,2.4,1.5c0.3,1.1-0.4,2.2-1.5,2.4l-11.5,2.9C803.2,72.5,803,72.5,802.8,72.5z
			 M825.9,66.7c-0.9,0-1.7-0.6-1.9-1.5c-0.3-1.1,0.4-2.2,1.5-2.4l11.5-2.9c1.1-0.3,2.2,0.4,2.4,1.5c0.3,1.1-0.4,2.2-1.5,2.4
			l-11.5,2.9C826.3,66.6,826.1,66.7,825.9,66.7z M849,60.9c-0.9,0-1.7-0.6-1.9-1.5c-0.3-1.1,0.4-2.2,1.5-2.4l11.5-2.9
			c1.1-0.3,2.2,0.4,2.4,1.5c0.3,1.1-0.4,2.2-1.5,2.4l-11.5,2.9C849.3,60.8,849.2,60.9,849,60.9z M872.1,55.1c-0.9,0-1.7-0.6-1.9-1.5
			c-0.3-1.1,0.4-2.2,1.5-2.4l11.5-2.9c1.1-0.3,2.2,0.4,2.4,1.5c0.3,1.1-0.4,2.2-1.5,2.4L872.6,55C872.4,55,872.3,55.1,872.1,55.1z
			 M895.2,49.2c-0.9,0-1.7-0.6-1.9-1.5c-0.3-1.1,0.4-2.2,1.5-2.4l11.5-2.9c1.1-0.3,2.2,0.4,2.4,1.5c0.3,1.1-0.4,2.2-1.5,2.4
			l-11.5,2.9C895.5,49.2,895.4,49.2,895.2,49.2z M918.3,43.4c-0.9,0-1.7-0.6-1.9-1.5c-0.3-1.1,0.4-2.2,1.5-2.4l11.5-2.9
			c1.1-0.3,2.2,0.4,2.4,1.5c0.3,1.1-0.4,2.2-1.5,2.4l-11.5,2.9C918.6,43.4,918.5,43.4,918.3,43.4z M941.4,37.6
			c-0.9,0-1.7-0.6-1.9-1.5c-0.3-1.1,0.4-2.2,1.5-2.4l8.8-2.2l1.5-1.3c0.8-0.7,2.1-0.6,2.8,0.2c0.7,0.8,0.6,2.1-0.2,2.8l-1.8,1.6
			c-0.2,0.2-0.5,0.3-0.8,0.4l-9.2,2.3C941.7,37.6,941.5,37.6,941.4,37.6z"/>
	</g>
	<g>
		<path fill="#FFFFFF" d="M961.3,26.3c-0.6,0-1.1-0.2-1.5-0.7c-0.7-0.8-0.6-2.1,0.2-2.8l3.5-3l-1.5-4.4c-0.4-1,0.2-2.2,1.2-2.5
			c1-0.4,2.2,0.2,2.5,1.2l1.9,5.7c0.3,0.8,0,1.6-0.6,2.2l-4.6,3.9C962.2,26.1,961.7,26.3,961.3,26.3z"/>
	</g>
	<g>
		<path fill="#FFFFFF" d="M961.5,9.7c-0.8,0-1.6-0.5-1.9-1.4l-1.9-5.7c-0.2-0.7-0.1-1.4,0.4-2c0.5-0.5,1.2-0.8,1.9-0.6l5.9,1.2
			c1.1,0.2,1.8,1.3,1.6,2.4c-0.2,1.1-1.3,1.8-2.4,1.6l-2.5-0.5l0.8,2.4c0.4,1-0.2,2.2-1.2,2.5C962,9.6,961.7,9.7,961.5,9.7z"/>
	</g>
	<g>
		<path fill="#FFFFFF" d="M1293.8,108.2c-0.7,0-1.3-0.3-1.7-0.9l-6.1-9.9c-0.6-0.9-0.3-2.2,0.6-2.8c0.9-0.6,2.2-0.3,2.8,0.6l6.1,9.9
			c0.6,0.9,0.3,2.2-0.6,2.8C1294.6,108.1,1294.2,108.2,1293.8,108.2z M1279.1,91.6c-0.2,0-0.4,0-0.6-0.1l-11.1-3.4
			c-1.1-0.3-1.7-1.4-1.3-2.5c0.3-1.1,1.4-1.6,2.5-1.3l11.1,3.4c1.1,0.3,1.7,1.4,1.3,2.5C1280.8,91,1280,91.6,1279.1,91.6z
			 M1256.9,84.8c-0.2,0-0.4,0-0.6-0.1l-11.1-3.4c-1.1-0.3-1.7-1.4-1.3-2.5c0.3-1.1,1.4-1.6,2.5-1.3l11.1,3.4
			c1.1,0.3,1.7,1.4,1.3,2.5C1258.5,84.2,1257.7,84.8,1256.9,84.8z M1234.6,78c-0.2,0-0.4,0-0.6-0.1l-11.1-3.4
			c-1.1-0.3-1.7-1.4-1.3-2.5c0.3-1.1,1.4-1.6,2.5-1.3l11.1,3.4c1.1,0.3,1.7,1.4,1.3,2.5C1236.3,77.4,1235.5,78,1234.6,78z
			 M1212.4,71.2c-0.2,0-0.4,0-0.6-0.1l-11.1-3.4c-1.1-0.3-1.7-1.4-1.3-2.5c0.3-1.1,1.4-1.6,2.5-1.3l11.1,3.4
			c1.1,0.3,1.7,1.4,1.3,2.5C1214,70.6,1213.2,71.2,1212.4,71.2z M1190.1,64.4c-0.2,0-0.4,0-0.6-0.1l-11.1-3.4
			c-1.1-0.3-1.7-1.4-1.3-2.5c0.3-1.1,1.5-1.6,2.5-1.3l11.1,3.4c1.1,0.3,1.7,1.4,1.3,2.5C1191.8,63.8,1191,64.4,1190.1,64.4z
			 M1167.9,57.6c-0.2,0-0.4,0-0.6-0.1l-11.1-3.4c-1.1-0.3-1.7-1.4-1.3-2.5c0.3-1.1,1.5-1.6,2.5-1.3l11.1,3.4
			c1.1,0.3,1.7,1.4,1.3,2.5C1169.5,57,1168.8,57.6,1167.9,57.6z M1145.7,50.7c-0.2,0-0.4,0-0.6-0.1l-11.1-3.4
			c-1.1-0.3-1.7-1.4-1.3-2.5c0.3-1.1,1.4-1.6,2.5-1.3l11.1,3.4c1.1,0.3,1.7,1.4,1.3,2.5C1147.3,50.2,1146.5,50.7,1145.7,50.7z
			 M1123.4,43.9c-0.2,0-0.4,0-0.6-0.1l-11.1-3.4c-1.1-0.3-1.7-1.4-1.3-2.5c0.3-1.1,1.4-1.6,2.5-1.3L1124,40c1.1,0.3,1.7,1.4,1.3,2.5
			C1125.1,43.4,1124.3,43.9,1123.4,43.9z M1101.2,37.1c-0.2,0-0.4,0-0.6-0.1l-11.1-3.4c-1.1-0.3-1.7-1.4-1.3-2.5
			c0.3-1.1,1.5-1.6,2.5-1.3l11.1,3.4c1.1,0.3,1.7,1.4,1.3,2.5C1102.8,36.6,1102,37.1,1101.2,37.1z M1078.9,30.3
			c-0.2,0-0.4,0-0.6-0.1l-11.1-3.4c-1.1-0.3-1.7-1.4-1.3-2.5c0.3-1.1,1.4-1.6,2.5-1.3l11.1,3.4c1.1,0.3,1.7,1.4,1.3,2.5
			C1080.6,29.8,1079.8,30.3,1078.9,30.3z M1056.7,23.5c-0.2,0-0.4,0-0.6-0.1l-2.2-0.7L1045,21c-1.1-0.2-1.8-1.3-1.6-2.4
			c0.2-1.1,1.3-1.8,2.4-1.6l9,1.8c0.1,0,0.1,0,0.2,0l2.3,0.7c1.1,0.3,1.6,1.4,1.3,2.5C1058.3,23,1057.5,23.5,1056.7,23.5z
			 M1033.9,18.7c-0.1,0-0.3,0-0.4,0l-11.4-2.3c-1.1-0.2-1.8-1.3-1.6-2.4c0.2-1.1,1.3-1.8,2.4-1.6l11.4,2.3c1.1,0.2,1.8,1.3,1.6,2.4
			C1035.7,18.1,1034.9,18.7,1033.9,18.7z M1011.1,14.2c-0.1,0-0.3,0-0.4,0l-11.4-2.3c-1.1-0.2-1.8-1.3-1.6-2.4s1.3-1.8,2.4-1.6
			l11.4,2.3c1.1,0.2,1.8,1.3,1.6,2.4C1012.9,13.6,1012.1,14.2,1011.1,14.2z M988.3,9.7c-0.1,0-0.3,0-0.4,0l-11.4-2.3
			c-1.1-0.2-1.8-1.3-1.6-2.4c0.2-1.1,1.3-1.8,2.4-1.6l11.4,2.3c1.1,0.2,1.8,1.3,1.6,2.4C990.1,9,989.2,9.7,988.3,9.7z"/>
	</g>
	<g>
		<path fill="#FFFFFF" d="M1299.7,128c-0.4,0-0.8-0.1-1.2-0.4c-0.9-0.6-1.1-1.9-0.5-2.8l2.7-3.8l-2.5-4c-0.6-0.9-0.3-2.2,0.6-2.8
			c0.9-0.6,2.2-0.3,2.8,0.6l3.2,5.1c0.4,0.7,0.4,1.6-0.1,2.2l-3.5,4.9C1300.9,127.8,1300.3,128,1299.7,128z"/>
	</g>
	<g>
		<path fill="#FFFFFF" d="M1290.6,499.2c-0.9,0-1.7-0.6-1.9-1.5l-2.7-11.4c-0.3-1.1,0.4-2.2,1.5-2.4c1.1-0.3,2.2,0.4,2.4,1.5
			l2.7,11.4c0.3,1.1-0.4,2.2-1.5,2.4C1290.9,499.2,1290.7,499.2,1290.6,499.2z M1285.1,476.4c-0.9,0-1.7-0.6-1.9-1.5l-2.7-11.4
			c-0.3-1.1,0.4-2.2,1.5-2.4c1.1-0.3,2.2,0.4,2.4,1.5l2.7,11.4c0.3,1.1-0.4,2.2-1.5,2.4C1285.4,476.4,1285.3,476.4,1285.1,476.4z
			 M1279.7,453.6c-0.9,0-1.7-0.6-1.9-1.5l-2.7-11.4c-0.3-1.1,0.4-2.2,1.5-2.4c1.1-0.3,2.2,0.4,2.4,1.5l2.7,11.4
			c0.3,1.1-0.4,2.2-1.5,2.4C1280,453.6,1279.8,453.6,1279.7,453.6z M1274.2,430.7c-0.9,0-1.7-0.6-1.9-1.5l-2.7-11.4
			c-0.3-1.1,0.4-2.2,1.5-2.4c1.1-0.3,2.2,0.4,2.4,1.5l2.7,11.4c0.3,1.1-0.4,2.2-1.5,2.4C1274.5,430.7,1274.4,430.7,1274.2,430.7z
			 M1268.8,407.9c-0.9,0-1.7-0.6-1.9-1.5l-2.7-11.4c-0.3-1.1,0.4-2.2,1.5-2.4c1.1-0.3,2.2,0.4,2.4,1.5l2.7,11.4
			c0.3,1.1-0.4,2.2-1.5,2.4C1269.1,407.9,1268.9,407.9,1268.8,407.9z M1263.3,385.1c-0.9,0-1.7-0.6-1.9-1.5l-2.7-11.4
			c-0.3-1.1,0.4-2.2,1.5-2.4c1.1-0.3,2.2,0.4,2.4,1.5l2.7,11.4c0.3,1.1-0.4,2.2-1.5,2.4C1263.6,385.1,1263.5,385.1,1263.3,385.1z
			 M1257.8,362.3c-0.9,0-1.7-0.6-1.9-1.5l-2.7-11.4c-0.3-1.1,0.4-2.2,1.5-2.4c1.1-0.3,2.2,0.4,2.4,1.5l2.7,11.4
			c0.3,1.1-0.4,2.2-1.5,2.4C1258.1,362.3,1258,362.3,1257.8,362.3z M1252.4,339.4c-0.9,0-1.7-0.6-1.9-1.5l-2.7-11.4
			c-0.3-1.1,0.4-2.2,1.5-2.4c1.1-0.3,2.2,0.4,2.4,1.5l2.7,11.4c0.3,1.1-0.4,2.2-1.5,2.4C1252.7,339.4,1252.5,339.4,1252.4,339.4z
			 M1246.9,316.6c-0.9,0-1.7-0.6-1.9-1.5l-2.7-11.4c-0.3-1.1,0.4-2.2,1.5-2.4c1.1-0.3,2.2,0.4,2.4,1.5l2.7,11.4
			c0.3,1.1-0.4,2.2-1.5,2.4C1247.2,316.6,1247.1,316.6,1246.9,316.6z M1241.5,293.8c-0.9,0-1.7-0.6-1.9-1.5l-2.7-11.4
			c-0.3-1.1,0.4-2.2,1.5-2.4c1.1-0.3,2.2,0.4,2.4,1.5l2.7,11.4c0.3,1.1-0.4,2.2-1.5,2.4C1241.8,293.8,1241.6,293.8,1241.5,293.8z
			 M1237.3,270.7c-1,0-1.9-0.8-2-1.8l-1.2-11.7c-0.1-1.1,0.7-2.1,1.8-2.2c1.1-0.1,2.1,0.7,2.2,1.8l1.2,11.7c0.1,1.1-0.7,2.1-1.8,2.2
			C1237.5,270.7,1237.4,270.7,1237.3,270.7z M1234.9,247.4c-1,0-1.9-0.8-2-1.8l-1.2-11.7c-0.1-1.1,0.7-2.1,1.8-2.2
			c1.1-0.1,2.1,0.7,2.2,1.8l1.2,11.7c0.1,1.1-0.7,2.1-1.8,2.2C1235.1,247.4,1235,247.4,1234.9,247.4z M1232.6,224
			c-1,0-1.9-0.8-2-1.8l-0.1-0.8c0-0.5,0.1-1,0.4-1.4l6.3-8.9c0.6-0.9,1.9-1.1,2.8-0.5s1.1,1.9,0.5,2.8l-5.9,8.3l0,0.1
			c0.1,1.1-0.7,2.1-1.8,2.2C1232.7,224,1232.6,224,1232.6,224z M1245.5,204.7c-0.4,0-0.8-0.1-1.2-0.4c-0.9-0.6-1.1-1.9-0.5-2.8
			l6.8-9.6c0.6-0.9,1.9-1.1,2.8-0.5c0.9,0.6,1.1,1.9,0.5,2.8l-6.8,9.6C1246.8,204.4,1246.2,204.7,1245.5,204.7z M1259.1,185.6
			c-0.4,0-0.8-0.1-1.2-0.4c-0.9-0.6-1.1-1.9-0.5-2.8l6.8-9.6c0.6-0.9,1.9-1.1,2.8-0.5c0.9,0.6,1.1,1.9,0.5,2.8l-6.8,9.6
			C1260.3,185.3,1259.7,185.6,1259.1,185.6z M1272.6,166.4c-0.4,0-0.8-0.1-1.2-0.4c-0.9-0.6-1.1-1.9-0.5-2.8l6.8-9.6
			c0.6-0.9,1.9-1.1,2.8-0.5c0.9,0.6,1.1,1.9,0.5,2.8l-6.8,9.6C1273.9,166.1,1273.2,166.4,1272.6,166.4z M1286.2,147.2
			c-0.4,0-0.8-0.1-1.2-0.4c-0.9-0.6-1.1-1.9-0.5-2.8l6.8-9.6c0.6-0.9,1.9-1.1,2.8-0.5c0.9,0.6,1.1,1.9,0.5,2.8l-6.8,9.6
			C1287.4,146.9,1286.8,147.2,1286.2,147.2z"/>
	</g>
	<g>
		<path fill="#FFFFFF" d="M1294.7,516.5c-0.3,0-0.5-0.1-0.8-0.2l-5.5-2.3c-1-0.4-1.5-1.6-1.1-2.6c0.4-1,1.6-1.5,2.6-1.1l1.9,0.8
			l-0.5-2c-0.3-1.1,0.4-2.2,1.5-2.4c1.1-0.3,2.2,0.4,2.4,1.5l1.4,5.8c0.2,0.7-0.1,1.5-0.6,2C1295.7,516.3,1295.2,516.5,1294.7,516.5
			z"/>
	</g>
	<g>
		<path fill="#FFFFFF" d="M1282.8,511.5c-0.3,0-0.5,0-0.8-0.2l-6.4-2.6c-1-0.4-1.5-1.6-1.1-2.6c0.4-1,1.6-1.5,2.6-1.1l6.4,2.6
			c1,0.4,1.5,1.6,1.1,2.6C1284.4,511.1,1283.6,511.5,1282.8,511.5z"/>
	</g>
	<g>
		<path fill="#FFFFFF" d="M1260.9,508.7c-0.4,0-0.9-0.1-1.2-0.4c-0.9-0.7-1-1.9-0.3-2.8l3.7-4.7c0.6-0.7,1.5-1,2.3-0.6l5.5,2.3
			c1,0.4,1.5,1.6,1.1,2.6s-1.6,1.5-2.6,1.1l-4.1-1.7l-2.8,3.5C1262.1,508.4,1261.5,508.7,1260.9,508.7z"/>
	</g>
	<g>
		<path fill="#FFFFFF" d="M1139.9,763.3c-0.5,0-0.9-0.2-1.3-0.5c-0.8-0.7-1-2-0.3-2.8l7.7-9.2c0.7-0.8,2-1,2.8-0.3
			c0.8,0.7,1,2,0.3,2.8l-7.7,9.2C1141.1,763.1,1140.5,763.3,1139.9,763.3z M1155.3,745c-0.5,0-0.9-0.2-1.3-0.5c-0.8-0.7-1-2-0.3-2.8
			l7.7-9.2c0.7-0.8,2-1,2.8-0.3c0.8,0.7,1,2,0.3,2.8l-7.7,9.2C1156.4,744.7,1155.9,745,1155.3,745z M1170.3,726.4
			c-0.1,0-0.2,0-0.2,0c-1.1-0.1-1.9-1.1-1.8-2.2l1.3-11.9c0.1-1.1,1.1-1.9,2.2-1.8c1.1,0.1,1.9,1.1,1.8,2.2l-1.3,11.9
			C1172.2,725.7,1171.3,726.4,1170.3,726.4z M1173,702.7c-0.1,0-0.2,0-0.2,0c-1.1-0.1-1.9-1.1-1.8-2.2l1.3-11.9
			c0.1-1.1,1.1-1.9,2.2-1.8c1.1,0.1,1.9,1.1,1.8,2.2l-1.3,11.9C1174.9,701.9,1174,702.7,1173,702.7z M1175.7,678.9
			c-0.1,0-0.2,0-0.2,0c-1.1-0.1-1.9-1.1-1.8-2.2l1.2-10.5c0-0.2,0.1-0.4,0.2-0.7l0.6-1.3c0.5-1,1.7-1.4,2.7-0.9
			c1,0.5,1.4,1.7,0.9,2.7l-0.5,1l-1.2,10.2C1177.6,678.1,1176.7,678.9,1175.7,678.9z M1182.8,656.4c-0.3,0-0.6-0.1-0.9-0.2
			c-1-0.5-1.4-1.7-0.9-2.7l5.3-10.8c0.5-1,1.7-1.4,2.7-0.9c1,0.5,1.4,1.7,0.9,2.7l-5.3,10.8C1184.2,655.9,1183.5,656.4,1182.8,656.4
			z M1193.3,634.8c-0.3,0-0.6-0.1-0.9-0.2c-1-0.5-1.4-1.7-0.9-2.7l5.3-10.8c0.5-1,1.7-1.4,2.7-0.9c1,0.5,1.4,1.7,0.9,2.7l-5.3,10.8
			C1194.7,634.4,1194,634.8,1193.3,634.8z M1203.8,613.3c-0.3,0-0.6-0.1-0.9-0.2c-1-0.5-1.4-1.7-0.9-2.7l5.3-10.8
			c0.5-1,1.7-1.4,2.7-0.9c1,0.5,1.4,1.7,0.9,2.7l-5.3,10.8C1205.3,612.9,1204.5,613.3,1203.8,613.3z M1214.3,591.8
			c-0.3,0-0.6-0.1-0.9-0.2c-1-0.5-1.4-1.7-0.9-2.7l5.3-10.8c0.5-1,1.7-1.4,2.7-0.9c1,0.5,1.4,1.7,0.9,2.7l-5.3,10.8
			C1215.8,591.4,1215.1,591.8,1214.3,591.8z M1224.9,570.3c-0.3,0-0.6-0.1-0.9-0.2c-1-0.5-1.4-1.7-0.9-2.7l5.3-10.8
			c0.5-1,1.7-1.4,2.7-0.9c1,0.5,1.4,1.7,0.9,2.7l-5.3,10.8C1226.3,569.9,1225.6,570.3,1224.9,570.3z M1235.2,548.8
			c-0.3,0-0.6-0.1-0.9-0.2c-1-0.5-1.4-1.7-1-2.7l5.1-10.8c0.5-1,1.7-1.4,2.7-1c1,0.5,1.4,1.7,1,2.7l-5.1,10.8
			C1236.7,548.3,1236,548.8,1235.2,548.8z M1246.2,527.6c-0.4,0-0.9-0.1-1.2-0.4c-0.9-0.7-1-1.9-0.3-2.8l7.4-9.4
			c0.7-0.9,1.9-1,2.8-0.3c0.9,0.7,1,1.9,0.3,2.8l-7.4,9.4C1247.4,527.3,1246.8,527.6,1246.2,527.6z"/>
	</g>
	<g>
		<path fill="#FFFFFF" d="M1133.6,780.1c-0.3,0-0.7-0.1-1-0.3l-5.2-3c-0.5-0.3-0.9-0.8-1-1.4c-0.1-0.6,0.1-1.2,0.4-1.6l3.8-4.6
			c0.7-0.8,2-1,2.8-0.3c0.8,0.7,1,2,0.3,2.8l-2.3,2.8l3.1,1.8c1,0.6,1.3,1.8,0.7,2.7C1134.9,779.8,1134.3,780.1,1133.6,780.1z"/>
	</g>
	<g>
		<path fill="#FFFFFF" d="M1176.3,804.9c-0.3,0-0.7-0.1-1-0.3l-10.7-6.2c-1-0.6-1.3-1.8-0.7-2.7c0.6-1,1.8-1.3,2.7-0.7l10.7,6.2
			c1,0.6,1.3,1.8,0.7,2.7C1177.6,804.6,1177,804.9,1176.3,804.9z M1154.9,792.5c-0.3,0-0.7-0.1-1-0.3l-10.7-6.2
			c-1-0.6-1.3-1.8-0.7-2.7c0.6-1,1.8-1.3,2.7-0.7l10.7,6.2c1,0.6,1.3,1.8,0.7,2.7C1156.3,792.2,1155.6,792.5,1154.9,792.5z"/>
	</g>
	<g>
		<path fill="#FFFFFF" d="M1191.6,820.1c-0.1,0-0.1,0-0.2,0c-1.1-0.1-1.9-1.1-1.8-2.2l0.5-4.7l-4.1-2.4c-1-0.6-1.3-1.8-0.7-2.7
			c0.6-1,1.8-1.3,2.7-0.7l5.2,3c0.7,0.4,1.1,1.1,1,1.9l-0.6,6C1193.4,819.3,1192.6,820.1,1191.6,820.1z"/>
	</g>
	<g>
		<path fill="#FFFFFF" d="M1177.3,963.6c-0.1,0-0.1,0-0.2,0c-1.1-0.1-1.9-1.1-1.8-2.2l1.2-12c0.1-1.1,1.1-1.9,2.2-1.8
			c1.1,0.1,1.9,1.1,1.8,2.2l-1.2,12C1179.2,962.8,1178.3,963.6,1177.3,963.6z M1179.7,939.7c-0.1,0-0.1,0-0.2,0
			c-1.1-0.1-1.9-1.1-1.8-2.2l1.2-12c0.1-1.1,1.1-1.9,2.2-1.8c1.1,0.1,1.9,1.1,1.8,2.2l-1.2,12
			C1181.6,938.9,1180.7,939.7,1179.7,939.7z M1182.1,915.7c-0.1,0-0.1,0-0.2,0c-1.1-0.1-1.9-1.1-1.8-2.2l1.2-12
			c0.1-1.1,1.1-1.9,2.2-1.8c1.1,0.1,1.9,1.1,1.8,2.2l-1.2,12C1184,915,1183.1,915.7,1182.1,915.7z M1184.4,891.8c-0.1,0-0.1,0-0.2,0
			c-1.1-0.1-1.9-1.1-1.8-2.2l1.2-12c0.1-1.1,1.1-1.9,2.2-1.8c1.1,0.1,1.9,1.1,1.8,2.2l-1.2,12
			C1186.3,891.1,1185.5,891.8,1184.4,891.8z M1186.8,867.9c-0.1,0-0.1,0-0.2,0c-1.1-0.1-1.9-1.1-1.8-2.2l1.2-12
			c0.1-1.1,1.1-1.9,2.2-1.8c1.1,0.1,1.9,1.1,1.8,2.2l-1.2,12C1188.7,867.2,1187.8,867.9,1186.8,867.9z M1189.2,844
			c-0.1,0-0.1,0-0.2,0c-1.1-0.1-1.9-1.1-1.8-2.2l1.2-12c0.1-1.1,1.1-1.9,2.2-1.8c1.1,0.1,1.9,1.1,1.8,2.2l-1.2,12
			C1191.1,843.3,1190.2,844,1189.2,844z"/>
	</g>
	<g>
		<path fill="#FFFFFF" d="M1175.6,981.5c-0.2,0-0.4,0-0.6-0.1l-5.7-1.8c-1.1-0.3-1.6-1.5-1.3-2.5c0.3-1.1,1.5-1.6,2.5-1.3l3.4,1.1
			l0.3-3.5c0.1-1.1,1.1-1.9,2.2-1.8c1.1,0.1,1.9,1.1,1.8,2.2l-0.6,6c-0.1,0.6-0.4,1.1-0.9,1.5
			C1176.3,981.4,1175.9,981.5,1175.6,981.5z"/>
	</g>
	<g>
		<path fill="#FFFFFF" d="M1158.4,976c-0.2,0-0.4,0-0.6-0.1l-11.5-3.6c-1.1-0.3-1.6-1.5-1.3-2.5c0.3-1.1,1.5-1.6,2.5-1.3l11.5,3.6
			c1.1,0.3,1.6,1.5,1.3,2.5C1160,975.5,1159.2,976,1158.4,976z M1135.5,968.7c-0.2,0-0.4,0-0.6-0.1l-11.5-3.6
			c-1.1-0.3-1.6-1.5-1.3-2.5c0.3-1.1,1.5-1.6,2.5-1.3l11.5,3.6c1.1,0.3,1.6,1.5,1.3,2.5C1137.1,968.2,1136.3,968.7,1135.5,968.7z
			 M1112.5,961.4c-0.2,0-0.4,0-0.6-0.1l-11.5-3.6c-1.1-0.3-1.6-1.5-1.3-2.5c0.3-1.1,1.5-1.6,2.5-1.3l11.5,3.6
			c1.1,0.3,1.6,1.5,1.3,2.5C1114.2,960.9,1113.4,961.4,1112.5,961.4z M1089.6,954.1c-0.2,0-0.4,0-0.6-0.1l-11.5-3.6
			c-1.1-0.3-1.6-1.5-1.3-2.5c0.3-1.1,1.5-1.6,2.5-1.3l11.5,3.6c1.1,0.3,1.6,1.5,1.3,2.5C1091.3,953.6,1090.5,954.1,1089.6,954.1z
			 M1066.7,946.9c-0.2,0-0.4,0-0.6-0.1l-11.5-3.6c-1.1-0.3-1.6-1.5-1.3-2.5c0.3-1.1,1.5-1.6,2.5-1.3l11.5,3.6
			c1.1,0.3,1.6,1.5,1.3,2.5C1068.3,946.3,1067.6,946.9,1066.7,946.9z M1043.8,939.6c-0.2,0-0.4,0-0.5-0.1l-11.6-3.3
			c-1.1-0.3-1.7-1.4-1.4-2.5s1.4-1.7,2.5-1.4l11.6,3.3c1.1,0.3,1.7,1.4,1.4,2.5C1045.5,939,1044.7,939.6,1043.8,939.6z M1020.7,933
			c-0.2,0-0.4,0-0.5-0.1l-11.6-3.3c-1.1-0.3-1.7-1.4-1.4-2.5s1.4-1.7,2.5-1.4l11.6,3.3c1.1,0.3,1.7,1.4,1.4,2.5
			C1022.3,932.4,1021.5,933,1020.7,933z M997.5,926.4c-0.2,0-0.4,0-0.5-0.1l-11.6-3.3c-1.1-0.3-1.7-1.4-1.4-2.5s1.4-1.7,2.5-1.4
			l11.6,3.3c1.1,0.3,1.7,1.4,1.4,2.5C999.2,925.9,998.4,926.4,997.5,926.4z M974.5,919.6c-0.4,0-0.8-0.1-1.1-0.4l-9.8-6.9
			c-0.9-0.6-1.1-1.9-0.5-2.8c0.6-0.9,1.9-1.1,2.8-0.5l9.8,6.9c0.9,0.6,1.1,1.9,0.5,2.8C975.8,919.3,975.1,919.6,974.5,919.6z
			 M954.8,905.8c-0.4,0-0.8-0.1-1.1-0.4l-9.8-6.9c-0.9-0.6-1.1-1.9-0.5-2.8c0.6-0.9,1.9-1.1,2.8-0.5l9.8,6.9
			c0.9,0.6,1.1,1.9,0.5,2.8C956.1,905.5,955.4,905.8,954.8,905.8z M935.1,892c-0.4,0-0.8-0.1-1.1-0.4l-9.8-6.9
			c-0.9-0.6-1.1-1.9-0.5-2.8s1.9-1.1,2.8-0.5l9.8,6.9c0.9,0.6,1.1,1.9,0.5,2.8C936.4,891.7,935.8,892,935.1,892z M915.4,878.2
			c-0.4,0-0.8-0.1-1.1-0.4l-9.8-6.9c-0.9-0.6-1.1-1.9-0.5-2.8c0.6-0.9,1.9-1.1,2.8-0.5l9.8,6.9c0.9,0.6,1.1,1.9,0.5,2.8
			C916.7,877.9,916.1,878.2,915.4,878.2z M895.7,864.4c-0.4,0-0.8-0.1-1.1-0.4l-9.8-6.9c-0.9-0.6-1.1-1.9-0.5-2.8
			c0.6-0.9,1.9-1.1,2.8-0.5l9.8,6.9c0.9,0.6,1.1,1.9,0.5,2.8C897,864.1,896.4,864.4,895.7,864.4z M876,850.6c-0.4,0-0.8-0.1-1.1-0.4
			l-9.8-6.9c-0.9-0.6-1.1-1.9-0.5-2.8c0.6-0.9,1.9-1.1,2.8-0.5l9.8,6.9c0.9,0.6,1.1,1.9,0.5,2.8C877.3,850.3,876.7,850.6,876,850.6z
			 M856.3,836.8c-0.4,0-0.8-0.1-1.1-0.4l-9.8-6.9c-0.9-0.6-1.1-1.9-0.5-2.8c0.6-0.9,1.9-1.1,2.8-0.5l9.8,6.9
			c0.9,0.6,1.1,1.9,0.5,2.8C857.6,836.5,857,836.8,856.3,836.8z M836.6,823c-0.4,0-0.8-0.1-1.1-0.4l-9.8-6.9
			c-0.9-0.6-1.1-1.9-0.5-2.8c0.6-0.9,1.9-1.1,2.8-0.5l9.8,6.9c0.9,0.6,1.1,1.9,0.5,2.8C837.9,822.7,837.3,823,836.6,823z M817,809.2
			c-0.4,0-0.8-0.1-1.1-0.4l-9.8-6.9c-0.9-0.6-1.1-1.9-0.5-2.8c0.6-0.9,1.9-1.1,2.8-0.5l9.8,6.9c0.9,0.6,1.1,1.9,0.5,2.8
			C818.2,808.9,817.6,809.2,817,809.2z M797.3,795.4c-0.4,0-0.8-0.1-1.1-0.4l-9.8-6.9c-0.9-0.6-1.1-1.9-0.5-2.8
			c0.6-0.9,1.9-1.1,2.8-0.5l9.8,6.9c0.9,0.6,1.1,1.9,0.5,2.8C798.5,795.1,797.9,795.4,797.3,795.4z M777.6,781.6
			c-0.4,0-0.8-0.1-1.1-0.4l-5.1-3.6c-0.1,0-0.1-0.1-0.2-0.1l-4.4-3.8c-0.8-0.7-0.9-2-0.2-2.8s2-0.9,2.8-0.2l4.3,3.8l5,3.5
			c0.9,0.6,1.1,1.9,0.5,2.8C778.8,781.3,778.2,781.6,777.6,781.6z M759.1,766.2c-0.5,0-0.9-0.2-1.3-0.5l-9-7.9
			c-0.8-0.7-0.9-2-0.2-2.8c0.7-0.8,2-0.9,2.8-0.2l9,7.9c0.8,0.7,0.9,2,0.2,2.8C760.2,766,759.6,766.2,759.1,766.2z M741,750.3
			c-0.5,0-0.9-0.2-1.3-0.5l-9-7.9c-0.8-0.7-0.9-2-0.2-2.8s2-0.9,2.8-0.2l9,7.9c0.8,0.7,0.9,2,0.2,2.8
			C742.1,750.1,741.6,750.3,741,750.3z M723,734.4c-0.5,0-0.9-0.2-1.3-0.5l-9-7.9c-0.8-0.7-0.9-2-0.2-2.8c0.7-0.8,2-0.9,2.8-0.2
			l9,7.9c0.8,0.7,0.9,2,0.2,2.8C724.1,734.2,723.5,734.4,723,734.4z"/>
	</g>
	<g>
		<path fill="#FFFFFF" d="M704.9,718.5c-0.5,0-0.9-0.2-1.3-0.5l-4.5-4c-0.5-0.4-0.8-1.1-0.7-1.8s0.5-1.2,1.1-1.5l5.4-2.5
			c1-0.5,2.2,0,2.7,1c0.5,1,0,2.2-1,2.7l-2.7,1.2l2.2,1.9c0.8,0.7,0.9,2,0.2,2.8C706,718.3,705.5,718.5,704.9,718.5z"/>
	</g>
	<g>
		<path fill="#FFFFFF" d="M713.2,708.6c-0.8,0-1.5-0.4-1.8-1.2c-0.5-1,0-2.2,1-2.7l7.3-3.4c1-0.5,2.2,0,2.7,1c0.5,1,0,2.2-1,2.7
			l-7.3,3.4C713.8,708.6,713.5,708.6,713.2,708.6z"/>
	</g>
	<g>
		<path fill="#FFFFFF" d="M727.9,701.8c-0.8,0-1.5-0.4-1.8-1.2c-0.5-1,0-2.2,1-2.7l2.1-1l-2-1.2c-0.9-0.6-1.2-1.8-0.6-2.8
			c0.6-0.9,1.8-1.2,2.8-0.6l5.1,3.2c0.6,0.4,1,1.1,0.9,1.8s-0.5,1.4-1.2,1.7l-5.4,2.5C728.4,701.8,728.2,701.8,727.9,701.8z"/>
	</g>
	<g>
		<path fill="#FFFFFF" d="M715.2,688c-0.4,0-0.7-0.1-1.1-0.3l-13-8.1c-0.9-0.6-1.2-1.8-0.6-2.8c0.6-0.9,1.8-1.2,2.8-0.6l13,8.1
			c0.9,0.6,1.2,1.8,0.6,2.8C716.6,687.7,715.9,688,715.2,688z"/>
	</g>
	<g>
		<path fill="#FFFFFF" d="M689.3,671.8c-0.4,0-0.7-0.1-1.1-0.3l-5.1-3.2c-0.7-0.5-1.1-1.4-0.9-2.2l1.5-5.8c0.3-1.1,1.4-1.7,2.4-1.4
			c1.1,0.3,1.7,1.4,1.4,2.4l-1.1,4.4l3.8,2.4c0.9,0.6,1.2,1.8,0.6,2.8C690.6,671.5,689.9,671.8,689.3,671.8z"/>
	</g>
	<g>
		<path fill="#FFFFFF" d="M687.7,654.9c-0.2,0-0.3,0-0.5-0.1c-1.1-0.3-1.7-1.4-1.4-2.4l2.1-8c0.3-1.1,1.4-1.7,2.4-1.4
			c1.1,0.3,1.7,1.4,1.4,2.4l-2.1,8C689.4,654.3,688.6,654.9,687.7,654.9z"/>
	</g>
	<g>
		<path fill="#FFFFFF" d="M691.9,638.9c-0.2,0-0.3,0-0.5-0.1c-1.1-0.3-1.7-1.4-1.4-2.4l1.2-4.5l-3.7-2.9c-0.9-0.7-1-1.9-0.3-2.8
			c0.7-0.9,1.9-1,2.8-0.3l4.7,3.7c0.6,0.5,0.9,1.3,0.7,2.1l-1.5,5.8C693.6,638.3,692.8,638.9,691.9,638.9z"/>
	</g>
	<g>
		<path fill="#FFFFFF" d="M679.1,621.9c-0.4,0-0.9-0.1-1.2-0.4l-9.6-7.5c-0.9-0.7-1-1.9-0.3-2.8c0.7-0.9,1.9-1,2.8-0.3l9.6,7.5
			c0.9,0.7,1,1.9,0.3,2.8C680.3,621.7,679.7,621.9,679.1,621.9z M660,606.9c-0.4,0-0.9-0.1-1.2-0.4l-9.6-7.5c-0.9-0.7-1-1.9-0.3-2.8
			c0.7-0.9,1.9-1,2.8-0.3l9.6,7.5c0.9,0.7,1,1.9,0.3,2.8C661.2,606.6,660.6,606.9,660,606.9z"/>
	</g>
	<g>
		<path fill="#FFFFFF" d="M632.1,592.6c-0.5,0-1-0.2-1.3-0.5c-0.8-0.7-0.9-2-0.1-2.8l4-4.4c0.7-0.8,1.9-0.9,2.7-0.2l4.7,3.7
			c0.9,0.7,1,1.9,0.3,2.8c-0.7,0.9-1.9,1-2.8,0.3l-3.3-2.6l-2.8,3.1C633.2,592.4,632.7,592.6,632.1,592.6z"/>
	</g>
	<g>
		<path fill="#FFFFFF" d="M626.2,599.1c-0.1,0-0.1,0-0.2,0l-6-0.6c-1.1-0.1-1.9-1.1-1.8-2.2c0.1-1.1,1.1-1.9,2.2-1.8l5,0.5l3.4-3.7
			c0.7-0.8,2-0.9,2.8-0.1c0.8,0.7,0.9,2,0.1,2.8l-4,4.4C627.3,598.9,626.7,599.1,626.2,599.1z"/>
	</g>
	<g>
		<path fill="#FFFFFF" d="M608.2,597.3c-0.1,0-0.1,0-0.2,0l-12-1.2c-1.1-0.1-1.9-1.1-1.8-2.2c0.1-1.1,1.1-1.9,2.2-1.8l12,1.2
			c1.1,0.1,1.9,1.1,1.8,2.2C610.1,596.6,609.2,597.3,608.2,597.3z M584.3,594.9c-0.1,0-0.1,0-0.2,0l-12-1.2
			c-1.1-0.1-1.9-1.1-1.8-2.2s1.1-1.9,2.2-1.8l12,1.2c1.1,0.1,1.9,1.1,1.8,2.2C586.2,594.1,585.3,594.9,584.3,594.9z M560.3,592.5
			c-0.1,0-0.1,0-0.2,0l-12-1.2c-1.1-0.1-1.9-1.1-1.8-2.2c0.1-1.1,1.1-1.9,2.2-1.8l12,1.2c1.1,0.1,1.9,1.1,1.8,2.2
			C562.2,591.7,561.4,592.5,560.3,592.5z M536.4,590c-0.1,0-0.1,0-0.2,0l-12-1.2c-1.1-0.1-1.9-1.1-1.8-2.2c0.1-1.1,1.1-1.9,2.2-1.8
			l12,1.2c1.1,0.1,1.9,1.1,1.8,2.2C538.3,589.3,537.4,590,536.4,590z M512.5,587.6c-0.1,0-0.1,0-0.2,0l-12-1.2
			c-1.1-0.1-1.9-1.1-1.8-2.2c0.1-1.1,1.1-1.9,2.2-1.8l12,1.2c1.1,0.1,1.9,1.1,1.8,2.2C514.3,586.8,513.5,587.6,512.5,587.6z
			 M488.5,585.2c-0.1,0-0.1,0-0.2,0l-12-1.2c-1.1-0.1-1.9-1.1-1.8-2.2c0.1-1.1,1.1-1.9,2.2-1.8l12,1.2c1.1,0.1,1.9,1.1,1.8,2.2
			C490.4,584.4,489.5,585.2,488.5,585.2z M464.6,582.8c-0.1,0-0.1,0-0.2,0l-12-1.2c-1.1-0.1-1.9-1.1-1.8-2.2
			c0.1-1.1,1.1-1.9,2.2-1.8l12,1.2c1.1,0.1,1.9,1.1,1.8,2.2C466.5,582,465.6,582.8,464.6,582.8z M440.6,580.3c-0.1,0-0.1,0-0.2,0
			l-12-1.2c-1.1-0.1-1.9-1.1-1.8-2.2c0.1-1.1,1.1-1.9,2.2-1.8l12,1.2c1.1,0.1,1.9,1.1,1.8,2.2C442.5,579.6,441.7,580.3,440.6,580.3z
			 M417.6,576.3c-0.6,0-1.1-0.2-1.5-0.7l-7.8-9.2c-0.7-0.8-0.6-2.1,0.2-2.8c0.8-0.7,2.1-0.6,2.8,0.2l7.8,9.2
			c0.7,0.8,0.6,2.1-0.2,2.8C418.5,576.1,418,576.3,417.6,576.3z M402,557.9c-0.6,0-1.1-0.2-1.5-0.7l-7.8-9.2
			c-0.7-0.8-0.6-2.1,0.2-2.8s2.1-0.6,2.8,0.2l7.8,9.2c0.7,0.8,0.6,2.1-0.2,2.8C403,557.7,402.5,557.9,402,557.9z M386.5,539.5
			c-0.6,0-1.1-0.2-1.5-0.7l-7.8-9.2c-0.7-0.8-0.6-2.1,0.2-2.8c0.8-0.7,2.1-0.6,2.8,0.2l7.8,9.2c0.7,0.8,0.6,2.1-0.2,2.8
			C387.4,539.3,387,539.5,386.5,539.5z M371,521.1c-0.6,0-1.1-0.2-1.5-0.7l-7.8-9.2c-0.7-0.8-0.6-2.1,0.2-2.8
			c0.8-0.7,2.1-0.6,2.8,0.2l7.8,9.2c0.7,0.8,0.6,2.1-0.2,2.8C371.9,521,371.5,521.1,371,521.1z M355.5,502.7c-0.6,0-1.1-0.2-1.5-0.7
			l-7.8-9.2c-0.7-0.8-0.6-2.1,0.2-2.8c0.8-0.7,2.1-0.6,2.8,0.2l7.8,9.2c0.7,0.8,0.6,2.1-0.2,2.8
			C356.4,502.6,355.9,502.7,355.5,502.7z M340,484.3c-0.6,0-1.1-0.2-1.5-0.7l-7.8-9.2c-0.7-0.8-0.6-2.1,0.2-2.8
			c0.8-0.7,2.1-0.6,2.8,0.2l7.8,9.2c0.7,0.8,0.6,2.1-0.2,2.8C340.9,484.2,340.4,484.3,340,484.3z M323.2,467.9c-0.2,0-0.4,0-0.6-0.1
			l-11.5-3.6c-1.1-0.3-1.6-1.5-1.3-2.5c0.3-1.1,1.5-1.6,2.5-1.3l11.5,3.6c1.1,0.3,1.6,1.5,1.3,2.5
			C324.8,467.3,324,467.9,323.2,467.9z M300.2,460.6c-0.2,0-0.4,0-0.6-0.1l-11.5-3.6c-1.1-0.3-1.6-1.5-1.3-2.5
			c0.3-1.1,1.5-1.6,2.5-1.3l11.5,3.6c1.1,0.3,1.6,1.5,1.3,2.5C301.9,460.1,301.1,460.6,300.2,460.6z M277.3,453.4
			c-0.2,0-0.4,0-0.6-0.1l-11.5-3.6c-1.1-0.3-1.6-1.5-1.3-2.5c0.3-1.1,1.5-1.6,2.5-1.3l11.5,3.6c1.1,0.3,1.6,1.5,1.3,2.5
			C278.9,452.8,278.1,453.4,277.3,453.4z M254.3,446.1c-0.2,0-0.4,0-0.6-0.1l-11.5-3.6c-1.1-0.3-1.6-1.5-1.3-2.5
			c0.3-1.1,1.5-1.6,2.5-1.3l11.5,3.6c1.1,0.3,1.6,1.5,1.3,2.5C256,445.5,255.2,446.1,254.3,446.1z M231.4,438.8
			c-0.2,0-0.4,0-0.6-0.1l-11.5-3.6c-1.1-0.3-1.6-1.5-1.3-2.5c0.3-1.1,1.5-1.6,2.5-1.3l11.5,3.6c1.1,0.3,1.6,1.5,1.3,2.5
			C233,438.3,232.3,438.8,231.4,438.8z M208.5,431.6c-0.2,0-0.4,0-0.6-0.1l-11.5-3.6c-1.1-0.3-1.6-1.5-1.3-2.5
			c0.3-1.1,1.5-1.6,2.5-1.3l11.5,3.6c1.1,0.3,1.6,1.5,1.3,2.5C210.1,431,209.3,431.6,208.5,431.6z M185.5,424.3
			c-0.2,0-0.4,0-0.6-0.1l-11.5-3.6c-1.1-0.3-1.6-1.5-1.3-2.5c0.3-1.1,1.5-1.6,2.5-1.3l11.5,3.6c1.1,0.3,1.6,1.5,1.3,2.5
			C187.2,423.7,186.4,424.3,185.5,424.3z M162.7,416.7c-0.3,0-0.5-0.1-0.8-0.2l-11.1-4.7c-1-0.4-1.5-1.6-1.1-2.6
			c0.4-1,1.6-1.5,2.6-1.1l11.1,4.7c1,0.4,1.5,1.6,1.1,2.6C164.2,416.2,163.5,416.7,162.7,416.7z M140.5,407.3
			c-0.3,0-0.5-0.1-0.8-0.2l-11.1-4.7c-1-0.4-1.5-1.6-1.1-2.6c0.4-1,1.6-1.5,2.6-1.1l11.1,4.7c1,0.4,1.5,1.6,1.1,2.6
			C142.1,406.9,141.3,407.3,140.5,407.3z M118.4,398c-0.3,0-0.5-0.1-0.8-0.2l-11.1-4.7c-1-0.4-1.5-1.6-1.1-2.6
			c0.4-1,1.6-1.5,2.6-1.1l11.1,4.7c1,0.4,1.5,1.6,1.1,2.6C119.9,397.5,119.2,398,118.4,398z M96.2,388.6c-0.3,0-0.5-0.1-0.8-0.2
			l-11.1-4.7c-1-0.4-1.5-1.6-1.1-2.6c0.4-1,1.6-1.5,2.6-1.1l11.1,4.7c1,0.4,1.5,1.6,1.1,2.6C97.7,388.2,97,388.6,96.2,388.6z
			 M74,379.3c-0.3,0-0.5-0.1-0.8-0.2l-11.1-4.7c-1-0.4-1.5-1.6-1.1-2.6c0.4-1,1.6-1.5,2.6-1.1l11.1,4.7c1,0.4,1.5,1.6,1.1,2.6
			C75.6,378.8,74.8,379.3,74,379.3z M51.9,369.9c-0.3,0-0.5-0.1-0.8-0.2L40,365.1c-1-0.4-1.5-1.6-1.1-2.6c0.4-1,1.6-1.5,2.6-1.1
			l11.1,4.7c1,0.4,1.5,1.6,1.1,2.6C53.4,369.5,52.6,369.9,51.9,369.9z M29.7,360.6c-0.3,0-0.5-0.1-0.8-0.2l-11.1-4.7
			c-1-0.4-1.5-1.6-1.1-2.6c0.4-1,1.6-1.5,2.6-1.1l11.1,4.7c1,0.4,1.5,1.6,1.1,2.6C31.2,360.1,30.5,360.6,29.7,360.6z"/>
	</g>
</g>
</svg>
