<?xml version="1.0" encoding="utf-8"?>
<!-- Generator: Adobe Illustrator 18.1.0, SVG Export Plug-In . SVG Version: 6.00 Build 0)  -->
<!DOCTYPE svg PUBLIC "-//W3C//DTD SVG 1.1//EN" "http://www.w3.org/Graphics/SVG/1.1/DTD/svg11.dtd">
<svg version="1.1" id="Слой_2" xmlns="http://www.w3.org/2000/svg" xmlns:xlink="http://www.w3.org/1999/xlink" x="0px" y="0px"
	 viewBox="100.5 351 311.4 112" enable-background="new 100.5 351 311.4 112" xml:space="preserve">
<g>
	<g>
		<path fill="#D8A348" d="M102.3,407c0-30,24.3-54.3,54.3-54.3s54.3,24.3,54.3,54.3s-24.3,54.3-54.3,54.3
			C126.6,461.3,102.3,437,102.3,407z"/>
		<path fill="#000301" d="M156.5,463c-30.9,0-56-25.1-56-56s25.1-56,56-56s56,25.1,56,56S187.4,463,156.5,463z M156.5,354.4
			c-29,0-52.6,23.6-52.6,52.6s23.6,52.6,52.6,52.6s52.6-23.6,52.6-52.6C209.2,378,185.5,354.4,156.5,354.4z"/>
	</g>
	<g>
		<g>
			<path fill="#7AB97A" d="M151.5,438.7v-35.2l-5.7,6.9l-9.9-7.5l21.7-26.1h9.2v62h-15.3V438.7z"/>
			<path fill="#000301" d="M166.9,440.4h-15.4c-0.9,0-1.7-0.8-1.7-1.7v-30.5l-2.7,3.3c-0.6,0.7-1.6,0.8-2.3,0.3l-9.9-7.5
				c-0.4-0.3-0.6-0.7-0.6-1.1c-0.1-0.5,0.1-0.9,0.4-1.3l21.7-26.1c0.3-0.4,0.8-0.6,1.3-0.6h9.2c0.9,0,1.7,0.8,1.7,1.7v62
				C168.6,439.6,167.8,440.4,166.9,440.4z M153.2,437h12v-58.6h-6.8l-20.1,24.2l7.2,5.5l4.7-5.6c0.5-0.5,1.2-0.7,1.9-0.5
				c0.7,0.2,1.1,0.9,1.1,1.6L153.2,437L153.2,437z"/>
		</g>
	</g>
</g>
<g>
	<g>
		<path fill="#201600" d="M259,401.2v-25.5h-16v25.5h-4.4v-29.9h24.7v29.9H259z"/>
		<path fill="#201600" d="M263.6,401.5h-4.9V376h-15.5v25.5h-4.9v-30.4h25.2L263.6,401.5L263.6,401.5z M259.2,401h3.9v-29.4h-24.2
			V401h3.9v-25.5h16.5L259.2,401L259.2,401z"/>
	</g>
	<g>
		<path fill="#201600" d="M274.6,397.1h13v4.2h-17.1v-20.8h16.4v4.1h-12.3v5.1c0.9-0.5,1.9-0.9,3-1s2.3-0.2,3.5-0.2h3v4.1h-3
			c-1,0-1.8,0-2.4,0.1c-0.6,0-1.2,0.1-1.6,0.2c-0.5,0.1-0.9,0.2-1.2,0.4c-0.4,0.2-0.8,0.4-1.2,0.6L274.6,397.1L274.6,397.1z"/>
		<path fill="#201600" d="M287.9,401.5h-17.6v-21.3h16.9v4.6h-12.3v4.4c0.8-0.4,1.8-0.7,2.8-0.8c1.1-0.1,2.3-0.2,3.5-0.2h3.3v4.6
			h-3.3c-1,0-1.8,0-2.4,0.1c-0.6,0-1.2,0.1-1.6,0.2s-0.8,0.2-1.2,0.3c-0.3,0.1-0.7,0.3-1.1,0.5v2.9h13L287.9,401.5L287.9,401.5z
			 M270.8,401h16.6v-3.7h-13v-3.7l0.1-0.1c0.5-0.2,0.9-0.4,1.3-0.6c0.4-0.2,0.8-0.3,1.3-0.4c0.5-0.1,1-0.1,1.7-0.2
			c0.6,0,1.4-0.1,2.4-0.1h2.8v-3.6h-2.8c-1.2,0-2.3,0.1-3.4,0.2c-1.1,0.1-2.1,0.5-2.9,1l-0.4,0.2v-5.7h12.3v-3.6h-15.9V401H270.8z"
			/>
	</g>
	<g>
		<path fill="#201600" d="M293.3,401.2v-20.8h13.2c1,0,1.9,0.2,2.7,0.5c0.8,0.3,1.6,0.7,2.1,1.3c0.6,0.6,1,1.3,1.4,2.1
			c0.3,0.8,0.5,1.7,0.5,2.7c0,2.1-0.7,3.7-2,4.9c-1.3,1.2-3.2,1.8-5.5,1.8H304c-1,0-1.8,0-2.4,0.1c-0.6,0-1.2,0.1-1.6,0.2
			c-0.5,0.1-0.9,0.2-1.3,0.4c-0.4,0.2-0.8,0.4-1.2,0.6v6.3h-4.2V401.2z M297.4,390.8c0.9-0.5,1.9-0.9,3-1c1.1-0.1,2.3-0.2,3.5-0.2
			h1.8c1,0,1.8-0.2,2.4-0.5s0.9-1,0.9-2.1c0-0.5-0.1-0.9-0.3-1.2c-0.2-0.3-0.4-0.5-0.7-0.7c-0.3-0.2-0.7-0.3-1-0.4
			c-0.4-0.1-0.8-0.1-1.2-0.1h-8.4L297.4,390.8L297.4,390.8z"/>
		<path fill="#201600" d="M297.7,401.5h-4.6v-21.3h13.4c1,0,2,0.2,2.8,0.5c0.9,0.3,1.6,0.8,2.2,1.4c0.6,0.6,1.1,1.3,1.4,2.2
			c0.3,0.8,0.5,1.8,0.5,2.8c0,2.1-0.7,3.9-2.1,5.1c-1.4,1.2-3.3,1.8-5.7,1.8H304c-1,0-1.7,0-2.4,0.1c-0.6,0-1.2,0.1-1.6,0.2
			c-0.4,0.1-0.9,0.2-1.2,0.3c-0.3,0.1-0.7,0.3-1.1,0.5L297.7,401.5L297.7,401.5z M293.6,401h3.6v-6.2l0.1-0.1
			c0.5-0.2,0.9-0.4,1.3-0.6c0.4-0.2,0.8-0.3,1.3-0.4c0.5-0.1,1-0.1,1.7-0.2c0.6,0,1.4-0.1,2.4-0.1h1.8c2.3,0,4.1-0.6,5.4-1.7
			c1.3-1.1,1.9-2.7,1.9-4.7c0-1-0.2-1.8-0.5-2.6s-0.8-1.5-1.3-2c-0.6-0.5-1.3-1-2.1-1.3c-0.8-0.3-1.7-0.4-2.7-0.4h-13V401H293.6z
			 M297.2,391.2v-6.9h8.6c0.4,0,0.9,0,1.3,0.1s0.8,0.2,1.1,0.4c0.3,0.2,0.6,0.5,0.8,0.8c0.2,0.3,0.3,0.8,0.3,1.4c0,1.2-0.3,2-1,2.3
			c-0.6,0.3-1.5,0.5-2.5,0.5H304c-1.2,0-2.4,0.1-3.5,0.2c-1.1,0.1-2.1,0.5-3,1L297.2,391.2z M297.7,384.8v5.6
			c0.8-0.4,1.8-0.7,2.8-0.8c1.1-0.1,2.3-0.2,3.5-0.2h1.8c0.9,0,1.7-0.2,2.3-0.5c0.5-0.3,0.8-0.9,0.8-1.9c0-0.5-0.1-0.8-0.2-1.1
			c-0.2-0.3-0.4-0.5-0.7-0.6c-0.3-0.2-0.6-0.3-1-0.3c-0.4-0.1-0.8-0.1-1.2-0.1h-8.1V384.8z"/>
	</g>
	<g>
		<path fill="#201600" d="M338.5,394.7c0,2.1-0.6,3.7-1.9,4.8c-1.3,1.1-3.1,1.7-5.4,1.7h-12.8v-20.8h12.8c0.9,0,1.7,0.1,2.4,0.4
			c0.8,0.3,1.4,0.7,2,1.2s1,1.1,1.4,1.8c0.3,0.7,0.5,1.5,0.5,2.4c0,0.7-0.1,1.4-0.3,2c-0.2,0.6-0.6,1.2-1.1,1.6
			c0.8,0.5,1.4,1.1,1.8,2C338.3,392.8,338.5,393.7,338.5,394.7z M322.5,389.2c0.9-0.5,1.9-0.9,3-1c1.1-0.1,2.3-0.2,3.5-0.2h2.1
			c1.4,0,2.1-0.6,2.1-1.8c0-0.6-0.2-1-0.6-1.3s-0.9-0.4-1.5-0.4h-8.6V389.2z M322.5,397.1h8.6c0.4,0,0.8,0,1.2-0.1
			c0.4-0.1,0.7-0.2,1-0.4s0.5-0.4,0.7-0.7c0.2-0.3,0.3-0.7,0.3-1.2c0-0.8-0.3-1.4-0.8-1.7c-0.5-0.4-1.3-0.6-2.5-0.6h-2
			c-1,0-1.8,0-2.4,0.1c-0.6,0-1.2,0.1-1.6,0.2c-0.5,0.1-0.9,0.2-1.2,0.4c-0.4,0.2-0.8,0.4-1.2,0.6L322.5,397.1L322.5,397.1z"/>
		<path fill="#201600" d="M331.2,401.5h-13v-21.3h13c0.9,0,1.7,0.1,2.5,0.4c0.8,0.3,1.5,0.7,2.1,1.3c0.6,0.5,1.1,1.2,1.4,1.9
			s0.5,1.6,0.5,2.5c0,0.7-0.1,1.4-0.3,2c-0.2,0.6-0.5,1.1-0.9,1.5c0.7,0.5,1.2,1.1,1.6,1.9c0.4,0.9,0.7,1.9,0.7,3c0,2.2-0.7,3.8-2,5
			C335.4,400.9,333.5,401.5,331.2,401.5z M318.7,401h12.5c2.3,0,4-0.5,5.3-1.6c1.2-1.1,1.9-2.6,1.9-4.6c0-1-0.2-1.9-0.6-2.7
			c-0.4-0.8-1-1.5-1.7-1.9l-0.3-0.2l0.3-0.2c0.5-0.4,0.8-0.9,1-1.5c0.2-0.6,0.3-1.2,0.3-1.9c0-0.8-0.2-1.6-0.5-2.3s-0.8-1.3-1.3-1.8
			s-1.2-0.9-1.9-1.2c-0.7-0.3-1.5-0.4-2.3-0.4h-12.5V401H318.7z M331.2,397.2h-8.9v-3.9l0.1-0.1c0.5-0.2,0.9-0.4,1.3-0.6
			s0.8-0.3,1.3-0.4c0.5-0.1,1-0.1,1.7-0.2c0.6,0,1.4-0.1,2.4-0.1h2.1c1.2,0,2.1,0.2,2.6,0.6c0.6,0.4,0.9,1.1,0.9,1.9
			c0,0.6-0.1,1-0.3,1.4c-0.2,0.3-0.5,0.6-0.8,0.8c-0.3,0.2-0.7,0.3-1.1,0.4C332,397.2,331.6,397.2,331.2,397.2z M322.8,396.8h8.4
			c0.4,0,0.8,0,1.2-0.1c0.4-0.1,0.7-0.2,0.9-0.3c0.3-0.2,0.5-0.4,0.6-0.6c0.2-0.3,0.2-0.6,0.2-1.1c0-0.7-0.2-1.2-0.7-1.5
			c-0.5-0.4-1.2-0.5-2.3-0.5H329c-1,0-1.8,0-2.4,0.1c-0.6,0-1.2,0.1-1.6,0.2c-0.4,0.1-0.8,0.2-1.2,0.3c-0.3,0.1-0.7,0.3-1.1,0.5v3
			H322.8z M322.3,389.8v-5.4h8.9c0.7,0,1.2,0.2,1.7,0.5c0.5,0.3,0.7,0.8,0.7,1.5c0,0.9-0.4,2.1-2.3,2.1H329c-1.2,0-2.3,0.1-3.4,0.2
			c-1.1,0.1-2.1,0.5-2.9,1L322.3,389.8z M322.8,384.8v4.1c0.8-0.4,1.8-0.7,2.8-0.8c1.1-0.1,2.3-0.2,3.5-0.2h2.1
			c1.3,0,1.8-0.5,1.8-1.6c0-0.5-0.2-0.8-0.5-1.1c-0.3-0.3-0.8-0.4-1.4-0.4H322.8z"/>
	</g>
	<g>
		<path fill="#201600" d="M349.8,380h4.5l11.2,21.3H361l-1.6-3.1h-2.5c-1.3,0-2.6,0.1-3.8,0.3c-1.3,0.2-2.4,0.5-3.4,0.8
			c-1,0.3-1.9,0.6-2.6,1c-0.7,0.3-1.1,0.6-1.3,0.8l-0.1,0.2h-4.3l9.9-18.7L349.8,380z M357.3,394.2l-4.1-7.7l-4.9,9.5
			c0.7-0.3,1.7-0.7,3.1-1.2c1.4-0.4,3.2-0.6,5.3-0.6H357.3z"/>
		<path fill="#201600" d="M365.9,401.5h-5.1l-1.6-3.1h-2.3c-1.3,0-2.5,0.1-3.8,0.3c-1.2,0.2-2.4,0.5-3.4,0.8s-1.9,0.6-2.6,0.9
			c-0.8,0.4-1.1,0.6-1.2,0.7l-0.2,0.4h-4.9l10.1-18.9l-1.5-2.9h5l0.1,0.1L365.9,401.5z M361.1,401h4l-11-20.8h-3.9l1.2,2.4l-0.1,0.1
			l-9.8,18.3h3.8l0.1-0.1c0.2-0.3,0.6-0.5,1.4-0.9c0.7-0.3,1.6-0.7,2.6-1s2.2-0.6,3.5-0.8c1.3-0.2,2.6-0.3,3.9-0.3h2.6L361.1,401z
			 M347.8,396.7l5.5-10.6l4.5,8.5h-1c-2.1,0-3.9,0.2-5.3,0.6c-1.4,0.4-2.4,0.8-3,1.1L347.8,396.7z M353.3,387.2l-4.4,8.4
			c0.6-0.3,1.5-0.6,2.5-0.9c1.4-0.4,3.2-0.7,5.4-0.7h0.2L353.3,387.2z"/>
	</g>
	<g>
		<path fill="#201600" d="M377.3,397.9c-0.5,0.8-0.9,1.4-1.4,1.8c-0.5,0.4-0.9,0.8-1.4,1s-1,0.3-1.6,0.4s-1.2,0.1-1.8,0.1h-1.8V397
			h2.1c0.4,0,0.8-0.1,1.2-0.4c0.4-0.2,0.9-0.8,1.5-1.7l0.8-1.3c-1.8-0.4-3.1-1.1-4-2.2c-0.9-1.1-1.3-2.5-1.3-4.2
			c0-1,0.2-1.9,0.5-2.7s0.8-1.5,1.5-2.1c0.6-0.6,1.4-1.1,2.3-1.4c0.9-0.3,1.8-0.5,2.9-0.5h12.7v20.8h-4.2v-6.2
			c-0.5-0.2-0.9-0.4-1.2-0.6c-0.4-0.1-0.7-0.3-1.2-0.4c-0.4-0.1-0.9-0.2-1.4-0.2c-0.5-0.1-1.1-0.1-1.9-0.1L377.3,397.9z
			 M385.3,384.6h-7c-0.5,0-0.9,0-1.3,0.1c-0.4,0-0.8,0.1-1.2,0.3c-0.4,0.2-0.7,0.4-0.9,0.8c-0.2,0.3-0.3,0.8-0.3,1.3
			c0,0.6,0.1,1,0.3,1.3c0.2,0.3,0.5,0.6,0.9,0.7c0.4,0.2,0.8,0.3,1.2,0.3c0.4,0,0.9,0.1,1.3,0.1c1.5,0,2.8,0.1,3.9,0.2
			c1.1,0.1,2.2,0.5,3.1,1V384.6z"/>
		<path fill="#201600" d="M389.7,401.5H385v-6.2c-0.4-0.2-0.8-0.4-1.1-0.5c-0.4-0.1-0.7-0.3-1.1-0.4c-0.4-0.1-0.9-0.2-1.4-0.2
			s-1-0.1-1.7-0.1l-2.3,4c-0.5,0.8-0.9,1.4-1.4,1.9s-1,0.8-1.5,1s-1.1,0.4-1.7,0.4c-0.6,0.1-1.2,0.1-1.8,0.1h-2v-4.7h2.4
			c0.3,0,0.7-0.1,1.1-0.3s0.9-0.8,1.4-1.6l0.7-1c-1.6-0.4-2.9-1.2-3.8-2.2c-0.9-1.1-1.4-2.6-1.4-4.3c0-1,0.2-2,0.5-2.8
			c0.4-0.8,0.9-1.6,1.5-2.2c0.7-0.6,1.5-1.1,2.3-1.5c0.9-0.3,1.9-0.5,3-0.5h13V401.5z M385.5,401h3.7v-20.3h-12.5
			c-1,0-1.9,0.2-2.8,0.5c-0.8,0.3-1.6,0.8-2.2,1.4c-0.6,0.6-1.1,1.3-1.4,2c-0.3,0.8-0.5,1.7-0.5,2.6c0,1.6,0.4,3,1.3,4
			c0.8,1.1,2.1,1.8,3.8,2.1l0.3,0.1l-1,1.6c-0.6,1-1.1,1.5-1.6,1.8s-0.9,0.4-1.3,0.4h-1.9v3.7h1.6c0.6,0,1.2,0,1.8-0.1
			c0.5-0.1,1-0.2,1.5-0.4c0.5-0.2,0.9-0.5,1.4-0.9c0.4-0.4,0.9-1,1.3-1.8l2.4-4.3h0.1c0.7,0,1.4,0.1,1.9,0.1c0.5,0.1,1,0.1,1.4,0.2
			c0.4,0.1,0.8,0.2,1.2,0.4c0.4,0.2,0.8,0.3,1.2,0.6l0.1,0.1v6.2H385.5z M385.5,391.2l-0.4-0.2c-0.9-0.5-1.9-0.8-3-1
			c-1.1-0.1-2.5-0.2-3.9-0.2c-0.5,0-0.9,0-1.4-0.1c-0.5,0-0.9-0.2-1.3-0.3c-0.4-0.2-0.7-0.5-1-0.8c-0.3-0.4-0.4-0.9-0.4-1.5
			s0.1-1.1,0.4-1.5s0.6-0.7,1-0.8c0.4-0.2,0.8-0.3,1.3-0.3c0.4,0,0.9-0.1,1.4-0.1l0,0h7.3V391.2z M378.3,384.8c-0.4,0-0.9,0-1.3,0.1
			c-0.4,0-0.8,0.1-1.1,0.3c-0.3,0.2-0.6,0.4-0.8,0.7c-0.2,0.3-0.3,0.7-0.3,1.2s0.1,0.9,0.3,1.2c0.2,0.3,0.5,0.5,0.8,0.7
			s0.7,0.3,1.1,0.3s0.9,0.1,1.3,0.1c1.5,0,2.8,0.1,4,0.2c1,0.1,2,0.4,2.8,0.8V385L378.3,384.8z"/>
	</g>
	<g>
		<path fill="#201600" d="M261.6,424.1c0,1.8-0.3,3.3-1,4.7c-0.7,1.4-1.6,2.6-2.8,3.5c-1.1,1-2.5,1.7-3.9,2.2
			c-1.5,0.5-3,0.8-4.6,0.8s-3.1-0.2-4.6-0.7s-2.8-1.2-3.9-2.2c-1.1-0.9-2-2.1-2.7-3.5s-1-2.9-1-4.7c0-1.8,0.3-3.3,1-4.7
			c0.7-1.4,1.6-2.5,2.8-3.4s2.5-1.6,3.9-2.1c1.5-0.5,3-0.7,4.5-0.7c1.6,0,3.1,0.2,4.6,0.7s2.8,1.1,3.9,2s2.1,2,2.8,3.4
			C261.3,420.7,261.6,422.3,261.6,424.1z M257.3,424.1c0-1.1-0.2-2.1-0.7-3c-0.5-0.8-1.1-1.5-1.8-2.1c-0.7-0.5-1.6-0.9-2.5-1.2
			c-0.9-0.3-1.9-0.4-2.9-0.4s-2,0.1-2.9,0.4s-1.8,0.7-2.5,1.2c-0.7,0.6-1.3,1.3-1.8,2.1c-0.5,0.9-0.7,1.9-0.7,3c0,1.2,0.2,2.2,0.7,3
			c0.5,0.9,1.1,1.6,1.8,2.1c0.7,0.6,1.6,1,2.5,1.2c0.9,0.3,1.9,0.4,2.9,0.4s1.9-0.2,2.9-0.5c0.9-0.3,1.8-0.8,2.5-1.3
			c0.7-0.6,1.3-1.3,1.8-2.2C257,426.2,257.3,425.2,257.3,424.1z"/>
		<path fill="#201600" d="M249.3,435.6c-1.6,0-3.2-0.3-4.7-0.8s-2.8-1.2-4-2.2s-2.1-2.2-2.8-3.6s-1-3-1-4.8s0.4-3.4,1.1-4.8
			c0.7-1.4,1.7-2.6,2.8-3.5c1.2-1,2.5-1.7,4-2.2c3-1,6.2-1,9.3,0c1.5,0.5,2.9,1.2,4,2.1c1.2,0.9,2.1,2.1,2.8,3.5
			c0.7,1.4,1.1,3,1.1,4.8s-0.4,3.4-1.1,4.8s-1.7,2.6-2.8,3.6c-1.2,1-2.5,1.7-4,2.3C252.5,435.3,250.9,435.6,249.3,435.6z
			 M249.3,413.4c-1.5,0-3,0.2-4.5,0.7c-1.4,0.5-2.7,1.2-3.9,2.1c-1.1,0.9-2,2-2.7,3.4c-0.7,1.3-1,2.9-1,4.6s0.3,3.3,1,4.6
			c0.7,1.3,1.6,2.5,2.7,3.4c1.1,0.9,2.4,1.6,3.8,2.1c2.9,1,6.1,1,9,0c1.4-0.5,2.7-1.2,3.9-2.2c1.1-0.9,2-2.1,2.7-3.5
			c0.7-1.3,1-2.9,1-4.6s-0.3-3.3-1-4.6c-0.7-1.3-1.6-2.4-2.7-3.3s-2.4-1.6-3.9-2C252.4,413.7,250.8,413.4,249.3,413.4z M249.4,431.3
			c-1,0-2-0.1-3-0.4s-1.9-0.7-2.6-1.3c-0.8-0.6-1.4-1.3-1.9-2.2c-0.5-0.9-0.7-2-0.7-3.2s0.2-2.3,0.7-3.2c0.5-0.9,1.1-1.6,1.8-2.2
			c0.8-0.6,1.6-1,2.6-1.3c1.9-0.5,4-0.5,6,0c1,0.3,1.9,0.7,2.6,1.2c0.8,0.6,1.4,1.3,1.9,2.2c0.5,0.9,0.7,1.9,0.7,3.1
			s-0.2,2.2-0.7,3.1s-1.1,1.7-1.9,2.3c-0.8,0.6-1.6,1.1-2.6,1.4C251.4,431.2,250.4,431.3,249.4,431.3z M249.3,417.7
			c-1,0-2,0.1-2.9,0.4s-1.7,0.7-2.4,1.2s-1.3,1.2-1.7,2s-0.7,1.8-0.7,2.9s0.2,2.1,0.7,2.9c0.4,0.8,1,1.5,1.7,2s1.5,0.9,2.5,1.2
			c1.8,0.5,3.8,0.5,5.7-0.1c0.9-0.3,1.7-0.7,2.4-1.3c0.7-0.6,1.3-1.3,1.7-2.1c0.4-0.8,0.7-1.8,0.7-2.9s-0.2-2.1-0.7-2.9
			c-0.4-0.8-1-1.5-1.7-2s-1.5-0.9-2.5-1.2C251.2,417.8,250.3,417.7,249.3,417.7z"/>
	</g>
	<g>
		<path fill="#201600" d="M284.4,413.9v20.8h-4.1V427c-0.8,0.3-1.6,0.5-2.4,0.7c-0.8,0.1-1.8,0.2-2.9,0.2c-1.4,0-2.7-0.1-3.9-0.4
			c-1.2-0.2-2.1-0.6-2.9-1.2c-0.8-0.5-1.4-1.2-1.8-2.1s-0.6-2-0.6-3.3c0-1.2,0.1-2.4,0.2-3.6s0.3-2.4,0.6-3.5h4.1
			c-0.3,1-0.5,2.1-0.6,3c-0.1,1-0.2,2-0.2,3c0,1.5,0.4,2.5,1.2,3.1c0.8,0.6,2.2,0.8,4.1,0.8c0.5,0,0.9,0,1.3,0s0.8-0.1,1.1-0.2
			c0.4-0.1,0.8-0.2,1.2-0.3c0.4-0.1,1-0.3,1.5-0.5v-9h4.1V413.9z"/>
		<path fill="#201600" d="M284.6,434.9H280v-7.5c-0.7,0.3-1.5,0.5-2.2,0.6c-0.8,0.1-1.8,0.2-2.9,0.2c-1.4,0-2.7-0.1-3.9-0.4
			c-1.2-0.2-2.2-0.6-3-1.2s-1.5-1.3-1.9-2.2c-0.4-0.9-0.7-2.1-0.7-3.4c0-1.2,0.1-2.4,0.2-3.6s0.3-2.4,0.6-3.6l0.1-0.2h4.6l-0.1,0.3
			c-0.3,1-0.5,2-0.6,3s-0.2,2-0.2,3c0,1.4,0.4,2.4,1.1,2.9c0.8,0.5,2.1,0.8,3.9,0.8c0.5,0,0.9,0,1.3,0s0.7-0.1,1.1-0.2
			s0.8-0.2,1.2-0.3c0.4-0.1,0.9-0.2,1.4-0.4v-9.1h4.6V434.9z M280.5,434.4h3.6v-20.3h-3.6v8.9l-0.2,0.1c-0.6,0.2-1.1,0.3-1.6,0.5
			c-0.4,0.1-0.9,0.2-1.3,0.3c-0.4,0.1-0.8,0.1-1.2,0.2c-0.4,0-0.8,0-1.3,0c-2,0-3.3-0.3-4.2-0.9c-0.9-0.6-1.3-1.7-1.3-3.3
			c0-1,0.1-2,0.2-3c0.1-0.9,0.3-1.8,0.5-2.8h-3.6c-0.3,1.1-0.5,2.2-0.6,3.3c-0.1,1.2-0.2,2.4-0.2,3.6s0.2,2.3,0.6,3.2
			c0.4,0.9,1,1.5,1.8,2s1.7,0.9,2.8,1.1c1.1,0.2,2.4,0.4,3.8,0.4c1.1,0,2.1-0.1,2.8-0.2c0.8-0.1,1.6-0.4,2.4-0.7l0.3-0.1v7.7H280.5z
			"/>
	</g>
	<g>
		<path fill="#201600" d="M295.8,430.5h13v4.2h-17.1v-20.8h16.4v4.1h-12.3v5.1c0.9-0.5,1.9-0.9,3-1s2.3-0.2,3.5-0.2h3v4.1h-3
			c-1,0-1.8,0-2.4,0.1c-0.6,0-1.2,0.1-1.6,0.2c-0.5,0.1-0.9,0.2-1.2,0.4c-0.4,0.2-0.8,0.4-1.2,0.6L295.8,430.5L295.8,430.5z"/>
		<path fill="#201600" d="M309.1,434.9h-17.6v-21.3h16.9v4.6H296v4.4c0.8-0.4,1.8-0.7,2.8-0.8c1.1-0.1,2.3-0.2,3.5-0.2h3.3v4.6h-3.3
			c-1,0-1.8,0-2.4,0.1c-0.6,0-1.2,0.1-1.6,0.2s-0.8,0.2-1.2,0.3c-0.3,0.1-0.7,0.3-1.1,0.5v2.9h13v4.7H309.1z M292,434.4h16.6v-3.7
			h-13v-3.6l0.1-0.1c0.5-0.2,0.9-0.4,1.3-0.6s0.8-0.3,1.3-0.4s1-0.1,1.7-0.2c0.6,0,1.4-0.1,2.4-0.1h2.8v-3.6h-2.8
			c-1.2,0-2.3,0.1-3.4,0.2s-2.1,0.5-2.9,1l-0.4,0.2v-5.7H308v-3.7h-16V434.4z"/>
	</g>
	<g>
		<path fill="#201600" d="M314.5,434.7v-20.8h13.2c1,0,1.9,0.2,2.7,0.5c0.8,0.3,1.6,0.7,2.1,1.3c0.6,0.6,1,1.3,1.4,2.1
			c0.3,0.8,0.5,1.7,0.5,2.7c0,2.1-0.7,3.7-2,4.9c-1.3,1.2-3.2,1.8-5.5,1.8h-1.8c-1,0-1.8,0-2.4,0.1c-0.6,0-1.2,0.1-1.6,0.2
			c-0.5,0.1-0.9,0.2-1.3,0.4c-0.4,0.2-0.8,0.4-1.2,0.6v6.3h-4.1V434.7z M318.6,424.2c0.9-0.5,1.9-0.9,3-1s2.3-0.2,3.5-0.2h1.8
			c1,0,1.8-0.2,2.4-0.5s0.9-1,0.9-2.1c0-0.5-0.1-0.9-0.3-1.2c-0.2-0.3-0.4-0.5-0.7-0.7c-0.3-0.2-0.7-0.3-1-0.4
			c-0.4-0.1-0.8-0.1-1.2-0.1h-8.4L318.6,424.2L318.6,424.2z"/>
		<path fill="#201600" d="M318.9,434.9h-4.6v-21.3h13.4c1,0,2,0.2,2.8,0.5c0.9,0.3,1.6,0.8,2.2,1.4s1.1,1.3,1.4,2.2
			c0.3,0.8,0.5,1.8,0.5,2.8c0,2.1-0.7,3.9-2.1,5.1s-3.3,1.8-5.7,1.8H325c-1,0-1.8,0-2.4,0.1c-0.6,0-1.2,0.1-1.6,0.2
			s-0.9,0.2-1.2,0.3c-0.3,0.1-0.7,0.3-1.1,0.5v6.4H318.9z M314.8,434.4h3.6v-6.2l0.1-0.1c0.5-0.2,0.9-0.4,1.3-0.6s0.8-0.3,1.3-0.4
			s1-0.1,1.7-0.2c0.6,0,1.4-0.1,2.4-0.1h1.8c2.3,0,4.1-0.6,5.4-1.7s1.9-2.7,1.9-4.7c0-1-0.2-1.8-0.5-2.6c-0.3-0.8-0.8-1.5-1.3-2
			c-0.6-0.5-1.3-1-2.1-1.3c-0.8-0.3-1.7-0.4-2.7-0.4h-13v20.3H314.8z M318.4,424.7v-6.9h8.6c0.4,0,0.9,0,1.3,0.1s0.8,0.2,1.1,0.4
			c0.3,0.2,0.6,0.5,0.8,0.8c0.2,0.3,0.3,0.8,0.3,1.4c0,1.2-0.3,2-1,2.3c-0.6,0.3-1.5,0.5-2.5,0.5h-1.8c-1.2,0-2.4,0.1-3.5,0.2
			s-2.1,0.5-3,1L318.4,424.7z M318.9,418.3v5.6c0.8-0.4,1.8-0.7,2.8-0.8c1.1-0.1,2.3-0.2,3.5-0.2h1.8c0.9,0,1.7-0.2,2.3-0.5
			c0.5-0.3,0.8-0.9,0.8-1.9c0-0.5-0.1-0.8-0.2-1.1c-0.2-0.3-0.4-0.5-0.7-0.6c-0.3-0.2-0.6-0.3-1-0.3c-0.4-0.1-0.8-0.1-1.2-0.1h-8.1
			V418.3z"/>
	</g>
	<g>
		<path fill="#201600" d="M343.7,430.5h13v4.2h-17.1v-20.8H356v4.1h-12.3v5.1c0.9-0.5,1.9-0.9,3-1s2.3-0.2,3.5-0.2h3v4.1h-3
			c-1,0-1.8,0-2.4,0.1c-0.6,0-1.2,0.1-1.6,0.2c-0.5,0.1-0.9,0.2-1.2,0.4c-0.4,0.2-0.8,0.4-1.2,0.6L343.7,430.5L343.7,430.5z"/>
		<path fill="#201600" d="M357,434.9h-17.6v-21.3h16.9v4.6H344v4.4c0.8-0.4,1.8-0.7,2.8-0.8c1.1-0.1,2.3-0.2,3.5-0.2h3.3v4.6h-3.3
			c-1,0-1.8,0-2.4,0.1c-0.6,0-1.2,0.1-1.6,0.2s-0.8,0.2-1.2,0.3c-0.3,0.1-0.7,0.3-1.1,0.5v2.9h13L357,434.9L357,434.9z M339.8,434.4
			h16.6v-3.7h-13v-3.6l0.1-0.1c0.5-0.2,0.9-0.4,1.3-0.6s0.8-0.3,1.3-0.4s1-0.1,1.7-0.2c0.6,0,1.4-0.1,2.4-0.1h2.8v-3.6h-2.8
			c-1.2,0-2.3,0.1-3.4,0.2s-2.1,0.5-2.9,1l-0.4,0.2v-5.7h12.3v-3.7h-15.9v20.3H339.8z"/>
	</g>
	<g>
		<path fill="#201600" d="M381.9,439.3v-4.6h-17.2v4.6h-4.2v-8.8h4c1-1.3,1.8-2.5,2.4-3.6s1.1-2.2,1.4-3.2s0.6-2,0.8-2.9
			c0.2-0.9,0.4-1.8,0.6-2.7h-3.3l-1.8-4.1h18.9v16.6h2.6v8.8L381.9,439.3L381.9,439.3z M379.4,430.5V418H374
			c-0.2,1.1-0.5,2.2-0.8,3.4c-0.3,1.2-0.6,2.3-1,3.4s-0.8,2.1-1.2,3.1c-0.5,1-1,1.9-1.5,2.6H379.4z"/>
		<path fill="#201600" d="M386.3,439.5h-4.7v-4.6H365v4.6h-4.7v-9.3h4.1c0.9-1.2,1.7-2.4,2.3-3.5c0.6-1.1,1.1-2.2,1.4-3.2
			s0.6-2,0.8-2.9c0.2-0.8,0.3-1.6,0.5-2.4h-3.1l-2.1-4.6h19.5v16.6h2.6L386.3,439.5L386.3,439.5z M382.2,439h3.7v-8.3h-2.6v-16.6
			H365l1.6,3.6h3.4v0.4c-0.2,0.9-0.4,1.7-0.6,2.7c-0.2,0.9-0.5,1.9-0.8,3c-0.3,1-0.8,2.1-1.4,3.3c-0.6,1.1-1.4,2.4-2.4,3.6l-0.1,0.1
			h-3.9v8.3h3.7v-4.6h17.7L382.2,439L382.2,439z M379.6,430.7H369l0.3-0.4c0.5-0.7,1.1-1.6,1.5-2.6c0.5-1,0.9-2,1.2-3.1
			c0.4-1.1,0.7-2.2,1-3.4c0.3-1.1,0.6-2.3,0.8-3.4v-0.2h5.8L379.6,430.7L379.6,430.7z M370,430.2h9.2v-12h-4.9
			c-0.2,1-0.5,2.1-0.8,3.2c-0.3,1.2-0.6,2.3-1,3.4s-0.8,2.2-1.3,3.2C370.8,428.8,370.4,429.6,370,430.2z"/>
	</g>
	<g>
		<path fill="#201600" d="M395.7,420.4c0.5,0.2,0.9,0.4,1.2,0.6c0.4,0.2,0.8,0.3,1.2,0.4c0.5,0.1,1,0.1,1.6,0.2
			c0.6,0,1.4,0.1,2.4,0.1h2.1c1,0,2,0.1,2.9,0.4s1.7,0.7,2.3,1.2c0.7,0.5,1.2,1.2,1.6,2s0.6,1.8,0.6,2.8c0,1.1-0.2,2.1-0.6,2.9
			s-0.9,1.5-1.6,2s-1.4,0.9-2.3,1.2c-0.9,0.3-1.9,0.4-2.9,0.4h-12.8v-20.8h4.1v6.6H395.7z M404.3,430.5c0.4,0,0.8,0,1.2-0.1
			c0.4-0.1,0.7-0.2,1-0.4c0.3-0.2,0.5-0.4,0.7-0.7c0.2-0.3,0.3-0.7,0.3-1.2s-0.1-0.9-0.3-1.2c-0.2-0.3-0.4-0.5-0.7-0.7
			c-0.3-0.2-0.6-0.3-1-0.3c-0.4-0.1-0.8-0.1-1.2-0.1h-2.1c-1.2,0-2.4-0.1-3.5-0.2s-2.1-0.5-3-1v5.9L404.3,430.5L404.3,430.5z"/>
		<path fill="#201600" d="M404.3,434.9h-13v-21.3h4.6v6.6c0.4,0.2,0.8,0.4,1.1,0.5c0.4,0.2,0.8,0.3,1.2,0.3c0.4,0.1,1,0.1,1.6,0.2
			c0.6,0,1.4,0.1,2.4,0.1h2.1c1.1,0,2.1,0.1,3,0.4s1.7,0.7,2.4,1.3c0.7,0.6,1.2,1.3,1.6,2.1c0.4,0.9,0.6,1.9,0.6,3s-0.2,2.1-0.6,3
			c-0.4,0.8-1,1.6-1.6,2.1c-0.7,0.6-1.5,1-2.4,1.2C406.4,434.8,405.4,434.9,404.3,434.9z M391.8,434.4h12.5c1,0,2-0.1,2.8-0.4
			c0.9-0.3,1.6-0.6,2.2-1.2c0.6-0.5,1.1-1.2,1.5-1.9c0.4-0.8,0.6-1.7,0.6-2.8c0-1-0.2-2-0.6-2.7c-0.4-0.8-0.9-1.5-1.5-2
			s-1.4-0.9-2.2-1.2c-0.9-0.3-1.8-0.4-2.8-0.4h-2.1c-1,0-1.8,0-2.4-0.1c-0.6,0-1.2-0.1-1.7-0.2s-0.9-0.2-1.3-0.4
			c-0.4-0.2-0.8-0.4-1.3-0.6l-0.1-0.1v-6.3h-3.6V434.4z M404.3,430.7h-8.9v-6.6l0.4,0.2c0.9,0.5,1.9,0.8,2.9,1
			c1.1,0.1,2.3,0.2,3.4,0.2h2.1c0.4,0,0.8,0,1.2,0.1c0.4,0.1,0.8,0.2,1.1,0.4c0.3,0.2,0.6,0.5,0.8,0.8c0.2,0.3,0.3,0.8,0.3,1.3
			c0,0.6-0.1,1-0.3,1.4c-0.2,0.3-0.5,0.6-0.8,0.8c-0.3,0.2-0.7,0.3-1.1,0.4C405.2,430.7,404.8,430.7,404.3,430.7z M396,430.2h8.4
			c0.4,0,0.8,0,1.2-0.1c0.4-0.1,0.7-0.2,0.9-0.3c0.3-0.2,0.5-0.4,0.6-0.6c0.2-0.3,0.2-0.6,0.2-1.1c0-0.4-0.1-0.8-0.2-1.1
			c-0.2-0.3-0.4-0.5-0.6-0.6c-0.3-0.2-0.6-0.3-0.9-0.3c-0.4-0.1-0.8-0.1-1.2-0.1h-2.1c-1.2,0-2.4-0.1-3.5-0.2
			c-1-0.1-1.9-0.4-2.8-0.8V430.2z"/>
	</g>
</g>
</svg>
