<?xml version="1.0" encoding="utf-8"?>
<!-- Generator: Adobe Illustrator 18.1.0, SVG Export Plug-In . SVG Version: 6.00 Build 0)  -->
<!DOCTYPE svg PUBLIC "-//W3C//DTD SVG 1.1//EN" "http://www.w3.org/Graphics/SVG/1.1/DTD/svg11.dtd">
<svg version="1.1" id="Слой_2" xmlns="http://www.w3.org/2000/svg" xmlns:xlink="http://www.w3.org/1999/xlink" x="0px" y="0px"
	 viewBox="0 0 71.3 52.9" enable-background="new 0 0 71.3 52.9" xml:space="preserve">
<g>
	<g>
		<rect x="0" y="0" fill="#E2C749" width="71.3" height="52.9"/>
	</g>
	<g>
		<path fill="#60B5AE" d="M14.1,26.5c0-8.4,6.8-15.2,15.2-15.2c8.4,0,15.2,6.8,15.2,15.2c0,8.4-6.8,15.2-15.2,15.2
			C20.9,41.7,14.1,34.9,14.1,26.5z"/>
		<path fill="#00001F" d="M29.3,42.1c-8.6,0-15.7-7-15.7-15.7c0-8.6,7-15.7,15.7-15.7c8.6,0,15.7,7,15.7,15.7
			C44.9,35.1,37.9,42.1,29.3,42.1z M29.3,11.7c-8.1,0-14.7,6.6-14.7,14.7c0,8.1,6.6,14.7,14.7,14.7c8.1,0,14.7-6.6,14.7-14.7
			C44,18.3,37.4,11.7,29.3,11.7z"/>
	</g>
	<g>
		<g>
			<path fill="#D8A348" d="M22.5,34.9v-2.6l7.1-5.8c0.9-0.7,2.1-1.7,2.1-2.9c0-1.4-0.9-2.2-2.3-2.2h-0.1c-0.9,0-1.8,0.4-3.6,1.8
				l-2.8-2.6c2.4-2.2,4.6-3.2,6.8-3.2h0.2c4.3,0.1,6.2,2.8,6.2,5.4c0,2.8-1.9,4.9-4.9,7.2l-1.2,1h6.4v4.1H22.5z"/>
			<path fill="#000301" d="M36.1,35.4H22.5c-0.3,0-0.5-0.2-0.5-0.5v-2.6c0-0.1,0.1-0.3,0.2-0.4l7.1-5.8c1-0.8,1.9-1.6,1.9-2.5
				c0-1.5-1.1-1.7-1.8-1.8h-0.1c-0.7,0-1.5,0.3-3.3,1.7c-0.2,0.1-0.4,0.1-0.6,0l-2.8-2.6c-0.1-0.1-0.2-0.2-0.2-0.3
				c0-0.1,0.1-0.3,0.2-0.3c2.5-2.3,4.8-3.4,7.1-3.4h0.2c2.1,0,3.9,0.7,5,1.9c1,1,1.6,2.5,1.6,4c0,3.2-2.4,5.5-5.1,7.6l-0.2,0.1h5
				c0.3,0,0.5,0.2,0.5,0.5v4.1C36.6,35.2,36.4,35.4,36.1,35.4z M22.9,34.5h12.7v-3.1h-5.9c-0.2,0-0.4-0.1-0.4-0.3
				c-0.1-0.2,0-0.4,0.1-0.5l1.2-1c0,0,0,0,0,0c3.3-2.6,4.7-4.6,4.7-6.8c0-2.2-1.5-4.9-5.7-4.9l-0.1,0c-1.9,0-3.9,0.9-6.1,2.8l2.1,2
				c1.6-1.2,2.6-1.6,3.6-1.6h0.1c0,0,0,0,0,0c1.7,0.1,2.8,1.1,2.8,2.7c0,1.5-1.4,2.6-2.2,3.3l-6.9,5.7V34.5z"/>
		</g>
	</g>
	<g>
		<path fill="#00001F" d="M51,32.8c-0.1,0-0.3-0.1-0.4-0.2c-0.2-0.2-0.2-0.6,0-0.8l5.7-5.7l-5.7-5.7c-0.2-0.2-0.2-0.6,0-0.8
			s0.6-0.2,0.8,0l6.1,6.1c0.2,0.2,0.2,0.6,0,0.8l-6.1,6.1C51.3,32.7,51.2,32.8,51,32.8z"/>
	</g>
</g>
</svg>
