<?xml version="1.0" encoding="utf-8"?>
<!-- Generator: Adobe Illustrator 18.1.1, SVG Export Plug-In . SVG Version: 6.00 Build 0)  -->
<!DOCTYPE svg PUBLIC "-//W3C//DTD SVG 1.1//EN" "http://www.w3.org/Graphics/SVG/1.1/DTD/svg11.dtd">
<svg version="1.1" xmlns="http://www.w3.org/2000/svg" xmlns:xlink="http://www.w3.org/1999/xlink" x="0px" y="0px"
	 viewBox="95 316.8 610.3 437.1" enable-background="new 95 316.8 610.3 437.1" xml:space="preserve">
<g id="Слой_2">
	<g>
		<g>
			<path fill="#00001F" d="M614.9,624.4c-1.4,0-4.2-1.4-5.5-2.8c-2.8-2.8-2.8-8.3,0-11.1l79.2-79.2L609.3,452
				c-2.8-2.8-2.8-8.3,0-11.1c2.8-2.8,8.3-2.8,11.1,0l84.8,84.8c2.8,2.8,2.8,8.3,0,11.1l-84.8,84.8C619,623,617.7,624.4,614.9,624.4z
				"/>
		</g>
	</g>
</g>
<g id="Слой_3">
	<g>
		<g>
			<path fill="#6273B3" d="M102.1,535.4c0-116.9,94.7-211.6,211.6-211.6s211.6,94.7,211.6,211.6S430.4,747,313.5,747
				S102.1,652.3,102.1,535.4z"/>
			<path fill="#000301" d="M313.5,754C193.9,754,95,656.5,95,535.4c0-119.7,97.4-218.6,218.6-218.6c119.7,0,218.6,97.4,218.6,218.6
				C532.1,655.1,434.7,754,313.5,754z M313.5,329.5c-112.7,0-204.6,91.9-204.6,204.6S200.8,740,313.5,740s205.9-91.9,205.9-205.9
				C519.6,421.3,427.7,329.5,313.5,329.5z"/>
		</g>
		<g>
			<g>
				<path fill="#60B5AE" d="M341.4,511.7c2.8,0,7,0,9.7,1.5c38.9,7,59.8,36.2,59.8,69.6c0,38.9-25.1,76.5-91.9,78h-2.8
					c-40.4,0-73.8-18.2-101.7-41.8l38.9-36.2c29.2,18.2,44.6,20.9,61.3,20.9h2.8c22.2,0,36.2-13.9,36.2-30.6
					c0-18.2-11.2-30.6-38.9-30.6c-13.9,0-26.4,7-31.9,9.7L255,531.2l57.1-58.5h-75.2V417h161.5v36.2L341.4,511.7z"/>
				<path fill="#00001F" d="M319.2,667.7h-2.8c-37.6,0-72.3-13.9-105.7-43.1c-1.5-1.5-2.8-2.8-2.8-4.2c0-1.5,1.5-4.2,1.5-4.2
					l38.9-36.2c2.8-1.5,5.5-2.8,8.4-1.5c26.4,16.7,41.8,20.9,57.1,20.9h2.8c13.9,0,29.2-8.4,29.2-23.7c0-16.7-11.2-25.1-31.9-25.1
					c-11.2,0-20.9,4.2-26.4,7c-1.5,0-1.5,1.5-2.8,1.5c-2.8,1.5-4.2,0-7-1.5l-27.9-20.9c-1.5-1.5-2.8-2.8-2.8-4.2
					c0-1.5,0-4.2,1.5-5.5l45.9-47.3h-60.2c-4.2,0-7-2.8-7-7V417c0-4.2,2.8-7,7-7h161.5c4.2,0,7,2.8,7,7v36.2c0,1.5,0,2.8-1.5,4.2
					l-48.6,50.1c37.6,8.4,62.6,37.6,62.6,76.5C416.5,623.1,391.5,666.3,319.2,667.7L319.2,667.7z M224.5,618.9
					c29.2,23.7,59.8,36.2,91.9,36.2h2.8c52.9,0,85-27.9,85-71c0-33.4-20.9-58.5-54.3-64c-2.8,0-7-1.5-9.7-1.5s-5.5-1.5-5.5-4.2
					c0-2.8,0-5.5,1.5-7l55.6-58.5v-26.4H244.1v43.1h68.3c2.8,0,5.5,1.5,5.5,4.2c1.5,2.8,0,5.5-1.5,7l-51.6,53.2l19.5,13.9
					c7-2.8,18.2-8.4,30.6-8.4c29.2,0,45.9,13.9,45.9,37.6c0,18.2-15.2,36.2-43.1,36.2H315c-16.7,0-33.4-2.8-59.8-19.5L224.5,618.9z"
					/>
			</g>
		</g>
	</g>
</g>
</svg>
