<?xml version="1.0" encoding="utf-8"?>
<!-- Generator: Adobe Illustrator 18.1.0, SVG Export Plug-In . SVG Version: 6.00 Build 0)  -->
<!DOCTYPE svg PUBLIC "-//W3C//DTD SVG 1.1//EN" "http://www.w3.org/Graphics/SVG/1.1/DTD/svg11.dtd">
<svg version="1.1" id="Слой_2" xmlns="http://www.w3.org/2000/svg" xmlns:xlink="http://www.w3.org/1999/xlink" x="0px" y="0px"
	 viewBox="0 155.1 500 189.9" enable-background="new 0 155.1 500 189.9" xml:space="preserve">
<g>
	<rect y="155.1" fill="#E2C749" width="500" height="189.9"/>
</g>
<g>
	<g>
		<path fill="#D8A348" d="M102.3,251.9c0-30,24.3-54.3,54.3-54.3c30,0,54.3,24.3,54.3,54.3c0,30-24.3,54.3-54.3,54.3
			C126.6,306.2,102.3,281.9,102.3,251.9z"/>
		<path fill="#000301" d="M156.5,307.9c-30.9,0-56-25.1-56-56c0-30.9,25.1-56,56-56c30.9,0,56,25.1,56,56
			C212.5,282.8,187.4,307.9,156.5,307.9z M156.5,199.3c-29,0-52.6,23.6-52.6,52.6c0,29,23.6,52.6,52.6,52.6
			c29,0,52.6-23.6,52.6-52.6C209.2,222.9,185.5,199.3,156.5,199.3z"/>
	</g>
	<g>
		<g>
			<path fill="#7AB97A" d="M151.5,283.6v-35.2l-5.7,6.9l-9.9-7.5l21.7-26.1h9.2v62H151.5z"/>
			<path fill="#000301" d="M166.9,285.3h-15.4c-0.9,0-1.7-0.8-1.7-1.7v-30.5l-2.7,3.3c-0.6,0.7-1.6,0.8-2.3,0.3l-9.9-7.5
				c-0.4-0.3-0.6-0.7-0.6-1.1c-0.1-0.5,0.1-0.9,0.4-1.3l21.7-26.1c0.3-0.4,0.8-0.6,1.3-0.6h9.2c0.9,0,1.7,0.8,1.7,1.7v62
				C168.6,284.5,167.8,285.3,166.9,285.3z M153.2,281.9h12v-58.6h-6.8l-20.1,24.2l7.2,5.5l4.7-5.6c0.5-0.5,1.2-0.7,1.9-0.5
				c0.7,0.2,1.1,0.9,1.1,1.6V281.9z"/>
		</g>
	</g>
</g>
<g>
	<g>
		<path fill="#201600" d="M259,246.1v-25.5h-16v25.5h-4.4v-29.9h24.7v29.9H259z"/>
		<path fill="#201600" d="M263.6,246.4h-4.9v-25.5h-15.5v25.5h-4.9V216h25.2V246.4z M259.2,245.9h3.9v-29.4h-24.2v29.4h3.9v-25.5
			h16.5V245.9z"/>
	</g>
	<g>
		<path fill="#201600" d="M274.6,242h13v4.2h-17.1v-20.8h16.4v4.1h-12.3v5.1c0.9-0.5,1.9-0.9,3-1c1.1-0.1,2.3-0.2,3.5-0.2h3v4.1h-3
			c-1,0-1.8,0-2.4,0.1c-0.6,0-1.2,0.1-1.6,0.2c-0.5,0.1-0.9,0.2-1.2,0.4c-0.4,0.2-0.8,0.4-1.2,0.6V242z"/>
		<path fill="#201600" d="M287.9,246.4h-17.6v-21.3h16.9v4.6h-12.3v4.4c0.8-0.4,1.8-0.7,2.8-0.8c1.1-0.1,2.3-0.2,3.5-0.2h3.3v4.6
			h-3.3c-1,0-1.8,0-2.4,0.1c-0.6,0-1.2,0.1-1.6,0.2c-0.4,0.1-0.8,0.2-1.2,0.3c-0.3,0.1-0.7,0.3-1.1,0.5v2.9h13V246.4z M270.8,245.9
			h16.6v-3.7h-13v-3.7l0.1-0.1c0.5-0.2,0.9-0.4,1.3-0.6c0.4-0.2,0.8-0.3,1.3-0.4c0.5-0.1,1-0.1,1.7-0.2c0.6,0,1.4-0.1,2.4-0.1h2.8
			v-3.6h-2.8c-1.2,0-2.3,0.1-3.4,0.2c-1.1,0.1-2.1,0.5-2.9,1l-0.4,0.2v-5.7h12.3v-3.6h-15.9V245.9z"/>
	</g>
	<g>
		<path fill="#201600" d="M293.3,246.1v-20.8h13.2c1,0,1.9,0.2,2.7,0.5c0.8,0.3,1.6,0.7,2.1,1.3c0.6,0.6,1,1.3,1.4,2.1
			c0.3,0.8,0.5,1.7,0.5,2.7c0,2.1-0.7,3.7-2,4.9c-1.3,1.2-3.2,1.8-5.5,1.8H304c-1,0-1.8,0-2.4,0.1c-0.6,0-1.2,0.1-1.6,0.2
			c-0.5,0.1-0.9,0.2-1.3,0.4c-0.4,0.2-0.8,0.4-1.2,0.6v6.3H293.3z M297.4,235.7c0.9-0.5,1.9-0.9,3-1c1.1-0.1,2.3-0.2,3.5-0.2h1.8
			c1,0,1.8-0.2,2.4-0.5c0.6-0.3,0.9-1,0.9-2.1c0-0.5-0.1-0.9-0.3-1.2c-0.2-0.3-0.4-0.5-0.7-0.7c-0.3-0.2-0.7-0.3-1-0.4
			c-0.4-0.1-0.8-0.1-1.2-0.1h-8.4V235.7z"/>
		<path fill="#201600" d="M297.7,246.4h-4.6v-21.3h13.4c1,0,2,0.2,2.8,0.5c0.9,0.3,1.6,0.8,2.2,1.4c0.6,0.6,1.1,1.3,1.4,2.2
			c0.3,0.8,0.5,1.8,0.5,2.8c0,2.1-0.7,3.9-2.1,5.1c-1.4,1.2-3.3,1.8-5.7,1.8H304c-1,0-1.7,0-2.4,0.1c-0.6,0-1.2,0.1-1.6,0.2
			c-0.4,0.1-0.9,0.2-1.2,0.3c-0.3,0.1-0.7,0.3-1.1,0.5V246.4z M293.6,245.9h3.6v-6.2l0.1-0.1c0.5-0.2,0.9-0.4,1.3-0.6
			c0.4-0.2,0.8-0.3,1.3-0.4c0.5-0.1,1-0.1,1.7-0.2c0.6,0,1.4-0.1,2.4-0.1h1.8c2.3,0,4.1-0.6,5.4-1.7c1.3-1.1,1.9-2.7,1.9-4.7
			c0-1-0.2-1.8-0.5-2.6c-0.3-0.8-0.8-1.5-1.3-2c-0.6-0.5-1.3-1-2.1-1.3c-0.8-0.3-1.7-0.4-2.7-0.4h-13V245.9z M297.2,236.1v-6.9h8.6
			c0.4,0,0.9,0,1.3,0.1c0.4,0.1,0.8,0.2,1.1,0.4c0.3,0.2,0.6,0.5,0.8,0.8c0.2,0.3,0.3,0.8,0.3,1.4c0,1.2-0.3,2-1,2.3
			c-0.6,0.3-1.5,0.5-2.5,0.5H304c-1.2,0-2.4,0.1-3.5,0.2c-1.1,0.1-2.1,0.5-3,1L297.2,236.1z M297.7,229.7v5.6
			c0.8-0.4,1.8-0.7,2.8-0.8c1.1-0.1,2.3-0.2,3.5-0.2h1.8c0.9,0,1.7-0.2,2.3-0.5c0.5-0.3,0.8-0.9,0.8-1.9c0-0.5-0.1-0.8-0.2-1.1
			c-0.2-0.3-0.4-0.5-0.7-0.6c-0.3-0.2-0.6-0.3-1-0.3c-0.4-0.1-0.8-0.1-1.2-0.1H297.7z"/>
	</g>
	<g>
		<path fill="#201600" d="M338.5,239.6c0,2.1-0.6,3.7-1.9,4.8c-1.3,1.1-3.1,1.7-5.4,1.7h-12.8v-20.8h12.8c0.9,0,1.7,0.1,2.4,0.4
			c0.8,0.3,1.4,0.7,2,1.2c0.6,0.5,1,1.1,1.4,1.8c0.3,0.7,0.5,1.5,0.5,2.4c0,0.7-0.1,1.4-0.3,2c-0.2,0.6-0.6,1.2-1.1,1.6
			c0.8,0.5,1.4,1.1,1.8,2C338.3,237.7,338.5,238.6,338.5,239.6z M322.5,234.2c0.9-0.5,1.9-0.9,3-1c1.1-0.1,2.3-0.2,3.5-0.2h2.1
			c1.4,0,2.1-0.6,2.1-1.8c0-0.6-0.2-1-0.6-1.3c-0.4-0.3-0.9-0.4-1.5-0.4h-8.6V234.2z M322.5,242h8.6c0.4,0,0.8,0,1.2-0.1
			c0.4-0.1,0.7-0.2,1-0.4c0.3-0.2,0.5-0.4,0.7-0.7c0.2-0.3,0.3-0.7,0.3-1.2c0-0.8-0.3-1.4-0.8-1.7c-0.5-0.4-1.3-0.6-2.5-0.6H329
			c-1,0-1.8,0-2.4,0.1c-0.6,0-1.2,0.1-1.6,0.2c-0.5,0.1-0.9,0.2-1.2,0.4c-0.4,0.2-0.8,0.4-1.2,0.6V242z"/>
		<path fill="#201600" d="M331.2,246.4h-13v-21.3h13c0.9,0,1.7,0.1,2.5,0.4c0.8,0.3,1.5,0.7,2.1,1.3c0.6,0.5,1.1,1.2,1.4,1.9
			c0.3,0.7,0.5,1.6,0.5,2.5c0,0.7-0.1,1.4-0.3,2c-0.2,0.6-0.5,1.1-0.9,1.5c0.7,0.5,1.2,1.1,1.6,1.9c0.4,0.9,0.7,1.9,0.7,3
			c0,2.2-0.7,3.8-2,5C335.4,245.8,333.5,246.4,331.2,246.4z M318.7,245.9h12.5c2.3,0,4-0.5,5.3-1.6c1.2-1.1,1.9-2.6,1.9-4.6
			c0-1-0.2-1.9-0.6-2.7c-0.4-0.8-1-1.5-1.7-1.9l-0.3-0.2l0.3-0.2c0.5-0.4,0.8-0.9,1-1.5c0.2-0.6,0.3-1.2,0.3-1.9
			c0-0.8-0.2-1.6-0.5-2.3c-0.3-0.7-0.8-1.3-1.3-1.8c-0.5-0.5-1.2-0.9-1.9-1.2c-0.7-0.3-1.5-0.4-2.3-0.4h-12.5V245.9z M331.2,242.2
			h-8.9v-3.9l0.1-0.1c0.5-0.2,0.9-0.4,1.3-0.6c0.4-0.2,0.8-0.3,1.3-0.4c0.5-0.1,1-0.1,1.7-0.2c0.6,0,1.4-0.1,2.4-0.1h2.1
			c1.2,0,2.1,0.2,2.6,0.6c0.6,0.4,0.9,1.1,0.9,1.9c0,0.6-0.1,1-0.3,1.4c-0.2,0.3-0.5,0.6-0.8,0.8c-0.3,0.2-0.7,0.3-1.1,0.4
			C332,242.2,331.6,242.2,331.2,242.2z M322.8,241.7h8.4c0.4,0,0.8,0,1.2-0.1c0.4-0.1,0.7-0.2,0.9-0.3c0.3-0.2,0.5-0.4,0.6-0.6
			c0.2-0.3,0.2-0.6,0.2-1.1c0-0.7-0.2-1.2-0.7-1.5c-0.5-0.4-1.2-0.5-2.3-0.5H329c-1,0-1.8,0-2.4,0.1c-0.6,0-1.2,0.1-1.6,0.2
			c-0.4,0.1-0.8,0.2-1.2,0.3c-0.3,0.1-0.7,0.3-1.1,0.5V241.7z M322.3,234.7v-5.4h8.9c0.7,0,1.2,0.2,1.7,0.5c0.5,0.3,0.7,0.8,0.7,1.5
			c0,0.9-0.4,2.1-2.3,2.1H329c-1.2,0-2.3,0.1-3.4,0.2c-1.1,0.1-2.1,0.5-2.9,1L322.3,234.7z M322.8,229.7v4.1
			c0.8-0.4,1.8-0.7,2.8-0.8c1.1-0.1,2.3-0.2,3.5-0.2h2.1c1.3,0,1.8-0.5,1.8-1.6c0-0.5-0.2-0.8-0.5-1.1c-0.3-0.3-0.8-0.4-1.4-0.4
			H322.8z"/>
	</g>
	<g>
		<path fill="#201600" d="M349.8,224.9h4.5l11.2,21.3h-4.5l-1.6-3.1h-2.5c-1.3,0-2.6,0.1-3.8,0.3c-1.3,0.2-2.4,0.5-3.4,0.8
			c-1,0.3-1.9,0.6-2.6,1c-0.7,0.3-1.1,0.6-1.3,0.8l-0.1,0.2h-4.3l9.9-18.7L349.8,224.9z M357.3,239.2l-4.1-7.7l-4.9,9.5
			c0.7-0.3,1.7-0.7,3.1-1.2c1.4-0.4,3.2-0.6,5.3-0.6H357.3z"/>
		<path fill="#201600" d="M365.9,246.4h-5.1l-1.6-3.1h-2.3c-1.3,0-2.5,0.1-3.8,0.3c-1.2,0.2-2.4,0.5-3.4,0.8c-1,0.3-1.9,0.6-2.6,0.9
			c-0.8,0.4-1.1,0.6-1.2,0.7l-0.2,0.4h-4.9l10.1-18.9l-1.5-2.9h5l0.1,0.1L365.9,246.4z M361.1,245.9h4l-11-20.8h-3.9l1.2,2.4
			l-0.1,0.1l-9.8,18.3h3.8l0.1-0.1c0.2-0.3,0.6-0.5,1.4-0.9c0.7-0.3,1.6-0.7,2.6-1c1-0.3,2.2-0.6,3.5-0.8c1.3-0.2,2.6-0.3,3.9-0.3
			h2.6L361.1,245.9z M347.8,241.6l5.5-10.6l4.5,8.5h-1c-2.1,0-3.9,0.2-5.3,0.6c-1.4,0.4-2.4,0.8-3,1.1L347.8,241.6z M353.3,232.1
			l-4.4,8.4c0.6-0.3,1.5-0.6,2.5-0.9c1.4-0.4,3.2-0.7,5.4-0.7h0.2L353.3,232.1z"/>
	</g>
	<g>
		<path fill="#201600" d="M377.3,242.8c-0.5,0.8-0.9,1.4-1.4,1.8c-0.5,0.4-0.9,0.8-1.4,1c-0.5,0.2-1,0.3-1.6,0.4
			c-0.6,0.1-1.2,0.1-1.8,0.1h-1.8v-4.2h2.1c0.4,0,0.8-0.1,1.2-0.4c0.4-0.2,0.9-0.8,1.5-1.7l0.8-1.3c-1.8-0.4-3.1-1.1-4-2.2
			c-0.9-1.1-1.3-2.5-1.3-4.2c0-1,0.2-1.9,0.5-2.7c0.3-0.8,0.8-1.5,1.5-2.1c0.6-0.6,1.4-1.1,2.3-1.4c0.9-0.3,1.8-0.5,2.9-0.5h12.7
			v20.8h-4.2V240c-0.5-0.2-0.9-0.4-1.2-0.6c-0.4-0.1-0.7-0.3-1.2-0.4c-0.4-0.1-0.9-0.2-1.4-0.2c-0.5-0.1-1.1-0.1-1.9-0.1
			L377.3,242.8z M385.3,229.5l-7,0c-0.5,0-0.9,0-1.3,0.1c-0.4,0-0.8,0.1-1.2,0.3c-0.4,0.2-0.7,0.4-0.9,0.8c-0.2,0.3-0.3,0.8-0.3,1.3
			c0,0.6,0.1,1,0.3,1.3c0.2,0.3,0.5,0.6,0.9,0.7c0.4,0.2,0.8,0.3,1.2,0.3c0.4,0,0.9,0.1,1.3,0.1c1.5,0,2.8,0.1,3.9,0.2
			c1.1,0.1,2.2,0.5,3.1,1V229.5z"/>
		<path fill="#201600" d="M389.7,246.4H385v-6.2c-0.4-0.2-0.8-0.4-1.1-0.5c-0.4-0.1-0.7-0.3-1.1-0.4c-0.4-0.1-0.9-0.2-1.4-0.2
			c-0.5,0-1-0.1-1.7-0.1l-2.3,4c-0.5,0.8-0.9,1.4-1.4,1.9c-0.5,0.5-1,0.8-1.5,1c-0.5,0.2-1.1,0.4-1.7,0.4c-0.6,0.1-1.2,0.1-1.8,0.1
			H369v-4.7h2.4c0.3,0,0.7-0.1,1.1-0.3c0.4-0.2,0.9-0.8,1.4-1.6l0.7-1c-1.6-0.4-2.9-1.2-3.8-2.2c-0.9-1.1-1.4-2.6-1.4-4.3
			c0-1,0.2-2,0.5-2.8c0.4-0.8,0.9-1.6,1.5-2.2c0.7-0.6,1.5-1.1,2.3-1.5c0.9-0.3,1.9-0.5,3-0.5h13V246.4z M385.5,245.9h3.7v-20.3
			h-12.5c-1,0-1.9,0.2-2.8,0.5c-0.8,0.3-1.6,0.8-2.2,1.4c-0.6,0.6-1.1,1.3-1.4,2c-0.3,0.8-0.5,1.7-0.5,2.6c0,1.6,0.4,3,1.3,4
			c0.8,1.1,2.1,1.8,3.8,2.1l0.3,0.1l-1,1.6c-0.6,1-1.1,1.5-1.6,1.8c-0.5,0.3-0.9,0.4-1.3,0.4h-1.9v3.7h1.6c0.6,0,1.2,0,1.8-0.1
			c0.5-0.1,1-0.2,1.5-0.4c0.5-0.2,0.9-0.5,1.4-0.9c0.4-0.4,0.9-1,1.3-1.8l2.4-4.3l0.1,0c0.7,0,1.4,0.1,1.9,0.1
			c0.5,0.1,1,0.1,1.4,0.2c0.4,0.1,0.8,0.2,1.2,0.4c0.4,0.2,0.8,0.3,1.2,0.6l0.1,0.1V245.9z M385.5,236.1l-0.4-0.2
			c-0.9-0.5-1.9-0.8-3-1c-1.1-0.1-2.5-0.2-3.9-0.2c-0.5,0-0.9,0-1.4-0.1c-0.5,0-0.9-0.2-1.3-0.3c-0.4-0.2-0.7-0.5-1-0.8
			c-0.3-0.4-0.4-0.9-0.4-1.5c0-0.6,0.1-1.1,0.4-1.5c0.3-0.4,0.6-0.7,1-0.8c0.4-0.2,0.8-0.3,1.3-0.3c0.4,0,0.9-0.1,1.4-0.1h0l7.3,0
			V236.1z M378.3,229.7c-0.4,0-0.9,0-1.3,0.1c-0.4,0-0.8,0.1-1.1,0.3c-0.3,0.2-0.6,0.4-0.8,0.7c-0.2,0.3-0.3,0.7-0.3,1.2
			c0,0.5,0.1,0.9,0.3,1.2c0.2,0.3,0.5,0.5,0.8,0.7c0.3,0.2,0.7,0.3,1.1,0.3c0.4,0,0.9,0.1,1.3,0.1c1.5,0,2.8,0.1,4,0.2
			c1,0.1,2,0.4,2.8,0.8v-5.4L378.3,229.7z"/>
	</g>
	<g>
		<path fill="#201600" d="M261.6,269c0,1.8-0.3,3.3-1,4.7c-0.7,1.4-1.6,2.6-2.8,3.5c-1.1,1-2.5,1.7-3.9,2.2c-1.5,0.5-3,0.8-4.6,0.8
			c-1.6,0-3.1-0.2-4.6-0.7c-1.5-0.5-2.8-1.2-3.9-2.2c-1.1-0.9-2-2.1-2.7-3.5c-0.7-1.4-1-2.9-1-4.7c0-1.8,0.3-3.3,1-4.7
			c0.7-1.4,1.6-2.5,2.8-3.4c1.2-0.9,2.5-1.6,3.9-2.1c1.5-0.5,3-0.7,4.5-0.7c1.6,0,3.1,0.2,4.6,0.7c1.5,0.5,2.8,1.1,3.9,2
			c1.1,0.9,2.1,2,2.8,3.4C261.3,265.6,261.6,267.2,261.6,269z M257.3,269c0-1.1-0.2-2.1-0.7-3c-0.5-0.8-1.1-1.5-1.8-2.1
			c-0.7-0.5-1.6-0.9-2.5-1.2c-0.9-0.3-1.9-0.4-2.9-0.4c-1,0-2,0.1-2.9,0.4c-0.9,0.3-1.8,0.7-2.5,1.2c-0.7,0.6-1.3,1.3-1.8,2.1
			c-0.5,0.9-0.7,1.9-0.7,3c0,1.2,0.2,2.2,0.7,3c0.5,0.9,1.1,1.6,1.8,2.1c0.7,0.6,1.6,1,2.5,1.2c0.9,0.3,1.9,0.4,2.9,0.4
			c1,0,1.9-0.2,2.9-0.5c0.9-0.3,1.8-0.8,2.5-1.3c0.7-0.6,1.3-1.3,1.8-2.2C257,271.1,257.3,270.1,257.3,269z"/>
		<path fill="#201600" d="M249.3,280.5c-1.6,0-3.2-0.3-4.7-0.8c-1.5-0.5-2.8-1.2-4-2.2c-1.2-1-2.1-2.2-2.8-3.6c-0.7-1.4-1-3-1-4.8
			c0-1.8,0.4-3.4,1.1-4.8c0.7-1.4,1.7-2.6,2.8-3.5c1.2-1,2.5-1.7,4-2.2c3-1,6.2-1,9.3,0c1.5,0.5,2.9,1.2,4,2.1
			c1.2,0.9,2.1,2.1,2.8,3.5c0.7,1.4,1.1,3,1.1,4.8c0,1.8-0.4,3.4-1.1,4.8c-0.7,1.4-1.7,2.6-2.8,3.6c-1.2,1-2.5,1.7-4,2.3
			C252.5,280.2,250.9,280.5,249.3,280.5z M249.3,258.3c-1.5,0-3,0.2-4.5,0.7c-1.4,0.5-2.7,1.2-3.9,2.1c-1.1,0.9-2,2-2.7,3.4
			c-0.7,1.3-1,2.9-1,4.6c0,1.7,0.3,3.3,1,4.6c0.7,1.3,1.6,2.5,2.7,3.4c1.1,0.9,2.4,1.6,3.8,2.1c2.9,1,6.1,1,9,0
			c1.4-0.5,2.7-1.2,3.9-2.2c1.1-0.9,2-2.1,2.7-3.5c0.7-1.3,1-2.9,1-4.6c0-1.7-0.3-3.3-1-4.6c-0.7-1.3-1.6-2.4-2.7-3.3
			c-1.1-0.9-2.4-1.6-3.9-2C252.4,258.6,250.8,258.3,249.3,258.3z M249.4,276.2c-1,0-2-0.1-3-0.4c-1-0.3-1.9-0.7-2.6-1.3
			c-0.8-0.6-1.4-1.3-1.9-2.2c-0.5-0.9-0.7-2-0.7-3.2c0-1.2,0.2-2.3,0.7-3.2c0.5-0.9,1.1-1.6,1.8-2.2c0.8-0.6,1.6-1,2.6-1.3
			c1.9-0.5,4-0.5,6,0c1,0.3,1.9,0.7,2.6,1.2c0.8,0.6,1.4,1.3,1.9,2.2c0.5,0.9,0.7,1.9,0.7,3.1c0,1.2-0.2,2.2-0.7,3.1
			c-0.5,0.9-1.1,1.7-1.9,2.3c-0.8,0.6-1.6,1.1-2.6,1.4C251.4,276.1,250.4,276.2,249.4,276.2z M249.3,262.6c-1,0-2,0.1-2.9,0.4
			c-0.9,0.3-1.7,0.7-2.4,1.2c-0.7,0.5-1.3,1.2-1.7,2c-0.4,0.8-0.7,1.8-0.7,2.9s0.2,2.1,0.7,2.9c0.4,0.8,1,1.5,1.7,2
			c0.7,0.5,1.5,0.9,2.5,1.2c1.8,0.5,3.8,0.5,5.7-0.1c0.9-0.3,1.7-0.7,2.4-1.3c0.7-0.6,1.3-1.3,1.7-2.1c0.4-0.8,0.7-1.8,0.7-2.9
			c0-1.1-0.2-2.1-0.7-2.9c-0.4-0.8-1-1.5-1.7-2c-0.7-0.5-1.5-0.9-2.5-1.2C251.2,262.7,250.3,262.6,249.3,262.6z"/>
	</g>
	<g>
		<path fill="#201600" d="M284.4,258.8v20.8h-4.1v-7.6c-0.8,0.3-1.6,0.5-2.4,0.7c-0.8,0.1-1.8,0.2-2.9,0.2c-1.4,0-2.7-0.1-3.9-0.4
			c-1.2-0.2-2.1-0.6-2.9-1.2c-0.8-0.5-1.4-1.2-1.8-2.1c-0.4-0.9-0.6-2-0.6-3.3c0-1.2,0.1-2.4,0.2-3.6c0.1-1.2,0.3-2.4,0.6-3.5h4.1
			c-0.3,1-0.5,2.1-0.6,3c-0.1,1-0.2,2-0.2,3c0,1.5,0.4,2.5,1.2,3.1c0.8,0.6,2.2,0.8,4.1,0.8c0.5,0,0.9,0,1.3,0
			c0.4,0,0.8-0.1,1.1-0.2c0.4-0.1,0.8-0.2,1.2-0.3c0.4-0.1,1-0.3,1.5-0.5v-9H284.4z"/>
		<path fill="#201600" d="M284.6,279.8H280v-7.5c-0.7,0.3-1.5,0.5-2.2,0.6c-0.8,0.1-1.8,0.2-2.9,0.2c-1.4,0-2.7-0.1-3.9-0.4
			c-1.2-0.2-2.2-0.6-3-1.2c-0.8-0.6-1.5-1.3-1.9-2.2c-0.4-0.9-0.7-2.1-0.7-3.4c0-1.2,0.1-2.4,0.2-3.6c0.1-1.2,0.3-2.4,0.6-3.6
			l0.1-0.2h4.6l-0.1,0.3c-0.3,1-0.5,2-0.6,3c-0.1,1-0.2,2-0.2,3c0,1.4,0.4,2.4,1.1,2.9c0.8,0.5,2.1,0.8,3.9,0.8c0.5,0,0.9,0,1.3,0
			c0.4,0,0.7-0.1,1.1-0.2c0.4-0.1,0.8-0.2,1.2-0.3c0.4-0.1,0.9-0.2,1.4-0.4v-9.1h4.6V279.8z M280.5,279.3h3.6V259h-3.6v8.9l-0.2,0.1
			c-0.6,0.2-1.1,0.3-1.6,0.5c-0.4,0.1-0.9,0.2-1.3,0.3c-0.4,0.1-0.8,0.1-1.2,0.2c-0.4,0-0.8,0-1.3,0c-2,0-3.3-0.3-4.2-0.9
			c-0.9-0.6-1.3-1.7-1.3-3.3c0-1,0.1-2,0.2-3c0.1-0.9,0.3-1.8,0.5-2.8h-3.6c-0.3,1.1-0.5,2.2-0.6,3.3c-0.1,1.2-0.2,2.4-0.2,3.6
			c0,1.2,0.2,2.3,0.6,3.2c0.4,0.9,1,1.5,1.8,2c0.8,0.5,1.7,0.9,2.8,1.1c1.1,0.2,2.4,0.4,3.8,0.4c1.1,0,2.1-0.1,2.8-0.2
			c0.8-0.1,1.6-0.4,2.4-0.7l0.3-0.1V279.3z"/>
	</g>
	<g>
		<path fill="#201600" d="M295.8,275.4h13v4.2h-17.1v-20.8h16.4v4.1h-12.3v5.1c0.9-0.5,1.9-0.9,3-1c1.1-0.1,2.3-0.2,3.5-0.2h3v4.1
			h-3c-1,0-1.8,0-2.4,0.1c-0.6,0-1.2,0.1-1.6,0.2c-0.5,0.1-0.9,0.2-1.2,0.4c-0.4,0.2-0.8,0.4-1.2,0.6V275.4z"/>
		<path fill="#201600" d="M309.1,279.8h-17.6v-21.3h16.9v4.6H296v4.4c0.8-0.4,1.8-0.7,2.8-0.8c1.1-0.1,2.3-0.2,3.5-0.2h3.3v4.6h-3.3
			c-1,0-1.8,0-2.4,0.1c-0.6,0-1.2,0.1-1.6,0.2c-0.4,0.1-0.8,0.2-1.2,0.3c-0.3,0.1-0.7,0.3-1.1,0.5v2.9h13V279.8z M292,279.3h16.6
			v-3.7h-13V272l0.1-0.1c0.5-0.2,0.9-0.4,1.3-0.6c0.4-0.2,0.8-0.3,1.3-0.4c0.5-0.1,1-0.1,1.7-0.2c0.6,0,1.4-0.1,2.4-0.1h2.8V267
			h-2.8c-1.2,0-2.3,0.1-3.4,0.2c-1.1,0.1-2.1,0.5-2.9,1l-0.4,0.2v-5.7h12.3V259H292V279.3z"/>
	</g>
	<g>
		<path fill="#201600" d="M314.5,279.6v-20.8h13.2c1,0,1.9,0.2,2.7,0.5c0.8,0.3,1.6,0.7,2.1,1.3c0.6,0.6,1,1.3,1.4,2.1
			c0.3,0.8,0.5,1.7,0.5,2.7c0,2.1-0.7,3.7-2,4.9c-1.3,1.2-3.2,1.8-5.5,1.8h-1.8c-1,0-1.8,0-2.4,0.1c-0.6,0-1.2,0.1-1.6,0.2
			c-0.5,0.1-0.9,0.2-1.3,0.4c-0.4,0.2-0.8,0.4-1.2,0.6v6.3H314.5z M318.6,269.1c0.9-0.5,1.9-0.9,3-1c1.1-0.1,2.3-0.2,3.5-0.2h1.8
			c1,0,1.8-0.2,2.4-0.5c0.6-0.3,0.9-1,0.9-2.1c0-0.5-0.1-0.9-0.3-1.2c-0.2-0.3-0.4-0.5-0.7-0.7c-0.3-0.2-0.7-0.3-1-0.4
			c-0.4-0.1-0.8-0.1-1.2-0.1h-8.4V269.1z"/>
		<path fill="#201600" d="M318.9,279.8h-4.6v-21.3h13.4c1,0,2,0.2,2.8,0.5c0.9,0.3,1.6,0.8,2.2,1.4c0.6,0.6,1.1,1.3,1.4,2.2
			c0.3,0.8,0.5,1.8,0.5,2.8c0,2.1-0.7,3.9-2.1,5.1c-1.4,1.2-3.3,1.8-5.7,1.8h-1.8c-1,0-1.8,0-2.4,0.1c-0.6,0-1.2,0.1-1.6,0.2
			c-0.4,0.1-0.9,0.2-1.2,0.3c-0.3,0.1-0.7,0.3-1.1,0.5V279.8z M314.8,279.3h3.6v-6.2l0.1-0.1c0.5-0.2,0.9-0.4,1.3-0.6
			c0.4-0.2,0.8-0.3,1.3-0.4c0.5-0.1,1-0.1,1.7-0.2c0.6,0,1.4-0.1,2.4-0.1h1.8c2.3,0,4.1-0.6,5.4-1.7c1.3-1.1,1.9-2.7,1.9-4.7
			c0-1-0.2-1.8-0.5-2.6c-0.3-0.8-0.8-1.5-1.3-2c-0.6-0.5-1.3-1-2.1-1.3c-0.8-0.3-1.7-0.4-2.7-0.4h-13V279.3z M318.4,269.6v-6.9h8.6
			c0.4,0,0.9,0,1.3,0.1c0.4,0.1,0.8,0.2,1.1,0.4c0.3,0.2,0.6,0.5,0.8,0.8c0.2,0.3,0.3,0.8,0.3,1.4c0,1.2-0.3,2-1,2.3
			c-0.6,0.3-1.5,0.5-2.5,0.5h-1.8c-1.2,0-2.4,0.1-3.5,0.2c-1.1,0.1-2.1,0.5-3,1L318.4,269.6z M318.9,263.2v5.6
			c0.8-0.4,1.8-0.7,2.8-0.8c1.1-0.1,2.3-0.2,3.5-0.2h1.8c0.9,0,1.7-0.2,2.3-0.5c0.5-0.3,0.8-0.9,0.8-1.9c0-0.5-0.1-0.8-0.2-1.1
			c-0.2-0.3-0.4-0.5-0.7-0.6c-0.3-0.2-0.6-0.3-1-0.3c-0.4-0.1-0.8-0.1-1.2-0.1H318.9z"/>
	</g>
	<g>
		<path fill="#201600" d="M343.7,275.4h13v4.2h-17.1v-20.8H356v4.1h-12.3v5.1c0.9-0.5,1.9-0.9,3-1c1.1-0.1,2.3-0.2,3.5-0.2h3v4.1h-3
			c-1,0-1.8,0-2.4,0.1c-0.6,0-1.2,0.1-1.6,0.2c-0.5,0.1-0.9,0.2-1.2,0.4c-0.4,0.2-0.8,0.4-1.2,0.6V275.4z"/>
		<path fill="#201600" d="M357,279.8h-17.6v-21.3h16.9v4.6h-12.3v4.4c0.8-0.4,1.8-0.7,2.8-0.8c1.1-0.1,2.3-0.2,3.5-0.2h3.3v4.6h-3.3
			c-1,0-1.8,0-2.4,0.1c-0.6,0-1.2,0.1-1.6,0.2c-0.4,0.1-0.8,0.2-1.2,0.3c-0.3,0.1-0.7,0.3-1.1,0.5v2.9h13V279.8z M339.8,279.3h16.6
			v-3.7h-13V272l0.1-0.1c0.5-0.2,0.9-0.4,1.3-0.6c0.4-0.2,0.8-0.3,1.3-0.4c0.5-0.1,1-0.1,1.7-0.2c0.6,0,1.4-0.1,2.4-0.1h2.8V267
			h-2.8c-1.2,0-2.3,0.1-3.4,0.2c-1.1,0.1-2.1,0.5-2.9,1l-0.4,0.2v-5.7h12.3V259h-15.9V279.3z"/>
	</g>
	<g>
		<path fill="#201600" d="M381.9,284.2v-4.6h-17.2v4.6h-4.2v-8.8h4c1-1.3,1.8-2.5,2.4-3.6c0.6-1.1,1.1-2.2,1.4-3.2
			c0.3-1,0.6-2,0.8-2.9c0.2-0.9,0.4-1.8,0.6-2.7h-3.3l-1.8-4.1h18.9v16.6h2.6v8.8H381.9z M379.4,275.4v-12.5H374
			c-0.2,1.1-0.5,2.2-0.8,3.4c-0.3,1.2-0.6,2.3-1,3.4c-0.4,1.1-0.8,2.1-1.2,3.1c-0.5,1-1,1.9-1.5,2.6H379.4z"/>
		<path fill="#201600" d="M386.3,284.4h-4.7v-4.6H365v4.6h-4.7v-9.3h4.1c0.9-1.2,1.7-2.4,2.3-3.5c0.6-1.1,1.1-2.2,1.4-3.2
			c0.3-1,0.6-2,0.8-2.9c0.2-0.8,0.3-1.6,0.5-2.4h-3.1l-2.1-4.6h19.5v16.6h2.6V284.4z M382.2,283.9h3.7v-8.3h-2.6V259H365l1.6,3.6
			h3.4L370,263c-0.2,0.9-0.4,1.7-0.6,2.7c-0.2,0.9-0.5,1.9-0.8,3c-0.3,1-0.8,2.1-1.4,3.3c-0.6,1.1-1.4,2.4-2.4,3.6l-0.1,0.1h-3.9
			v8.3h3.7v-4.6h17.7V283.9z M379.6,275.6H369l0.3-0.4c0.5-0.7,1.1-1.6,1.5-2.6c0.5-1,0.9-2,1.2-3.1c0.4-1.1,0.7-2.2,1-3.4
			c0.3-1.1,0.6-2.3,0.8-3.4l0-0.2h5.8V275.6z M370,275.1h9.2v-12h-4.9c-0.2,1-0.5,2.1-0.8,3.2c-0.3,1.2-0.6,2.3-1,3.4
			c-0.4,1.1-0.8,2.2-1.3,3.2C370.8,273.7,370.4,274.5,370,275.1z"/>
	</g>
	<g>
		<path fill="#201600" d="M395.7,265.3c0.5,0.2,0.9,0.4,1.2,0.6c0.4,0.2,0.8,0.3,1.2,0.4c0.5,0.1,1,0.1,1.6,0.2
			c0.6,0,1.4,0.1,2.4,0.1h2.1c1,0,2,0.1,2.9,0.4c0.9,0.3,1.7,0.7,2.3,1.2c0.7,0.5,1.2,1.2,1.6,2c0.4,0.8,0.6,1.8,0.6,2.8
			c0,1.1-0.2,2.1-0.6,2.9c-0.4,0.8-0.9,1.5-1.6,2c-0.7,0.5-1.4,0.9-2.3,1.2c-0.9,0.3-1.9,0.4-2.9,0.4h-12.8v-20.8h4.1V265.3z
			 M404.3,275.4c0.4,0,0.8,0,1.2-0.1c0.4-0.1,0.7-0.2,1-0.4c0.3-0.2,0.5-0.4,0.7-0.7c0.2-0.3,0.3-0.7,0.3-1.2c0-0.5-0.1-0.9-0.3-1.2
			c-0.2-0.3-0.4-0.5-0.7-0.7c-0.3-0.2-0.6-0.3-1-0.3c-0.4-0.1-0.8-0.1-1.2-0.1h-2.1c-1.2,0-2.4-0.1-3.5-0.2c-1.1-0.1-2.1-0.5-3-1
			v5.9H404.3z"/>
		<path fill="#201600" d="M404.3,279.8h-13v-21.3h4.6v6.6c0.4,0.2,0.8,0.4,1.1,0.5c0.4,0.2,0.8,0.3,1.2,0.3c0.4,0.1,1,0.1,1.6,0.2
			c0.6,0,1.4,0.1,2.4,0.1h2.1c1.1,0,2.1,0.1,3,0.4c0.9,0.3,1.7,0.7,2.4,1.3c0.7,0.6,1.2,1.3,1.6,2.1c0.4,0.9,0.6,1.9,0.6,3
			c0,1.1-0.2,2.1-0.6,3c-0.4,0.8-1,1.6-1.6,2.1c-0.7,0.6-1.5,1-2.4,1.2C406.4,279.7,405.4,279.8,404.3,279.8z M391.8,279.3h12.5
			c1,0,2-0.1,2.8-0.4c0.9-0.3,1.6-0.6,2.2-1.2c0.6-0.5,1.1-1.2,1.5-1.9c0.4-0.8,0.6-1.7,0.6-2.8c0-1-0.2-2-0.6-2.7
			c-0.4-0.8-0.9-1.5-1.5-2c-0.6-0.5-1.4-0.9-2.2-1.2c-0.9-0.3-1.8-0.4-2.8-0.4h-2.1c-1,0-1.8,0-2.4-0.1c-0.6,0-1.2-0.1-1.7-0.2
			c-0.5-0.1-0.9-0.2-1.3-0.4c-0.4-0.2-0.8-0.4-1.3-0.6l-0.1-0.1V259h-3.6V279.3z M404.3,275.6h-8.9V269l0.4,0.2
			c0.9,0.5,1.9,0.8,2.9,1c1.1,0.1,2.3,0.2,3.4,0.2h2.1c0.4,0,0.8,0,1.2,0.1c0.4,0.1,0.8,0.2,1.1,0.4c0.3,0.2,0.6,0.5,0.8,0.8
			c0.2,0.3,0.3,0.8,0.3,1.3c0,0.6-0.1,1-0.3,1.4c-0.2,0.3-0.5,0.6-0.8,0.8c-0.3,0.2-0.7,0.3-1.1,0.4
			C405.2,275.6,404.8,275.6,404.3,275.6z M396,275.1h8.4c0.4,0,0.8,0,1.2-0.1c0.4-0.1,0.7-0.2,0.9-0.3c0.3-0.2,0.5-0.4,0.6-0.6
			c0.2-0.3,0.2-0.6,0.2-1.1c0-0.4-0.1-0.8-0.2-1.1c-0.2-0.3-0.4-0.5-0.6-0.6c-0.3-0.2-0.6-0.3-0.9-0.3c-0.4-0.1-0.8-0.1-1.2-0.1
			h-2.1c-1.2,0-2.4-0.1-3.5-0.2c-1-0.1-1.9-0.4-2.8-0.8V275.1z"/>
	</g>
</g>
</svg>
