<?xml version="1.0" encoding="utf-8"?>
<!-- Generator: Adobe Illustrator 18.1.0, SVG Export Plug-In . SVG Version: 6.00 Build 0)  -->
<!DOCTYPE svg PUBLIC "-//W3C//DTD SVG 1.1//EN" "http://www.w3.org/Graphics/SVG/1.1/DTD/svg11.dtd">
<svg version="1.1" id="Слой_2" xmlns="http://www.w3.org/2000/svg" xmlns:xlink="http://www.w3.org/1999/xlink" x="0px" y="0px"
	 viewBox="98.8 134.8 305.6 222.5" enable-background="new 98.8 134.8 305.6 222.5" xml:space="preserve">
<g>
	<g>
		<g>
			<path fill="#D8A348" d="M184.7,246.1c0-59.9,48.5-108.4,108.4-108.4s108.4,48.5,108.4,108.4s-48.5,108.4-108.4,108.4
				S184.7,306,184.7,246.1z"/>
			<path fill="#000301" d="M293.2,357.3c-61.3,0-111.3-49.9-111.3-111.3s49.9-111.3,111.3-111.3s111.3,49.9,111.3,111.3
				C404.4,307.4,354.5,357.3,293.2,357.3z M293.2,141.2c-57.8,0-104.9,47.1-104.9,104.9s47.1,104.9,104.9,104.9S398,303.9,398,246.1
				S350.9,141.2,293.2,141.2z"/>
		</g>
		<g>
			<g>
				<path fill="#7AB97A" d="M283.2,309.6v-69.9l-11.4,13.6l-20-15l43.5-52.1h18.5v123.4H283.2z"/>
				<path fill="#000301" d="M313.8,312.4h-30.7c-2.1,0-3.6-1.4-3.6-3.6v-60.6l-5.7,6.4c-1.4,1.4-2.9,1.4-4.3,0.7l-20-15
					c-0.7-0.7-1.4-1.4-1.4-2.1c0-0.7,0-2.1,0.7-2.9l43.5-52.1c0.7-0.7,1.4-1.4,2.9-1.4h18.5c2.1,0,3.6,1.4,3.6,3.6v123.4
					C316.7,311,315.3,312.4,313.8,312.4z M286,306h24.3V189h-13.6l-39.9,48.5l14.3,10.7l9.3-11.4c0.7-1.4,2.1-1.4,3.6-0.7
					c1.4,0.7,2.1,1.4,2.1,2.9V306z"/>
			</g>
		</g>
	</g>
	<g>
		<path fill="#00001F" d="M146.2,296c0.7,0,2.1-0.7,2.9-1.4c1.4-1.4,1.4-4.3,0-5.7l-40.7-40.7l40.7-40.7c1.4-1.4,1.4-4.3,0-5.7
			c-1.4-1.4-4.3-1.4-5.7,0l-43.5,43.5c-1.4,1.4-1.4,4.3,0,5.7l43.5,43.5C144.1,296,144.8,296,146.2,296z"/>
	</g>
</g>
</svg>
