<?xml version="1.0" encoding="utf-8"?>
<!-- Generator: Adobe Illustrator 18.1.0, SVG Export Plug-In . SVG Version: 6.00 Build 0)  -->
<!DOCTYPE svg PUBLIC "-//W3C//DTD SVG 1.1//EN" "http://www.w3.org/Graphics/SVG/1.1/DTD/svg11.dtd">
<svg version="1.1" id="Слой_2" xmlns="http://www.w3.org/2000/svg" xmlns:xlink="http://www.w3.org/1999/xlink" x="0px" y="0px"
	 viewBox="0 0 71.3 52.9" enable-background="new 0 0 71.3 52.9" xml:space="preserve">
<g>
	<g>
		<rect x="0" y="0" fill="#E2C749" width="71.3" height="52.9"/>
	</g>
	<g>
		<path fill="#00001F" d="M51,32.8c-0.1,0-0.3-0.1-0.4-0.2c-0.2-0.2-0.2-0.6,0-0.8l5.7-5.7l-5.7-5.7c-0.2-0.2-0.2-0.6,0-0.8
			s0.6-0.2,0.8,0l6.1,6.1c0.2,0.2,0.2,0.6,0,0.8l-6.1,6.1C51.3,32.7,51.1,32.8,51,32.8z"/>
	</g>
</g>
<g>
	<g>
		<path fill="#6273B3" d="M13.8,26.5c0-8.4,6.8-15.2,15.2-15.2c8.4,0,15.2,6.8,15.2,15.2c0,8.4-6.8,15.2-15.2,15.2
			C20.6,41.7,13.8,34.9,13.8,26.5z"/>
		<path fill="#000301" d="M29,42.2c-8.6,0-15.7-7-15.7-15.7c0-8.6,7-15.7,15.7-15.7c8.6,0,15.7,7,15.7,15.7
			C44.7,35.1,37.7,42.2,29,42.2z M29,11.7c-8.1,0-14.7,6.6-14.7,14.7c0,8.1,6.6,14.8,14.7,14.8c8.1,0,14.8-6.6,14.8-14.8
			C43.8,18.3,37.2,11.7,29,11.7z"/>
	</g>
	<g>
		<g>
			<path fill="#60B5AE" d="M31,24.8c0.2,0,0.5,0,0.7,0.1c2.8,0.5,4.3,2.6,4.3,5c0,2.8-1.8,5.5-6.6,5.6h-0.2c-2.9,0-5.3-1.3-7.3-3
				l2.8-2.6c2.1,1.3,3.2,1.5,4.4,1.5h0.2c1.6,0,2.6-1,2.6-2.2c0-1.3-0.8-2.2-2.8-2.2c-1,0-1.9,0.5-2.3,0.7l-2-1.5l4.1-4.2h-5.4V18
				h11.6v2.6L31,24.8z"/>
			<path fill="#00001F" d="M29.4,36h-0.2c-2.7,0-5.2-1-7.6-3.1c-0.1-0.1-0.2-0.2-0.2-0.3c0-0.1,0.1-0.3,0.1-0.3l2.8-2.6
				c0.2-0.1,0.4-0.2,0.6-0.1c1.9,1.2,3,1.5,4.1,1.5h0.2c1,0,2.1-0.6,2.1-1.7c0-1.2-0.8-1.8-2.3-1.8c-0.8,0-1.5,0.3-1.9,0.5
				c-0.1,0-0.1,0.1-0.2,0.1c-0.2,0.1-0.3,0-0.5-0.1l-2-1.5c-0.1-0.1-0.2-0.2-0.2-0.3c0-0.1,0-0.3,0.1-0.4l3.3-3.4h-4.3
				c-0.3,0-0.5-0.2-0.5-0.5V18c0-0.3,0.2-0.5,0.5-0.5h11.6c0.3,0,0.5,0.2,0.5,0.5v2.6c0,0.1,0,0.2-0.1,0.3l-3.5,3.6
				c2.7,0.6,4.5,2.7,4.5,5.5C36.4,32.8,34.6,35.9,29.4,36C29.4,36,29.4,36,29.4,36z M22.6,32.5c2.1,1.7,4.3,2.6,6.6,2.6h0.2
				c3.8,0,6.1-2,6.1-5.1c0-2.4-1.5-4.2-3.9-4.6c-0.2,0-0.5-0.1-0.7-0.1c-0.2,0-0.4-0.1-0.4-0.3s0-0.4,0.1-0.5l4-4.2v-1.9H24v3.1h4.9
				c0.2,0,0.4,0.1,0.4,0.3c0.1,0.2,0,0.4-0.1,0.5l-3.7,3.8l1.4,1c0.5-0.2,1.3-0.6,2.2-0.6c2.1,0,3.3,1,3.3,2.7
				c0,1.3-1.1,2.6-3.1,2.6h-0.2c-1.2,0-2.4-0.2-4.3-1.4L22.6,32.5z"/>
		</g>
	</g>
</g>
</svg>
