<?xml version="1.0" encoding="utf-8"?>
<!-- Generator: Adobe Illustrator 18.1.0, SVG Export Plug-In . SVG Version: 6.00 Build 0)  -->
<!DOCTYPE svg PUBLIC "-//W3C//DTD SVG 1.1//EN" "http://www.w3.org/Graphics/SVG/1.1/DTD/svg11.dtd">
<svg version="1.1" id="Слой_2" xmlns="http://www.w3.org/2000/svg" xmlns:xlink="http://www.w3.org/1999/xlink" x="0px" y="0px"
	 viewBox="100.5 196 315.1 112" enable-background="new 100.5 196 315.1 112" xml:space="preserve">
<g>
	<g>
		<g>
			<path fill="#6273B3" d="M101.9,251.6c0-30.2,24.4-54.6,54.6-54.6s54.6,24.4,54.6,54.6s-24.4,54.6-54.6,54.6
				S101.9,281.8,101.9,251.6z"/>
			<path fill="#000301" d="M156.5,308c-30.9,0-56-25.1-56-56s25.1-56,56-56s56,25.1,56,56S187.4,308,156.5,308z M156.5,198.9
				c-29.1,0-52.8,23.7-52.8,52.8s23.7,52.8,52.8,52.8s52.8-23.7,52.8-52.8S185.6,198.9,156.5,198.9z"/>
		</g>
		<g>
			<g>
				<path fill="#60B5AE" d="M163.3,245.9c0.7,0,1.8,0,2.5,0.4c10.1,1.8,15.4,9.3,15.4,17.9c0,10.1-6.5,19.7-23.7,20.1h-0.7
					c-10.4,0-19-4.7-26.2-10.8l10.1-9.3c7.5,4.7,11.5,5.4,15.8,5.4h0.7c5.7,0,9.3-3.6,9.3-7.9c0-4.7-2.9-7.9-10.1-7.9
					c-3.6,0-6.8,1.8-8.3,2.5l-7.2-5.4l14.4-15.1H136v-14.4h41.6v9L163.3,245.9z"/>
				<path fill="#00001F" d="M157.6,285.7h-0.7c-9.7,0-18.7-3.6-27.3-11.1c0-0.4-0.4-0.7-0.4-1.1c0-0.4,0.4-1.1,0.4-1.1l10.4-9.7
					c0.7-0.4,1.4-0.7,2.2-0.4c6.8,4.3,10.8,5,14.7,5h0.7c3.6,0,7.5-2.2,7.5-6.1c0-4.3-2.9-6.5-8.3-6.5c-2.9,0-5.4,1.1-6.8,1.8
					c-0.4,0-0.4,0.4-0.7,0.4c-0.7,0.4-1.1,0-1.8-0.4l-7.2-5.4c-0.4-0.4-0.7-0.7-0.7-1.1s0-1.1,0.4-1.4l11.8-12.2h-15.4
					c-1.1,0-1.8-0.7-1.8-1.8v-14.4c0-1.1,0.7-1.8,1.8-1.8H178c1.1,0,1.8,0.7,1.8,1.8v10.1c0,0.4,0,0.7-0.4,1.1l-12.6,12.9
					c9.7,2.2,16.2,9.7,16.2,19.7C182.7,274.6,176.2,285.7,157.6,285.7L157.6,285.7z M133.5,273.5c7.5,6.1,15.4,9.3,23.7,9.3h0.7
					c13.6,0,21.9-6.8,21.9-18.3c0-8.6-5.4-14.7-14-16.5c-0.7,0-1.4-0.4-2.5-0.4c-0.7,0-1.4-0.4-1.4-1.1c0-0.7,0-1.4,0.4-1.8
					l14.4-14.7v-6.8h-38.4v11.1h17.6c0.7,0,1.4,0.4,1.4,1.1c0.4,0.7,0,1.4-0.4,1.8l-13.3,13.6l5,3.6c1.8-0.7,4.7-2.2,7.9-2.2
					c7.5,0,11.5,3.6,11.5,9.7c0,4.7-3.9,9.3-11.1,9.3h-0.7c-4.3,0-8.6-0.7-15.4-5L133.5,273.5z"/>
			</g>
		</g>
	</g>
	<g>
		<g>
			<path fill="#201600" d="M254.5,221.1v25.5h-4.3v-25.5h-10.8v-4.3h25.5v4.3H254.5z"/>
			<path fill="#201600" d="M254.8,246.6h-4.7v-25.5h-10.8v-5h25.8v5h-10.4V246.6z M250.5,246.2h3.6v-25.5h10.4v-3.9h-24.8v3.9h10.8
				V246.2z"/>
		</g>
		<g>
			<path fill="#201600" d="M264.9,246.6v-20.8h13.3c1.1,0,1.8,0,2.9,0.4c0.7,0.4,1.4,0.7,2.2,1.4s1.1,1.4,1.4,2.2
				c0.4,0.7,0.4,1.8,0.4,2.5c0,2.2-0.7,3.6-1.8,5c-1.4,1.1-3.2,1.8-5.4,1.8H276c-1.1,0-1.8,0-2.5,0s-1.1,0-1.8,0.4
				c-0.4,0-0.7,0.4-1.1,0.4c-0.4,0-0.7,0.4-1.1,0.7v6.1L264.9,246.6L264.9,246.6z M269.2,236.2c1.1-0.4,1.8-0.7,2.9-1.1
				c1.1,0,2.2-0.4,3.6-0.4h1.8c1.1,0,1.8,0,2.5-0.4c0.7-0.4,0.7-1.1,0.7-2.2c0-0.4,0-1.1-0.4-1.1c0-0.4-0.4-0.7-0.7-0.7
				c-0.4,0-0.7-0.4-1.1-0.4c-0.4,0-0.7,0-1.1,0h-8.3V236.2z"/>
			<path fill="#201600" d="M269.2,246.6h-4.7v-21.2h13.3c1.1,0,1.8,0,2.9,0.4c0.7,0.4,1.4,0.7,2.2,1.4c0.7,0.7,1.1,1.4,1.4,2.2
				c0.4,0.7,0.4,1.8,0.4,2.9c0,2.2-0.7,3.9-2.2,5c-1.4,1.1-3.2,1.8-5.7,1.8h-1.8c-1.1,0-1.8,0-2.5,0s-1.1,0-1.4,0
				c-0.4,0-0.7,0.4-1.1,0.4c-0.4,0-0.7,0.4-1.1,0.4v6.8H269.2z M265.3,246.2h3.6v-6.1l0,0c0.4-0.4,0.7-0.4,1.1-0.7
				c0.4,0,0.7-0.4,1.4-0.4c0.4,0,1.1,0,1.8-0.4c0.7,0,1.4,0,2.5,0h1.8c2.2,0,3.9-0.7,5.4-1.8c1.1-1.1,1.8-2.9,1.8-4.7
				c0-1.1,0-1.8-0.4-2.5c-0.4-0.7-0.7-1.4-1.4-2.2c-0.7-0.7-1.1-1.1-2.2-1.4c-0.7-0.4-1.8-0.4-2.5-0.4h-12.9L265.3,246.2
				L265.3,246.2z M268.8,236.5v-6.8h8.6c0.4,0,0.7,0,1.4,0c0.4,0,0.7,0.4,1.1,0.4c0.4,0.4,0.7,0.4,0.7,0.7c0.4,0.4,0.4,0.7,0.4,1.4
				c0,1.1-0.4,1.8-1.1,2.2c-0.7,0.4-1.4,0.4-2.5,0.4h-1.8c-1.1,0-2.5,0-3.6,0.4c-1.1,0-2.2,0.4-2.9,1.1L268.8,236.5z M269.2,230.1
				v5.4c0.7-0.4,1.8-0.7,2.9-0.7s2.2-0.4,3.6-0.4h1.8c1.1,0,1.8,0,2.2-0.4c0.4-0.4,0.7-1.1,0.7-1.8c0-0.4,0-0.7-0.4-1.1
				c0-0.4-0.4-0.4-0.7-0.7c-0.4,0-0.7-0.4-1.1-0.4s-0.7,0-1.1,0C277.1,230.1,269.2,230.1,269.2,230.1z"/>
		</g>
		<g>
			<path fill="#201600" d="M294,242.3h12.9v4.3H290v-20.8h16.2v3.9H294v5c1.1-0.4,1.8-0.7,2.9-1.1c1.1,0,2.2-0.4,3.6-0.4h2.9v3.9
				h-2.9c-1.1,0-1.8,0-2.5,0s-1.1,0-1.4,0c-0.4,0-0.7,0.4-1.1,0.4c-0.4,0-0.7,0.4-1.1,0.7v3.9H294z"/>
			<path fill="#201600" d="M307.3,246.6h-17.6v-21.2h16.9v4.7h-12.2v4.3c0.7-0.4,1.8-0.7,2.9-0.7c1.1,0,2.2-0.4,3.6-0.4h3.2v4.7
				h-3.2c-1.1,0-1.8,0-2.5,0s-1.1,0-1.4,0c-0.4,0-0.7,0.4-1.1,0.4s-0.7,0.4-1.1,0.4v2.9h12.9v5H307.3z M290,246.2h16.5v-3.6h-12.9
				v-3.6l0,0c0.4-0.4,0.7-0.4,1.1-0.7c0.4,0,0.7-0.4,1.4-0.4c0.4,0,1.1,0,1.8-0.4c0.7,0,1.4,0,2.5,0h2.9V234h-2.9
				c-1.1,0-2.2,0-3.6,0.4c-1.1,0-2.2,0.4-2.9,1.1l-0.4,0.4v-5.7h12.2v-3.6H290V246.2z"/>
		</g>
		<g>
			<path fill="#201600" d="M322,230.1v16.5H318v-16.5h-7.5v-3.9h19.4v3.9H322z"/>
			<path fill="#201600" d="M322.3,246.6h-4.7v-16.5h-7.5v-4.7h19.7v4.7H322v16.5H322.3z M318,246.2h3.6v-16.5h7.9v-3.6h-19v3.6h7.5
				V246.2L318,246.2z"/>
		</g>
		<g>
			<path fill="#201600" d="M338.5,232.2c0.4,0.4,0.7,0.4,1.1,0.7c0.4,0,0.7,0.4,1.1,0.4c0.4,0,1.1,0,1.4,0c0.7,0,1.4,0,2.5,0h2.2
				c1.1,0,2.2,0,2.9,0.4c0.7,0.4,1.8,0.7,2.2,1.1c0.7,0.4,1.1,1.1,1.4,2.2c0.4,0.7,0.7,1.8,0.7,2.9s-0.4,2.2-0.7,2.9
				c-0.4,0.7-1.1,1.4-1.4,2.2c-0.7,0.4-1.4,1.1-2.2,1.1c-0.7,0.4-1.8,0.4-2.9,0.4h-12.6v-20.8h3.9v6.8H338.5z M347.1,242.3
				c0.4,0,0.7,0,1.1,0s0.7-0.4,1.1-0.4c0.4,0,0.4-0.4,0.7-0.7c0.4-0.4,0.4-0.7,0.4-1.1c0-0.4,0-0.7-0.4-1.1
				c-0.4-0.4-0.4-0.7-0.7-0.7c-0.4,0-0.7-0.4-1.1-0.4c-0.4,0-0.7,0-1.1,0h-2.2c-1.1,0-2.5,0-3.6-0.4c-1.1,0-2.2-0.4-2.9-1.1v5.7
				H347.1z"/>
			<path fill="#201600" d="M347.1,246.6h-12.9v-21.2h4.7v6.5c0.4,0.4,0.7,0.4,1.1,0.4c0.4,0,0.7,0.4,1.1,0.4s1.1,0,1.4,0
				c0.7,0,1.4,0,2.5,0h2.2c1.1,0,2.2,0,2.9,0.4c1.1,0.4,1.8,0.7,2.5,1.4c0.7,0.7,1.1,1.4,1.8,2.2c0.4,0.7,0.7,1.8,0.7,2.9
				c0,1.1-0.4,2.2-0.7,2.9c-0.4,0.7-1.1,1.4-1.8,2.2s-1.4,1.1-2.5,1.1C348.9,246.6,348.2,246.6,347.1,246.6z M334.5,246.2h12.6
				c1.1,0,1.8,0,2.9-0.4c0.7-0.4,1.4-0.7,2.2-1.1s1.1-1.1,1.4-1.8c0.4-0.7,0.7-1.8,0.7-2.9s-0.4-1.8-0.7-2.9
				c-0.4-0.7-0.7-1.4-1.4-1.8c-0.7-0.4-1.4-1.1-2.2-1.1c-0.7-0.4-1.8-0.4-2.9-0.4h-2.2c-1.1,0-1.8,0-2.5,0s-1.1,0-1.8-0.4
				c-0.4,0-1.1-0.4-1.4-0.4c-0.4,0-0.7-0.4-1.1-0.7l0,0v-6.5h-3.6V246.2z M347.1,242.6h-9v-6.5l0.4,0.4c0.7,0.4,1.8,0.7,2.9,1.1
				c1.1,0,2.2,0.4,3.6,0.4h2.2c0.4,0,0.7,0,1.1,0s0.7,0.4,1.1,0.4c0.4,0.4,0.7,0.4,0.7,0.7c0.4,0.4,0.4,0.7,0.4,1.4s0,1.1-0.4,1.4
				c-0.4,0.4-0.4,0.7-0.7,0.7c-0.4,0.4-0.7,0.4-1.1,0.4C347.8,242.6,347.5,242.6,347.1,242.6z M338.8,241.9h8.3c0.4,0,0.7,0,1.1,0
				s0.7,0,1.1-0.4c0.4,0,0.4-0.4,0.7-0.7c0-0.4,0.4-0.7,0.4-1.1c0-0.4,0-0.7-0.4-1.1c0-0.4-0.4-0.4-0.7-0.7c-0.4,0-0.7-0.4-1.1-0.4
				c-0.4,0-0.7,0-1.1,0h-2.2c-1.1,0-2.5,0-3.6-0.4c-1.1,0-1.8-0.4-2.9-0.7v5.4H338.8z"/>
		</g>
		<g>
			<path fill="#201600" d="M366.1,243.4c-0.4,0.7-1.1,1.4-1.4,1.8c-0.4,0.4-1.1,0.7-1.4,1.1c-0.4,0.4-1.1,0.4-1.4,0.4
				c-0.7,0-1.1,0-1.8,0h-1.8v-4.3h2.2c0.4,0,0.7,0,1.1-0.4c0.4-0.4,1.1-0.7,1.4-1.8l0.7-1.4c-1.8-0.4-3.2-1.1-3.9-2.2
				s-1.4-2.5-1.4-4.3c0-1.1,0-1.8,0.4-2.5c0.4-0.7,0.7-1.4,1.4-2.2c0.7-0.7,1.4-1.1,2.2-1.4c0.7-0.4,1.8-0.4,2.9-0.4h12.6v20.8h-4.3
				v-6.1c-0.4-0.4-0.7-0.4-1.1-0.7c-0.4,0-0.7-0.4-1.1-0.4c-0.4,0-0.7-0.4-1.4-0.4c-0.4,0-1.1,0-1.8,0L366.1,243.4z M374,230.1h-6.8
				c-0.4,0-0.7,0-1.4,0c-0.4,0-0.7,0-1.1,0.4c-0.4,0-0.7,0.4-0.7,0.7c-0.4,0.4-0.4,0.7-0.4,1.4c0,0.7,0,1.1,0.4,1.4
				c0.4,0.4,0.4,0.7,0.7,0.7c0.4,0,0.7,0.4,1.1,0.4s0.7,0,1.4,0c1.4,0,2.9,0,3.9,0.4c1.1,0,2.2,0.4,3.2,1.1v-6.5H374z"/>
			<path fill="#201600" d="M378.7,246.6H374v-6.1c-0.4-0.4-0.7-0.4-1.1-0.4s-0.7-0.4-1.1-0.4c-0.4,0-0.7-0.4-1.4-0.4
				c-0.4,0-1.1,0-1.8,0l-2.2,3.9c-0.4,0.7-1.1,1.4-1.4,1.8c-0.4,0.4-1.1,0.7-1.4,1.1c-0.4,0.4-1.1,0.4-1.8,0.4s-1.1,0-1.8,0h-2.2
				v-4.7h2.5c0.4,0,0.7,0,1.1-0.4c0.4-0.4,0.7-0.7,1.4-1.8l0.7-1.1c-1.8-0.4-2.9-1.1-3.6-2.2c-1.1-1.1-1.4-2.5-1.4-4.3
				c0-1.1,0.4-1.8,0.4-2.9c0.4-0.7,0.7-1.4,1.4-2.2s1.4-1.1,2.2-1.4c0.7-0.4,1.8-0.4,2.9-0.4h12.9v21.2H378.7z M374.4,246.2h3.6
				v-20.1h-12.6c-1.1,0-1.8,0-2.9,0.4c-0.7,0.4-1.4,0.7-2.2,1.4s-1.1,1.1-1.4,2.2c-0.4,0.7-0.4,1.8-0.4,2.5c0,1.4,0.4,2.9,1.4,3.9
				c0.7,1.1,2.2,1.8,3.9,2.2h0.4l-1.1,1.4c-0.7,1.1-1.1,1.4-1.4,1.8c-0.4,0.4-1.1,0.4-1.4,0.4h-1.8v3.6h1.4c0.7,0,1.1,0,1.8,0
				c0.4,0,1.1,0,1.4-0.4c0.4-0.4,1.1-0.4,1.4-1.1c0.4-0.4,0.7-1.1,1.4-1.8l2.5-4.3l0,0c0.7,0,1.4,0,1.8,0c0.4,0,1.1,0,1.4,0.4
				c0.4,0,0.7,0.4,1.1,0.4c0.4,0,0.7,0.4,1.1,0.7l0,0v6.5H374.4z M374.4,236.5l-0.4-0.4c-0.7-0.4-1.8-0.7-2.9-1.1
				c-1.1,0-2.5-0.4-3.9-0.4c-0.4,0-1.1,0-1.4,0c-0.4,0-1.1,0-1.4-0.4c-0.4-0.4-0.7-0.4-1.1-0.7c-0.4-0.4-0.4-0.7-0.4-1.4
				c0-0.7,0-1.1,0.4-1.4c0.4-0.4,0.7-0.7,1.1-0.7c0.4-0.4,0.7-0.4,1.4-0.4c0.4,0,1.1,0,1.4,0l0,0h7.2V236.5z M367.2,230.1
				c-0.4,0-0.7,0-1.4,0c-0.4,0-0.7,0-1.1,0.4c-0.4,0-0.7,0.4-0.7,0.7c-0.4,0.4-0.4,0.7-0.4,1.1s0,1.1,0.4,1.1
				c0.4,0.4,0.4,0.4,0.7,0.7c0.4,0,0.7,0.4,1.1,0.4s0.7,0,1.4,0c1.4,0,2.9,0,3.9,0.4c1.1,0,1.8,0.4,2.9,0.7v-5.4H367.2z"/>
		</g>
		<g>
			<path fill="#201600" d="M265.6,269.2c0,1.8-0.4,3.2-1.1,4.7c-0.7,1.4-1.4,2.5-2.9,3.6c-1.1,1.1-2.5,1.8-3.9,2.2
				c-1.4,0.4-2.9,0.7-4.7,0.7c-1.4,0-3.2-0.4-4.7-0.7c-1.4-0.4-2.9-1.1-3.9-2.2c-1.1-1.1-2.2-2.2-2.9-3.6c-0.7-1.4-1.1-2.9-1.1-4.7
				c0-1.8,0.4-3.2,1.1-4.7c0.7-1.4,1.4-2.5,2.9-3.6c1.1-1.1,2.5-1.8,3.9-2.2c1.4-0.4,2.9-0.7,4.7-0.7c1.4,0,3.2,0.4,4.7,0.7
				c1.4,0.4,2.9,1.1,3.9,2.2c1.1,1.1,2.2,2.2,2.9,3.2C265.3,266,265.6,267.4,265.6,269.2z M261.3,269.2c0-1.1-0.4-2.2-0.7-2.9
				c-0.4-0.7-1.1-1.4-1.8-2.2c-0.7-0.7-1.4-1.1-2.5-1.1c-0.7-0.4-1.8-0.4-2.9-0.4c-1.1,0-2.2,0-2.9,0.4c-1.1,0.4-1.8,0.7-2.5,1.1
				c-0.7,0.7-1.4,1.4-1.8,2.2c-0.4,0.7-0.7,1.8-0.7,2.9s0.4,2.2,0.7,2.9s1.1,1.4,1.8,2.2s1.4,1.1,2.5,1.1c1.1,0.4,1.8,0.4,2.9,0.4
				c1.1,0,1.8,0,2.9-0.4c1.1-0.4,1.8-0.7,2.5-1.4c0.7-0.7,1.4-1.4,1.8-2.2C261.3,271.4,261.3,270.3,261.3,269.2z"/>
			<path fill="#201600" d="M253.4,280.7c-1.4,0-3.2-0.4-4.7-0.7c-1.4-0.4-2.9-1.1-3.9-2.2c-1.1-1.1-2.2-2.2-2.9-3.6
				c-0.7-1.4-1.1-2.9-1.1-4.7c0-1.8,0.4-3.2,1.1-4.7c0.7-1.4,1.8-2.5,2.9-3.6c1.1-1.1,2.5-1.8,3.9-2.2c2.9-1.1,6.1-1.1,9.3,0
				c1.4,0.4,2.9,1.1,3.9,2.2c1.1,1.1,2.2,2.2,2.9,3.6c0.7,1.4,1.1,2.9,1.1,4.7c0,1.8-0.4,3.2-1.1,4.7c-0.7,1.4-1.8,2.5-2.9,3.6
				s-2.5,1.8-3.9,2.2C256.6,280.3,255.2,280.7,253.4,280.7z M253.4,258.8c-1.4,0-2.9,0.4-4.3,0.7c-1.4,0.4-2.9,1.1-3.9,2.2
				c-1.1,1.1-2.2,2.2-2.5,3.2c-0.7,1.4-1.1,2.9-1.1,4.7c0,1.8,0.4,3.2,1.1,4.7c0.7,1.4,1.4,2.5,2.5,3.2c1.1,1.1,2.5,1.8,3.9,2.2
				c2.9,1.1,6.1,1.1,9,0c1.4-0.4,2.9-1.1,3.9-2.2c1.1-1.1,2.2-2.2,2.5-3.6c0.7-1.4,1.1-2.9,1.1-4.7c0-1.8-0.4-3.2-1.1-4.7
				c-0.7-1.4-1.4-2.5-2.5-3.2c-1.1-0.7-2.5-1.4-3.9-2.2C256.6,258.8,254.8,258.8,253.4,258.8z M253.4,276.4c-1.1,0-2.2,0-2.9-0.4
				c-1.1-0.4-1.8-0.7-2.5-1.4c-0.7-0.7-1.4-1.4-1.8-2.2s-0.7-1.8-0.7-3.2c0-1.1,0.4-2.2,0.7-3.2c0.4-0.7,1.1-1.8,1.8-2.2
				c0.7-0.7,1.8-1.1,2.5-1.4c1.8-0.4,3.9-0.7,6.1,0c1.1,0.4,1.8,0.7,2.5,1.1c0.7,0.7,1.4,1.4,1.8,2.2c0.4,0.7,0.7,1.8,0.7,3.2
				c0,1.1-0.4,2.2-0.7,3.2c-0.4,0.7-1.1,1.8-1.8,2.2c-0.7,0.7-1.8,1.1-2.5,1.4C255.6,276.4,254.5,276.4,253.4,276.4z M253.4,262.7
				c-1.1,0-1.8,0-2.9,0.4c-1.1,0.4-1.8,0.7-2.5,1.1c-0.7,0.4-1.4,1.1-1.8,2.2c-0.4,0.7-0.7,1.8-0.7,2.9s0.4,2.2,0.7,2.9
				s1.1,1.4,1.8,2.2c0.7,0.4,1.4,1.1,2.5,1.1c1.8,0.4,3.9,0.7,5.7,0c0.7-0.4,1.8-0.7,2.5-1.4c0.7-0.7,1.4-1.4,1.8-2.2
				c0.4-0.7,0.7-1.8,0.7-2.9s-0.4-2.2-0.7-2.9c-0.4-0.7-1.1-1.4-1.8-2.2c-0.7-0.4-1.4-1.1-2.5-1.1
				C255.6,263.1,254.5,262.7,253.4,262.7z"/>
		</g>
		<g>
			<path fill="#201600" d="M288.2,259.2V280h-3.9v-7.5c-0.7,0.4-1.8,0.7-2.5,0.7s-1.8,0.4-2.9,0.4c-1.4,0-2.5,0-3.9-0.4
				c-1.1-0.4-2.2-0.7-2.9-1.1c-0.7-0.4-1.4-1.1-1.8-2.2c-0.4-0.7-0.7-1.8-0.7-3.2c0-1.1,0-2.5,0-3.6s0.4-2.5,0.7-3.6h3.9
				c-0.4,1.1-0.4,2.2-0.7,2.9c0,1.1,0,1.8,0,2.9c0,1.4,0.4,2.5,1.1,3.2c0.7,0.7,2.2,0.7,3.9,0.7c0.4,0,1.1,0,1.4,0
				c0.4,0,0.7,0,1.1,0s0.7-0.4,1.1-0.4c0.4,0,1.1-0.4,1.4-0.4v-9.3H288.2z"/>
			<path fill="#201600" d="M288.6,280h-4.7v-7.5c-0.7,0.4-1.4,0.4-2.2,0.7c-0.7,0-1.8,0.4-2.9,0.4c-1.4,0-2.9,0-3.9-0.4
				c-1.1-0.4-2.2-0.7-2.9-1.1c-0.7-0.7-1.4-1.4-1.8-2.2c-0.4-1.1-0.7-2.2-0.7-3.2s0-2.5,0-3.6s0.4-2.5,0.7-3.6v-0.4h4.7v0.4
				c-0.4,1.1-0.4,2.2-0.7,2.9c0,1.1,0,1.8,0,2.9c0,1.4,0.4,2.5,1.1,2.9c0.7,0.4,2.2,0.7,3.9,0.7c0.4,0,0.7,0,1.4,0
				c0.4,0,0.7,0,1.1,0s0.7,0,1.1-0.4c0.4,0,0.7-0.4,1.4-0.4v-9h4.7V280H288.6z M284.6,279.6h3.6v-20.5h-3.6v9l0,0
				c-0.7,0.4-1.1,0.4-1.4,0.4c-0.4,0-0.7,0.4-1.1,0.4s-0.7,0-1.1,0s-0.7,0-1.4,0c-1.8,0-3.2-0.4-4.3-0.7c-0.7-0.7-1.4-1.8-1.4-3.2
				c0-1.1,0-2.2,0.4-2.9c0-0.7,0.4-1.8,0.7-2.9h-3.6c-0.4,1.1-0.4,2.2-0.7,3.2c0,1.1,0,2.5,0,3.6s0.4,2.2,0.7,3.2
				c0.4,0.7,1.1,1.4,1.8,2.2c0.7,0.4,1.8,0.7,2.9,1.1c1.1,0.4,2.5,0.4,3.9,0.4c1.1,0,2.2,0,2.9-0.4c0.7,0,1.4-0.4,2.5-0.7h0.4v7.9
				H284.6z"/>
		</g>
		<g>
			<path fill="#201600" d="M299.7,275.7h12.9v4.3h-16.9v-20.8h16.2v3.9h-12.2v5c1.1-0.4,1.8-0.7,2.9-1.1c1.1,0,2.2-0.4,3.6-0.4h2.9
				v3.9h-2.9c-1.1,0-1.8,0-2.5,0s-1.1,0-1.4,0c-0.4,0-0.7,0.4-1.1,0.4s-0.7,0.4-1.1,0.7v3.9H299.7z"/>
			<path fill="#201600" d="M313,280h-17.6v-21.2h16.9v4.7h-12.2v4.3c0.7-0.4,1.8-0.7,2.9-0.7s2.2-0.4,3.6-0.4h3.2v4.7h-3.2
				c-1.1,0-1.8,0-2.5,0s-1.1,0-1.4,0c-0.4,0-0.7,0.4-1.1,0.4c-0.4,0-0.7,0.4-1.1,0.4v2.9h12.9v5H313z M295.8,279.6h16.5V276h-12.9
				v-3.6l0,0c0.4-0.4,0.7-0.4,1.1-0.7c0.4,0,0.7-0.4,1.4-0.4c0.4,0,1.1,0,1.8-0.4c0.7,0,1.4,0,2.5,0h2.9v-3.6h-2.9
				c-1.1,0-2.2,0-3.6,0.4c-1.1,0-2.2,0.4-2.9,1.1l-0.4,0.4v-6.5h12.2v-3.6h-15.8V279.6z"/>
		</g>
		<g>
			<path fill="#201600" d="M318.4,279.6v-20.5h13.3c1.1,0,1.8,0,2.9,0.4c0.7,0.4,1.4,0.7,2.2,1.4c0.7,0.7,1.1,1.4,1.4,2.2
				c0.4,0.7,0.4,1.8,0.4,2.5c0,2.2-0.7,3.6-1.8,5c-1.4,1.1-3.2,1.8-5.4,1.8h-1.8c-1.1,0-1.8,0-2.5,0s-1.1,0-1.8,0.4
				c-0.4,0-0.7,0.4-1.1,0.4c-0.4,0-0.7,0.4-1.1,0.7v6.1h-4.7V279.6z M322.3,269.2c1.1-0.4,1.8-0.7,2.9-1.1c1.1,0,2.2-0.4,3.6-0.4
				h1.8c1.1,0,1.8,0,2.5-0.4c0.7-0.4,0.7-1.1,0.7-2.2c0-0.4,0-1.1-0.4-1.1c-0.4-0.4-0.4-0.7-0.7-0.7c-0.4,0-0.7-0.4-1.1-0.4
				c-0.4,0-0.7,0-1.1,0h-8.3L322.3,269.2L322.3,269.2z"/>
			<path fill="#201600" d="M322.7,280H318v-21.2h13.3c1.1,0,1.8,0,2.9,0.4c0.7,0.4,1.4,0.7,2.2,1.4s1.1,1.4,1.4,2.2s0.4,1.8,0.4,2.9
				c0,2.2-0.7,3.9-2.2,5s-3.2,1.8-5.7,1.8h-1.8c-1.1,0-1.8,0-2.5,0s-1.1,0-1.4,0c-0.4,0-0.7,0.4-1.1,0.4c-0.4,0-0.7,0.4-1.1,0.4v6.8
				H322.7z M318.4,279.6h3.6v-6.1l0,0c0.4-0.4,0.7-0.4,1.1-0.7c0.4,0,0.7-0.4,1.4-0.4c0.4,0,1.1,0,1.8-0.4c0.7,0,1.4,0,2.5,0h1.8
				c2.2,0,3.9-0.7,5.4-1.8c1.1-1.1,1.8-2.9,1.8-4.7c0-1.1,0-1.8-0.4-2.5c-0.4-0.7-0.7-1.4-1.4-2.2c-0.7-0.7-1.1-1.1-2.2-1.4
				c-0.7-0.4-1.8-0.4-2.5-0.4h-12.9L318.4,279.6L318.4,279.6z M322,269.9v-7.2h8.6c0.4,0,0.7,0,1.4,0c0.4,0,0.7,0.4,1.1,0.4
				c0.4,0.4,0.7,0.4,0.7,0.7c0.4,0.4,0.4,0.7,0.4,1.4c0,1.1-0.4,1.8-1.1,2.2c-0.7,0.4-1.4,0.4-2.5,0.4h-1.8c-1.1,0-2.5,0-3.6,0.4
				c-1.1,0-2.2,0.4-2.9,1.1L322,269.9z M322.7,263.5v5.4c0.7-0.4,1.8-0.7,2.9-0.7s2.2-0.4,3.6-0.4h1.8c1.1,0,1.8,0,2.2-0.4
				c0.4-0.4,0.7-1.1,0.7-1.8c0-0.4,0-0.7-0.4-1.1c0-0.4-0.4-0.4-0.7-0.7c-0.4,0-0.7-0.4-1.1-0.4c-0.4,0-0.7,0-1.1,0
				C330.6,263.5,322.7,263.5,322.7,263.5z"/>
		</g>
		<g>
			<path fill="#201600" d="M347.5,275.7h12.9v4.3h-16.9v-20.8h16.2v3.9h-12.2v5c1.1-0.4,1.8-0.7,2.9-1.1c1.1,0,2.2-0.4,3.6-0.4h2.9
				v3.9h-2.9c-1.1,0-1.8,0-2.5,0c-0.7,0-1.1,0-1.4,0c-0.4,0-0.7,0.4-1.1,0.4c-0.4,0-0.7,0.4-1.1,0.7v3.9H347.5z"/>
			<path fill="#201600" d="M360.4,280h-17.6v-21.2h16.9v4.7h-12.2v4.3c0.7-0.4,1.8-0.7,2.9-0.7c1.1,0,2.2-0.4,3.6-0.4h3.2v4.7h-3.2
				c-1.1,0-1.8,0-2.5,0s-1.1,0-1.4,0c-0.4,0-0.7,0.4-1.1,0.4c-0.4,0-0.7,0.4-1.1,0.4v2.9h12.9v5H360.4z M343.5,279.6H360V276h-12.9
				v-3.6l0,0c0.4-0.4,0.7-0.4,1.1-0.7c0.4,0,0.7-0.4,1.4-0.4c0.4,0,1.1,0,1.8-0.4c0.7,0,1.4,0,2.5,0h2.9v-3.6h-2.9
				c-1.1,0-2.2,0-3.6,0.4c-1.1,0-2.2,0.4-2.9,1.1l-0.4,0.4v-6.5h12.2v-3.6h-15.8V279.6z"/>
		</g>
		<g>
			<path fill="#201600" d="M385.1,284.3v-4.7h-17.2v4.7h-4.3v-8.6h3.9c1.1-1.1,1.8-2.5,2.5-3.6s1.1-2.2,1.4-3.2
				c0.4-1.1,0.7-2.2,0.7-2.9c0.4-1.1,0.4-1.8,0.7-2.5h-3.2l-1.8-3.9h18.7V276h2.5v8.3H385.1z M382.6,275.7v-12.6h-5.4
				c-0.4,1.1-0.4,2.2-0.7,3.2c-0.4,1.1-0.7,2.2-1.1,3.2s-0.7,2.2-1.1,3.2c-0.4,1.1-1.1,1.8-1.4,2.5h9.7V275.7z"/>
			<path fill="#201600" d="M389.8,284.6h-4.7V280h-16.5v4.7H364v-9.3h3.9c1.1-1.1,1.8-2.5,2.2-3.6c0.7-1.1,1.1-2.2,1.4-3.2
				c0.4-1.1,0.7-2.2,0.7-2.9c0-0.7,0.4-1.8,0.4-2.5h-2.9l-2.2-4.7h19.4v16.5h2.5v9.7H389.8z M385.5,283.9h3.6v-8.3h-2.5v-16.5h-18.3
				l1.4,3.6h3.6v0.4c-0.4,0.7-0.4,1.8-0.7,2.5c-0.4,1.1-0.4,1.8-0.7,2.9c-0.4,1.1-0.7,2.2-1.4,3.2c-0.7,1.1-1.4,2.5-2.5,3.6l0,0H364
				v8.3h3.6v-4.7h17.6v5H385.5z M383,275.7h-10.4l0.4-0.4c0.7-0.7,1.1-1.4,1.4-2.5c0.4-1.1,0.7-2.2,1.1-3.2c0.4-1.1,0.7-2.2,1.1-3.2
				c0.4-1.1,0.7-2.2,0.7-3.2v-0.4h5.7V275.7z M373.3,275.3h9v-11.8h-5c-0.4,1.1-0.4,2.2-0.7,3.2c-0.4,1.1-0.7,2.2-1.1,3.2
				s-0.7,2.2-1.1,3.2C374.4,273.9,374,274.6,373.3,275.3z"/>
		</g>
		<g>
			<path fill="#201600" d="M399.1,265.6c0.4,0.4,0.7,0.4,1.1,0.7c0.4,0,0.7,0.4,1.1,0.4s1.1,0,1.4,0c0.7,0,1.4,0,2.5,0h2.2
				c1.1,0,2.2,0,2.9,0.4c0.7,0.4,1.8,0.7,2.2,1.1c0.7,0.4,1.1,1.1,1.4,2.2c0.4,0.7,0.7,1.8,0.7,2.9s-0.4,2.2-0.7,2.9
				c-0.4,0.7-1.1,1.4-1.4,2.2c-0.7,0.4-1.4,1.1-2.2,1.1c-0.7,0.4-1.8,0.4-2.9,0.4h-12.6v-20.5h3.9v6.5H399.1z M407.8,275.7
				c0.4,0,0.7,0,1.1,0c0.4,0,0.7-0.4,1.1-0.4s0.4-0.4,0.7-0.7c0.4-0.4,0.4-0.7,0.4-1.1c0-0.4,0-0.7-0.4-1.1
				c-0.4-0.4-0.4-0.7-0.7-0.7c-0.4,0-0.7-0.4-1.1-0.4c-0.4,0-0.7,0-1.1,0h-2.2c-1.1,0-2.5,0-3.6-0.4c-1.1,0-2.2-0.4-2.9-1.1v5.7
				H407.8L407.8,275.7z"/>
			<path fill="#201600" d="M407.8,280h-12.9v-21.2h4.7v6.5c0.4,0.4,0.7,0.4,1.1,0.4s0.7,0.4,1.1,0.4c0.4,0,1.1,0,1.4,0
				c0.7,0,1.4,0,2.5,0h2.2c1.1,0,2.2,0,2.9,0.4c1.1,0.4,1.8,0.7,2.5,1.4c0.7,0.7,1.1,1.4,1.8,2.2c0.4,0.7,0.7,1.8,0.7,2.9
				c0,1.1-0.4,2.2-0.7,2.9c-0.4,0.7-1.1,1.4-1.8,2.2c-0.7,0.7-1.4,1.1-2.5,1.1C409.5,280,408.5,280,407.8,280z M395.2,279.6h12.6
				c1.1,0,1.8,0,2.9-0.4c0.7-0.4,1.4-0.7,2.2-1.1c0.7-0.4,1.1-1.1,1.4-1.8c0.4-0.7,0.7-1.8,0.7-2.9s-0.4-1.8-0.7-2.9
				c-0.4-0.7-0.7-1.4-1.4-1.8c-0.7-0.4-1.4-1.1-2.2-1.1c-0.7-0.4-1.8-0.4-2.9-0.4h-2.2c-1.1,0-1.8,0-2.5,0s-1.1,0-1.8-0.4
				c-0.4,0-1.1-0.4-1.4-0.4c-0.4,0-0.7-0.4-1.1-0.7l0,0v-6.8h-3.6V279.6z M407.8,275.7h-9v-6.5l0.4,0.4c0.7,0.4,1.8,0.7,2.9,1.1
				c1.1,0,2.2,0.4,3.6,0.4h2.2c0.4,0,0.7,0,1.1,0c0.4,0,0.7,0.4,1.1,0.4c0.4,0.4,0.7,0.4,0.7,0.7c0.4,0.4,0.4,0.7,0.4,1.4
				c0,0.7,0,1.1-0.4,1.4c-0.4,0.4-0.4,0.7-0.7,0.7c-0.4,0.4-0.7,0.4-1.1,0.4C408.5,275.7,408.1,275.7,407.8,275.7z M399.1,275.3h8.3
				c0.4,0,0.7,0,1.1,0c0.4,0,0.7,0,1.1-0.4c0.4,0,0.4-0.4,0.7-0.7c0-0.4,0.4-0.7,0.4-1.1c0-0.4,0-0.7-0.4-1.1c0-0.4-0.4-0.4-0.7-0.7
				c-0.4,0-0.7-0.4-1.1-0.4s-0.7,0-1.1,0h-1.8c-1.1,0-2.5,0-3.6-0.4c-1.1,0-1.8-0.4-2.9-0.7V275.3z"/>
		</g>
	</g>
</g>
</svg>
