<?xml version="1.0" encoding="utf-8"?>
<!-- Generator: Adobe Illustrator 18.1.0, SVG Export Plug-In . SVG Version: 6.00 Build 0)  -->
<!DOCTYPE svg PUBLIC "-//W3C//DTD SVG 1.1//EN" "http://www.w3.org/Graphics/SVG/1.1/DTD/svg11.dtd">
<svg version="1.1" id="Слой_2" xmlns="http://www.w3.org/2000/svg" xmlns:xlink="http://www.w3.org/1999/xlink" x="0px" y="0px"
	 viewBox="0 0 43.7 120.5" enable-background="new 0 0 43.7 120.5" xml:space="preserve">
<g>
	<path fill="#FFFFFF" d="M21.8,4c9.9,0,18,8.1,18,18v19c0,9.9-8.1,18-18,18h0c-9.9,0-18-8.1-18-18V22C3.8,12.1,11.9,4,21.8,4L21.8,4
		 M21.8,0c-12.1,0-22,9.9-22,22v19c0,12.1,9.9,22,22,22c12.1,0,22-9.9,22-22V22C43.8,9.9,34,0,21.8,0L21.8,0z"/>
	<path fill="#DCC24A" stroke="#1B1B1C" stroke-width="2" stroke-miterlimit="10" d="M21.8,59L21.8,59c-9.9,0-18-8.1-18-18V22
		c0-9.9,8.1-18,18-18h0c9.9,0,18,8.1,18,18v19C39.8,50.9,31.8,59,21.8,59z"/>
	<g>
		<path fill="#FFFFFF" d="M21.8,88.5c-0.5,0-1-0.2-1.4-0.6l-10-10c-0.8-0.8-0.8-2,0-2.8c0.8-0.8,2-0.8,2.8,0l8.6,8.6l8.6-8.6
			c0.8-0.8,2-0.8,2.8,0s0.8,2,0,2.8l-10,10C22.9,88.3,22.4,88.5,21.8,88.5z"/>
	</g>
	<g opacity="0.9">
		<path fill="#FFFFFF" d="M21.8,104.5c-0.5,0-1-0.2-1.4-0.6l-10-10c-0.8-0.8-0.8-2,0-2.8c0.8-0.8,2-0.8,2.8,0l8.6,8.6l8.6-8.6
			c0.8-0.8,2-0.8,2.8,0s0.8,2,0,2.8l-10,10C22.9,104.3,22.4,104.5,21.8,104.5z"/>
	</g>
	<g opacity="0.8">
		<path fill="#FFFFFF" d="M21.8,120.5c-0.5,0-1-0.2-1.4-0.6l-10-10c-0.8-0.8-0.8-2,0-2.8c0.8-0.8,2-0.8,2.8,0l8.6,8.6l8.6-8.6
			c0.8-0.8,2-0.8,2.8,0s0.8,2,0,2.8l-10,10C22.9,120.4,22.4,120.5,21.8,120.5z"/>
	</g>
</g>
<g>
	<path fill="#62ACA6" d="M21.8,26.9L21.8,26.9c-2.3,0-4.2-1.9-4.2-4.2v-6.5c0-2.3,1.9-4.2,4.2-4.2h0c2.3,0,4.2,1.9,4.2,4.2v6.5
		C26.1,25,24.2,26.9,21.8,26.9z"/>
	<path fill="#1B1B1C" d="M21.8,27.9c-2.9,0-5.2-2.3-5.2-5.2v-6.5c0-2.9,2.3-5.2,5.2-5.2c2.9,0,5.2,2.3,5.2,5.2v6.5
		C27.1,25.6,24.7,27.9,21.8,27.9z M21.8,12.9c-1.8,0-3.2,1.4-3.2,3.2v6.5c0,1.8,1.4,3.2,3.2,3.2s3.2-1.4,3.2-3.2v-6.5
		C25.1,14.4,23.6,12.9,21.8,12.9z"/>
</g>
</svg>
