<?xml version="1.0" encoding="utf-8"?>
<!-- Generator: Adobe Illustrator 18.1.0, SVG Export Plug-In . SVG Version: 6.00 Build 0)  -->
<!DOCTYPE svg PUBLIC "-//W3C//DTD SVG 1.1//EN" "http://www.w3.org/Graphics/SVG/1.1/DTD/svg11.dtd">
<svg version="1.1" id="Слой_2" xmlns="http://www.w3.org/2000/svg" xmlns:xlink="http://www.w3.org/1999/xlink" x="0px" y="0px"
	 viewBox="0 0 65.2 65.2" enable-background="new 0 0 65.2 65.2" xml:space="preserve">
<g>
	<path fill="#49B870" d="M32.6,65.2C14.6,65.2,0,50.6,0,32.6S14.6,0,32.6,0s32.6,14.6,32.6,32.6S50.6,65.2,32.6,65.2z M32.6,4
		C16.8,4,4,16.8,4,32.6c0,15.8,12.8,28.6,28.6,28.6c15.8,0,28.6-12.8,28.6-28.6C61.2,16.8,48.4,4,32.6,4z"/>
</g>
<path fill="#49B870" d="M44.9,28L34,17.1c-0.1-0.1-0.2-0.2-0.3-0.3c0,0-0.1-0.1-0.1-0.1c-0.1,0-0.1-0.1-0.2-0.1
	c-0.1,0-0.1,0-0.2-0.1c-0.1,0-0.1,0-0.2-0.1c-0.3-0.1-0.5-0.1-0.8,0c-0.1,0-0.1,0-0.2,0.1c-0.1,0-0.1,0-0.2,0.1
	c-0.1,0-0.1,0.1-0.2,0.1c0,0-0.1,0-0.1,0.1c-0.1,0.1-0.2,0.2-0.3,0.3L20.2,28c-0.8,0.8-0.8,2,0,2.8s2,0.8,2.8,0l7.5-7.5v23.3
	c0,1.1,0.9,2,2,2s2-0.9,2-2V23.3l7.5,7.5c0.4,0.4,0.9,0.6,1.4,0.6s1-0.2,1.4-0.6C45.7,30.1,45.7,28.8,44.9,28z"/>
</svg>
