<?xml version="1.0" encoding="utf-8"?>
<!-- Generator: Adobe Illustrator 18.1.1, SVG Export Plug-In . SVG Version: 6.00 Build 0)  -->
<!DOCTYPE svg PUBLIC "-//W3C//DTD SVG 1.1//EN" "http://www.w3.org/Graphics/SVG/1.1/DTD/svg11.dtd">
<svg version="1.1" id="Слой_2" xmlns="http://www.w3.org/2000/svg" xmlns:xlink="http://www.w3.org/1999/xlink" x="0px" y="0px"
	 viewBox="0 0 612 792" enable-background="new 0 0 612 792" xml:space="preserve">
<g>
	<g>
		<path fill="#00001F" d="M437.8,450.5c-0.9,0-2.6-0.9-3.4-1.7c-1.7-1.7-1.7-5.2,0-6.9l48.9-48.9l-48.9-48.9c-1.7-1.7-1.7-5.2,0-6.9
			s5.2-1.7,6.9,0l52.4,52.4c1.7,1.7,1.7,5.2,0,6.9l-52.4,52.4C440.3,449.6,438.6,450.5,437.8,450.5z"/>
	</g>
</g>
<g>
	<g>
		<path fill="#6273B3" d="M118.5,396.4c0-72.1,58.4-130.5,130.5-130.5s130.5,58.4,130.5,130.5S321,526.9,248.9,526.9
			S118.5,468.5,118.5,396.4z"/>
		<path fill="#000301" d="M248.9,531.2c-73.8,0-134.8-60.1-134.8-134.8c0-73.8,60.1-134.8,134.8-134.8
			c73.8,0,134.8,60.1,134.8,134.8C383.7,470.2,323.6,531.2,248.9,531.2z M248.9,269.4c-69.5,0-126.2,56.7-126.2,126.2
			s56.7,127,126.2,127s127-56.7,127-127C376,326,319.3,269.4,248.9,269.4z"/>
	</g>
	<g>
		<g>
			<path fill="#60B5AE" d="M266.1,381.8c1.7,0,4.3,0,6,0.9c24,4.3,36.9,22.3,36.9,42.9c0,24-15.5,47.2-56.7,48.1h-1.7
				c-24.9,0-45.5-11.2-62.7-25.8l24-22.3c18,11.2,27.5,12.9,37.8,12.9h1.7c13.7,0,22.3-8.6,22.3-18.9c0-11.2-6.9-18.9-24-18.9
				c-8.6,0-16.3,4.3-19.7,6l-17.2-12.9l35.2-36.1h-46.4v-34.3h99.6v22.3L266.1,381.8z"/>
			<path fill="#00001F" d="M252.4,478h-1.7c-23.2,0-44.6-8.6-65.2-26.6c-0.9-0.9-1.7-1.7-1.7-2.6c0-0.9,0.9-2.6,0.9-2.6l24-22.3
				c1.7-0.9,3.4-1.7,5.2-0.9c16.3,10.3,25.8,12.9,35.2,12.9h1.7c8.6,0,18-5.2,18-14.6c0-10.3-6.9-15.5-19.7-15.5
				c-6.9,0-12.9,2.6-16.3,4.3c-0.9,0-0.9,0.9-1.7,0.9c-1.7,0.9-2.6,0-4.3-0.9l-17.2-12.9c-0.9-0.9-1.7-1.7-1.7-2.6s0-2.6,0.9-3.4
				l28.3-29.2H200c-2.6,0-4.3-1.7-4.3-4.3v-34.3c0-2.6,1.7-4.3,4.3-4.3h99.6c2.6,0,4.3,1.7,4.3,4.3v22.3c0,0.9,0,1.7-0.9,2.6
				l-30,30.9c23.2,5.2,38.6,23.2,38.6,47.2C312.4,450.5,297,477.1,252.4,478L252.4,478z M194,447.9c18,14.6,36.9,22.3,56.7,22.3h1.7
				c32.6,0,52.4-17.2,52.4-43.8c0-20.6-12.9-36.1-33.5-39.5c-1.7,0-4.3-0.9-6-0.9s-3.4-0.9-3.4-2.6c0-1.7,0-3.4,0.9-4.3l34.3-36.1
				v-16.3h-91v26.6h42.1c1.7,0,3.4,0.9,3.4,2.6c0.9,1.7,0,3.4-0.9,4.3L218.9,393l12,8.6c4.3-1.7,11.2-5.2,18.9-5.2
				c18,0,28.3,8.6,28.3,23.2c0,11.2-9.4,22.3-26.6,22.3h-1.7c-10.3,0-20.6-1.7-36.9-12L194,447.9z"/>
		</g>
	</g>
</g>
</svg>
