<?xml version="1.0" encoding="utf-8"?>
<!-- Generator: Adobe Illustrator 18.1.0, SVG Export Plug-In . SVG Version: 6.00 Build 0)  -->
<!DOCTYPE svg PUBLIC "-//W3C//DTD SVG 1.1//EN" "http://www.w3.org/Graphics/SVG/1.1/DTD/svg11.dtd">
<svg version="1.1" id="_x31_" xmlns="http://www.w3.org/2000/svg" xmlns:xlink="http://www.w3.org/1999/xlink" x="0px" y="0px"
	 viewBox="0 0 1163.5 1198.9" enable-background="new 0 0 1163.5 1198.9" xml:space="preserve">
<g>
	<g>
		<path fill="#FFFFFF" d="M279.1,155.7c-0.4,0-0.7-0.1-1.1-0.3l-5.1-3.2c-0.5-0.3-0.8-0.8-0.9-1.4c-0.1-0.6,0.1-1.2,0.5-1.6l4.1-4.4
			c0.8-0.8,2-0.8,2.8-0.1c0.8,0.8,0.8,2,0.1,2.8l-2.4,2.6l3,1.9c0.9,0.6,1.2,1.8,0.6,2.8C280.4,155.3,279.8,155.7,279.1,155.7z"/>
	</g>
	<g>
		<path fill="#FFFFFF" d="M285.8,139.9c-0.5,0-1-0.2-1.4-0.5c-0.8-0.8-0.8-2-0.1-2.8l7.7-8.2c0.8-0.8,2-0.8,2.8-0.1
			c0.8,0.8,0.8,2,0.1,2.8l-7.7,8.2C286.9,139.7,286.4,139.9,285.8,139.9z M301.3,123.5c-0.5,0-1-0.2-1.4-0.5c-0.8-0.8-0.8-2-0.1-2.8
			l7.7-8.2c0.8-0.8,2-0.8,2.8-0.1c0.8,0.8,0.8,2,0.1,2.8l-7.7,8.2C302.3,123.3,301.8,123.5,301.3,123.5z M316.7,107
			c-0.5,0-1-0.2-1.4-0.5c-0.8-0.8-0.8-2-0.1-2.8l7.7-8.2c0.8-0.8,2-0.8,2.8-0.1c0.8,0.8,0.8,2,0.1,2.8l-7.7,8.2
			C317.8,106.8,317.3,107,316.7,107z M332.2,90.6c-0.5,0-1-0.2-1.4-0.5c-0.8-0.8-0.8-2-0.1-2.8l7.7-8.2c0.8-0.8,2-0.8,2.8-0.1
			c0.8,0.8,0.8,2,0.1,2.8l-7.7,8.2C333.2,90.4,332.7,90.6,332.2,90.6z M347.6,74.1c-0.5,0-1-0.2-1.4-0.5c-0.8-0.8-0.8-2-0.1-2.8
			l7.7-8.2c0.8-0.8,2-0.8,2.8-0.1c0.8,0.8,0.8,2,0.1,2.8l-7.7,8.2C348.7,73.9,348.1,74.1,347.6,74.1z M363.1,57.7
			c-0.5,0-1-0.2-1.4-0.5c-0.8-0.8-0.8-2-0.1-2.8l7.7-8.2c0.8-0.8,2-0.8,2.8-0.1c0.8,0.8,0.8,2,0.1,2.8l-7.7,8.2
			C364.1,57.5,363.6,57.7,363.1,57.7z M378.5,41.3c-0.5,0-1-0.2-1.4-0.5c-0.8-0.8-0.8-2-0.1-2.8l7.7-8.2c0.8-0.8,2-0.8,2.8-0.1
			c0.8,0.8,0.8,2,0.1,2.8l-7.7,8.2C379.6,41,379,41.3,378.5,41.3z M393.9,24.8c-0.5,0-1-0.2-1.4-0.5c-0.8-0.8-0.8-2-0.1-2.8l7.7-8.2
			c0.8-0.8,2-0.8,2.8-0.1c0.8,0.8,0.8,2,0.1,2.8l-7.7,8.2C395,24.6,394.5,24.8,393.9,24.8z"/>
	</g>
	<g>
		<path fill="#FFFFFF" d="M409.4,8.4c-0.5,0-1-0.2-1.4-0.5c-0.8-0.8-0.8-2-0.1-2.8l4.1-4.4c0.6-0.6,1.5-0.8,2.2-0.5l5.5,2.3
			c1,0.4,1.5,1.6,1.1,2.6c-0.4,1-1.6,1.5-2.6,1.1L414,4.4l-3.2,3.4C410.5,8.2,409.9,8.4,409.4,8.4z"/>
	</g>
	<g>
		<path fill="#FFFFFF" d="M985.8,125.9c0,0-0.1,0-0.1,0l-12.2-0.8c-1.1-0.1-1.9-1-1.9-2.1s1-2,2.1-1.9l12.2,0.8
			c1.1,0.1,1.9,1,1.9,2.1C987.7,125.1,986.9,125.9,985.8,125.9z M961.4,124.4c0,0-0.1,0-0.1,0l-12.2-0.8c-1.1-0.1-1.9-1-1.9-2.1
			s1-2,2.1-1.9l12.2,0.8c1.1,0.1,1.9,1,1.9,2.1C963.4,123.6,962.5,124.4,961.4,124.4z M937,122.9c0,0-0.1,0-0.1,0l-12.2-0.8
			c-1.1-0.1-1.9-1-1.9-2.1s1-2,2.1-1.9l12.2,0.8c1.1,0.1,1.9,1,1.9,2.1C939,122.1,938.1,122.9,937,122.9z M912.6,121.4
			c0,0-0.1,0-0.1,0l-12.2-0.8c-1.1-0.1-1.9-1-1.9-2.1s1-2,2.1-1.9l12.2,0.8c1.1,0.1,1.9,1,1.9,2.1
			C914.6,120.6,913.7,121.4,912.6,121.4z M888.2,119.9c0,0-0.1,0-0.1,0l-12.2-0.8c-1.1-0.1-1.9-1-1.9-2.1s1-1.9,2.1-1.9l12.2,0.8
			c1.1,0.1,1.9,1,1.9,2.1C890.2,119.1,889.3,119.9,888.2,119.9z M863.9,118.3c-0.1,0-0.1,0-0.2,0l-12.2-1.1
			c-1.1-0.1-1.9-1.1-1.8-2.2c0.1-1.1,1.1-1.9,2.2-1.8l12.2,1.1c1.1,0.1,1.9,1.1,1.8,2.2C865.8,117.5,864.9,118.3,863.9,118.3z
			 M839.5,116.2c-0.1,0-0.1,0-0.2,0l-12.2-1.1c-1.1-0.1-1.9-1.1-1.8-2.2c0.1-1.1,1.1-1.9,2.2-1.8l12.2,1.1c1.1,0.1,1.9,1.1,1.8,2.2
			C841.4,115.4,840.5,116.2,839.5,116.2z M815.2,114c-0.1,0-0.1,0-0.2,0l-12.2-1.1c-1.1-0.1-1.9-1.1-1.8-2.2
			c0.1-1.1,1.1-1.9,2.2-1.8l12.2,1.1c1.1,0.1,1.9,1.1,1.8,2.2C817.1,113.2,816.2,114,815.2,114z M790.8,111.9c-0.1,0-0.1,0-0.2,0
			l-12.2-1.1c-1.1-0.1-1.9-1.1-1.8-2.2c0.1-1.1,1.1-1.9,2.2-1.8l12.2,1.1c1.1,0.1,1.9,1.1,1.8,2.2
			C792.7,111.1,791.8,111.9,790.8,111.9z M766.5,109.7c-0.1,0-0.1,0-0.2,0l-12.2-1.1c-1.1-0.1-1.9-1.1-1.8-2.2
			c0.1-1.1,1.1-1.9,2.2-1.8l12.2,1.1c1.1,0.1,1.9,1.1,1.8,2.2C768.4,108.9,767.5,109.7,766.5,109.7z M742.1,107.6
			c-0.1,0-0.1,0-0.2,0l-12.2-1.1c-1.1-0.1-1.9-1.1-1.8-2.2c0.1-1.1,1.1-1.9,2.2-1.8l12.2,1.1c1.1,0.1,1.9,1.1,1.8,2.2
			C744,106.8,743.2,107.6,742.1,107.6z M717.8,105.4c-0.1,0-0.1,0-0.2,0l-12.2-1.1c-1.1-0.1-1.9-1.1-1.8-2.2
			c0.1-1.1,1.1-1.9,2.2-1.8l12.2,1.1c1.1,0.1,1.9,1.1,1.8,2.2C719.7,104.6,718.8,105.4,717.8,105.4z M693.4,103.3
			c-0.1,0-0.1,0-0.2,0l-12.2-1.1c-1.1-0.1-1.9-1.1-1.8-2.2s1.1-1.9,2.2-1.8l12.2,1.1c1.1,0.1,1.9,1.1,1.8,2.2
			C695.3,102.5,694.5,103.3,693.4,103.3z M669.1,101.1c-0.1,0-0.1,0-0.2,0l-12.2-1.1c-1.1-0.1-1.9-1.1-1.8-2.2s1.1-1.9,2.2-1.8
			l12.2,1.1c1.1,0.1,1.9,1.1,1.8,2.2C671,100.3,670.1,101.1,669.1,101.1z M644.8,99c-0.1,0-0.1,0-0.2,0l-8.6-0.8
			c-0.2,0-0.4-0.1-0.6-0.2l-3.3-1.4c-1-0.4-1.5-1.6-1.1-2.6c0.4-1,1.6-1.5,2.6-1.1l3,1.3l8.3,0.7c1.1,0.1,1.9,1.1,1.8,2.2
			C646.7,98.2,645.8,99,644.8,99z M621.6,92c-0.3,0-0.5-0.1-0.8-0.2l-11.3-4.8c-1-0.4-1.5-1.6-1.1-2.6c0.4-1,1.6-1.5,2.6-1.1
			l11.3,4.8c1,0.4,1.5,1.6,1.1,2.6C623.1,91.6,622.4,92,621.6,92z M599.1,82.5c-0.3,0-0.5-0.1-0.8-0.2l-11.3-4.8
			c-1-0.4-1.5-1.6-1.1-2.6c0.4-1,1.6-1.5,2.6-1.1l11.3,4.8c1,0.4,1.5,1.6,1.1,2.6C600.6,82,599.9,82.5,599.1,82.5z M576.6,73
			c-0.3,0-0.5-0.1-0.8-0.2l-11.3-4.8c-1-0.4-1.5-1.6-1.1-2.6c0.4-1,1.6-1.5,2.6-1.1l11.3,4.8c1,0.4,1.5,1.6,1.1,2.6
			C578.1,72.5,577.4,73,576.6,73z M554.1,63.5c-0.3,0-0.5-0.1-0.8-0.2L542,58.5c-1-0.4-1.5-1.6-1.1-2.6c0.4-1,1.6-1.5,2.6-1.1
			l11.3,4.8c1,0.4,1.5,1.6,1.1,2.6C555.6,63,554.9,63.5,554.1,63.5z M531.6,53.9c-0.3,0-0.5-0.1-0.8-0.2L519.5,49
			c-1-0.4-1.5-1.6-1.1-2.6c0.4-1,1.6-1.5,2.6-1.1l11.3,4.8c1,0.4,1.5,1.6,1.1,2.6C533.1,53.5,532.3,53.9,531.6,53.9z M509.1,44.4
			c-0.3,0-0.5-0.1-0.8-0.2L497,39.5c-1-0.4-1.5-1.6-1.1-2.6c0.4-1,1.6-1.5,2.6-1.1l11.3,4.8c1,0.4,1.5,1.6,1.1,2.6
			C510.6,44,509.8,44.4,509.1,44.4z M486.5,34.9c-0.3,0-0.5-0.1-0.8-0.2L474.5,30c-1-0.4-1.5-1.6-1.1-2.6c0.4-1,1.6-1.5,2.6-1.1
			l11.3,4.8c1,0.4,1.5,1.6,1.1,2.6C488.1,34.4,487.3,34.9,486.5,34.9z M464,25.4c-0.3,0-0.5-0.1-0.8-0.2L452,20.5
			c-1-0.4-1.5-1.6-1.1-2.6c0.4-1,1.6-1.5,2.6-1.1l11.3,4.8c1,0.4,1.5,1.6,1.1,2.6C465.6,24.9,464.8,25.4,464,25.4z M441.5,15.9
			c-0.3,0-0.5-0.1-0.8-0.2l-11.3-4.8c-1-0.4-1.5-1.6-1.1-2.6c0.4-1,1.6-1.5,2.6-1.1l11.3,4.8c1,0.4,1.5,1.6,1.1,2.6
			C443.1,15.4,442.3,15.9,441.5,15.9z"/>
	</g>
	<g>
		<path fill="#FFFFFF" d="M1005.2,132.9c-0.9,0-1.8-0.7-2-1.6l-0.9-4.4l-4.5-0.3c-1.1-0.1-1.9-1-1.9-2.1s1-1.9,2.1-1.9l6,0.4
			c0.9,0.1,1.7,0.7,1.8,1.6l1.2,5.9c0.2,1.1-0.5,2.1-1.6,2.4C1005.4,132.9,1005.3,132.9,1005.2,132.9z"/>
	</g>
	<g>
		<path fill="#FFFFFF" d="M1015.7,185.9c-0.9,0-1.8-0.7-2-1.6l-2.6-13.2c-0.2-1.1,0.5-2.1,1.6-2.4c1.1-0.2,2.1,0.5,2.4,1.6l2.6,13.2
			c0.2,1.1-0.5,2.1-1.6,2.4C1016,185.9,1015.8,185.9,1015.7,185.9z M1010.4,159.4c-0.9,0-1.8-0.7-2-1.6l-2.6-13.2
			c-0.2-1.1,0.5-2.1,1.6-2.4c1.1-0.2,2.1,0.5,2.4,1.6l2.6,13.2c0.2,1.1-0.5,2.1-1.6,2.4C1010.7,159.4,1010.6,159.4,1010.4,159.4z"/>
	</g>
	<g>
		<path fill="#FFFFFF" d="M1019.5,205c-0.3,0-0.6-0.1-0.8-0.2c-0.6-0.3-1-0.8-1.1-1.4l-1.2-5.9c-0.2-1.1,0.5-2.1,1.6-2.4
			c1.1-0.2,2.1,0.5,2.4,1.6l0.6,3.2l2.9-1.6c1-0.5,2.2-0.2,2.7,0.8c0.5,1,0.2,2.2-0.8,2.7l-5.3,2.9
			C1020.2,204.9,1019.8,205,1019.5,205z"/>
	</g>
	<g>
		<path fill="#FFFFFF" d="M1045,197.7c-0.6,0-1.1-0.2-1.5-0.7l-2.8-3.3l-3.8,2.1c-1,0.5-2.2,0.2-2.7-0.8c-0.5-1-0.2-2.2,0.8-2.7
			l5.3-2.9c0.8-0.5,1.9-0.3,2.5,0.5l3.9,4.6c0.7,0.8,0.6,2.1-0.2,2.8C1045.9,197.5,1045.4,197.7,1045,197.7z"/>
	</g>
	<g>
		<path fill="#FFFFFF" d="M1080.7,240.1c-0.6,0-1.1-0.2-1.5-0.7l-8.9-10.6c-0.7-0.8-0.6-2.1,0.2-2.8c0.8-0.7,2.1-0.6,2.8,0.2
			l8.9,10.6c0.7,0.8,0.6,2.1-0.2,2.8C1081.6,239.9,1081.2,240.1,1080.7,240.1z M1062.8,218.9c-0.6,0-1.1-0.2-1.5-0.7l-8.9-10.6
			c-0.7-0.8-0.6-2.1,0.2-2.8s2.1-0.6,2.8,0.2l8.9,10.6c0.7,0.8,0.6,2.1-0.2,2.8C1063.7,218.7,1063.3,218.9,1062.8,218.9z"/>
	</g>
	<g>
		<path fill="#FFFFFF" d="M1088.5,258.5c-0.7,0-1.3-0.3-1.7-0.9c-0.6-0.9-0.3-2.2,0.6-2.8l3.1-2l-2.4-2.8c-0.7-0.8-0.6-2.1,0.2-2.8
			c0.8-0.7,2.1-0.6,2.8,0.2l3.9,4.6c0.4,0.4,0.5,1,0.4,1.6s-0.4,1.1-0.9,1.4l-5.1,3.2C1089.2,258.4,1088.8,258.5,1088.5,258.5z"/>
	</g>
	<g>
		<path fill="#FFFFFF" d="M1044.5,286.5c-0.7,0-1.3-0.3-1.7-0.9c-0.6-0.9-0.3-2.2,0.6-2.8l11-7c0.9-0.6,2.2-0.3,2.8,0.6
			c0.6,0.9,0.3,2.2-0.6,2.8l-11,7C1045.2,286.4,1044.8,286.5,1044.5,286.5z M1066.5,272.5c-0.7,0-1.3-0.3-1.7-0.9
			c-0.6-0.9-0.3-2.2,0.6-2.8l11-7c0.9-0.6,2.2-0.3,2.8,0.6c0.6,0.9,0.3,2.2-0.6,2.8l-11,7C1067.2,272.4,1066.8,272.5,1066.5,272.5z"
			/>
	</g>
	<g>
		<path fill="#FFFFFF" d="M1031,302.1c-0.7,0-1.5-0.4-1.8-1.1l-2.6-5.4c-0.4-0.9-0.1-2,0.7-2.6l5.1-3.2c0.9-0.6,2.2-0.3,2.8,0.6
			c0.6,0.9,0.3,2.2-0.6,2.8l-3.6,2.3l1.9,3.8c0.5,1,0.1,2.2-0.9,2.7C1031.6,302,1031.3,302.1,1031,302.1z"/>
	</g>
	<g>
		<path fill="#FFFFFF" d="M1059.5,363.7c-0.8,0-1.5-0.4-1.8-1.2l-4.7-10.3c-0.5-1,0-2.2,1-2.7c1-0.5,2.2,0,2.7,1l4.7,10.3
			c0.5,1,0,2.2-1,2.7C1060.1,363.7,1059.8,363.7,1059.5,363.7z M1050.1,343.2c-0.8,0-1.5-0.4-1.8-1.2l-4.7-10.3c-0.5-1,0-2.2,1-2.7
			c1-0.5,2.2,0,2.7,1l4.7,10.3c0.5,1,0,2.2-1,2.7C1050.6,343.1,1050.3,343.2,1050.1,343.2z M1040.6,322.6c-0.8,0-1.5-0.4-1.8-1.2
			l-4.7-10.3c-0.5-1,0-2.2,1-2.7c1-0.5,2.2,0,2.7,1l4.7,10.3c0.5,1,0,2.2-1,2.7C1041.2,322.5,1040.9,322.6,1040.6,322.6z"/>
	</g>
	<g>
		<path fill="#FFFFFF" d="M1066.7,379.5c-0.8,0-1.5-0.5-1.8-1.2l-2.5-5.5c-0.5-1,0-2.2,1-2.7c1-0.5,2.2,0,2.7,1l2,4.3l4.7,0
			c0,0,0,0,0,0c1.1,0,2,0.9,2,2c0,1.1-0.9,2-2,2L1066.7,379.5C1066.7,379.5,1066.7,379.5,1066.7,379.5z"/>
	</g>
	<g>
		<path fill="#FFFFFF" d="M1082.1,379.3c-1.1,0-2-0.9-2-2c0-1.1,0.9-2,2-2l9.4-0.1c0,0,0,0,0,0c1.1,0,2,0.9,2,2c0,1.1-0.9,2-2,2
			L1082.1,379.3C1082.1,379.3,1082.1,379.3,1082.1,379.3z"/>
	</g>
	<g>
		<path fill="#FFFFFF" d="M1109.6,384.4c-0.7,0-1.4-0.4-1.8-1.1l-2.2-4.2l-4.8,0c0,0,0,0,0,0c-1.1,0-2-0.9-2-2c0-1.1,0.9-2,2-2
			l6-0.1c0.7,0,1.4,0.4,1.8,1.1l2.8,5.3c0.5,1,0.1,2.2-0.8,2.7C1110.2,384.3,1109.9,384.4,1109.6,384.4z"/>
	</g>
	<g>
		<path fill="#FFFFFF" d="M1106.8,568.8c-0.1,0-0.2,0-0.4,0c-1.1-0.2-1.8-1.2-1.6-2.3l2.2-11.8c0.2-1.1,1.2-1.8,2.3-1.6
			c1.1,0.2,1.8,1.2,1.6,2.3l-2.2,11.8C1108.6,568.1,1107.8,568.8,1106.8,568.8z M1111.3,545.1c-0.1,0-0.2,0-0.4,0
			c-1.1-0.2-1.8-1.2-1.6-2.3l2.2-11.8c0.2-1.1,1.3-1.8,2.3-1.6c1.1,0.2,1.8,1.2,1.6,2.3l-2.2,11.8
			C1113,544.4,1112.2,545.1,1111.3,545.1z M1115.7,521.5c-0.1,0-0.2,0-0.4,0c-1.1-0.2-1.8-1.2-1.6-2.3l2.2-11.8
			c0.2-1.1,1.2-1.8,2.3-1.6c1.1,0.2,1.8,1.2,1.6,2.3l-2.2,11.8C1117.5,520.8,1116.6,521.5,1115.7,521.5z M1120.1,497.8
			c-0.1,0-0.2,0-0.4,0c-1.1-0.2-1.8-1.2-1.6-2.3l2.2-11.8c0.2-1.1,1.3-1.8,2.3-1.6c1.1,0.2,1.8,1.2,1.6,2.3l-2.2,11.8
			C1121.9,497.1,1121.1,497.8,1120.1,497.8z M1124.5,474.1c-0.1,0-0.2,0-0.4,0c-1.1-0.2-1.8-1.2-1.6-2.3l2.2-11.8
			c0.2-1.1,1.2-1.8,2.3-1.6c1.1,0.2,1.8,1.2,1.6,2.3l-2.2,11.8C1126.3,473.5,1125.5,474.1,1124.5,474.1z M1129,450.5
			c-0.1,0-0.2,0-0.4,0c-1.1-0.2-1.8-1.2-1.6-2.3l2.2-11.8c0.2-1.1,1.3-1.8,2.3-1.6c1.1,0.2,1.8,1.2,1.6,2.3l-2.2,11.8
			C1130.8,449.8,1129.9,450.5,1129,450.5z M1132,427c-0.7,0-1.4-0.4-1.8-1.1l-5.6-10.7c-0.5-1-0.1-2.2,0.8-2.7
			c1-0.5,2.2-0.1,2.7,0.8l5.6,10.7c0.5,1,0.1,2.2-0.8,2.7C1132.6,427,1132.3,427,1132,427z M1120.8,405.7c-0.7,0-1.4-0.4-1.8-1.1
			l-5.6-10.7c-0.5-1-0.1-2.2,0.8-2.7c1-0.5,2.2-0.1,2.7,0.8l5.6,10.7c0.5,1,0.1,2.2-0.8,2.7C1121.4,405.7,1121.1,405.7,1120.8,405.7
			z"/>
	</g>
	<g>
		<path fill="#FFFFFF" d="M1109.5,586.9c0,0-0.1,0-0.1,0l-6-0.4c-0.6,0-1.1-0.3-1.4-0.8s-0.5-1-0.4-1.6l1.1-5.9
			c0.2-1.1,1.3-1.8,2.3-1.6c1.1,0.2,1.8,1.2,1.6,2.3l-0.7,3.7l3.7,0.3c1.1,0.1,1.9,1,1.9,2.1
			C1111.4,586.1,1110.5,586.9,1109.5,586.9z"/>
	</g>
	<g>
		<path fill="#FFFFFF" d="M1140.2,589c0,0-0.1,0-0.1,0l-15.3-1.1c-1.1-0.1-1.9-1-1.9-2.1s1-1.9,2.1-1.9l15.3,1.1
			c1.1,0.1,1.9,1,1.9,2.1C1142.1,588.2,1141.2,589,1140.2,589z"/>
	</g>
	<g>
		<path fill="#FFFFFF" d="M1161.1,596.5c0,0-0.1,0-0.2,0c-1.1-0.1-1.9-1-1.8-2.1l0.3-4l-4-0.3c-1.1-0.1-1.9-1-1.9-2.1
			c0.1-1.1,1-1.9,2.1-1.9l6,0.4c0.5,0,1,0.3,1.4,0.7c0.3,0.4,0.5,0.9,0.5,1.5l-0.4,6C1163,595.7,1162.1,596.5,1161.1,596.5z"/>
	</g>
	<g>
		<path fill="#FFFFFF" d="M1158.1,635.7c0,0-0.1,0-0.2,0c-1.1-0.1-1.9-1-1.8-2.1l0.7-9.8c0.1-1.1,1-1.9,2.1-1.8
			c1.1,0.1,1.9,1,1.8,2.1l-0.7,9.8C1160,634.9,1159.2,635.7,1158.1,635.7z M1159.6,616.1c0,0-0.1,0-0.2,0c-1.1-0.1-1.9-1-1.8-2.1
			l0.7-9.8c0.1-1.1,1-1.9,2.1-1.8c1.1,0.1,1.9,1,1.8,2.1l-0.7,9.8C1161.5,615.3,1160.6,616.1,1159.6,616.1z"/>
	</g>
	<g>
		<path fill="#FFFFFF" d="M1156.9,651.5C1156.9,651.5,1156.9,651.5,1156.9,651.5l-6.1-0.2c-1.1,0-2-1-1.9-2.1c0-1.1,1-2,2.1-1.9
			l4.1,0.2l0.3-4.1c0.1-1.1,1-1.9,2.1-1.8c1.1,0.1,1.9,1,1.8,2.1l-0.4,6C1158.9,650.7,1158,651.5,1156.9,651.5z"/>
	</g>
	<g>
		<path fill="#FFFFFF" d="M1138.8,650.7C1138.8,650.7,1138.8,650.7,1138.8,650.7l-12.2-0.5c-1.1,0-2-1-1.9-2.1c0-1.1,1-2,2.1-1.9
			l12.1,0.5c1.1,0,2,1,1.9,2.1C1140.8,649.9,1139.9,650.7,1138.8,650.7z M1114.6,649.7C1114.6,649.7,1114.6,649.7,1114.6,649.7
			l-12.2-0.5c-1.1,0-2-1-1.9-2.1c0-1.1,1-2,2.1-1.9l12.1,0.5c1.1,0,2,1,1.9,2.1C1116.6,648.9,1115.7,649.7,1114.6,649.7z
			 M1090.5,648.7C1090.4,648.7,1090.4,648.7,1090.5,648.7l-12.2-0.5c-1.1,0-2-1-1.9-2.1c0-1.1,1-2,2.1-1.9l12.1,0.5
			c1.1,0,2,1,1.9,2.1C1092.4,647.9,1091.5,648.7,1090.5,648.7z M1066.3,647.7C1066.2,647.7,1066.2,647.7,1066.3,647.7l-12.2-0.5
			c-1.1,0-2-1-1.9-2.1c0-1.1,1-2,2.1-1.9l12.1,0.5c1.1,0,2,1,1.9,2.1C1068.2,646.9,1067.3,647.7,1066.3,647.7z M1042.1,646.7
			C1042,646.7,1042,646.7,1042.1,646.7l-12.2-0.5c-1.1,0-2-1-1.9-2.1c0-1.1,1-2,2.1-1.9l12.1,0.5c1.1,0,2,1,1.9,2.1
			C1044,645.9,1043.1,646.7,1042.1,646.7z M1017.9,645.7C1017.8,645.7,1017.8,645.7,1017.9,645.7l-12.2-0.5c-1.1,0-2-1-1.9-2.1
			c0-1.1,1-2,2.1-1.9l12.1,0.5c1.1,0,2,1,1.9,2.1C1019.8,644.9,1018.9,645.7,1017.9,645.7z M993.7,644.7
			C993.6,644.7,993.6,644.7,993.7,644.7l-12.2-0.5c-1.1,0-2-1-1.9-2.1c0-1.1,1-2,2.1-1.9l12.1,0.5c1.1,0,2,1,1.9,2.1
			C995.6,643.9,994.7,644.7,993.7,644.7z M969.5,643.7C969.4,643.7,969.4,643.7,969.5,643.7l-12.2-0.5c-1.1,0-2-1-1.9-2.1
			c0-1.1,1-2,2.1-1.9l12.1,0.5c1.1,0,2,1,1.9,2.1C971.4,642.9,970.5,643.7,969.5,643.7z M945.3,642.7
			C945.2,642.7,945.2,642.7,945.3,642.7l-12.2-0.5c-1.1,0-2-1-1.9-2.1c0-1.1,1-1.9,2.1-1.9l12.1,0.5c1.1,0,2,1,1.9,2.1
			C947.2,641.9,946.3,642.7,945.3,642.7z M921.1,641.7C921,641.7,921,641.7,921.1,641.7l-12.2-0.5c-1.1,0-2-1-1.9-2.1
			c0-1.1,1-1.9,2.1-1.9l12.1,0.5c1.1,0,2,1,1.9,2.1C923,640.9,922.1,641.7,921.1,641.7z M896.9,640.7
			C896.8,640.7,896.8,640.7,896.9,640.7l-12.2-0.5c-1.1,0-2-1-1.9-2.1c0-1.1,1-1.9,2.1-1.9l12.1,0.5c1.1,0,2,1,1.9,2.1
			C898.8,639.9,897.9,640.7,896.9,640.7z M872.7,639.7C872.7,639.7,872.6,639.7,872.7,639.7l-12.2-0.5c-1.1,0-2-1-1.9-2.1
			c0-1.1,1-1.9,2.1-1.9l12.1,0.5c1.1,0,2,1,1.9,2.1C874.6,638.9,873.7,639.7,872.7,639.7z M848.5,638.7
			C848.5,638.7,848.4,638.7,848.5,638.7l-12.2-0.5c-1.1,0-2-1-1.9-2.1c0-1.1,1-1.9,2.1-1.9l12.1,0.5c1.1,0,2,1,1.9,2.1
			C850.4,637.9,849.5,638.7,848.5,638.7z M824.3,637.7C824.3,637.7,824.2,637.7,824.3,637.7l-12.2-0.5c-1.1,0-2-1-1.9-2.1
			c0-1.1,1-1.9,2.1-1.9l12.1,0.5c1.1,0,2,1,1.9,2.1C826.2,636.9,825.4,637.7,824.3,637.7z M800.1,636.7
			C800.1,636.7,800,636.7,800.1,636.7l-12.2-0.5c-1.1,0-2-1-1.9-2.1c0-1.1,1-1.9,2.1-1.9l12.1,0.5c1.1,0,2,1,1.9,2.1
			C802,635.9,801.2,636.7,800.1,636.7z M775.9,635.7C775.9,635.7,775.8,635.7,775.9,635.7l-12.2-0.5c-1.1,0-2-1-1.9-2.1
			c0-1.1,1-1.9,2.1-1.9l12.1,0.5c1.1,0,2,1,1.9,2.1C777.8,634.9,777,635.7,775.9,635.7z M751.7,634.7
			C751.7,634.7,751.6,634.7,751.7,634.7l-12.2-0.5c-1.1,0-2-1-1.9-2.1c0-1.1,1-1.9,2.1-1.9l12.1,0.5c1.1,0,2,1,1.9,2.1
			C753.6,633.9,752.8,634.7,751.7,634.7z"/>
	</g>
	<g>
		<path fill="#FFFFFF" d="M722,639.5c-1,0-1.9-0.8-2-1.8l-0.5-6c0-0.6,0.2-1.1,0.5-1.6c0.4-0.4,1-0.6,1.5-0.6l6,0.2
			c1.1,0,2,1,1.9,2.1c0,1.1-1,2-2.1,1.9l-3.7-0.2l0.3,3.7c0.1,1.1-0.7,2.1-1.8,2.2C722.1,639.5,722.1,639.5,722,639.5z"/>
	</g>
	<g>
		<path fill="#FFFFFF" d="M727.1,700.4c-1,0-1.9-0.8-2-1.8l-0.9-10.1c-0.1-1.1,0.7-2.1,1.8-2.2c1.1-0.1,2.1,0.7,2.2,1.8l0.9,10.1
			c0.1,1.1-0.7,2.1-1.8,2.2C727.3,700.4,727.2,700.4,727.1,700.4z M725.4,680.1c-1,0-1.9-0.8-2-1.8l-0.9-10.1
			c-0.1-1.1,0.7-2.1,1.8-2.2c1.1-0.1,2.1,0.7,2.2,1.8l0.9,10.1c0.1,1.1-0.7,2.1-1.8,2.2C725.5,680.1,725.5,680.1,725.4,680.1z
			 M723.7,659.8c-1,0-1.9-0.8-2-1.8l-0.9-10.1c-0.1-1.1,0.7-2.1,1.8-2.2c1.1-0.1,2.1,0.7,2.2,1.8l0.9,10.1c0.1,1.1-0.7,2.1-1.8,2.2
			C723.8,659.8,723.8,659.8,723.7,659.8z"/>
	</g>
	<g>
		<path fill="#FFFFFF" d="M733.8,719.2c-0.3,0-0.6-0.1-0.9-0.2l-5.3-2.7c-0.6-0.3-1-0.9-1.1-1.6l-0.5-6c-0.1-1.1,0.7-2.1,1.8-2.2
			c1.1-0.1,2.1,0.7,2.2,1.8l0.4,4.9l4.4,2.2c1,0.5,1.4,1.7,0.9,2.7C735.3,718.8,734.6,719.2,733.8,719.2z"/>
	</g>
	<g>
		<path fill="#FFFFFF" d="M1070.6,947.3c-0.6,0-1.1-0.2-1.5-0.7l-8-9.2c-0.7-0.8-0.6-2.1,0.2-2.8c0.8-0.7,2.1-0.6,2.8,0.2l8,9.2
			c0.7,0.8,0.6,2.1-0.2,2.8C1071.5,947.2,1071,947.3,1070.6,947.3z M1054.6,929c-0.6,0-1.1-0.2-1.5-0.7l-8-9.2
			c-0.7-0.8-0.6-2.1,0.2-2.8c0.8-0.7,2.1-0.6,2.8,0.2l8,9.2c0.7,0.8,0.6,2.1-0.2,2.8C1055.5,928.9,1055,929,1054.6,929z
			 M1038.6,910.7c-0.6,0-1.1-0.2-1.5-0.7l-8-9.2c-0.7-0.8-0.6-2.1,0.2-2.8c0.8-0.7,2.1-0.6,2.8,0.2l8,9.2c0.7,0.8,0.6,2.1-0.2,2.8
			C1039.5,910.6,1039,910.7,1038.6,910.7z M1022.6,892.4c-0.6,0-1.1-0.2-1.5-0.7l-8-9.2c-0.7-0.8-0.6-2.1,0.2-2.8
			c0.8-0.7,2.1-0.6,2.8,0.2l8,9.2c0.7,0.8,0.6,2.1-0.2,2.8C1023.5,892.2,1023.1,892.4,1022.6,892.4z M1006.6,874.1
			c-0.6,0-1.1-0.2-1.5-0.7l-8-9.2c-0.7-0.8-0.6-2.1,0.2-2.8c0.8-0.7,2.1-0.6,2.8,0.2l8,9.2c0.7,0.8,0.6,2.1-0.2,2.8
			C1007.5,873.9,1007.1,874.1,1006.6,874.1z M990.6,855.8c-0.6,0-1.1-0.2-1.5-0.7l-8-9.2c-0.7-0.8-0.6-2.1,0.2-2.8
			c0.8-0.7,2.1-0.6,2.8,0.2l8,9.2c0.7,0.8,0.6,2.1-0.2,2.8C991.6,855.6,991.1,855.8,990.6,855.8z M971.8,841c-0.3,0-0.6-0.1-0.9-0.2
			l-10.8-5.5c-1-0.5-1.4-1.7-0.9-2.7c0.5-1,1.7-1.4,2.7-0.9l10.8,5.5c1,0.5,1.4,1.7,0.9,2.7C973.3,840.6,972.6,841,971.8,841z
			 M950.2,830c-0.3,0-0.6-0.1-0.9-0.2l-10.8-5.5c-1-0.5-1.4-1.7-0.9-2.7c0.5-1,1.7-1.4,2.7-0.9l10.8,5.5c1,0.5,1.4,1.7,0.9,2.7
			C951.6,829.6,950.9,830,950.2,830z M928.6,818.9c-0.3,0-0.6-0.1-0.9-0.2l-10.8-5.5c-1-0.5-1.4-1.7-0.9-2.7s1.7-1.4,2.7-0.9
			l10.8,5.5c1,0.5,1.4,1.7,0.9,2.7C930,818.5,929.3,818.9,928.6,818.9z M906.9,807.8c-0.3,0-0.6-0.1-0.9-0.2l-10.8-5.5
			c-1-0.5-1.4-1.7-0.9-2.7c0.5-1,1.7-1.4,2.7-0.9l10.8,5.5c1,0.5,1.4,1.7,0.9,2.7C908.4,807.4,907.7,807.8,906.9,807.8z
			 M885.3,796.8c-0.3,0-0.6-0.1-0.9-0.2l-10.8-5.5c-1-0.5-1.4-1.7-0.9-2.7c0.5-1,1.7-1.4,2.7-0.9l10.8,5.5c1,0.5,1.4,1.7,0.9,2.7
			C886.7,796.4,886,796.8,885.3,796.8z M863.7,785.7c-0.3,0-0.6-0.1-0.9-0.2l-10.8-5.5c-1-0.5-1.4-1.7-0.9-2.7
			c0.5-1,1.7-1.4,2.7-0.9l10.8,5.5c1,0.5,1.4,1.7,0.9,2.7C865.1,785.3,864.4,785.7,863.7,785.7z M842,774.6c-0.3,0-0.6-0.1-0.9-0.2
			l-10.8-5.5c-1-0.5-1.4-1.7-0.9-2.7c0.5-1,1.7-1.4,2.7-0.9l10.8,5.5c1,0.5,1.4,1.7,0.9,2.7C843.5,774.2,842.8,774.6,842,774.6z
			 M820.4,763.5c-0.3,0-0.6-0.1-0.9-0.2l-10.8-5.5c-1-0.5-1.4-1.7-0.9-2.7c0.5-1,1.7-1.4,2.7-0.9l10.8,5.5c1,0.5,1.4,1.7,0.9,2.7
			C821.8,763.1,821.1,763.5,820.4,763.5z M798.8,752.5c-0.3,0-0.6-0.1-0.9-0.2l-10.8-5.5c-1-0.5-1.4-1.7-0.9-2.7
			c0.5-1,1.7-1.4,2.7-0.9l10.8,5.5c1,0.5,1.4,1.7,0.9,2.7C800.2,752.1,799.5,752.5,798.8,752.5z M777.1,741.4
			c-0.3,0-0.6-0.1-0.9-0.2l-10.8-5.5c-1-0.5-1.4-1.7-0.9-2.7s1.7-1.4,2.7-0.9l10.8,5.5c1,0.5,1.4,1.7,0.9,2.7
			C778.5,741,777.8,741.4,777.1,741.4z M755.5,730.3c-0.3,0-0.6-0.1-0.9-0.2l-10.8-5.5c-1-0.5-1.4-1.7-0.9-2.7
			c0.5-1,1.7-1.4,2.7-0.9l10.8,5.5c1,0.5,1.4,1.7,0.9,2.7C756.9,729.9,756.2,730.3,755.5,730.3z"/>
	</g>
	<g>
		<path fill="#FFFFFF" d="M1077.8,964.7c-0.6,0-1.2-0.3-1.6-0.8c-0.7-0.9-0.5-2.1,0.3-2.8l3.1-2.4l-2.6-2.9
			c-0.7-0.8-0.6-2.1,0.2-2.8c0.8-0.7,2.1-0.6,2.8,0.2l3.9,4.5c0.4,0.4,0.5,1,0.5,1.5c-0.1,0.5-0.3,1-0.8,1.4l-4.7,3.7
			C1078.6,964.5,1078.2,964.7,1077.8,964.7z"/>
	</g>
	<g>
		<path fill="#FFFFFF" d="M791.3,1187.9c-0.6,0-1.2-0.3-1.6-0.8c-0.7-0.9-0.5-2.1,0.3-2.8l9.5-7.4c0.9-0.7,2.1-0.5,2.8,0.3
			c0.7,0.9,0.5,2.1-0.3,2.8l-9.5,7.4C792.1,1187.7,791.7,1187.9,791.3,1187.9z M810.4,1173c-0.6,0-1.2-0.3-1.6-0.8
			c-0.7-0.9-0.5-2.1,0.3-2.8l9.5-7.4c0.9-0.7,2.1-0.5,2.8,0.3c0.7,0.9,0.5,2.1-0.3,2.8l-9.5,7.4C811.2,1172.9,810.8,1173,810.4,1173
			z M829.5,1158.1c-0.6,0-1.2-0.3-1.6-0.8c-0.7-0.9-0.5-2.1,0.3-2.8l9.5-7.4c0.9-0.7,2.1-0.5,2.8,0.3c0.7,0.9,0.5,2.1-0.3,2.8
			l-9.5,7.4C830.3,1158,829.9,1158.1,829.5,1158.1z M848.6,1143.2c-0.6,0-1.2-0.3-1.6-0.8c-0.7-0.9-0.5-2.1,0.3-2.8l9.5-7.4
			c0.9-0.7,2.1-0.5,2.8,0.3c0.7,0.9,0.5,2.1-0.3,2.8l-9.5,7.4C849.4,1143.1,849,1143.2,848.6,1143.2z M867.7,1128.4
			c-0.6,0-1.2-0.3-1.6-0.8c-0.7-0.9-0.5-2.1,0.3-2.8l9.5-7.4c0.9-0.7,2.1-0.5,2.8,0.3c0.7,0.9,0.5,2.1-0.3,2.8l-9.5,7.4
			C868.5,1128.2,868.1,1128.4,867.7,1128.4z M886.8,1113.5c-0.6,0-1.2-0.3-1.6-0.8c-0.7-0.9-0.5-2.1,0.3-2.8l9.5-7.4
			c0.9-0.7,2.1-0.5,2.8,0.3c0.7,0.9,0.5,2.1-0.3,2.8l-9.5,7.4C887.6,1113.3,887.2,1113.5,886.8,1113.5z M905.9,1098.6
			c-0.6,0-1.2-0.3-1.6-0.8c-0.7-0.9-0.5-2.1,0.3-2.8l9.5-7.4c0.9-0.7,2.1-0.5,2.8,0.3c0.7,0.9,0.5,2.1-0.3,2.8l-9.5,7.4
			C906.7,1098.5,906.3,1098.6,905.9,1098.6z M925,1083.7c-0.6,0-1.2-0.3-1.6-0.8c-0.7-0.9-0.5-2.1,0.3-2.8l9.5-7.4
			c0.9-0.7,2.1-0.5,2.8,0.3c0.7,0.9,0.5,2.1-0.3,2.8l-9.5,7.4C925.8,1083.6,925.4,1083.7,925,1083.7z M944.1,1068.8
			c-0.6,0-1.2-0.3-1.6-0.8c-0.7-0.9-0.5-2.1,0.3-2.8l9.5-7.4c0.9-0.7,2.1-0.5,2.8,0.3c0.7,0.9,0.5,2.1-0.3,2.8l-9.5,7.4
			C944.9,1068.7,944.5,1068.8,944.1,1068.8z M963.2,1054c-0.6,0-1.2-0.3-1.6-0.8c-0.7-0.9-0.5-2.1,0.3-2.8l9.5-7.4
			c0.9-0.7,2.1-0.5,2.8,0.3c0.7,0.9,0.5,2.1-0.3,2.8l-9.5,7.4C964,1053.8,963.6,1054,963.2,1054z M982.3,1039.1
			c-0.6,0-1.2-0.3-1.6-0.8c-0.7-0.9-0.5-2.1,0.3-2.8l9.5-7.4c0.9-0.7,2.1-0.5,2.8,0.3c0.7,0.9,0.5,2.1-0.3,2.8l-9.5,7.4
			C983.1,1038.9,982.7,1039.1,982.3,1039.1z M1001.4,1024.2c-0.6,0-1.2-0.3-1.6-0.8c-0.7-0.9-0.5-2.1,0.3-2.8l9.5-7.4
			c0.9-0.7,2.1-0.5,2.8,0.3c0.7,0.9,0.5,2.1-0.3,2.8l-9.5,7.4C1002.2,1024.1,1001.8,1024.2,1001.4,1024.2z M1020.5,1009.3
			c-0.6,0-1.2-0.3-1.6-0.8c-0.7-0.9-0.5-2.1,0.3-2.8l9.5-7.4c0.9-0.7,2.1-0.5,2.8,0.3s0.5,2.1-0.3,2.8l-9.5,7.4
			C1021.3,1009.2,1020.9,1009.3,1020.5,1009.3z M1039.6,994.4c-0.6,0-1.2-0.3-1.6-0.8c-0.7-0.9-0.5-2.1,0.3-2.8l9.5-7.4
			c0.9-0.7,2.1-0.5,2.8,0.3c0.7,0.9,0.5,2.1-0.3,2.8l-9.5,7.4C1040.4,994.3,1040,994.4,1039.6,994.4z M1058.7,979.6
			c-0.6,0-1.2-0.3-1.6-0.8c-0.7-0.9-0.5-2.1,0.3-2.8l9.5-7.4c0.9-0.7,2.1-0.5,2.8,0.3c0.7,0.9,0.5,2.1-0.3,2.8l-9.5,7.4
			C1059.5,979.4,1059.1,979.6,1058.7,979.6z"/>
	</g>
	<g>
		<path fill="#FFFFFF" d="M777,1199c-0.6,0-1.2-0.3-1.6-0.7l-3.8-4.7c-0.7-0.9-0.6-2.1,0.3-2.8c0.9-0.7,2.1-0.6,2.8,0.3l2.6,3.1
			l3.2-2.5c0.9-0.7,2.1-0.5,2.8,0.3c0.7,0.9,0.5,2.1-0.3,2.8l-4.7,3.7C777.9,1198.9,777.4,1199,777,1199z"/>
	</g>
	<g>
		<path fill="#FFFFFF" d="M765.7,1185.2c-0.6,0-1.2-0.3-1.6-0.7l-7.5-9.2c-0.7-0.9-0.6-2.1,0.3-2.8c0.9-0.7,2.1-0.6,2.8,0.3l7.5,9.2
			c0.7,0.9,0.6,2.1-0.3,2.8C766.6,1185,766.2,1185.2,765.7,1185.2z M750.8,1166.8c-0.6,0-1.2-0.3-1.6-0.7l-7.5-9.2
			c-0.7-0.9-0.6-2.1,0.3-2.8c0.9-0.7,2.1-0.6,2.8,0.3l7.5,9.2c0.7,0.9,0.6,2.1-0.3,2.8C751.7,1166.6,751.2,1166.8,750.8,1166.8z
			 M735.8,1148.4c-0.6,0-1.2-0.3-1.6-0.7l-7.5-9.2c-0.7-0.9-0.6-2.1,0.3-2.8c0.9-0.7,2.1-0.6,2.8,0.3l7.5,9.2
			c0.7,0.9,0.6,2.1-0.3,2.8C736.7,1148.3,736.3,1148.4,735.8,1148.4z M720.9,1130.1c-0.6,0-1.2-0.3-1.6-0.7l-7.5-9.2
			c-0.7-0.9-0.6-2.1,0.3-2.8c0.9-0.7,2.1-0.6,2.8,0.3l7.5,9.2c0.7,0.9,0.6,2.1-0.3,2.8C721.8,1129.9,721.3,1130.1,720.9,1130.1z
			 M705.9,1111.7c-0.6,0-1.2-0.3-1.6-0.7l-7.5-9.2c-0.7-0.9-0.6-2.1,0.3-2.8c0.9-0.7,2.1-0.6,2.8,0.3l7.5,9.2
			c0.7,0.9,0.6,2.1-0.3,2.8C706.8,1111.6,706.4,1111.7,705.9,1111.7z M691,1093.3c-0.6,0-1.2-0.3-1.6-0.7l-7.5-9.2
			c-0.7-0.9-0.6-2.1,0.3-2.8c0.9-0.7,2.1-0.6,2.8,0.3l7.5,9.2c0.7,0.9,0.6,2.1-0.3,2.8C691.9,1093.2,691.4,1093.3,691,1093.3z
			 M676,1075c-0.6,0-1.2-0.3-1.6-0.7l-7.5-9.2c-0.7-0.9-0.6-2.1,0.3-2.8c0.9-0.7,2.1-0.6,2.8,0.3l7.5,9.2c0.7,0.9,0.6,2.1-0.3,2.8
			C676.9,1074.8,676.4,1075,676,1075z M661,1056.6c-0.6,0-1.2-0.3-1.6-0.7l-7.5-9.2c-0.7-0.9-0.6-2.1,0.3-2.8
			c0.9-0.7,2.1-0.6,2.8,0.3l7.5,9.2c0.7,0.9,0.6,2.1-0.3,2.8C661.9,1056.5,661.5,1056.6,661,1056.6z M646.1,1038.2
			c-0.6,0-1.2-0.3-1.6-0.7l-7.5-9.2c-0.7-0.9-0.6-2.1,0.3-2.8c0.9-0.7,2.1-0.6,2.8,0.3l7.5,9.2c0.7,0.9,0.6,2.1-0.3,2.8
			C647,1038.1,646.5,1038.2,646.1,1038.2z M631.1,1019.9c-0.6,0-1.2-0.3-1.6-0.7l-7.5-9.2c-0.7-0.9-0.6-2.1,0.3-2.8
			c0.9-0.7,2.1-0.6,2.8,0.3l7.5,9.2c0.7,0.9,0.6,2.1-0.3,2.8C632,1019.7,631.6,1019.9,631.1,1019.9z M616.2,1001.5
			c-0.6,0-1.2-0.3-1.6-0.7l-7.5-9.2c-0.7-0.9-0.6-2.1,0.3-2.8c0.9-0.7,2.1-0.6,2.8,0.3l7.5,9.2c0.7,0.9,0.6,2.1-0.3,2.8
			C617.1,1001.4,616.6,1001.5,616.2,1001.5z M601.2,983.1c-0.6,0-1.2-0.3-1.6-0.7l-7.5-9.2c-0.7-0.9-0.6-2.1,0.3-2.8
			c0.9-0.7,2.1-0.6,2.8,0.3l7.5,9.2c0.7,0.9,0.6,2.1-0.3,2.8C602.1,983,601.7,983.1,601.2,983.1z M586.3,964.8
			c-0.6,0-1.2-0.3-1.6-0.7l-7.5-9.2c-0.7-0.9-0.6-2.1,0.3-2.8c0.9-0.7,2.1-0.6,2.8,0.3l7.5,9.2c0.7,0.9,0.6,2.1-0.3,2.8
			C587.2,964.6,586.7,964.8,586.3,964.8z M571.3,946.4c-0.6,0-1.2-0.3-1.6-0.7l-7.5-9.2c-0.7-0.9-0.6-2.1,0.3-2.8
			c0.9-0.7,2.1-0.6,2.8,0.3l7.5,9.2c0.7,0.9,0.6,2.1-0.3,2.8C572.2,946.3,571.8,946.4,571.3,946.4z M556.4,928
			c-0.6,0-1.2-0.3-1.6-0.7l-7.5-9.2c-0.7-0.9-0.6-2.1,0.3-2.8c0.9-0.7,2.1-0.6,2.8,0.3l7.5,9.2c0.7,0.9,0.6,2.1-0.3,2.8
			C557.3,927.9,556.8,928,556.4,928z M541.4,909.7c-0.6,0-1.2-0.3-1.6-0.7l-7.5-9.2c-0.7-0.9-0.6-2.1,0.3-2.8
			c0.9-0.7,2.1-0.6,2.8,0.3l7.5,9.2c0.7,0.9,0.6,2.1-0.3,2.8C542.3,909.5,541.9,909.7,541.4,909.7z M526.5,891.3
			c-0.6,0-1.2-0.3-1.6-0.7l-7.5-9.2c-0.7-0.9-0.6-2.1,0.3-2.8c0.9-0.7,2.1-0.6,2.8,0.3l7.5,9.2c0.7,0.9,0.6,2.1-0.3,2.8
			C527.3,891.2,526.9,891.3,526.5,891.3z M511.5,872.9c-0.6,0-1.2-0.3-1.6-0.7l-7.5-9.2c-0.7-0.9-0.6-2.1,0.3-2.8
			c0.9-0.7,2.1-0.6,2.8,0.3l7.5,9.2c0.7,0.9,0.6,2.1-0.3,2.8C512.4,872.8,511.9,872.9,511.5,872.9z M496.5,854.6
			c-0.6,0-1.2-0.3-1.6-0.7l-7.5-9.2c-0.7-0.9-0.6-2.1,0.3-2.8c0.9-0.7,2.1-0.6,2.8,0.3l7.5,9.2c0.7,0.9,0.6,2.1-0.3,2.8
			C497.4,854.4,497,854.6,496.5,854.6z M481.6,836.2c-0.6,0-1.2-0.3-1.6-0.7l-7.5-9.2c-0.7-0.9-0.6-2.1,0.3-2.8
			c0.9-0.7,2.1-0.6,2.8,0.3l7.5,9.2c0.7,0.9,0.6,2.1-0.3,2.8C482.5,836.1,482,836.2,481.6,836.2z M466.6,817.8
			c-0.6,0-1.2-0.3-1.6-0.7l-7.5-9.2c-0.7-0.9-0.6-2.1,0.3-2.8c0.9-0.7,2.1-0.6,2.8,0.3l7.5,9.2c0.7,0.9,0.6,2.1-0.3,2.8
			C467.5,817.7,467.1,817.8,466.6,817.8z M451.7,799.5c-0.6,0-1.2-0.3-1.6-0.7l-7.5-9.2c-0.7-0.9-0.6-2.1,0.3-2.8
			c0.9-0.7,2.1-0.6,2.8,0.3l7.5,9.2c0.7,0.9,0.6,2.1-0.3,2.8C452.6,799.3,452.1,799.5,451.7,799.5z M436.7,781.1
			c-0.6,0-1.2-0.3-1.6-0.7l-7.5-9.2c-0.7-0.9-0.6-2.1,0.3-2.8c0.9-0.7,2.1-0.6,2.8,0.3l7.5,9.2c0.7,0.9,0.6,2.1-0.3,2.8
			C437.6,781,437.2,781.1,436.7,781.1z M421.8,762.7c-0.6,0-1.2-0.3-1.6-0.7l-7.5-9.2c-0.7-0.9-0.6-2.1,0.3-2.8
			c0.9-0.7,2.1-0.6,2.8,0.3l7.5,9.2c0.7,0.9,0.6,2.1-0.3,2.8C422.7,762.6,422.2,762.7,421.8,762.7z"/>
	</g>
	<g>
		<path fill="#FFFFFF" d="M406.8,744.4c-0.6,0-1.2-0.3-1.6-0.7l-2.7-3.3l-3.7,2.2c-1,0.6-2.2,0.2-2.7-0.7c-0.6-1-0.2-2.2,0.7-2.7
			l5.2-3.1c0.9-0.5,1.9-0.3,2.6,0.5l3.8,4.7c0.7,0.9,0.6,2.1-0.3,2.8C407.7,744.2,407.3,744.4,406.8,744.4z"/>
	</g>
	<g>
		<path fill="#FFFFFF" d="M194.3,863.4c-0.7,0-1.3-0.3-1.7-1c-0.6-1-0.2-2.2,0.7-2.7l10.2-6c1-0.6,2.2-0.2,2.7,0.7s0.2,2.2-0.7,2.7
			l-10.2,6C195,863.3,194.7,863.4,194.3,863.4z M214.7,851.3c-0.7,0-1.3-0.3-1.7-1c-0.6-1-0.2-2.2,0.7-2.7l10.2-6
			c1-0.6,2.2-0.2,2.7,0.7c0.6,1,0.2,2.2-0.7,2.7l-10.2,6C215.4,851.3,215,851.3,214.7,851.3z M235,839.3c-0.7,0-1.3-0.3-1.7-1
			c-0.6-1-0.2-2.2,0.7-2.7l10.2-6c1-0.6,2.2-0.2,2.7,0.7c0.6,1,0.2,2.2-0.7,2.7l-10.2,6C235.7,839.2,235.4,839.3,235,839.3z
			 M255.4,827.2c-0.7,0-1.3-0.3-1.7-1c-0.6-1-0.2-2.2,0.7-2.7l10.2-6c1-0.6,2.2-0.2,2.7,0.7c0.6,1,0.2,2.2-0.7,2.7l-10.2,6
			C256.1,827.1,255.7,827.2,255.4,827.2z M275.7,815.2c-0.7,0-1.3-0.3-1.7-1c-0.6-1-0.2-2.2,0.7-2.7l10.2-6c1-0.6,2.2-0.2,2.7,0.7
			s0.2,2.2-0.7,2.7l-10.2,6C276.4,815.1,276.1,815.2,275.7,815.2z M296.1,803.1c-0.7,0-1.3-0.3-1.7-1c-0.6-1-0.2-2.2,0.7-2.7l10.2-6
			c1-0.6,2.2-0.2,2.7,0.7c0.6,1,0.2,2.2-0.7,2.7l-10.2,6C296.8,803,296.4,803.1,296.1,803.1z M316.5,791c-0.7,0-1.3-0.3-1.7-1
			c-0.6-1-0.2-2.2,0.7-2.7l10.2-6c1-0.6,2.2-0.2,2.7,0.7c0.6,1,0.2,2.2-0.7,2.7l-10.2,6C317.2,790.9,316.8,791,316.5,791z
			 M336.8,779c-0.7,0-1.3-0.3-1.7-1c-0.6-1-0.2-2.2,0.7-2.7l10.2-6c1-0.6,2.2-0.2,2.7,0.7c0.6,1,0.2,2.2-0.7,2.7l-10.2,6
			C337.5,778.9,337.2,779,336.8,779z M357.2,766.9c-0.7,0-1.3-0.3-1.7-1c-0.6-1-0.2-2.2,0.7-2.7l10.2-6c1-0.6,2.2-0.2,2.7,0.7
			s0.2,2.2-0.7,2.7l-10.2,6C357.9,766.8,357.5,766.9,357.2,766.9z M377.5,754.8c-0.7,0-1.3-0.3-1.7-1c-0.6-1-0.2-2.2,0.7-2.7l10.2-6
			c1-0.6,2.2-0.2,2.7,0.7c0.6,1,0.2,2.2-0.7,2.7l-10.2,6C378.2,754.8,377.9,754.8,377.5,754.8z"/>
	</g>
	<g>
		<path fill="#FFFFFF" d="M179,872.5c-0.6,0-1.1-0.2-1.5-0.7l-3.9-4.5c-0.7-0.8-0.6-2.1,0.2-2.8c0.8-0.7,2.1-0.6,2.8,0.2l2.8,3.3
			l3.7-2.2c1-0.6,2.2-0.2,2.7,0.7c0.6,1,0.2,2.2-0.7,2.7l-5.2,3.1C179.7,872.4,179.3,872.5,179,872.5z"/>
	</g>
	<g>
		<path fill="#FFFFFF" d="M169.9,862c-0.6,0-1.1-0.2-1.5-0.7l-3.9-4.5c-0.5-0.5-0.6-1.3-0.4-1.9l1.8-5.7c0.3-1.1,1.5-1.6,2.5-1.3
			c1.1,0.3,1.6,1.5,1.3,2.5l-1.5,4.6l3.2,3.7c0.7,0.8,0.6,2.1-0.2,2.8C170.9,861.9,170.4,862,169.9,862z"/>
	</g>
	<g>
		<path fill="#FFFFFF" d="M171.7,839.7c-0.2,0-0.4,0-0.6-0.1c-1.1-0.3-1.6-1.5-1.3-2.5l3.9-12.1c0.3-1.1,1.5-1.6,2.5-1.3
			c1.1,0.3,1.6,1.5,1.3,2.5l-3.9,12.1C173.3,839.1,172.5,839.7,171.7,839.7z M179.4,815.4c-0.2,0-0.4,0-0.6-0.1
			c-1.1-0.3-1.6-1.5-1.3-2.5l3.9-12.1c0.3-1.1,1.5-1.6,2.5-1.3c1.1,0.3,1.6,1.5,1.3,2.5l-3.9,12.1
			C181.1,814.9,180.3,815.4,179.4,815.4z"/>
	</g>
	<g>
		<path fill="#FFFFFF" d="M187.2,791.2c-0.2,0-0.4,0-0.6-0.1c-1.1-0.3-1.6-1.5-1.3-2.5l1.4-4.5l-3.5-3.2c-0.8-0.7-0.9-2-0.1-2.8
			c0.7-0.8,2-0.9,2.8-0.1l4.4,4.1c0.6,0.5,0.8,1.3,0.5,2.1l-1.8,5.7C188.8,790.7,188,791.2,187.2,791.2z"/>
	</g>
	<g>
		<path fill="#FFFFFF" d="M175.6,773.2c-0.5,0-1-0.2-1.4-0.5l-9-8.3c-0.8-0.7-0.9-2-0.1-2.8c0.7-0.8,2-0.9,2.8-0.1l9,8.3
			c0.8,0.7,0.9,2,0.1,2.8C176.7,772.9,176.1,773.2,175.6,773.2z M157.6,756.6c-0.5,0-1-0.2-1.4-0.5l-9-8.3c-0.8-0.7-0.9-2-0.1-2.8
			c0.7-0.8,2-0.9,2.8-0.1l9,8.3c0.8,0.7,0.9,2,0.1,2.8C158.7,756.4,158.2,756.6,157.6,756.6z M139.7,740c-0.5,0-1-0.2-1.4-0.5
			l-9-8.3c-0.8-0.7-0.9-2-0.1-2.8c0.7-0.8,2-0.9,2.8-0.1l9,8.3c0.8,0.7,0.9,2,0.1,2.8C140.8,739.8,140.2,740,139.7,740z
			 M121.7,723.5c-0.5,0-1-0.2-1.4-0.5l-9-8.3c-0.8-0.7-0.9-2-0.1-2.8c0.7-0.8,2-0.9,2.8-0.1l9,8.3c0.8,0.7,0.9,2,0.1,2.8
			C122.8,723.3,122.3,723.5,121.7,723.5z M103.8,706.9c-0.5,0-1-0.2-1.4-0.5l-9-8.3c-0.8-0.7-0.9-2-0.1-2.8c0.7-0.8,2-0.9,2.8-0.1
			l9,8.3c0.8,0.7,0.9,2,0.1,2.8C104.8,706.7,104.3,706.9,103.8,706.9z M85.8,690.4c-0.5,0-1-0.2-1.4-0.5l-9-8.3
			c-0.8-0.7-0.9-2-0.1-2.8c0.7-0.8,2-0.9,2.8-0.1l9,8.3c0.8,0.7,0.9,2,0.1,2.8C86.9,690.1,86.3,690.4,85.8,690.4z M67.8,673.8
			c-0.5,0-1-0.2-1.4-0.5l-9-8.3c-0.8-0.7-0.9-2-0.1-2.8c0.7-0.8,2-0.9,2.8-0.1l9,8.3c0.8,0.7,0.9,2,0.1,2.8
			C68.9,673.6,68.4,673.8,67.8,673.8z M49.9,657.2c-0.5,0-1-0.2-1.4-0.5l-1.9-1.7c-0.3-0.3-0.5-0.7-0.6-1.1l-2-9.4
			c-0.2-1.1,0.5-2.1,1.5-2.4c1.1-0.2,2.1,0.5,2.4,1.5l1.9,8.8l1.4,1.3c0.8,0.7,0.9,2,0.1,2.8C51,657,50.4,657.2,49.9,657.2z
			 M43.5,634.1c-0.9,0-1.8-0.6-2-1.6l-2.5-12c-0.2-1.1,0.5-2.1,1.5-2.4c1.1-0.2,2.1,0.5,2.4,1.5l2.5,12c0.2,1.1-0.5,2.1-1.5,2.4
			C43.8,634.1,43.6,634.1,43.5,634.1z M38.5,610.2c-0.9,0-1.8-0.6-2-1.6l-2.5-12c-0.2-1.1,0.5-2.1,1.5-2.4c1.1-0.2,2.1,0.5,2.4,1.5
			l2.5,12c0.2,1.1-0.5,2.1-1.5,2.4C38.7,610.2,38.6,610.2,38.5,610.2z M33.4,586.3c-0.9,0-1.8-0.6-2-1.6l-2.5-12
			c-0.2-1.1,0.5-2.1,1.5-2.4c1.1-0.2,2.1,0.5,2.4,1.5l2.5,12c0.2,1.1-0.5,2.1-1.5,2.4C33.7,586.3,33.6,586.3,33.4,586.3z
			 M28.4,562.4c-0.9,0-1.8-0.6-2-1.6l-2.5-12c-0.2-1.1,0.5-2.1,1.5-2.4c1.1-0.2,2.1,0.5,2.4,1.5l2.5,12c0.2,1.1-0.5,2.1-1.5,2.4
			C28.7,562.4,28.5,562.4,28.4,562.4z M23.4,538.5c-0.9,0-1.8-0.6-2-1.6l-2.5-12c-0.2-1.1,0.5-2.1,1.5-2.4c1.1-0.2,2.1,0.5,2.4,1.5
			l2.5,12c0.2,1.1-0.5,2.1-1.5,2.4C23.6,538.5,23.5,538.5,23.4,538.5z M18.3,514.6c-0.9,0-1.8-0.6-2-1.6l-2.5-12
			c-0.2-1.1,0.5-2.1,1.5-2.4c1.1-0.2,2.1,0.5,2.4,1.5l2.5,12c0.2,1.1-0.5,2.1-1.5,2.4C18.6,514.6,18.5,514.6,18.3,514.6z
			 M13.3,490.7c-0.9,0-1.8-0.6-2-1.6l-2.5-12c-0.2-1.1,0.5-2.1,1.5-2.4c1.1-0.2,2.1,0.5,2.4,1.5l2.5,12c0.2,1.1-0.5,2.1-1.5,2.4
			C13.6,490.7,13.4,490.7,13.3,490.7z M8.3,466.8c-0.9,0-1.8-0.6-2-1.6l-2.5-12c-0.2-1.1,0.5-2.1,1.5-2.4c1.1-0.2,2.1,0.5,2.4,1.5
			l2.5,12c0.2,1.1-0.5,2.1-1.5,2.4C8.5,466.8,8.4,466.8,8.3,466.8z"/>
	</g>
	<g>
		<path fill="#FFFFFF" d="M3.2,442.9c-0.9,0-1.8-0.6-2-1.6L0,435.4c-0.1-0.7,0.1-1.4,0.6-1.9l4.5-4c0.8-0.7,2.1-0.7,2.8,0.1
			c0.7,0.8,0.7,2.1-0.1,2.8l-3.6,3.3l1,4.7c0.2,1.1-0.5,2.1-1.5,2.4C3.5,442.9,3.4,442.9,3.2,442.9z"/>
	</g>
	<g>
		<path fill="#FFFFFF" d="M15.6,424.7c-0.5,0-1.1-0.2-1.5-0.7c-0.7-0.8-0.7-2.1,0.1-2.8l9.1-8.2c0.8-0.7,2.1-0.7,2.8,0.1
			c0.7,0.8,0.7,2.1-0.1,2.8l-9.1,8.2C16.5,424.6,16,424.7,15.6,424.7z M33.8,408.3c-0.5,0-1.1-0.2-1.5-0.7c-0.7-0.8-0.7-2.1,0.1-2.8
			l9.1-8.2c0.8-0.7,2.1-0.7,2.8,0.1c0.7,0.8,0.7,2.1-0.1,2.8l-9.1,8.2C34.7,408.1,34.3,408.3,33.8,408.3z M52,391.8
			c-0.5,0-1.1-0.2-1.5-0.7c-0.7-0.8-0.7-2.1,0.1-2.8l7-6.3c0.4-0.3,0.9-0.5,1.4-0.5l2.8,0c1.1,0,2,0.9,2,2c0,1.1-0.9,2-2,2
			c0,0,0,0,0,0l-2,0l-6.4,5.8C52.9,391.7,52.5,391.8,52,391.8z M282.7,388.3C282.7,388.3,282.7,388.3,282.7,388.3l-12.3-0.2
			c-1.1,0-2-0.9-2-2c0-1.1,0.9-2,2-2c0,0,0,0,0,0l12.3,0.2c1.1,0,2,0.9,2,2C284.7,387.4,283.8,388.3,282.7,388.3z M258.2,388
			C258.2,388,258.2,388,258.2,388l-12.3-0.2c-1.1,0-2-0.9-2-2c0-1.1,0.9-2,2-2c0,0,0,0,0,0l12.3,0.2c1.1,0,2,0.9,2,2
			C260.2,387.1,259.3,388,258.2,388z M233.6,387.7C233.6,387.7,233.6,387.7,233.6,387.7l-12.3-0.2c-1.1,0-2-0.9-2-2c0-1.1,0.9-2,2-2
			c0,0,0,0,0,0l12.3,0.2c1.1,0,2,0.9,2,2C235.6,386.8,234.7,387.7,233.6,387.7z M209.1,387.4C209.1,387.4,209.1,387.4,209.1,387.4
			l-12.3-0.2c-1.1,0-2-0.9-2-2c0-1.1,0.9-2,2-2c0,0,0,0,0,0l12.3,0.2c1.1,0,2,0.9,2,2C211.1,386.5,210.2,387.4,209.1,387.4z
			 M184.5,387.1C184.5,387.1,184.5,387.1,184.5,387.1l-12.3-0.2c-1.1,0-2-0.9-2-2c0-1.1,0.9-2,2-2c0,0,0,0,0,0l12.3,0.2
			c1.1,0,2,0.9,2,2C186.5,386.2,185.6,387.1,184.5,387.1z M160,386.8C160,386.8,160,386.8,160,386.8l-12.3-0.2c-1.1,0-2-0.9-2-2
			c0-1.1,0.9-2,2-2c0,0,0,0,0,0l12.3,0.2c1.1,0,2,0.9,2,2C162,385.9,161.1,386.8,160,386.8z M135.5,386.4
			C135.4,386.4,135.4,386.4,135.5,386.4l-12.3-0.2c-1.1,0-2-0.9-2-2c0-1.1,0.9-2,2-2c0,0,0,0,0,0l12.3,0.2c1.1,0,2,0.9,2,2
			C137.4,385.6,136.6,386.4,135.5,386.4z M110.9,386.1C110.9,386.1,110.9,386.1,110.9,386.1L98.6,386c-1.1,0-2-0.9-2-2
			c0-1.1,0.9-2,2-2c0,0,0,0,0,0l12.3,0.2c1.1,0,2,0.9,2,2C112.9,385.3,112,386.1,110.9,386.1z M86.4,385.8
			C86.4,385.8,86.4,385.8,86.4,385.8l-12.3-0.2c-1.1,0-2-0.9-2-2c0-1.1,0.9-2,2-2c0,0,0,0,0,0l12.3,0.2c1.1,0,2,0.9,2,2
			C88.4,385,87.5,385.8,86.4,385.8z"/>
	</g>
	<g>
		<path fill="#FFFFFF" d="M301,388.5C301,388.5,301,388.5,301,388.5l-6-0.1c-1.1,0-2-0.9-2-2c0-1.1,0.9-2,2-2c0,0,0,0,0,0l4.9,0.1
			l2.8-4.1c0.6-0.9,1.9-1.1,2.8-0.5c0.9,0.6,1.1,1.9,0.5,2.8l-3.4,5C302.3,388.2,301.7,388.5,301,388.5z"/>
	</g>
	<g>
		<path fill="#FFFFFF" d="M310.5,374.5c-0.4,0-0.8-0.1-1.1-0.3c-0.9-0.6-1.1-1.9-0.5-2.8l6.2-9.1c0.6-0.9,1.9-1.1,2.8-0.5
			s1.1,1.9,0.5,2.8l-6.2,9.1C311.8,374.2,311.2,374.5,310.5,374.5z M322.9,356.4c-0.4,0-0.8-0.1-1.1-0.3c-0.9-0.6-1.1-1.9-0.5-2.8
			l6.2-9.1c0.6-0.9,1.9-1.1,2.8-0.5c0.9,0.6,1.1,1.9,0.5,2.8l-6.2,9.1C324.1,356.1,323.5,356.4,322.9,356.4z M335.2,338.3
			c-0.4,0-0.8-0.1-1.1-0.3c-0.9-0.6-1.1-1.9-0.5-2.8l6.2-9.1c0.6-0.9,1.9-1.1,2.8-0.5c0.9,0.6,1.1,1.9,0.5,2.8l-6.2,9.1
			C336.4,338,335.8,338.3,335.2,338.3z M347.5,320.2c-0.4,0-0.8-0.1-1.1-0.3c-0.9-0.6-1.1-1.9-0.5-2.8l6.2-9.1
			c0.6-0.9,1.9-1.2,2.8-0.5c0.9,0.6,1.1,1.9,0.5,2.8l-6.2,9.1C348.8,319.9,348.1,320.2,347.5,320.2z M359.8,302.1
			c-0.4,0-0.8-0.1-1.1-0.3c-0.9-0.6-1.1-1.9-0.5-2.8l6.2-9.1c0.6-0.9,1.9-1.1,2.8-0.5c0.9,0.6,1.1,1.9,0.5,2.8l-6.2,9.1
			C361.1,301.8,360.4,302.1,359.8,302.1z"/>
	</g>
	<g>
		<path fill="#FFFFFF" d="M372.1,284c-0.4,0-0.8-0.1-1.1-0.3c-0.9-0.6-1.1-1.9-0.5-2.8l2.6-3.8l-2.7-3.7c-0.7-0.9-0.5-2.1,0.4-2.8
			c0.9-0.7,2.1-0.5,2.8,0.4l3.5,4.8c0.5,0.7,0.5,1.6,0,2.3l-3.4,5C373.4,283.7,372.8,284,372.1,284z"/>
	</g>
	<g>
		<path fill="#FFFFFF" d="M365.1,264.8c-0.6,0-1.2-0.3-1.6-0.8l-6.9-9.4c-0.7-0.9-0.5-2.1,0.4-2.8c0.9-0.7,2.1-0.5,2.8,0.4l6.9,9.4
			c0.7,0.9,0.5,2.1-0.4,2.8C365.9,264.6,365.5,264.8,365.1,264.8z M351.3,246c-0.6,0-1.2-0.3-1.6-0.8l-6.9-9.4
			c-0.7-0.9-0.5-2.1,0.4-2.8s2.1-0.5,2.8,0.4l6.9,9.4c0.7,0.9,0.5,2.1-0.4,2.8C352.1,245.9,351.7,246,351.3,246z M337.5,227.2
			c-0.6,0-1.2-0.3-1.6-0.8L329,217c-0.7-0.9-0.5-2.1,0.4-2.8c0.9-0.7,2.1-0.5,2.8,0.4l6.9,9.4c0.7,0.9,0.5,2.1-0.4,2.8
			C338.3,227.1,337.9,227.2,337.5,227.2z M323.7,208.5c-0.6,0-1.2-0.3-1.6-0.8l-6.9-9.4c-0.7-0.9-0.5-2.1,0.4-2.8s2.1-0.5,2.8,0.4
			l6.9,9.4c0.7,0.9,0.5,2.1-0.4,2.8C324.6,208.3,324.1,208.5,323.7,208.5z M309.9,189.7c-0.6,0-1.2-0.3-1.6-0.8l-6.9-9.4
			c-0.7-0.9-0.5-2.1,0.4-2.8c0.9-0.7,2.1-0.5,2.8,0.4l6.9,9.4c0.7,0.9,0.5,2.1-0.4,2.8C310.8,189.5,310.4,189.7,309.9,189.7z
			 M296.2,170.9c-0.6,0-1.2-0.3-1.6-0.8l-5.9-8.1l-0.7-0.4c-0.9-0.6-1.2-1.8-0.6-2.8c0.6-0.9,1.8-1.2,2.8-0.6l1,0.6
			c0.2,0.1,0.4,0.3,0.6,0.5l6.2,8.4c0.7,0.9,0.5,2.1-0.4,2.8C297,170.8,296.6,170.9,296.2,170.9z"/>
	</g>
</g>
</svg>
