<?xml version="1.0" encoding="utf-8"?>
<!-- Generator: Adobe Illustrator 18.1.0, SVG Export Plug-In . SVG Version: 6.00 Build 0)  -->
<!DOCTYPE svg PUBLIC "-//W3C//DTD SVG 1.1//EN" "http://www.w3.org/Graphics/SVG/1.1/DTD/svg11.dtd">
<svg version="1.1" id="Слой_2" xmlns="http://www.w3.org/2000/svg" xmlns:xlink="http://www.w3.org/1999/xlink" x="0px" y="0px"
	 viewBox="0 155.1 500 189.9" enable-background="new 0 155.1 500 189.9" xml:space="preserve">
<g>
	<rect x="0" y="155.1" fill="#E2C749" width="500" height="189.9"/>
</g>
<g>
	<path fill="#60B5AE" d="M102.2,251.9c0-30,24.3-54.3,54.3-54.3c30,0,54.3,24.3,54.3,54.3c0,30-24.3,54.3-54.3,54.3
		C126.5,306.2,102.2,281.9,102.2,251.9z"/>
	<path fill="#00001F" d="M156.5,307.9c-30.9,0-56-25.1-56-56c0-30.9,25.1-56,56-56c30.9,0,56,25.1,56,56
		C212.5,282.8,187.4,307.9,156.5,307.9z M156.5,199.3c-29,0-52.6,23.6-52.6,52.6c0,29,23.6,52.6,52.6,52.6c29,0,52.6-23.6,52.6-52.6
		C209.1,222.9,185.5,199.3,156.5,199.3z"/>
</g>
<g>
	<g>
		<path fill="#D8A348" d="M131.9,282.3V273l25.2-20.6c3.3-2.6,7.3-6,7.3-10.3c0-5.1-3.3-7.8-8.1-8h-0.5c-3.1,0-6.5,1.5-12.8,6.2
			l-10-9.2c8.4-7.7,16.2-11.5,24.1-11.5h0.5c15.4,0.2,21.8,9.9,21.8,19.2c0,9.8-6.8,17.4-17.4,25.5l-4.3,3.5h22.5v14.5H131.9z"/>
		<path fill="#000301" d="M180.4,284h-48.5c-0.9,0-1.7-0.8-1.7-1.7V273c0-0.5,0.2-1,0.6-1.3l25.2-20.6c3.4-2.7,6.7-5.6,6.7-9
			c0-5.2-4.1-6.2-6.5-6.3h-0.4c-2.3,0-5.2,1-11.7,5.9c-0.7,0.5-1.6,0.4-2.2-0.1l-10-9.2c-0.3-0.3-0.5-0.8-0.5-1.2
			c0-0.5,0.2-0.9,0.5-1.2c8.8-8,17-11.9,25.2-11.9h0.5c7.5,0.1,13.7,2.4,17.9,6.7c3.6,3.7,5.6,8.7,5.6,14.2c0,11.4-8.6,19.6-18,26.8
			l-0.6,0.5h17.9c0.9,0,1.7,0.8,1.7,1.7v14.5C182.1,283.3,181.3,284,180.4,284z M133.6,280.7h45.1v-11.1h-20.8
			c-0.7,0-1.3-0.4-1.6-1.1c-0.2-0.7,0-1.4,0.5-1.9l4.3-3.5c0,0,0,0,0,0c11.9-9.1,16.7-16.1,16.7-24.2c0-8-5.3-17.3-20.1-17.5l-0.5,0
			c-6.9,0-14,3.2-21.6,9.8l7.6,7c5.6-4.1,9.2-5.7,12.6-5.7h0.5c0,0,0,0,0.1,0c6,0.2,9.8,3.9,9.8,9.6c0,5.4-5,9.3-8,11.6l-24.5,20.1
			V280.7z"/>
	</g>
</g>
<g>
	<g>
		<path fill="#201600" d="M264.8,238c0,1.5-0.3,2.8-0.9,3.8c-0.6,1-1.4,1.9-2.4,2.5c-1,0.7-2.1,1.1-3.3,1.4
			c-1.2,0.3-2.5,0.4-3.7,0.4h-15.2v-30h15.2c1.3,0,2.4,0.2,3.5,0.5c1.1,0.4,2,0.9,2.8,1.6c0.8,0.7,1.4,1.6,1.9,2.6
			c0.4,1,0.7,2.2,0.7,3.5c0,1.3-0.2,2.5-0.7,3.5c-0.5,1-1.1,1.9-2,2.4c0.5,0.2,1,0.6,1.5,1c0.5,0.4,1,1,1.3,1.6
			c0.4,0.6,0.7,1.4,0.9,2.2C264.7,236,264.8,237,264.8,238z M243.6,229.8c0.9-0.5,1.8-0.9,2.8-1c0.9-0.1,1.9-0.2,2.9-0.2h5.1
			c1.4,0,2.4-0.3,3.3-1c0.8-0.7,1.2-1.7,1.2-3.1c0-1.4-0.4-2.4-1.2-3c-0.8-0.6-1.9-0.8-3.2-0.8h-10.8V229.8z M243.6,241.8h11.3
			c0.6,0,1.2-0.1,1.9-0.3c0.7-0.2,1.3-0.4,1.8-0.8c0.5-0.4,1-0.8,1.3-1.4c0.3-0.5,0.5-1.2,0.5-1.9c0-0.9-0.2-1.6-0.5-2.2
			c-0.3-0.6-0.8-1-1.4-1.3c-0.6-0.3-1.2-0.5-1.9-0.7c-0.7-0.1-1.4-0.2-2.1-0.2h-5.1c-1,0-1.9,0.1-2.9,0.2c-1,0.2-1.9,0.5-2.8,1
			V241.8z"/>
		<path fill="#201600" d="M254.5,246.5H239v-30.5h15.5c1.3,0,2.5,0.2,3.6,0.6c1.1,0.4,2.1,0.9,2.9,1.6c0.8,0.7,1.5,1.6,1.9,2.7
			c0.5,1,0.7,2.3,0.7,3.6c0,1.3-0.2,2.5-0.7,3.6c-0.4,0.9-1,1.7-1.8,2.3c0.4,0.2,0.8,0.5,1.2,0.9c0.5,0.5,1,1,1.4,1.7
			c0.4,0.7,0.7,1.4,1,2.3c0.2,0.8,0.4,1.8,0.4,2.9c0,1.5-0.3,2.9-0.9,3.9c-0.6,1.1-1.4,1.9-2.5,2.6c-1,0.7-2.1,1.2-3.4,1.5
			C257,246.3,255.7,246.5,254.5,246.5z M239.5,246h15c1.2,0,2.4-0.1,3.7-0.4c1.2-0.3,2.3-0.8,3.2-1.4c0.9-0.6,1.7-1.5,2.3-2.5
			c0.6-1,0.9-2.2,0.9-3.7c0-1-0.1-1.9-0.4-2.7c-0.2-0.8-0.5-1.5-0.9-2.2c-0.4-0.6-0.8-1.1-1.3-1.6c-0.5-0.4-1-0.8-1.5-1l-0.4-0.2
			l0.4-0.2c0.8-0.5,1.5-1.3,1.9-2.3c0.4-1,0.7-2.2,0.7-3.4c0-1.3-0.2-2.4-0.6-3.4c-0.4-1-1-1.8-1.8-2.5c-0.8-0.7-1.7-1.2-2.7-1.5
			c-1.1-0.4-2.2-0.5-3.4-0.5h-15V246z M254.9,242h-11.5v-7.9l0.1-0.1c0.9-0.5,1.9-0.8,2.9-1c1-0.2,2-0.2,2.9-0.2h5.1
			c0.7,0,1.5,0.1,2.2,0.2c0.7,0.1,1.4,0.4,2,0.7c0.6,0.3,1.1,0.8,1.5,1.4c0.4,0.6,0.6,1.4,0.6,2.3c0,0.8-0.2,1.5-0.6,2.1
			c-0.4,0.6-0.8,1.1-1.4,1.4c-0.6,0.4-1.2,0.7-1.9,0.8C256.2,242,255.5,242,254.9,242z M243.9,241.5h11c0.6,0,1.2-0.1,1.8-0.3
			c0.6-0.2,1.2-0.4,1.7-0.8c0.5-0.3,0.9-0.8,1.3-1.3c0.3-0.5,0.5-1.1,0.5-1.8c0-0.8-0.2-1.5-0.5-2c-0.3-0.5-0.8-0.9-1.3-1.2
			c-0.5-0.3-1.2-0.5-1.8-0.7c-0.7-0.1-1.4-0.2-2.1-0.2h-5.1c-0.9,0-1.9,0.1-2.9,0.2c-0.9,0.1-1.8,0.4-2.6,0.9V241.5z M243.4,230.3
			v-9.9h11.1c1.4,0,2.5,0.3,3.4,0.9c0.9,0.6,1.4,1.7,1.4,3.2c0,1.5-0.4,2.6-1.3,3.3c-0.8,0.7-2,1.1-3.4,1.1h-5.1
			c-1,0-1.9,0.1-2.9,0.2c-0.9,0.1-1.8,0.5-2.7,1L243.4,230.3z M243.9,220.9v8.5c0.8-0.4,1.7-0.7,2.5-0.8c1-0.1,1.9-0.2,2.9-0.2h5.1
			c1.3,0,2.3-0.3,3.1-1c0.7-0.6,1.1-1.6,1.1-2.9c0-1.3-0.4-2.3-1.1-2.8c-0.8-0.5-1.8-0.8-3.1-0.8H243.9z"/>
	</g>
	<g>
		<path fill="#201600" d="M279.4,229.5v16.7h-4.1v-16.7h-7.6v-4.1h19.6v4.1H279.4z"/>
		<path fill="#201600" d="M279.7,246.5H275v-16.7h-7.6v-4.6h20.1v4.6h-7.8V246.5z M275.5,246h3.7v-16.7h7.8v-3.7h-19.1v3.7h7.6V246z
			"/>
	</g>
	<g>
		<path fill="#201600" d="M314.8,235.6c0,1.8-0.3,3.4-1,4.7c-0.7,1.4-1.6,2.6-2.8,3.5c-1.1,1-2.5,1.7-4,2.2c-1.5,0.5-3,0.8-4.6,0.8
			c-1.6,0-3.1-0.2-4.6-0.7c-1.5-0.5-2.8-1.2-3.9-2.2c-1.1-1-2.1-2.1-2.7-3.5c-0.7-1.4-1-3-1-4.7c0-1.8,0.3-3.3,1-4.7
			c0.7-1.4,1.6-2.5,2.8-3.5c1.2-0.9,2.5-1.7,4-2.1c1.5-0.5,3-0.7,4.6-0.7c1.6,0,3.1,0.2,4.6,0.7c1.5,0.5,2.8,1.1,4,2.1
			c1.1,0.9,2.1,2.1,2.8,3.4C314.5,232.2,314.8,233.8,314.8,235.6z M310.4,235.6c0-1.2-0.2-2.2-0.7-3c-0.5-0.8-1.1-1.5-1.8-2.1
			c-0.7-0.5-1.6-1-2.5-1.2c-1-0.3-1.9-0.4-2.9-0.4c-1,0-2,0.1-3,0.4c-1,0.3-1.8,0.7-2.5,1.2c-0.7,0.6-1.3,1.3-1.8,2.1
			c-0.5,0.9-0.7,1.9-0.7,3.1c0,1.2,0.2,2.2,0.7,3.1c0.5,0.9,1.1,1.6,1.8,2.1c0.7,0.6,1.6,1,2.5,1.2c1,0.3,1.9,0.4,3,0.4
			c1,0,2-0.2,2.9-0.5c0.9-0.3,1.8-0.8,2.5-1.3c0.7-0.6,1.4-1.3,1.8-2.2C310.2,237.8,310.4,236.8,310.4,235.6z"/>
		<path fill="#201600" d="M302.5,247.1c-1.6,0-3.2-0.3-4.7-0.8c-1.5-0.5-2.8-1.2-4-2.2c-1.2-1-2.1-2.2-2.8-3.6
			c-0.7-1.4-1.1-3-1.1-4.8c0-1.8,0.4-3.4,1.1-4.8c0.7-1.4,1.7-2.6,2.8-3.5c1.2-1,2.5-1.7,4-2.2c3-1,6.3-1,9.3,0
			c1.5,0.5,2.9,1.2,4,2.1c1.2,0.9,2.1,2.1,2.8,3.5c0.7,1.4,1.1,3,1.1,4.9c0,1.8-0.4,3.4-1.1,4.9c-0.7,1.4-1.7,2.6-2.8,3.6
			c-1.2,1-2.5,1.7-4,2.3C305.6,246.9,304.1,247.1,302.5,247.1z M302.5,224.9c-1.5,0-3,0.2-4.5,0.7c-1.4,0.5-2.7,1.2-3.9,2.1
			c-1.1,0.9-2,2.1-2.7,3.4c-0.7,1.3-1,2.9-1,4.6c0,1.7,0.3,3.3,1,4.6c0.7,1.3,1.6,2.5,2.7,3.4c1.1,0.9,2.4,1.6,3.9,2.1
			c2.9,1,6.1,1,9.1,0c1.5-0.5,2.8-1.2,3.9-2.2c1.1-0.9,2-2.1,2.7-3.5c0.7-1.4,1-2.9,1-4.6c0-1.7-0.3-3.3-1-4.6
			c-0.7-1.3-1.6-2.5-2.7-3.3c-1.1-0.9-2.4-1.6-3.9-2C305.5,225.2,304,224.9,302.5,224.9z M302.5,242.9c-1,0-2.1-0.1-3-0.4
			c-1-0.3-1.9-0.7-2.6-1.3c-0.8-0.6-1.4-1.3-1.9-2.2c-0.5-0.9-0.7-2-0.7-3.2c0-1.2,0.2-2.3,0.7-3.2c0.5-0.9,1.1-1.6,1.9-2.2
			c0.8-0.6,1.6-1,2.6-1.3c1.9-0.5,4-0.5,6,0c1,0.3,1.9,0.7,2.6,1.2c0.8,0.6,1.4,1.3,1.9,2.2c0.5,0.9,0.7,1.9,0.7,3.1
			c0,1.2-0.2,2.2-0.7,3.1c-0.5,0.9-1.1,1.7-1.9,2.3c-0.8,0.6-1.6,1.1-2.6,1.4C304.5,242.7,303.5,242.9,302.5,242.9z M302.5,229.2
			c-1,0-2,0.1-2.9,0.4c-0.9,0.3-1.7,0.7-2.4,1.2c-0.7,0.5-1.3,1.2-1.7,2.1c-0.4,0.8-0.7,1.8-0.7,2.9c0,1.1,0.2,2.1,0.7,2.9
			c0.4,0.8,1,1.5,1.7,2.1c0.7,0.5,1.6,0.9,2.5,1.2c1.8,0.5,3.9,0.6,5.7-0.1c0.9-0.3,1.7-0.7,2.5-1.3c0.7-0.6,1.3-1.3,1.7-2.1
			c0.4-0.8,0.7-1.8,0.7-2.9c0-1.1-0.2-2.1-0.7-2.9c-0.4-0.8-1-1.5-1.7-2c-0.7-0.5-1.6-0.9-2.5-1.2
			C304.4,229.3,303.5,229.2,302.5,229.2z"/>
	</g>
	<g>
		<path fill="#201600" d="M320.6,246.2v-20.8h13.2c1,0,1.9,0.2,2.8,0.5c0.8,0.3,1.6,0.8,2.2,1.3c0.6,0.6,1.1,1.3,1.4,2.1
			c0.3,0.8,0.5,1.7,0.5,2.7c0,2.1-0.7,3.7-2,4.9c-1.3,1.2-3.2,1.8-5.5,1.8h-1.9c-1,0-1.8,0-2.4,0.1c-0.6,0-1.2,0.1-1.7,0.2
			c-0.5,0.1-0.9,0.2-1.3,0.4c-0.4,0.2-0.8,0.4-1.2,0.6v6.3H320.6z M324.8,235.8c0.9-0.5,1.9-0.9,3.1-1c1.1-0.1,2.3-0.2,3.5-0.2h1.9
			c1,0,1.8-0.2,2.4-0.5c0.6-0.3,0.9-1,0.9-2.1c0-0.5-0.1-0.9-0.3-1.2c-0.2-0.3-0.4-0.5-0.7-0.7c-0.3-0.2-0.7-0.3-1-0.4
			c-0.4-0.1-0.8-0.1-1.2-0.1h-8.4V235.8z"/>
		<path fill="#201600" d="M325,246.5h-4.6v-21.3h13.5c1,0,2,0.2,2.8,0.5c0.9,0.3,1.6,0.8,2.2,1.4c0.6,0.6,1.1,1.3,1.4,2.2
			c0.3,0.8,0.5,1.8,0.5,2.8c0,2.2-0.7,3.9-2.1,5.1c-1.4,1.2-3.3,1.9-5.7,1.9h-1.9c-1,0-1.8,0-2.4,0.1c-0.6,0-1.2,0.1-1.6,0.2
			c-0.4,0.1-0.9,0.2-1.2,0.3c-0.3,0.1-0.7,0.3-1.1,0.5V246.5z M320.9,246h3.6v-6.2l0.1-0.1c0.5-0.2,0.9-0.4,1.3-0.6
			c0.4-0.2,0.8-0.3,1.3-0.4c0.5-0.1,1-0.1,1.7-0.2c0.6,0,1.4-0.1,2.4-0.1h1.9c2.3,0,4.1-0.6,5.4-1.7c1.3-1.1,1.9-2.7,1.9-4.7
			c0-1-0.2-1.8-0.5-2.6c-0.3-0.8-0.8-1.5-1.3-2c-0.6-0.5-1.3-1-2.1-1.3c-0.8-0.3-1.7-0.4-2.7-0.4h-13V246z M324.5,236.2v-6.9h8.7
			c0.4,0,0.9,0,1.3,0.1c0.4,0.1,0.8,0.2,1.1,0.4c0.3,0.2,0.6,0.5,0.8,0.8c0.2,0.3,0.3,0.8,0.3,1.4c0,1.2-0.3,2-1,2.4
			c-0.6,0.3-1.5,0.5-2.5,0.5h-1.9c-1.2,0-2.4,0.1-3.5,0.2c-1.1,0.1-2.1,0.5-3,1L324.5,236.2z M325,229.8v5.6
			c0.8-0.4,1.8-0.7,2.8-0.8c1.1-0.1,2.3-0.2,3.5-0.2h1.9c0.9,0,1.7-0.2,2.3-0.5c0.5-0.3,0.8-0.9,0.8-1.9c0-0.5-0.1-0.8-0.2-1.1
			c-0.2-0.3-0.4-0.5-0.7-0.6c-0.3-0.2-0.6-0.3-1-0.3c-0.4-0.1-0.8-0.1-1.2-0.1H325z"/>
	</g>
	<g>
		<path fill="#201600" d="M349.5,224.9h4.5l11.3,21.3h-4.5l-1.7-3.1h-2.5c-1.3,0-2.6,0.1-3.8,0.3c-1.3,0.2-2.4,0.5-3.4,0.8
			c-1,0.3-1.9,0.6-2.6,1c-0.7,0.3-1.1,0.6-1.3,0.8l-0.1,0.2h-4.3l10-18.7L349.5,224.9z M357,239.3l-4.1-7.7l-5,9.5
			c0.7-0.3,1.7-0.7,3.1-1.2c1.4-0.4,3.2-0.6,5.4-0.6H357z"/>
		<path fill="#201600" d="M365.6,246.5h-5.1l-1.6-3.1h-2.3c-1.3,0-2.5,0.1-3.8,0.3c-1.2,0.2-2.4,0.5-3.4,0.8c-1,0.3-1.9,0.6-2.6,1
			c-0.8,0.4-1.1,0.6-1.2,0.7l-0.2,0.4h-4.9l10.1-19l-1.5-2.9h5l0.1,0.1L365.6,246.5z M360.8,246h4l-11-20.8h-3.9l1.2,2.4l-0.1,0.1
			l-9.8,18.4h3.8l0.1-0.1c0.2-0.3,0.6-0.5,1.4-0.9c0.7-0.3,1.6-0.7,2.7-1c1-0.3,2.2-0.6,3.5-0.8c1.3-0.2,2.6-0.3,3.9-0.3h2.6
			L360.8,246z M347.4,241.7L353,231l4.5,8.5h-1c-2.1,0-3.9,0.2-5.3,0.6c-1.4,0.4-2.4,0.8-3.1,1.2L347.4,241.7z M353,232.1l-4.4,8.5
			c0.6-0.3,1.5-0.6,2.5-0.9c1.4-0.4,3.2-0.7,5.4-0.7h0.2L353,232.1z"/>
	</g>
	<g>
		<path fill="#201600" d="M377,242.9c-0.5,0.8-0.9,1.4-1.4,1.8c-0.5,0.4-0.9,0.8-1.4,1c-0.5,0.2-1,0.3-1.6,0.4
			c-0.6,0.1-1.2,0.1-1.8,0.1H369V242h2.1c0.4,0,0.8-0.1,1.2-0.4c0.4-0.2,0.9-0.8,1.5-1.7l0.8-1.3c-1.8-0.4-3.1-1.1-4-2.2
			c-0.9-1.1-1.3-2.5-1.3-4.2c0-1,0.2-1.9,0.5-2.7c0.3-0.8,0.8-1.5,1.5-2.1c0.6-0.6,1.4-1.1,2.3-1.4c0.9-0.3,1.8-0.5,2.9-0.5h12.8
			v20.8h-4.2v-6.1c-0.5-0.2-0.9-0.4-1.2-0.6c-0.4-0.1-0.8-0.3-1.2-0.4c-0.4-0.1-0.9-0.2-1.4-0.2c-0.5-0.1-1.1-0.1-1.9-0.1L377,242.9
			z M385.1,229.6l-7,0c-0.5,0-0.9,0-1.3,0.1c-0.4,0-0.9,0.1-1.2,0.3c-0.4,0.2-0.7,0.4-0.9,0.8c-0.2,0.3-0.3,0.8-0.3,1.3
			c0,0.6,0.1,1,0.3,1.3c0.2,0.3,0.5,0.6,0.9,0.7c0.4,0.2,0.8,0.3,1.2,0.3c0.4,0,0.9,0.1,1.3,0.1c1.5,0,2.8,0.1,3.9,0.2
			c1.2,0.1,2.2,0.5,3.1,1V229.6z"/>
		<path fill="#201600" d="M389.6,246.5h-4.7v-6.2c-0.4-0.2-0.8-0.4-1.1-0.5c-0.4-0.1-0.7-0.3-1.1-0.4c-0.4-0.1-0.9-0.2-1.4-0.2
			c-0.5,0-1.1-0.1-1.7-0.1l-2.3,4c-0.5,0.8-0.9,1.4-1.4,1.9c-0.5,0.5-1,0.8-1.5,1c-0.5,0.2-1.1,0.4-1.7,0.4
			c-0.6,0.1-1.2,0.1-1.8,0.1h-2.1v-4.7h2.4c0.3,0,0.7-0.1,1.1-0.3c0.4-0.2,0.9-0.8,1.4-1.6l0.7-1c-1.7-0.4-2.9-1.2-3.8-2.2
			c-0.9-1.2-1.4-2.6-1.4-4.4c0-1,0.2-2,0.5-2.8c0.4-0.8,0.9-1.6,1.5-2.2c0.7-0.6,1.5-1.1,2.4-1.5c0.9-0.3,1.9-0.5,3-0.5h13V246.5z
			 M385.3,246h3.7v-20.4h-12.5c-1,0-1.9,0.2-2.8,0.5c-0.8,0.3-1.6,0.8-2.2,1.4c-0.6,0.6-1.1,1.3-1.4,2c-0.3,0.8-0.5,1.7-0.5,2.6
			c0,1.6,0.4,3,1.3,4.1c0.8,1.1,2.1,1.8,3.8,2.1l0.3,0.1l-1,1.6c-0.6,1-1.1,1.5-1.6,1.8c-0.5,0.3-0.9,0.4-1.3,0.4h-1.9v3.7h1.6
			c0.6,0,1.2,0,1.8-0.1c0.5-0.1,1.1-0.2,1.5-0.4c0.5-0.2,0.9-0.5,1.4-0.9c0.4-0.4,0.9-1,1.3-1.8l2.4-4.3l0.1,0
			c0.7,0,1.4,0.1,1.9,0.1c0.5,0.1,1,0.1,1.4,0.2c0.4,0.1,0.8,0.2,1.2,0.4c0.4,0.2,0.8,0.4,1.2,0.6l0.1,0.1V246z M385.3,236.1
			l-0.4-0.2c-0.9-0.5-1.9-0.8-3-1c-1.1-0.1-2.5-0.2-3.9-0.2c-0.5,0-0.9,0-1.4-0.1c-0.5,0-0.9-0.2-1.3-0.3c-0.4-0.2-0.8-0.5-1-0.8
			c-0.3-0.4-0.4-0.9-0.4-1.5c0-0.6,0.1-1.1,0.4-1.5c0.3-0.4,0.6-0.7,1-0.8c0.4-0.2,0.8-0.3,1.3-0.3c0.4,0,0.9-0.1,1.4-0.1h0l7.3,0
			V236.1z M378,229.8c-0.4,0-0.9,0-1.3,0.1c-0.4,0-0.8,0.1-1.1,0.3c-0.3,0.2-0.6,0.4-0.8,0.7c-0.2,0.3-0.3,0.7-0.3,1.2
			c0,0.5,0.1,0.9,0.3,1.2c0.2,0.3,0.5,0.5,0.8,0.7c0.3,0.2,0.7,0.3,1.1,0.3c0.4,0,0.9,0.1,1.3,0.1c1.5,0,2.8,0.1,4,0.2
			c1,0.1,2,0.4,2.8,0.8v-5.5L378,229.8z"/>
	</g>
	<g>
		<path fill="#201600" d="M262.3,269.1c0,1.8-0.3,3.4-1,4.7c-0.7,1.4-1.6,2.6-2.8,3.5c-1.1,1-2.5,1.7-4,2.2c-1.5,0.5-3,0.8-4.6,0.8
			c-1.6,0-3.1-0.2-4.6-0.7c-1.5-0.5-2.8-1.2-3.9-2.2c-1.1-1-2.1-2.1-2.7-3.5c-0.7-1.4-1-3-1-4.7c0-1.8,0.3-3.3,1-4.7
			c0.7-1.4,1.6-2.5,2.8-3.5c1.2-0.9,2.5-1.7,4-2.1c1.5-0.5,3-0.7,4.6-0.7c1.6,0,3.1,0.2,4.6,0.7c1.5,0.5,2.8,1.1,4,2.1
			c1.1,0.9,2.1,2.1,2.8,3.4C261.9,265.8,262.3,267.3,262.3,269.1z M257.9,269.2c0-1.2-0.2-2.2-0.7-3s-1.1-1.5-1.8-2.1
			c-0.7-0.5-1.6-1-2.5-1.2c-1-0.3-1.9-0.4-2.9-0.4c-1,0-2,0.1-3,0.4c-1,0.3-1.8,0.7-2.5,1.2c-0.7,0.6-1.3,1.3-1.8,2.1
			c-0.5,0.9-0.7,1.9-0.7,3.1c0,1.2,0.2,2.2,0.7,3.1c0.5,0.9,1.1,1.6,1.8,2.1c0.7,0.6,1.6,1,2.5,1.2c1,0.3,1.9,0.4,3,0.4
			c1,0,2-0.2,2.9-0.5c0.9-0.3,1.8-0.8,2.5-1.3c0.7-0.6,1.4-1.3,1.8-2.2C257.7,271.3,257.9,270.3,257.9,269.2z"/>
		<path fill="#201600" d="M249.9,280.7c-1.6,0-3.2-0.3-4.7-0.8c-1.5-0.5-2.8-1.2-4-2.2c-1.2-1-2.1-2.2-2.8-3.6
			c-0.7-1.4-1.1-3-1.1-4.8c0-1.8,0.4-3.4,1.1-4.8c0.7-1.4,1.7-2.6,2.8-3.5c1.2-1,2.5-1.7,4-2.2c3-1,6.3-1,9.3,0
			c1.5,0.5,2.9,1.2,4,2.1c1.2,0.9,2.1,2.1,2.8,3.5c0.7,1.4,1.1,3,1.1,4.9c0,1.8-0.4,3.4-1.1,4.9c-0.7,1.4-1.7,2.6-2.8,3.6
			c-1.2,1-2.5,1.7-4,2.3C253.1,280.4,251.5,280.7,249.9,280.7z M250,258.5c-1.5,0-3,0.2-4.5,0.7c-1.4,0.5-2.7,1.2-3.9,2.1
			c-1.1,0.9-2,2.1-2.7,3.4c-0.7,1.3-1,2.9-1,4.6c0,1.7,0.3,3.3,1,4.6c0.7,1.3,1.6,2.5,2.7,3.4c1.1,0.9,2.4,1.6,3.9,2.1
			c2.9,1,6.1,1,9.1,0c1.5-0.5,2.8-1.2,3.9-2.2c1.1-0.9,2-2.1,2.7-3.5c0.7-1.4,1-2.9,1-4.6c0-1.7-0.3-3.3-1-4.6
			c-0.7-1.3-1.6-2.5-2.7-3.3c-1.1-0.9-2.4-1.6-3.9-2C253,258.7,251.5,258.5,250,258.5z M250,276.4c-1,0-2.1-0.1-3-0.4
			c-1-0.3-1.9-0.7-2.6-1.3c-0.8-0.6-1.4-1.3-1.9-2.2c-0.5-0.9-0.7-2-0.7-3.2c0-1.2,0.2-2.3,0.7-3.2c0.5-0.9,1.1-1.6,1.9-2.2
			c0.8-0.6,1.6-1,2.6-1.3c1.9-0.5,4-0.5,6,0c1,0.3,1.9,0.7,2.6,1.2c0.8,0.6,1.4,1.3,1.9,2.2c0.5,0.9,0.7,1.9,0.7,3.1
			c0,1.2-0.2,2.2-0.7,3.1c-0.5,0.9-1.1,1.7-1.9,2.3c-0.8,0.6-1.6,1.1-2.6,1.4C252,276.3,251,276.4,250,276.4z M250,262.7
			c-1,0-2,0.1-2.9,0.4c-0.9,0.3-1.7,0.7-2.4,1.2c-0.7,0.5-1.3,1.2-1.7,2.1c-0.4,0.8-0.7,1.8-0.7,2.9c0,1.1,0.2,2.1,0.7,2.9
			c0.4,0.8,1,1.5,1.7,2.1c0.7,0.5,1.6,0.9,2.5,1.2c1.8,0.5,3.9,0.6,5.7-0.1c0.9-0.3,1.7-0.7,2.5-1.3c0.7-0.6,1.3-1.3,1.7-2.1
			c0.4-0.8,0.7-1.8,0.7-2.9c0-1.1-0.2-2.1-0.7-2.9c-0.4-0.8-1-1.5-1.7-2c-0.7-0.5-1.6-0.9-2.5-1.2
			C251.9,262.9,250.9,262.7,250,262.7z"/>
	</g>
	<g>
		<path fill="#201600" d="M285.1,258.9v20.8H281v-7.6c-0.8,0.3-1.7,0.6-2.5,0.7c-0.8,0.1-1.8,0.2-2.9,0.2c-1.4,0-2.7-0.1-3.9-0.4
			c-1.2-0.2-2.1-0.6-2.9-1.2c-0.8-0.5-1.4-1.3-1.9-2.2c-0.4-0.9-0.6-2-0.6-3.3c0-1.2,0.1-2.4,0.2-3.6c0.1-1.2,0.3-2.4,0.6-3.5h4.1
			c-0.3,1-0.5,2.1-0.6,3c-0.1,1-0.2,2-0.2,3c0,1.5,0.4,2.5,1.2,3.1c0.8,0.6,2.2,0.8,4.1,0.8c0.5,0,0.9,0,1.3,0
			c0.4,0,0.8-0.1,1.1-0.2c0.4-0.1,0.8-0.2,1.2-0.3c0.4-0.1,1-0.3,1.5-0.5v-9H285.1z"/>
		<path fill="#201600" d="M285.3,280h-4.6v-7.5c-0.7,0.3-1.5,0.5-2.2,0.6c-0.8,0.1-1.8,0.2-2.9,0.2c-1.4,0-2.7-0.1-3.9-0.4
			c-1.2-0.2-2.2-0.7-3-1.2c-0.8-0.6-1.5-1.3-1.9-2.3c-0.4-0.9-0.7-2.1-0.7-3.4c0-1.2,0.1-2.4,0.2-3.6c0.1-1.2,0.3-2.4,0.7-3.6
			l0.1-0.2h4.6l-0.1,0.3c-0.3,1-0.5,2-0.6,3c-0.1,1-0.2,2-0.2,3c0,1.4,0.4,2.4,1.1,2.9c0.8,0.5,2.1,0.8,3.9,0.8c0.5,0,0.9,0,1.3,0
			c0.4,0,0.7-0.1,1.1-0.2c0.4-0.1,0.8-0.2,1.2-0.3c0.4-0.1,0.9-0.2,1.4-0.4v-9.1h4.6V280z M281.2,279.5h3.6v-20.4h-3.6v8.9l-0.2,0.1
			c-0.6,0.2-1.1,0.3-1.6,0.5c-0.4,0.1-0.9,0.2-1.3,0.3c-0.4,0.1-0.8,0.1-1.2,0.2c-0.4,0-0.8,0-1.3,0c-2,0-3.4-0.3-4.2-0.9
			c-0.9-0.6-1.3-1.7-1.3-3.3c0-1,0.1-2,0.2-3c0.1-0.9,0.3-1.8,0.5-2.8h-3.6c-0.3,1.1-0.5,2.2-0.6,3.3c-0.1,1.2-0.2,2.4-0.2,3.6
			c0,1.2,0.2,2.3,0.6,3.2c0.4,0.9,1,1.5,1.8,2.1c0.8,0.5,1.7,0.9,2.9,1.1c1.1,0.2,2.4,0.4,3.8,0.4c1.1,0,2.1-0.1,2.9-0.2
			c0.8-0.1,1.6-0.4,2.4-0.7l0.3-0.1V279.5z"/>
	</g>
	<g>
		<path fill="#201600" d="M296.6,275.6h13.1v4.2h-17.2v-20.8h16.4v4.1h-12.3v5.1c0.9-0.5,1.9-0.9,3-1c1.1-0.1,2.3-0.2,3.5-0.2h3.1
			v4.1h-3.1c-1,0-1.8,0-2.4,0.1c-0.6,0-1.2,0.1-1.6,0.2c-0.5,0.1-0.9,0.2-1.2,0.4c-0.4,0.2-0.8,0.4-1.2,0.6V275.6z"/>
		<path fill="#201600" d="M309.9,280h-17.7v-21.3h16.9v4.6h-12.3v4.4c0.8-0.4,1.8-0.7,2.8-0.8c1.1-0.1,2.3-0.2,3.5-0.2h3.3v4.6h-3.3
			c-1,0-1.8,0-2.4,0.1c-0.6,0-1.2,0.1-1.6,0.2c-0.4,0.1-0.8,0.2-1.2,0.3c-0.3,0.1-0.7,0.3-1.1,0.5v2.9h13.1V280z M292.7,279.5h16.7
			v-3.7h-13.1v-3.7l0.1-0.1c0.5-0.2,0.9-0.4,1.3-0.6c0.4-0.2,0.8-0.3,1.3-0.4c0.5-0.1,1-0.1,1.7-0.2c0.6,0,1.4-0.1,2.4-0.1h2.8v-3.7
			h-2.8c-1.2,0-2.4,0.1-3.5,0.2c-1.1,0.1-2.1,0.5-2.9,1l-0.4,0.2v-5.8h12.3v-3.7h-15.9V279.5z"/>
	</g>
	<g>
		<path fill="#201600" d="M315.4,279.8v-20.8h13.2c1,0,1.9,0.2,2.8,0.5c0.8,0.3,1.6,0.8,2.2,1.3c0.6,0.6,1.1,1.3,1.4,2.1
			c0.3,0.8,0.5,1.7,0.5,2.7c0,2.1-0.7,3.7-2,4.9c-1.3,1.2-3.2,1.8-5.5,1.8H326c-1,0-1.8,0-2.4,0.1c-0.6,0-1.2,0.1-1.7,0.2
			c-0.5,0.1-0.9,0.2-1.3,0.4c-0.4,0.2-0.8,0.4-1.2,0.6v6.3H315.4z M319.5,269.3c0.9-0.5,1.9-0.9,3.1-1c1.1-0.1,2.3-0.2,3.5-0.2h1.9
			c1,0,1.8-0.2,2.4-0.5c0.6-0.3,0.9-1,0.9-2.1c0-0.5-0.1-0.9-0.3-1.2c-0.2-0.3-0.4-0.5-0.7-0.7c-0.3-0.2-0.7-0.3-1-0.4
			c-0.4-0.1-0.8-0.1-1.2-0.1h-8.4V269.3z"/>
		<path fill="#201600" d="M319.7,280h-4.6v-21.3h13.5c1,0,2,0.2,2.8,0.5c0.9,0.3,1.6,0.8,2.2,1.4c0.6,0.6,1.1,1.3,1.4,2.2
			c0.3,0.8,0.5,1.8,0.5,2.8c0,2.2-0.7,3.9-2.1,5.1c-1.4,1.2-3.3,1.9-5.7,1.9H326c-1,0-1.8,0-2.4,0.1c-0.6,0-1.2,0.1-1.6,0.2
			c-0.4,0.1-0.9,0.2-1.2,0.3c-0.3,0.1-0.7,0.3-1.1,0.5V280z M315.6,279.5h3.6v-6.2l0.1-0.1c0.5-0.2,0.9-0.4,1.3-0.6
			c0.4-0.2,0.8-0.3,1.3-0.4c0.5-0.1,1-0.1,1.7-0.2c0.6,0,1.4-0.1,2.4-0.1h1.9c2.3,0,4.1-0.6,5.4-1.7c1.3-1.1,1.9-2.7,1.9-4.7
			c0-1-0.2-1.8-0.5-2.6c-0.3-0.8-0.8-1.5-1.3-2c-0.6-0.5-1.3-1-2.1-1.3c-0.8-0.3-1.7-0.4-2.7-0.4h-13V279.5z M319.2,269.7v-6.9h8.7
			c0.4,0,0.9,0,1.3,0.1c0.4,0.1,0.8,0.2,1.1,0.4c0.3,0.2,0.6,0.5,0.8,0.8c0.2,0.3,0.3,0.8,0.3,1.4c0,1.2-0.3,2-1,2.4
			c-0.6,0.3-1.5,0.5-2.5,0.5H326c-1.2,0-2.4,0.1-3.5,0.2c-1.1,0.1-2.1,0.5-3,1L319.2,269.7z M319.7,263.3v5.6
			c0.8-0.4,1.8-0.7,2.8-0.8c1.1-0.1,2.3-0.2,3.5-0.2h1.9c0.9,0,1.7-0.2,2.3-0.5c0.5-0.3,0.8-0.9,0.8-1.9c0-0.5-0.1-0.8-0.2-1.1
			c-0.2-0.3-0.4-0.5-0.7-0.6c-0.3-0.2-0.6-0.3-1-0.3c-0.4-0.1-0.8-0.1-1.2-0.1H319.7z"/>
	</g>
	<g>
		<path fill="#201600" d="M344.6,275.6h13.1v4.2h-17.2v-20.8h16.4v4.1h-12.3v5.1c0.9-0.5,1.9-0.9,3-1c1.1-0.1,2.3-0.2,3.5-0.2h3.1
			v4.1h-3.1c-1,0-1.8,0-2.4,0.1c-0.6,0-1.2,0.1-1.6,0.2c-0.5,0.1-0.9,0.2-1.2,0.4c-0.4,0.2-0.8,0.4-1.2,0.6V275.6z"/>
		<path fill="#201600" d="M357.9,280h-17.7v-21.3h16.9v4.6h-12.3v4.4c0.8-0.4,1.8-0.7,2.8-0.8c1.1-0.1,2.3-0.2,3.5-0.2h3.3v4.6h-3.3
			c-1,0-1.8,0-2.4,0.1c-0.6,0-1.2,0.1-1.6,0.2c-0.4,0.1-0.8,0.2-1.2,0.3c-0.3,0.1-0.7,0.3-1.1,0.5v2.9h13.1V280z M340.8,279.5h16.7
			v-3.7h-13.1v-3.7l0.1-0.1c0.5-0.2,0.9-0.5,1.3-0.6c0.4-0.2,0.8-0.3,1.3-0.4c0.5-0.1,1-0.1,1.7-0.2c0.6,0,1.4-0.1,2.4-0.1h2.8v-3.7
			h-2.8c-1.2,0-2.4,0.1-3.5,0.2c-1.1,0.1-2.1,0.5-2.9,1l-0.4,0.2v-5.8h12.3v-3.7h-15.9V279.5z"/>
	</g>
	<g>
		<path fill="#201600" d="M383,284.4v-4.6h-17.2v4.6h-4.2v-8.8h4c1-1.3,1.8-2.5,2.4-3.6c0.6-1.1,1.1-2.2,1.4-3.3c0.3-1,0.6-2,0.8-3
			c0.2-0.9,0.4-1.8,0.6-2.7h-3.3l-1.9-4.1h19v16.7h2.6v8.8H383z M380.4,275.6v-12.5h-5.4c-0.2,1.1-0.5,2.2-0.8,3.4
			c-0.3,1.2-0.6,2.3-1,3.4c-0.4,1.1-0.8,2.1-1.2,3.1c-0.5,1-1,1.9-1.5,2.6H380.4z"/>
		<path fill="#201600" d="M387.4,284.6h-4.7V280H366v4.6h-4.7v-9.3h4.2c0.9-1.2,1.7-2.4,2.3-3.5c0.6-1.1,1.1-2.2,1.4-3.2
			c0.3-1,0.6-2,0.8-2.9c0.2-0.8,0.3-1.6,0.5-2.4h-3.2l-2.1-4.6h19.6v16.7h2.6V284.6z M383.2,284.1h3.7v-8.3h-2.6v-16.7H366l1.6,3.7
			h3.4l-0.1,0.3c-0.2,0.9-0.4,1.8-0.6,2.7c-0.2,0.9-0.5,1.9-0.8,3c-0.3,1-0.8,2.2-1.4,3.3c-0.6,1.1-1.4,2.4-2.4,3.6l-0.1,0.1h-3.9
			v8.3h3.7v-4.6h17.7V284.1z M380.7,275.8H370l0.3-0.4c0.5-0.7,1.1-1.6,1.5-2.6c0.5-1,0.9-2,1.2-3.1c0.4-1.1,0.7-2.2,1-3.4
			c0.3-1.2,0.6-2.3,0.8-3.4l0-0.2h5.8V275.8z M371,275.3h9.2v-12h-4.9c-0.2,1-0.5,2.1-0.8,3.2c-0.3,1.2-0.6,2.3-1,3.4
			c-0.4,1.1-0.8,2.2-1.3,3.2C371.9,273.9,371.4,274.7,371,275.3z"/>
	</g>
	<g>
		<path fill="#201600" d="M396.8,265.5c0.5,0.2,0.9,0.4,1.2,0.6c0.4,0.2,0.8,0.3,1.2,0.4c0.5,0.1,1,0.1,1.6,0.2
			c0.6,0,1.4,0.1,2.4,0.1h2.1c1,0,2,0.1,2.9,0.4c0.9,0.3,1.7,0.7,2.3,1.2c0.7,0.5,1.2,1.2,1.6,2.1c0.4,0.8,0.6,1.8,0.6,2.9
			c0,1.1-0.2,2.1-0.6,2.9c-0.4,0.8-0.9,1.5-1.6,2c-0.7,0.5-1.4,0.9-2.3,1.2c-0.9,0.3-1.9,0.4-2.9,0.4h-12.8v-20.8h4.1V265.5z
			 M405.5,275.6c0.4,0,0.8,0,1.2-0.1c0.4-0.1,0.7-0.2,1-0.4c0.3-0.2,0.5-0.4,0.7-0.7c0.2-0.3,0.3-0.7,0.3-1.2c0-0.5-0.1-0.9-0.3-1.2
			c-0.2-0.3-0.4-0.5-0.7-0.7c-0.3-0.2-0.6-0.3-1-0.3c-0.4-0.1-0.8-0.1-1.2-0.1h-2.1c-1.2,0-2.4-0.1-3.5-0.2c-1.1-0.1-2.1-0.5-3-1v6
			H405.5z"/>
		<path fill="#201600" d="M405.5,280h-13v-21.3h4.6v6.7c0.4,0.2,0.8,0.4,1.1,0.5c0.4,0.2,0.8,0.3,1.2,0.3c0.4,0.1,1,0.1,1.6,0.2
			c0.6,0,1.4,0.1,2.4,0.1h2.1c1.1,0,2.1,0.1,3,0.4c0.9,0.3,1.7,0.7,2.4,1.3c0.7,0.6,1.2,1.3,1.6,2.1c0.4,0.9,0.6,1.9,0.6,3
			c0,1.1-0.2,2.1-0.6,3c-0.4,0.8-1,1.6-1.6,2.1c-0.7,0.6-1.5,1-2.4,1.3C407.5,279.9,406.5,280,405.5,280z M392.9,279.5h12.6
			c1,0,2-0.1,2.8-0.4c0.9-0.3,1.6-0.6,2.2-1.2c0.6-0.5,1.1-1.2,1.5-1.9c0.4-0.8,0.6-1.7,0.6-2.8c0-1-0.2-2-0.6-2.8
			c-0.4-0.8-0.9-1.5-1.5-2c-0.6-0.5-1.4-0.9-2.3-1.2c-0.9-0.3-1.8-0.4-2.8-0.4h-2.1c-1,0-1.8,0-2.4-0.1c-0.6,0-1.2-0.1-1.7-0.2
			c-0.5-0.1-0.9-0.2-1.3-0.4c-0.4-0.2-0.8-0.4-1.3-0.6l-0.1-0.1v-6.5h-3.7V279.5z M405.5,275.8h-8.9v-6.6l0.4,0.2
			c0.9,0.5,1.9,0.8,2.9,1c1.1,0.1,2.3,0.2,3.5,0.2h2.1c0.4,0,0.8,0,1.2,0.1c0.4,0.1,0.8,0.2,1.1,0.4c0.3,0.2,0.6,0.5,0.8,0.8
			c0.2,0.3,0.3,0.8,0.3,1.3c0,0.6-0.1,1-0.3,1.4c-0.2,0.3-0.5,0.6-0.8,0.8c-0.3,0.2-0.7,0.3-1.1,0.4
			C406.3,275.8,405.9,275.8,405.5,275.8z M397.1,275.3h8.4c0.4,0,0.8,0,1.2-0.1c0.4-0.1,0.7-0.2,0.9-0.3c0.3-0.2,0.5-0.4,0.6-0.6
			c0.2-0.3,0.2-0.6,0.2-1.1c0-0.4-0.1-0.8-0.2-1.1c-0.2-0.3-0.4-0.5-0.6-0.6c-0.3-0.2-0.6-0.3-1-0.3c-0.4-0.1-0.8-0.1-1.2-0.1h-2.1
			c-1.2,0-2.4-0.1-3.5-0.2c-1-0.1-1.9-0.4-2.8-0.8V275.3z"/>
	</g>
</g>
</svg>
