<?xml version="1.0" encoding="utf-8"?>
<!-- Generator: Adobe Illustrator 18.1.0, SVG Export Plug-In . SVG Version: 6.00 Build 0)  -->
<!DOCTYPE svg PUBLIC "-//W3C//DTD SVG 1.1//EN" "http://www.w3.org/Graphics/SVG/1.1/DTD/svg11.dtd">
<svg version="1.1" id="Слой_2" xmlns="http://www.w3.org/2000/svg" xmlns:xlink="http://www.w3.org/1999/xlink" x="0px" y="0px"
	 viewBox="0 0 70.1 52.9" enable-background="new 0 0 70.1 52.9" xml:space="preserve">
<g>
	<g>
		<rect x="0" y="0" fill="#E2C749" width="70.1" height="52.9"/>
	</g>
	<g>
		<g>
			<path fill="#D8A348" d="M25.9,25.9c0-8.4,6.8-15.2,15.2-15.2c8.4,0,15.2,6.8,15.2,15.2c0,8.4-6.8,15.2-15.2,15.2
				C32.7,41.1,25.9,34.3,25.9,25.9z"/>
			<path fill="#000301" d="M41.1,41.5c-8.6,0-15.6-7-15.6-15.6c0-8.6,7-15.6,15.6-15.6c8.6,0,15.6,7,15.6,15.6
				C56.7,34.5,49.7,41.5,41.1,41.5z M41.1,11.2c-8.1,0-14.7,6.6-14.7,14.7c0,8.1,6.6,14.7,14.7,14.7c8.1,0,14.7-6.6,14.7-14.7
				C55.8,17.8,49.2,11.2,41.1,11.2z"/>
		</g>
		<g>
			<g>
				<path fill="#7AB97A" d="M39.7,34.8v-9.8l-1.6,1.9l-2.8-2.1l6.1-7.3H44v17.3H39.7z"/>
				<path fill="#000301" d="M44,35.2h-4.3c-0.3,0-0.5-0.2-0.5-0.5v-8.5l-0.8,0.9c-0.2,0.2-0.4,0.2-0.6,0.1l-2.8-2.1
					c-0.1-0.1-0.2-0.2-0.2-0.3c0-0.1,0-0.3,0.1-0.4l6.1-7.3c0.1-0.1,0.2-0.2,0.4-0.2H44c0.3,0,0.5,0.2,0.5,0.5v17.3
					C44.4,35,44.2,35.2,44,35.2z M40.1,34.3h3.4V17.9h-1.9L36,24.7l2,1.5l1.3-1.6c0.1-0.2,0.3-0.2,0.5-0.1c0.2,0.1,0.3,0.2,0.3,0.4
					V34.3z"/>
			</g>
		</g>
	</g>
	<g>
		<path fill="#00001F" d="M20.5,32.9c0.1,0,0.3-0.1,0.4-0.2c0.2-0.2,0.2-0.6,0-0.8l-5.7-5.7l5.7-5.7c0.2-0.2,0.2-0.6,0-0.8
			c-0.2-0.2-0.6-0.2-0.8,0l-6.1,6.1c-0.2,0.2-0.2,0.6,0,0.8l6.1,6.1C20.2,32.9,20.3,32.9,20.5,32.9z"/>
	</g>
</g>
</svg>
