<?xml version="1.0" encoding="utf-8"?>
<!-- Generator: Adobe Illustrator 18.1.0, SVG Export Plug-In . SVG Version: 6.00 Build 0)  -->
<!DOCTYPE svg PUBLIC "-//W3C//DTD SVG 1.1//EN" "http://www.w3.org/Graphics/SVG/1.1/DTD/svg11.dtd">
<svg version="1.1" id="Слой_2" xmlns="http://www.w3.org/2000/svg" xmlns:xlink="http://www.w3.org/1999/xlink" x="0px" y="0px"
	 viewBox="0 0 139.3 52.9" enable-background="new 0 0 139.3 52.9" xml:space="preserve">
<g>
	<g>
		<rect x="0" y="0" fill="#E2C749" width="139.3" height="52.9"/>
	</g>
	<g>
		<g>
			<path fill="#6273B3" d="M28.4,26.9c0-8.4,6.8-15.2,15.2-15.2c8.4,0,15.2,6.8,15.2,15.2c0,8.4-6.8,15.2-15.2,15.2
				C35.2,42.1,28.4,35.3,28.4,26.9z"/>
			<path fill="#000301" d="M43.6,42.6c-8.6,0-15.6-7-15.6-15.6c0-8.6,7-15.6,15.6-15.6c8.6,0,15.6,7,15.6,15.6
				C59.2,35.6,52.2,42.6,43.6,42.6z M43.6,12.2c-8.1,0-14.7,6.6-14.7,14.7c0,8.1,6.6,14.7,14.7,14.7c8.1,0,14.7-6.6,14.7-14.7
				C58.3,18.8,51.7,12.2,43.6,12.2z"/>
		</g>
		<g>
			<g>
				<path fill="#60B5AE" d="M45.5,25.3c0.2,0,0.5,0,0.7,0.1c2.8,0.5,4.3,2.6,4.3,5c0,2.8-1.8,5.5-6.6,5.6h-0.2c-2.9,0-5.3-1.3-7.3-3
					l2.8-2.6c2.1,1.3,3.2,1.5,4.4,1.5h0.2c1.6,0,2.6-1,2.6-2.2c0-1.3-0.8-2.2-2.8-2.2c-1,0-1.9,0.5-2.3,0.7l-2-1.5l4-4.2h-5.4v-4
					h11.6V21L45.5,25.3z"/>
				<path fill="#00001F" d="M43.9,36.4h-0.2c-2.7,0-5.2-1-7.6-3.1C36.1,33.2,36,33.1,36,33c0-0.1,0.1-0.3,0.1-0.3L39,30
					c0.2-0.1,0.4-0.2,0.6-0.1c1.9,1.2,3,1.4,4.1,1.4h0.2c1,0,2.1-0.6,2.1-1.7c0-1.2-0.8-1.8-2.3-1.8c-0.8,0-1.5,0.3-1.9,0.5
					c-0.1,0-0.1,0.1-0.2,0.1c-0.2,0.1-0.3,0-0.5-0.1l-2-1.5c-0.1-0.1-0.2-0.2-0.2-0.3c0-0.1,0-0.3,0.1-0.4l3.3-3.4h-4.3
					c-0.3,0-0.5-0.2-0.5-0.5v-4c0-0.3,0.2-0.5,0.5-0.5h11.6c0.3,0,0.5,0.2,0.5,0.5V21c0,0.1,0,0.2-0.1,0.3l-3.5,3.6
					c2.7,0.6,4.5,2.7,4.5,5.5C50.9,33.3,49.1,36.4,43.9,36.4C43.9,36.4,43.9,36.4,43.9,36.4z M37.2,33c2.1,1.7,4.3,2.6,6.6,2.6h0.2
					c3.8,0,6.1-1.9,6.1-5.1c0-2.4-1.5-4.1-3.9-4.6c-0.2,0-0.4-0.1-0.7-0.1c-0.2,0-0.4-0.1-0.4-0.3s0-0.4,0.1-0.5l4-4.1v-1.9H38.5
					v3.1h4.9c0.2,0,0.4,0.1,0.4,0.3c0.1,0.2,0,0.4-0.1,0.5l-3.7,3.8l1.4,1c0.5-0.2,1.3-0.6,2.2-0.6c2.1,0,3.2,1,3.2,2.7
					c0,1.3-1.1,2.6-3.1,2.6h-0.2c-1.2,0-2.4-0.2-4.3-1.4L37.2,33z"/>
			</g>
		</g>
	</g>
	<g>
		<g>
			<path fill="#201600" d="M70.9,18.4v7.1h-1.2v-7.1h-3v-1.2h7.1v1.2H70.9z"/>
			<path fill="#201600" d="M71,25.5h-1.3v-7.1h-3v-1.4h7.2v1.4H71V25.5z M69.8,25.4h1v-7.1h2.9v-1.1h-6.9v1.1h3V25.4z"/>
		</g>
		<g>
			<path fill="#201600" d="M73.8,25.5v-5.8h3.7c0.3,0,0.5,0,0.8,0.1c0.2,0.1,0.4,0.2,0.6,0.4c0.2,0.2,0.3,0.4,0.4,0.6
				c0.1,0.2,0.1,0.5,0.1,0.7c0,0.6-0.2,1-0.5,1.4c-0.4,0.3-0.9,0.5-1.5,0.5h-0.5c-0.3,0-0.5,0-0.7,0c-0.2,0-0.3,0-0.5,0.1
				c-0.1,0-0.2,0.1-0.3,0.1c-0.1,0-0.2,0.1-0.3,0.2v1.7H73.8z M75,22.6c0.3-0.1,0.5-0.2,0.8-0.3c0.3,0,0.6-0.1,1-0.1h0.5
				c0.3,0,0.5,0,0.7-0.1c0.2-0.1,0.2-0.3,0.2-0.6c0-0.1,0-0.3-0.1-0.3C78.1,21.1,78,21,77.9,21c-0.1,0-0.2-0.1-0.3-0.1
				c-0.1,0-0.2,0-0.3,0H75V22.6z"/>
			<path fill="#201600" d="M75,25.5h-1.3v-5.9h3.7c0.3,0,0.5,0,0.8,0.1c0.2,0.1,0.4,0.2,0.6,0.4c0.2,0.2,0.3,0.4,0.4,0.6
				c0.1,0.2,0.1,0.5,0.1,0.8c0,0.6-0.2,1.1-0.6,1.4c-0.4,0.3-0.9,0.5-1.6,0.5h-0.5c-0.3,0-0.5,0-0.7,0c-0.2,0-0.3,0-0.4,0
				c-0.1,0-0.2,0.1-0.3,0.1c-0.1,0-0.2,0.1-0.3,0.1V25.5z M73.9,25.4h1v-1.7l0,0c0.1-0.1,0.2-0.1,0.3-0.2c0.1,0,0.2-0.1,0.4-0.1
				c0.1,0,0.3,0,0.5-0.1c0.2,0,0.4,0,0.7,0h0.5c0.6,0,1.1-0.2,1.5-0.5c0.3-0.3,0.5-0.8,0.5-1.3c0-0.3,0-0.5-0.1-0.7
				c-0.1-0.2-0.2-0.4-0.4-0.6c-0.2-0.2-0.3-0.3-0.6-0.4c-0.2-0.1-0.5-0.1-0.7-0.1h-3.6V25.4z M74.9,22.7v-1.9h2.4c0.1,0,0.2,0,0.4,0
				c0.1,0,0.2,0.1,0.3,0.1c0.1,0.1,0.2,0.1,0.2,0.2c0.1,0.1,0.1,0.2,0.1,0.4c0,0.3-0.1,0.5-0.3,0.6c-0.2,0.1-0.4,0.1-0.7,0.1h-0.5
				c-0.3,0-0.7,0-1,0.1c-0.3,0-0.6,0.1-0.8,0.3L74.9,22.7z M75,20.9v1.5c0.2-0.1,0.5-0.2,0.8-0.2c0.3,0,0.6-0.1,1-0.1h0.5
				c0.3,0,0.5,0,0.6-0.1c0.1-0.1,0.2-0.3,0.2-0.5c0-0.1,0-0.2-0.1-0.3c0-0.1-0.1-0.1-0.2-0.2c-0.1,0-0.2-0.1-0.3-0.1
				c-0.1,0-0.2,0-0.3,0H75z"/>
		</g>
		<g>
			<path fill="#201600" d="M81.9,24.3h3.6v1.2h-4.7v-5.8h4.5v1.1h-3.4v1.4c0.3-0.1,0.5-0.2,0.8-0.3c0.3,0,0.6-0.1,1-0.1h0.8v1.1
				h-0.8c-0.3,0-0.5,0-0.7,0c-0.2,0-0.3,0-0.4,0c-0.1,0-0.2,0.1-0.3,0.1c-0.1,0-0.2,0.1-0.3,0.2V24.3z"/>
			<path fill="#201600" d="M85.6,25.5h-4.9v-5.9h4.7v1.3H82v1.2c0.2-0.1,0.5-0.2,0.8-0.2c0.3,0,0.6-0.1,1-0.1h0.9v1.3h-0.9
				c-0.3,0-0.5,0-0.7,0c-0.2,0-0.3,0-0.4,0c-0.1,0-0.2,0.1-0.3,0.1c-0.1,0-0.2,0.1-0.3,0.1v0.8h3.6V25.5z M80.8,25.4h4.6v-1h-3.6v-1
				l0,0c0.1-0.1,0.2-0.1,0.3-0.2c0.1,0,0.2-0.1,0.4-0.1c0.1,0,0.3,0,0.5-0.1c0.2,0,0.4,0,0.7,0h0.8v-1h-0.8c-0.3,0-0.6,0-1,0.1
				c-0.3,0-0.6,0.1-0.8,0.3l-0.1,0.1v-1.6h3.4v-1h-4.4V25.4z"/>
		</g>
		<g>
			<path fill="#201600" d="M89.7,20.9v4.6h-1.1v-4.6h-2.1v-1.1h5.4v1.1H89.7z"/>
			<path fill="#201600" d="M89.8,25.5h-1.3v-4.6h-2.1v-1.3h5.5v1.3h-2.2V25.5z M88.6,25.4h1v-4.6h2.2v-1h-5.3v1h2.1V25.4z"/>
		</g>
		<g>
			<path fill="#201600" d="M94.3,21.5c0.1,0.1,0.2,0.1,0.3,0.2c0.1,0,0.2,0.1,0.3,0.1c0.1,0,0.3,0,0.4,0c0.2,0,0.4,0,0.7,0h0.6
				c0.3,0,0.6,0,0.8,0.1c0.2,0.1,0.5,0.2,0.6,0.3c0.2,0.1,0.3,0.3,0.4,0.6c0.1,0.2,0.2,0.5,0.2,0.8c0,0.3-0.1,0.6-0.2,0.8
				c-0.1,0.2-0.3,0.4-0.4,0.6c-0.2,0.1-0.4,0.3-0.6,0.3c-0.2,0.1-0.5,0.1-0.8,0.1h-3.5v-5.8h1.1V21.5z M96.7,24.3c0.1,0,0.2,0,0.3,0
				c0.1,0,0.2-0.1,0.3-0.1c0.1,0,0.1-0.1,0.2-0.2c0.1-0.1,0.1-0.2,0.1-0.3c0-0.1,0-0.2-0.1-0.3c-0.1-0.1-0.1-0.2-0.2-0.2
				c-0.1,0-0.2-0.1-0.3-0.1c-0.1,0-0.2,0-0.3,0h-0.6c-0.3,0-0.7,0-1-0.1c-0.3,0-0.6-0.1-0.8-0.3v1.6H96.7z"/>
			<path fill="#201600" d="M96.7,25.5h-3.6v-5.9h1.3v1.8c0.1,0.1,0.2,0.1,0.3,0.1c0.1,0,0.2,0.1,0.3,0.1c0.1,0,0.3,0,0.4,0
				c0.2,0,0.4,0,0.7,0h0.6c0.3,0,0.6,0,0.8,0.1c0.3,0.1,0.5,0.2,0.7,0.4c0.2,0.2,0.3,0.4,0.5,0.6c0.1,0.2,0.2,0.5,0.2,0.8
				c0,0.3-0.1,0.6-0.2,0.8c-0.1,0.2-0.3,0.4-0.5,0.6c-0.2,0.2-0.4,0.3-0.7,0.3C97.2,25.5,97,25.5,96.7,25.5z M93.2,25.4h3.5
				c0.3,0,0.5,0,0.8-0.1c0.2-0.1,0.4-0.2,0.6-0.3c0.2-0.1,0.3-0.3,0.4-0.5c0.1-0.2,0.2-0.5,0.2-0.8c0-0.3-0.1-0.5-0.2-0.8
				c-0.1-0.2-0.2-0.4-0.4-0.5c-0.2-0.1-0.4-0.3-0.6-0.3c-0.2-0.1-0.5-0.1-0.8-0.1h-0.6c-0.3,0-0.5,0-0.7,0c-0.2,0-0.3,0-0.5-0.1
				c-0.1,0-0.3-0.1-0.4-0.1c-0.1,0-0.2-0.1-0.3-0.2l0,0v-1.8h-1V25.4z M96.7,24.4h-2.5v-1.8l0.1,0.1c0.2,0.1,0.5,0.2,0.8,0.3
				c0.3,0,0.6,0.1,1,0.1h0.6c0.1,0,0.2,0,0.3,0c0.1,0,0.2,0.1,0.3,0.1c0.1,0.1,0.2,0.1,0.2,0.2c0.1,0.1,0.1,0.2,0.1,0.4
				c0,0.2,0,0.3-0.1,0.4c-0.1,0.1-0.1,0.2-0.2,0.2c-0.1,0.1-0.2,0.1-0.3,0.1C96.9,24.4,96.8,24.4,96.7,24.4z M94.4,24.2h2.3
				c0.1,0,0.2,0,0.3,0c0.1,0,0.2,0,0.3-0.1c0.1,0,0.1-0.1,0.2-0.2c0-0.1,0.1-0.2,0.1-0.3c0-0.1,0-0.2-0.1-0.3c0-0.1-0.1-0.1-0.2-0.2
				c-0.1,0-0.2-0.1-0.3-0.1c-0.1,0-0.2,0-0.3,0h-0.6c-0.3,0-0.7,0-1-0.1c-0.3,0-0.5-0.1-0.8-0.2V24.2z"/>
		</g>
		<g>
			<path fill="#201600" d="M102,24.6c-0.1,0.2-0.3,0.4-0.4,0.5c-0.1,0.1-0.3,0.2-0.4,0.3c-0.1,0.1-0.3,0.1-0.4,0.1
				c-0.2,0-0.3,0-0.5,0h-0.5v-1.2h0.6c0.1,0,0.2,0,0.3-0.1c0.1-0.1,0.3-0.2,0.4-0.5l0.2-0.4c-0.5-0.1-0.9-0.3-1.1-0.6
				c-0.2-0.3-0.4-0.7-0.4-1.2c0-0.3,0-0.5,0.1-0.7c0.1-0.2,0.2-0.4,0.4-0.6c0.2-0.2,0.4-0.3,0.6-0.4c0.2-0.1,0.5-0.1,0.8-0.1h3.5
				v5.8h-1.2v-1.7c-0.1-0.1-0.2-0.1-0.3-0.2c-0.1,0-0.2-0.1-0.3-0.1c-0.1,0-0.2-0.1-0.4-0.1c-0.1,0-0.3,0-0.5,0L102,24.6z
				 M104.2,20.9l-1.9,0c-0.1,0-0.2,0-0.4,0c-0.1,0-0.2,0-0.3,0.1c-0.1,0-0.2,0.1-0.2,0.2c-0.1,0.1-0.1,0.2-0.1,0.4
				c0,0.2,0,0.3,0.1,0.4c0.1,0.1,0.1,0.2,0.2,0.2c0.1,0,0.2,0.1,0.3,0.1c0.1,0,0.2,0,0.4,0c0.4,0,0.8,0,1.1,0.1
				c0.3,0,0.6,0.1,0.9,0.3V20.9z"/>
			<path fill="#201600" d="M105.5,25.5h-1.3v-1.7c-0.1-0.1-0.2-0.1-0.3-0.1c-0.1,0-0.2-0.1-0.3-0.1c-0.1,0-0.2-0.1-0.4-0.1
				c-0.1,0-0.3,0-0.5,0l-0.6,1.1c-0.1,0.2-0.3,0.4-0.4,0.5c-0.1,0.1-0.3,0.2-0.4,0.3c-0.1,0.1-0.3,0.1-0.5,0.1c-0.2,0-0.3,0-0.5,0
				h-0.6v-1.3h0.7c0.1,0,0.2,0,0.3-0.1c0.1-0.1,0.2-0.2,0.4-0.5l0.2-0.3c-0.5-0.1-0.8-0.3-1-0.6c-0.3-0.3-0.4-0.7-0.4-1.2
				c0-0.3,0.1-0.5,0.1-0.8c0.1-0.2,0.2-0.4,0.4-0.6c0.2-0.2,0.4-0.3,0.6-0.4c0.2-0.1,0.5-0.1,0.8-0.1h3.6V25.5z M104.3,25.4h1v-5.6
				h-3.5c-0.3,0-0.5,0-0.8,0.1c-0.2,0.1-0.4,0.2-0.6,0.4c-0.2,0.2-0.3,0.3-0.4,0.6c-0.1,0.2-0.1,0.5-0.1,0.7c0,0.4,0.1,0.8,0.4,1.1
				c0.2,0.3,0.6,0.5,1.1,0.6l0.1,0l-0.3,0.4c-0.2,0.3-0.3,0.4-0.4,0.5c-0.1,0.1-0.3,0.1-0.4,0.1h-0.5v1h0.4c0.2,0,0.3,0,0.5,0
				c0.1,0,0.3,0,0.4-0.1c0.1-0.1,0.3-0.1,0.4-0.3c0.1-0.1,0.2-0.3,0.4-0.5l0.7-1.2l0,0c0.2,0,0.4,0,0.5,0c0.1,0,0.3,0,0.4,0.1
				c0.1,0,0.2,0.1,0.3,0.1c0.1,0,0.2,0.1,0.3,0.2l0,0V25.4z M104.3,22.7l-0.1-0.1c-0.2-0.1-0.5-0.2-0.8-0.3c-0.3,0-0.7-0.1-1.1-0.1
				c-0.1,0-0.3,0-0.4,0c-0.1,0-0.3,0-0.4-0.1c-0.1-0.1-0.2-0.1-0.3-0.2c-0.1-0.1-0.1-0.2-0.1-0.4c0-0.2,0-0.3,0.1-0.4
				c0.1-0.1,0.2-0.2,0.3-0.2c0.1-0.1,0.2-0.1,0.4-0.1c0.1,0,0.3,0,0.4,0h0l2,0V22.7z M102.3,20.9c-0.1,0-0.2,0-0.4,0
				c-0.1,0-0.2,0-0.3,0.1c-0.1,0-0.2,0.1-0.2,0.2c-0.1,0.1-0.1,0.2-0.1,0.3c0,0.1,0,0.3,0.1,0.3c0.1,0.1,0.1,0.1,0.2,0.2
				c0.1,0,0.2,0.1,0.3,0.1c0.1,0,0.2,0,0.4,0c0.4,0,0.8,0,1.1,0.1c0.3,0,0.5,0.1,0.8,0.2v-1.5L102.3,20.9z"/>
		</g>
		<g>
			<path fill="#201600" d="M74,31.8c0,0.5-0.1,0.9-0.3,1.3c-0.2,0.4-0.4,0.7-0.8,1c-0.3,0.3-0.7,0.5-1.1,0.6
				c-0.4,0.1-0.8,0.2-1.3,0.2c-0.4,0-0.9-0.1-1.3-0.2c-0.4-0.1-0.8-0.3-1.1-0.6c-0.3-0.3-0.6-0.6-0.8-1c-0.2-0.4-0.3-0.8-0.3-1.3
				c0-0.5,0.1-0.9,0.3-1.3c0.2-0.4,0.4-0.7,0.8-1c0.3-0.3,0.7-0.5,1.1-0.6c0.4-0.1,0.8-0.2,1.3-0.2c0.4,0,0.9,0.1,1.3,0.2
				c0.4,0.1,0.8,0.3,1.1,0.6c0.3,0.3,0.6,0.6,0.8,0.9C73.9,30.9,74,31.3,74,31.8z M72.8,31.8c0-0.3-0.1-0.6-0.2-0.8
				c-0.1-0.2-0.3-0.4-0.5-0.6c-0.2-0.2-0.4-0.3-0.7-0.3C71.2,30,70.9,30,70.6,30c-0.3,0-0.6,0-0.8,0.1c-0.3,0.1-0.5,0.2-0.7,0.3
				c-0.2,0.2-0.4,0.4-0.5,0.6c-0.1,0.2-0.2,0.5-0.2,0.8c0,0.3,0.1,0.6,0.2,0.8c0.1,0.2,0.3,0.4,0.5,0.6c0.2,0.2,0.4,0.3,0.7,0.3
				c0.3,0.1,0.5,0.1,0.8,0.1c0.3,0,0.5,0,0.8-0.1c0.3-0.1,0.5-0.2,0.7-0.4c0.2-0.2,0.4-0.4,0.5-0.6C72.8,32.4,72.8,32.1,72.8,31.8z"
				/>
			<path fill="#201600" d="M70.6,35c-0.4,0-0.9-0.1-1.3-0.2c-0.4-0.1-0.8-0.3-1.1-0.6c-0.3-0.3-0.6-0.6-0.8-1
				c-0.2-0.4-0.3-0.8-0.3-1.3c0-0.5,0.1-0.9,0.3-1.3c0.2-0.4,0.5-0.7,0.8-1c0.3-0.3,0.7-0.5,1.1-0.6c0.8-0.3,1.7-0.3,2.6,0
				c0.4,0.1,0.8,0.3,1.1,0.6c0.3,0.3,0.6,0.6,0.8,1c0.2,0.4,0.3,0.8,0.3,1.3c0,0.5-0.1,0.9-0.3,1.3c-0.2,0.4-0.5,0.7-0.8,1
				c-0.3,0.3-0.7,0.5-1.1,0.6C71.5,34.9,71.1,35,70.6,35z M70.6,28.9c-0.4,0-0.8,0.1-1.2,0.2c-0.4,0.1-0.8,0.3-1.1,0.6
				c-0.3,0.3-0.6,0.6-0.7,0.9c-0.2,0.4-0.3,0.8-0.3,1.3c0,0.5,0.1,0.9,0.3,1.3c0.2,0.4,0.4,0.7,0.7,0.9c0.3,0.3,0.7,0.5,1.1,0.6
				c0.8,0.3,1.7,0.3,2.5,0c0.4-0.1,0.8-0.3,1.1-0.6c0.3-0.3,0.6-0.6,0.7-1c0.2-0.4,0.3-0.8,0.3-1.3c0-0.5-0.1-0.9-0.3-1.3
				c-0.2-0.4-0.4-0.7-0.7-0.9c-0.3-0.2-0.7-0.4-1.1-0.6C71.5,28.9,71,28.9,70.6,28.9z M70.6,33.8c-0.3,0-0.6,0-0.8-0.1
				c-0.3-0.1-0.5-0.2-0.7-0.4c-0.2-0.2-0.4-0.4-0.5-0.6c-0.1-0.2-0.2-0.5-0.2-0.9c0-0.3,0.1-0.6,0.2-0.9c0.1-0.2,0.3-0.5,0.5-0.6
				c0.2-0.2,0.5-0.3,0.7-0.4c0.5-0.1,1.1-0.2,1.7,0c0.3,0.1,0.5,0.2,0.7,0.3c0.2,0.2,0.4,0.4,0.5,0.6c0.1,0.2,0.2,0.5,0.2,0.9
				c0,0.3-0.1,0.6-0.2,0.9c-0.1,0.2-0.3,0.5-0.5,0.6c-0.2,0.2-0.5,0.3-0.7,0.4C71.2,33.8,70.9,33.8,70.6,33.8z M70.6,30
				c-0.3,0-0.5,0-0.8,0.1c-0.3,0.1-0.5,0.2-0.7,0.3c-0.2,0.1-0.4,0.3-0.5,0.6c-0.1,0.2-0.2,0.5-0.2,0.8c0,0.3,0.1,0.6,0.2,0.8
				c0.1,0.2,0.3,0.4,0.5,0.6c0.2,0.1,0.4,0.3,0.7,0.3c0.5,0.1,1.1,0.2,1.6,0c0.2-0.1,0.5-0.2,0.7-0.4c0.2-0.2,0.4-0.4,0.5-0.6
				c0.1-0.2,0.2-0.5,0.2-0.8c0-0.3-0.1-0.6-0.2-0.8c-0.1-0.2-0.3-0.4-0.5-0.6c-0.2-0.1-0.4-0.3-0.7-0.3C71.2,30.1,70.9,30,70.6,30z"
				/>
		</g>
		<g>
			<path fill="#201600" d="M80.3,29v5.8h-1.1v-2.1c-0.2,0.1-0.5,0.2-0.7,0.2c-0.2,0-0.5,0.1-0.8,0.1c-0.4,0-0.7,0-1.1-0.1
				c-0.3-0.1-0.6-0.2-0.8-0.3c-0.2-0.1-0.4-0.3-0.5-0.6c-0.1-0.2-0.2-0.5-0.2-0.9c0-0.3,0-0.7,0-1c0-0.3,0.1-0.7,0.2-1h1.1
				c-0.1,0.3-0.1,0.6-0.2,0.8c0,0.3,0,0.5,0,0.8c0,0.4,0.1,0.7,0.3,0.9c0.2,0.2,0.6,0.2,1.1,0.2c0.1,0,0.3,0,0.4,0
				c0.1,0,0.2,0,0.3,0c0.1,0,0.2-0.1,0.3-0.1c0.1,0,0.3-0.1,0.4-0.1V29H80.3z"/>
			<path fill="#201600" d="M80.4,34.8h-1.3v-2.1c-0.2,0.1-0.4,0.1-0.6,0.2c-0.2,0-0.5,0.1-0.8,0.1c-0.4,0-0.8,0-1.1-0.1
				c-0.3-0.1-0.6-0.2-0.8-0.3c-0.2-0.2-0.4-0.4-0.5-0.6c-0.1-0.3-0.2-0.6-0.2-0.9c0-0.3,0-0.7,0-1c0-0.3,0.1-0.7,0.2-1l0-0.1h1.3
				l0,0.1c-0.1,0.3-0.1,0.6-0.2,0.8c0,0.3,0,0.5,0,0.8c0,0.4,0.1,0.7,0.3,0.8c0.2,0.1,0.6,0.2,1.1,0.2c0.1,0,0.2,0,0.4,0
				c0.1,0,0.2,0,0.3,0c0.1,0,0.2,0,0.3-0.1c0.1,0,0.2-0.1,0.4-0.1v-2.5h1.3V34.8z M79.3,34.7h1V29h-1v2.5l0,0
				c-0.2,0.1-0.3,0.1-0.4,0.1c-0.1,0-0.2,0.1-0.3,0.1c-0.1,0-0.2,0-0.3,0c-0.1,0-0.2,0-0.4,0c-0.5,0-0.9-0.1-1.2-0.2
				c-0.2-0.2-0.4-0.5-0.4-0.9c0-0.3,0-0.6,0.1-0.8c0-0.2,0.1-0.5,0.2-0.8h-1c-0.1,0.3-0.1,0.6-0.2,0.9c0,0.3,0,0.7,0,1
				c0,0.3,0.1,0.6,0.2,0.9c0.1,0.2,0.3,0.4,0.5,0.6c0.2,0.1,0.5,0.2,0.8,0.3c0.3,0.1,0.7,0.1,1.1,0.1c0.3,0,0.6,0,0.8-0.1
				c0.2,0,0.4-0.1,0.7-0.2l0.1,0V34.7z"/>
		</g>
		<g>
			<path fill="#201600" d="M83.5,33.6h3.6v1.2h-4.7V29h4.5v1.1h-3.4v1.4c0.3-0.1,0.5-0.2,0.8-0.3c0.3,0,0.6-0.1,1-0.1h0.8v1.1h-0.8
				c-0.3,0-0.5,0-0.7,0c-0.2,0-0.3,0-0.4,0c-0.1,0-0.2,0.1-0.3,0.1c-0.1,0-0.2,0.1-0.3,0.2V33.6z"/>
			<path fill="#201600" d="M87.2,34.8h-4.9v-5.9H87v1.3h-3.4v1.2c0.2-0.1,0.5-0.2,0.8-0.2c0.3,0,0.6-0.1,1-0.1h0.9v1.3h-0.9
				c-0.3,0-0.5,0-0.7,0c-0.2,0-0.3,0-0.4,0c-0.1,0-0.2,0.1-0.3,0.1c-0.1,0-0.2,0.1-0.3,0.1v0.8h3.6V34.8z M82.4,34.7H87v-1h-3.6v-1
				l0,0c0.1-0.1,0.2-0.1,0.3-0.2c0.1,0,0.2-0.1,0.4-0.1c0.1,0,0.3,0,0.5-0.1c0.2,0,0.4,0,0.7,0h0.8v-1h-0.8c-0.3,0-0.6,0-1,0.1
				c-0.3,0-0.6,0.1-0.8,0.3l-0.1,0.1V30h3.4v-1h-4.4V34.7z"/>
		</g>
		<g>
			<path fill="#201600" d="M88.7,34.7V29h3.7c0.3,0,0.5,0,0.8,0.1c0.2,0.1,0.4,0.2,0.6,0.4c0.2,0.2,0.3,0.4,0.4,0.6
				c0.1,0.2,0.1,0.5,0.1,0.7c0,0.6-0.2,1-0.5,1.4c-0.4,0.3-0.9,0.5-1.5,0.5h-0.5c-0.3,0-0.5,0-0.7,0c-0.2,0-0.3,0-0.5,0.1
				c-0.1,0-0.2,0.1-0.3,0.1c-0.1,0-0.2,0.1-0.3,0.2v1.7H88.7z M89.8,31.8c0.3-0.1,0.5-0.2,0.8-0.3c0.3,0,0.6-0.1,1-0.1h0.5
				c0.3,0,0.5,0,0.7-0.1c0.2-0.1,0.2-0.3,0.2-0.6c0-0.1,0-0.3-0.1-0.3c-0.1-0.1-0.1-0.2-0.2-0.2c-0.1,0-0.2-0.1-0.3-0.1
				c-0.1,0-0.2,0-0.3,0h-2.3V31.8z"/>
			<path fill="#201600" d="M89.9,34.8h-1.3v-5.9h3.7c0.3,0,0.5,0,0.8,0.1c0.2,0.1,0.4,0.2,0.6,0.4c0.2,0.2,0.3,0.4,0.4,0.6
				c0.1,0.2,0.1,0.5,0.1,0.8c0,0.6-0.2,1.1-0.6,1.4c-0.4,0.3-0.9,0.5-1.6,0.5h-0.5c-0.3,0-0.5,0-0.7,0c-0.2,0-0.3,0-0.4,0
				c-0.1,0-0.2,0.1-0.3,0.1c-0.1,0-0.2,0.1-0.3,0.1V34.8z M88.7,34.7h1v-1.7l0,0c0.1-0.1,0.2-0.1,0.3-0.2c0.1,0,0.2-0.1,0.4-0.1
				c0.1,0,0.3,0,0.5-0.1c0.2,0,0.4,0,0.7,0h0.5c0.6,0,1.1-0.2,1.5-0.5c0.3-0.3,0.5-0.8,0.5-1.3c0-0.3,0-0.5-0.1-0.7
				c-0.1-0.2-0.2-0.4-0.4-0.6c-0.2-0.2-0.3-0.3-0.6-0.4c-0.2-0.1-0.5-0.1-0.7-0.1h-3.6V34.7z M89.7,32V30h2.4c0.1,0,0.2,0,0.4,0
				c0.1,0,0.2,0.1,0.3,0.1c0.1,0.1,0.2,0.1,0.2,0.2c0.1,0.1,0.1,0.2,0.1,0.4c0,0.3-0.1,0.5-0.3,0.6c-0.2,0.1-0.4,0.1-0.7,0.1h-0.5
				c-0.3,0-0.7,0-1,0.1c-0.3,0-0.6,0.1-0.8,0.3L89.7,32z M89.9,30.2v1.5c0.2-0.1,0.5-0.2,0.8-0.2c0.3,0,0.6-0.1,1-0.1h0.5
				c0.3,0,0.5,0,0.6-0.1c0.1-0.1,0.2-0.3,0.2-0.5c0-0.1,0-0.2-0.1-0.3c0-0.1-0.1-0.1-0.2-0.2c-0.1,0-0.2-0.1-0.3-0.1
				c-0.1,0-0.2,0-0.3,0H89.9z"/>
		</g>
		<g>
			<path fill="#201600" d="M96.8,33.6h3.6v1.2h-4.7V29h4.5v1.1h-3.4v1.4c0.3-0.1,0.5-0.2,0.8-0.3c0.3,0,0.6-0.1,1-0.1h0.8v1.1h-0.8
				c-0.3,0-0.5,0-0.7,0c-0.2,0-0.3,0-0.4,0c-0.1,0-0.2,0.1-0.3,0.1c-0.1,0-0.2,0.1-0.3,0.2V33.6z"/>
			<path fill="#201600" d="M100.4,34.8h-4.9v-5.9h4.7v1.3h-3.4v1.2c0.2-0.1,0.5-0.2,0.8-0.2c0.3,0,0.6-0.1,1-0.1h0.9v1.3h-0.9
				c-0.3,0-0.5,0-0.7,0c-0.2,0-0.3,0-0.4,0c-0.1,0-0.2,0.1-0.3,0.1c-0.1,0-0.2,0.1-0.3,0.1v0.8h3.6V34.8z M95.7,34.7h4.6v-1h-3.6v-1
				l0,0c0.1-0.1,0.2-0.1,0.3-0.2c0.1,0,0.2-0.1,0.4-0.1c0.1,0,0.3,0,0.5-0.1c0.2,0,0.4,0,0.7,0h0.8v-1h-0.8c-0.3,0-0.6,0-1,0.1
				c-0.3,0-0.6,0.1-0.8,0.3l-0.1,0.1V30h3.4v-1h-4.4V34.7z"/>
		</g>
		<g>
			<path fill="#201600" d="M107.3,36v-1.3h-4.8V36h-1.2v-2.4h1.1c0.3-0.3,0.5-0.7,0.7-1c0.2-0.3,0.3-0.6,0.4-0.9
				c0.1-0.3,0.2-0.6,0.2-0.8c0.1-0.3,0.1-0.5,0.2-0.7h-0.9l-0.5-1.1h5.2v4.6h0.7V36H107.3z M106.6,33.6v-3.5h-1.5
				c-0.1,0.3-0.1,0.6-0.2,0.9c-0.1,0.3-0.2,0.6-0.3,0.9c-0.1,0.3-0.2,0.6-0.3,0.9c-0.1,0.3-0.3,0.5-0.4,0.7H106.6z"/>
			<path fill="#201600" d="M108.6,36.1h-1.3v-1.3h-4.6v1.3h-1.3v-2.6h1.1c0.3-0.3,0.5-0.7,0.6-1c0.2-0.3,0.3-0.6,0.4-0.9
				c0.1-0.3,0.2-0.6,0.2-0.8c0-0.2,0.1-0.5,0.1-0.7H103l-0.6-1.3h5.4v4.6h0.7V36.1z M107.4,35.9h1v-2.3h-0.7V29h-5.1l0.4,1h1l0,0.1
				c-0.1,0.2-0.1,0.5-0.2,0.7c-0.1,0.3-0.1,0.5-0.2,0.8c-0.1,0.3-0.2,0.6-0.4,0.9c-0.2,0.3-0.4,0.7-0.7,1l0,0h-1.1v2.3h1v-1.3h4.9
				V35.9z M106.7,33.6h-2.9l0.1-0.1c0.2-0.2,0.3-0.4,0.4-0.7c0.1-0.3,0.2-0.6,0.3-0.9c0.1-0.3,0.2-0.6,0.3-0.9
				c0.1-0.3,0.2-0.6,0.2-0.9l0-0.1h1.6V33.6z M104,33.5h2.5v-3.3h-1.4c-0.1,0.3-0.1,0.6-0.2,0.9c-0.1,0.3-0.2,0.6-0.3,0.9
				c-0.1,0.3-0.2,0.6-0.3,0.9C104.3,33.1,104.2,33.3,104,33.5z"/>
		</g>
		<g>
			<path fill="#201600" d="M111.2,30.8c0.1,0.1,0.2,0.1,0.3,0.2c0.1,0,0.2,0.1,0.3,0.1c0.1,0,0.3,0,0.4,0c0.2,0,0.4,0,0.7,0h0.6
				c0.3,0,0.6,0,0.8,0.1c0.2,0.1,0.5,0.2,0.6,0.3c0.2,0.1,0.3,0.3,0.4,0.6c0.1,0.2,0.2,0.5,0.2,0.8c0,0.3-0.1,0.6-0.2,0.8
				c-0.1,0.2-0.3,0.4-0.4,0.6c-0.2,0.1-0.4,0.3-0.6,0.3c-0.2,0.1-0.5,0.1-0.8,0.1H110V29h1.1V30.8z M113.6,33.6c0.1,0,0.2,0,0.3,0
				c0.1,0,0.2-0.1,0.3-0.1c0.1,0,0.1-0.1,0.2-0.2c0.1-0.1,0.1-0.2,0.1-0.3c0-0.1,0-0.2-0.1-0.3c-0.1-0.1-0.1-0.2-0.2-0.2
				c-0.1,0-0.2-0.1-0.3-0.1c-0.1,0-0.2,0-0.3,0H113c-0.3,0-0.7,0-1-0.1c-0.3,0-0.6-0.1-0.8-0.3v1.6H113.6z"/>
			<path fill="#201600" d="M113.6,34.8h-3.6v-5.9h1.3v1.8c0.1,0.1,0.2,0.1,0.3,0.1c0.1,0,0.2,0.1,0.3,0.1c0.1,0,0.3,0,0.4,0
				c0.2,0,0.4,0,0.7,0h0.6c0.3,0,0.6,0,0.8,0.1c0.3,0.1,0.5,0.2,0.7,0.4c0.2,0.2,0.3,0.4,0.5,0.6c0.1,0.2,0.2,0.5,0.2,0.8
				c0,0.3-0.1,0.6-0.2,0.8c-0.1,0.2-0.3,0.4-0.5,0.6c-0.2,0.2-0.4,0.3-0.7,0.3C114.1,34.8,113.8,34.8,113.6,34.8z M110.1,34.7h3.5
				c0.3,0,0.5,0,0.8-0.1c0.2-0.1,0.4-0.2,0.6-0.3c0.2-0.1,0.3-0.3,0.4-0.5c0.1-0.2,0.2-0.5,0.2-0.8c0-0.3-0.1-0.5-0.2-0.8
				c-0.1-0.2-0.2-0.4-0.4-0.5c-0.2-0.1-0.4-0.3-0.6-0.3c-0.2-0.1-0.5-0.1-0.8-0.1H113c-0.3,0-0.5,0-0.7,0c-0.2,0-0.3,0-0.5-0.1
				c-0.1,0-0.3-0.1-0.4-0.1c-0.1,0-0.2-0.1-0.3-0.2l0,0V29h-1V34.7z M113.6,33.6h-2.5v-1.8l0.1,0.1c0.2,0.1,0.5,0.2,0.8,0.3
				c0.3,0,0.6,0.1,1,0.1h0.6c0.1,0,0.2,0,0.3,0c0.1,0,0.2,0.1,0.3,0.1c0.1,0.1,0.2,0.1,0.2,0.2c0.1,0.1,0.1,0.2,0.1,0.4
				c0,0.2,0,0.3-0.1,0.4c-0.1,0.1-0.1,0.2-0.2,0.2c-0.1,0.1-0.2,0.1-0.3,0.1C113.8,33.6,113.7,33.6,113.6,33.6z M111.2,33.5h2.3
				c0.1,0,0.2,0,0.3,0c0.1,0,0.2,0,0.3-0.1c0.1,0,0.1-0.1,0.2-0.2c0-0.1,0.1-0.2,0.1-0.3c0-0.1,0-0.2-0.1-0.3c0-0.1-0.1-0.1-0.2-0.2
				c-0.1,0-0.2-0.1-0.3-0.1c-0.1,0-0.2,0-0.3,0H113c-0.3,0-0.7,0-1-0.1c-0.3,0-0.5-0.1-0.8-0.2V33.5z"/>
		</g>
	</g>
</g>
</svg>
